<svg width="52" height="50" viewBox="0 0 52 50" fill="none" xmlns="http://www.w3.org/2000/svg">
<path d="M33.0137 18.7903V29.0121H30.0468V41.1593H21.9637V29.0222H18.9968V18.7903C18.9968 18.3468 19.1645 17.9637 19.479 17.6512C19.804 17.3387 20.2024 17.1774 20.6637 17.1774H31.3468C31.7766 17.1774 32.1645 17.3387 32.5105 17.6512C32.8355 17.9738 33.0137 18.3468 33.0137 18.7903ZM22.3726 12.369C22.3726 10.0202 23.5782 8.84073 25.9895 8.84073C28.4008 8.84073 29.6065 10.0202 29.6065 12.369C29.6065 14.6875 28.4008 15.8468 25.9895 15.8468C23.5782 15.8468 22.3726 14.6875 22.3726 12.369ZM25.9581 0C40.8242 0 52 11.0988 52 25C52 39.8286 39.5766 50 25.9581 50C11.9097 50 0 38.9617 0 25C0 11.6028 10.9766 0 25.9581 0ZM26.0419 4.50605C13.65 4.50605 4.68629 14.375 4.68629 25C4.68629 36.0686 14.2476 45.4435 26.0419 45.4435C36.8613 45.4435 47.3032 37.2681 47.3032 25C47.3137 13.5282 37.8468 4.50605 26.0419 4.50605Z" fill="url(#paint0_linear_1542_16791)"/>
<defs>
<linearGradient id="paint0_linear_1542_16791" x1="3.27673" y1="-13.3682" x2="71.7326" y2="75.8" gradientUnits="userSpaceOnUse">
<stop stop-color="#0062FF"/>
<stop offset="0.19" stop-color="#1D8AFF"/>
<stop offset="0.46" stop-color="#41BCFF"/>
<stop offset="0.69" stop-color="#5CE0FF"/>
<stop offset="0.88" stop-color="#6CF6FF"/>
<stop offset="1" stop-color="#72FFFF"/>
</linearGradient>
</defs>
</svg>
