<svg width="22" height="14" viewBox="0 0 22 14" fill="none" xmlns="http://www.w3.org/2000/svg">
<path d="M6.82271 0.904175C7.40846 0.904175 7.95021 0.950008 8.44521 1.08567C8.94113 1.17642 9.34721 1.35792 9.70746 1.58434C10.0686 1.81167 10.339 2.12884 10.5187 2.53676C10.6993 2.94467 10.79 3.44426 10.79 3.98784C10.79 4.62309 10.6544 5.16667 10.339 5.57459C10.0686 5.98342 9.61763 6.34551 9.07679 6.61776C9.84313 6.84509 10.4289 7.25301 10.79 7.79751C11.1503 8.34109 11.3758 9.02126 11.3758 9.79217C11.3758 10.4274 11.2401 10.971 11.0146 11.4248C10.79 11.8785 10.4289 12.2864 10.0228 12.5587C9.58167 12.8505 9.09405 13.065 8.58088 13.193C8.04004 13.3296 7.49921 13.4203 6.95838 13.4203H0.916626V0.904175H6.82271ZM6.46154 5.98251C6.95746 5.98251 7.36354 5.84684 7.67888 5.62042C7.99421 5.39401 8.12988 4.98518 8.12988 4.48651C8.12988 4.21426 8.08404 3.94292 7.99421 3.76143C7.90438 3.57993 7.76871 3.44334 7.58904 3.30768C7.40846 3.21693 7.22788 3.12617 7.00238 3.08126C6.77688 3.03542 6.55229 3.03543 6.28096 3.03543H3.66663V5.98342H6.46246L6.46154 5.98251ZM6.59721 11.334C6.86763 11.334 7.13804 11.2882 7.36354 11.2433C7.58904 11.1974 7.81454 11.1076 7.99421 10.971C8.1779 10.8383 8.33157 10.6684 8.44521 10.4723C8.53504 10.2459 8.62579 9.97368 8.62579 9.65651C8.62579 9.02126 8.44521 8.56751 8.08496 8.25034C7.72379 7.97809 7.22788 7.84242 6.64213 7.84242H3.66663V11.3349L6.59721 11.334ZM15.2982 11.2882C15.6585 11.6512 16.1993 11.8327 16.9207 11.8327C17.4166 11.8327 17.8676 11.697 18.2279 11.4706C18.589 11.1983 18.8145 10.9261 18.9044 10.6548H21.1135C20.7524 11.7419 20.2115 12.5128 19.491 13.0124C18.7687 13.4653 17.9125 13.7375 16.8758 13.7375C16.2125 13.7396 15.5547 13.6164 14.937 13.3745C14.3812 13.1661 13.8856 12.8235 13.4942 12.3772C13.0756 11.9597 12.7661 11.4456 12.5931 10.8803C12.3676 10.2908 12.2769 9.65651 12.2769 8.93051C12.2769 8.25034 12.3676 7.61601 12.5931 7.02567C12.8103 6.45768 13.1314 5.93512 13.54 5.48476C13.9517 5.06203 14.4414 4.72304 14.982 4.48651C15.5839 4.24457 16.227 4.1213 16.8758 4.12351C17.6421 4.12351 18.3186 4.26009 18.9044 4.57726C19.491 4.89443 19.9411 5.25742 20.3014 5.80192C20.6625 6.30059 20.9339 6.89001 21.1135 7.52526C21.2034 8.15959 21.2483 8.79484 21.2034 9.51993H14.6666C14.6666 10.2459 14.937 10.9261 15.2982 11.2891V11.2882ZM18.138 6.52701C17.8227 6.20984 17.3268 6.02834 16.7401 6.02834C16.335 6.02834 16.0187 6.12001 15.7483 6.25567C15.4779 6.39134 15.2982 6.57284 15.1176 6.75434C14.9514 6.92958 14.8413 7.15046 14.8014 7.38867C14.7565 7.61601 14.7115 7.79751 14.7115 7.97809H18.7687C18.6789 7.29793 18.4534 6.84509 18.138 6.52701ZM14.1707 1.76584H19.2197V2.99051H14.1716V1.76584H14.1707Z" fill="white"/>
</svg>
