<svg width="18" height="18" viewBox="0 0 18 18" fill="none" xmlns="http://www.w3.org/2000/svg">
<path d="M16.2875 17.25C14.3778 17.25 12.491 16.8335 10.6271 16.0006C8.76319 15.1676 7.06736 13.9876 5.53958 12.4604C4.01181 10.9326 2.83175 9.23681 1.99942 7.37292C1.16708 5.50903 0.750611 3.62222 0.75 1.7125C0.75 1.4375 0.841667 1.20833 1.025 1.025C1.20833 0.841667 1.4375 0.75 1.7125 0.75H5.425C5.63889 0.75 5.82986 0.822722 5.99792 0.968167C6.16597 1.11361 6.26528 1.28533 6.29583 1.48333L6.89167 4.69167C6.92222 4.93611 6.91458 5.14236 6.86875 5.31042C6.82292 5.47847 6.73889 5.62361 6.61667 5.74583L4.39375 7.99167C4.69931 8.55694 5.062 9.10297 5.48183 9.62975C5.90167 10.1565 6.36397 10.6647 6.86875 11.1542C7.34236 11.6278 7.83889 12.0672 8.35833 12.4723C8.87778 12.8775 9.42778 13.2478 10.0083 13.5833L12.1625 11.4292C12.3 11.2917 12.4797 11.1884 12.7015 11.1193C12.9233 11.0503 13.1409 11.0313 13.3542 11.0625L16.5167 11.7042C16.7306 11.7653 16.9062 11.8762 17.0438 12.0369C17.1812 12.1976 17.25 12.377 17.25 12.575V16.2875C17.25 16.5625 17.1583 16.7917 16.975 16.975C16.7917 17.1583 16.5625 17.25 16.2875 17.25ZM3.52292 6.25L5.03542 4.7375L4.64583 2.58333H2.60625C2.68264 3.20972 2.78958 3.82847 2.92708 4.43958C3.06458 5.05069 3.26319 5.65417 3.52292 6.25ZM11.7271 14.4542C12.3229 14.7139 12.9304 14.9201 13.5494 15.0729C14.1685 15.2257 14.7909 15.325 15.4167 15.3708V13.3542L13.2625 12.9187L11.7271 14.4542Z" fill="white"/>
</svg>
