<svg width="72" height="65" viewBox="0 0 72 65" fill="none" xmlns="http://www.w3.org/2000/svg">
<g id="Group">
<path id="Vector (Stroke)" fill-rule="evenodd" clip-rule="evenodd" d="M27.5745 10.514C24.328 14.6375 20.7887 20.8984 15.8824 29.5981L14.669 31.7481C14.6689 31.7483 14.6692 31.7478 14.669 31.7481C10.582 38.9952 7.67689 44.1619 6.19884 48.1658C4.73974 52.1184 4.9419 54.2137 6.0689 55.8302C7.27079 57.5541 9.52703 58.7354 14.3202 59.3664C19.0938 59.9948 25.6737 60 34.7848 60H37.2115C46.3225 60 52.9025 59.9948 57.676 59.3664C62.4692 58.7354 64.7255 57.5541 65.9274 55.8302C67.0544 54.2137 67.2565 52.1184 65.7974 48.1658C64.3194 44.1619 61.4146 38.9958 57.3276 31.7487C57.3274 31.7485 57.3277 31.7489 57.3276 31.7487L56.1142 29.5987C51.208 20.8992 47.6675 14.6376 44.4206 10.5141C41.2037 6.42867 38.7055 5 35.9981 5C33.289 5 30.7907 6.42886 27.5745 10.514ZM23.6459 7.42102C27.2189 2.88281 31.004 0 35.9981 0C40.9908 0 44.7758 2.883 48.349 7.4209C51.8662 11.8878 55.5937 18.4972 60.3634 26.9547L60.4687 27.1413L61.8098 29.5179C65.7456 36.4967 68.8545 42.0092 70.488 46.4342C72.1581 50.9583 72.5552 55.0663 70.0289 58.6898C67.5775 62.2059 63.487 63.6446 58.3286 64.3236C53.1897 65.0001 46.2795 65 37.4152 65H34.581C25.7167 65 18.8065 65.0001 13.6677 64.3236C8.50922 63.6446 4.41879 62.2059 1.96735 58.6898C-0.55898 55.0663 -0.161822 50.9583 1.50824 46.4342C3.14172 42.0092 6.25063 36.4967 10.1864 29.5179L11.6445 26.934C16.4085 18.4866 20.132 11.8842 23.6459 7.42102Z" fill="#EB5757"/>
<path id="Vector (Stroke)_2" fill-rule="evenodd" clip-rule="evenodd" d="M36 16.6665C37.3807 16.6665 38.5 17.7858 38.5 19.1665V35.8332C38.5 37.2139 37.3807 38.3332 36 38.3332C34.6193 38.3332 33.5 37.2139 33.5 35.8332V19.1665C33.5 17.7858 34.6193 16.6665 36 16.6665Z" fill="#EB5757"/>
<path id="Vector" d="M35.9974 49.1667C37.8383 49.1667 39.3307 47.6743 39.3307 45.8333C39.3307 43.9924 37.8383 42.5 35.9974 42.5C34.1564 42.5 32.6641 43.9924 32.6641 45.8333C32.6641 47.6743 34.1564 49.1667 35.9974 49.1667Z" fill="#EB5757"/>
</g>
</svg>
