<svg width="106" height="106" viewBox="0 0 106 106" fill="none" xmlns="http://www.w3.org/2000/svg">
<path d="M53.4113 38.5436C53.4113 37.5447 52.5823 36.7555 51.5836 36.8055C47.5985 37.0152 43.7333 37.8943 40.0778 39.4426C38.7594 40.002 37.491 40.6314 36.2625 41.3506C35.7332 41.6603 35.4136 42.2396 35.4136 42.849V63.1773C35.4136 63.7966 35.7332 64.376 36.2625 64.6757C37.491 65.3849 38.7694 66.0242 40.0778 66.5736C43.7333 68.122 47.5985 69.011 51.5836 69.2108C52.5723 69.2608 53.4113 68.4616 53.4113 67.4727V38.5336V38.5436Z" fill="url(#paint0_linear_2371_2166)"/>
<path d="M53.4111 38.5534C53.4111 37.5545 52.5821 36.7653 51.5834 36.8152C47.5983 37.025 46.7294 37.9041 43.0739 39.4524C41.7555 40.0118 40.4871 40.6412 39.2586 41.3504C38.7292 41.6601 38.4097 42.2394 38.4097 42.8488V63.1671C38.4097 63.7864 38.7292 64.3658 39.2586 64.6655C40.4871 65.3747 41.7555 66.014 43.0739 66.5634C46.7294 68.1118 47.5983 68.9909 51.5834 69.2006C52.5721 69.2506 53.4111 68.4614 53.4111 67.4625V38.5534Z" fill="url(#paint1_linear_2371_2166)"/>
<mask id="mask0_2371_2166" style="mask-type:luminance" maskUnits="userSpaceOnUse" x="53" y="0" width="53" height="106">
<path d="M105.956 53.0078C105.956 81.4274 83.3939 104.573 55.2088 105.522C54.2201 105.552 53.4111 104.762 53.4111 103.773V89.1691C53.4111 88.2301 54.1501 87.4609 55.079 87.421C59.144 87.2312 63.0891 86.3421 66.8145 84.7638C70.9094 83.0257 74.6049 80.5383 77.771 77.3717C80.9371 74.2051 83.424 70.5191 85.1619 66.4234C86.9596 62.188 87.8585 57.6828 87.8585 53.0178C87.8585 48.3528 86.9496 43.8576 85.1619 39.6221C83.424 35.5265 80.9371 31.8404 77.771 28.6738C74.6049 25.5072 70.9094 23.0198 66.8145 21.2817C63.0891 19.7034 59.144 18.8143 55.079 18.6245C54.1501 18.5846 53.4111 17.8154 53.4111 16.8764V2.27203C53.4111 1.28309 54.23 0.48394 55.2088 0.523897C83.3939 1.47288 105.956 24.6181 105.956 53.0378V53.0078Z" fill="white"/>
</mask>
<g mask="url(#mask0_2371_2166)">
<path d="M87.8087 52.0286C87.8087 51.8887 87.8087 51.7389 87.7987 51.599C87.7987 51.5891 87.7987 51.5791 87.7987 51.5691C87.7987 51.4292 87.7888 51.2894 87.7788 51.1495C87.7788 51.1495 87.7788 51.1495 87.7788 51.1395C87.7788 50.9997 87.7688 50.8698 87.7588 50.73C87.7588 50.73 87.7588 50.72 87.7588 50.71C87.7588 50.5701 87.7388 50.4303 87.7289 50.3004C87.7289 50.3004 87.7289 50.2904 87.7289 50.2804C87.7289 50.1806 87.7088 50.0707 87.6989 49.9708C87.6989 49.9408 87.6989 49.9108 87.6989 49.8709V49.8509C87.6789 49.6511 87.659 49.4513 87.639 49.2515C87.639 49.1716 87.619 49.0917 87.619 49.0218C87.619 48.9718 87.609 48.9219 87.599 48.8819C87.589 48.792 87.579 48.6922 87.569 48.6022C87.569 48.5723 87.559 48.5323 87.549 48.4923C87.539 48.3925 87.5191 48.2826 87.5092 48.1827C87.4992 48.0928 87.4792 48.0029 87.4692 47.913C87.4492 47.7831 87.4293 47.6532 87.4093 47.5234V47.4934C87.3893 47.4135 87.3793 47.3436 87.3693 47.2637C87.3693 47.2437 87.3693 47.2237 87.3693 47.2037C87.3693 47.1738 87.3693 47.1538 87.3593 47.1338C87.3593 47.1038 87.3493 47.0739 87.3493 47.0439C87.3493 47.0439 87.3493 47.0339 87.3493 47.0239C87.3493 47.0039 87.3493 46.974 87.3393 46.954C87.3393 46.944 87.3393 46.934 87.3393 46.924C87.3393 46.904 87.3393 46.8941 87.3393 46.8741C87.3193 46.7742 87.2993 46.6743 87.2893 46.5844C87.2694 46.4945 87.2495 46.3946 87.2395 46.3047C87.2295 46.2348 87.2095 46.1648 87.1995 46.0949C87.1995 46.0749 87.1995 46.055 87.1995 46.035C87.1995 46.015 87.1995 46.005 87.1895 45.9851C87.1895 45.9551 87.1795 45.9351 87.1695 45.9051C87.1495 45.8252 87.1396 45.7453 87.1196 45.6654C87.1196 45.6554 87.1196 45.6454 87.1196 45.6354C87.1196 45.6354 87.1196 45.6154 87.1196 45.6054C87.1196 45.5855 87.1196 45.5755 87.1096 45.5555C87.1096 45.5355 87.1096 45.5255 87.0996 45.5056C87.0896 45.4556 87.0796 45.3957 87.0596 45.3457C87.0596 45.3158 87.0496 45.2858 87.0396 45.2558C87.0097 45.116 86.9797 44.9861 86.9398 44.8463C86.9298 44.8063 86.9199 44.7564 86.9099 44.7064C86.8899 44.6165 86.8699 44.5266 86.8399 44.4367C86.8399 44.4167 86.8299 44.3967 86.8199 44.3768C86.8199 44.3768 86.8199 44.3668 86.8199 44.3568C86.8199 44.3368 86.8099 44.3068 86.7999 44.2869C86.78 44.2069 86.4904 44.0271 86.4904 44.0271C86.4904 44.0271 86.7201 43.9972 86.7201 43.9772C86.7201 43.9772 86.7201 43.9572 86.7201 43.9472C86.6901 43.8373 86.6602 43.7274 86.6302 43.6276C86.5903 43.4977 86.5504 43.3578 86.5204 43.228C86.5204 43.218 86.5104 43.198 86.5104 43.188C86.5104 43.178 86.5104 43.158 86.5004 43.1481C86.4704 43.0382 86.4305 42.9183 86.4005 42.7985C86.3606 42.6786 86.3206 42.5587 86.2807 42.4388C86.2607 42.3889 86.2507 42.3389 86.2307 42.279C86.2107 42.2191 86.2007 42.1791 86.1807 42.1192C86.1807 42.0892 86.1608 42.0692 86.1508 42.0393C86.1409 42.0093 86.1308 41.9793 86.1209 41.9494C86.0909 41.8495 86.051 41.7495 86.021 41.6497C85.9811 41.5498 85.9511 41.4399 85.9112 41.34C85.9012 41.3 85.8812 41.2601 85.8712 41.2201C85.8412 41.1502 85.8212 41.0803 85.7912 41.0104C85.7912 40.9904 85.7713 40.9604 85.7613 40.9404C85.7513 40.9005 85.7313 40.8605 85.7213 40.8206C85.7213 40.8006 85.7013 40.7806 85.7013 40.7606C85.6913 40.7207 85.6714 40.6807 85.6515 40.6408C85.6315 40.5908 85.6115 40.5309 85.5915 40.4809C85.5415 40.3511 85.4916 40.2212 85.4417 40.1013C85.4417 40.0913 85.4416 40.0813 85.4316 40.0714C85.3917 39.9715 85.3517 39.8616 85.3018 39.7617C85.3018 39.7417 85.2919 39.7217 85.2819 39.7118C85.242 39.6119 85.202 39.512 85.1521 39.4121C85.1521 39.3921 85.1321 39.3721 85.1221 39.3521V39.3322C85.0722 39.2223 85.0222 39.1124 84.9723 39.0025C84.9723 38.9925 84.9722 38.9825 84.9523 38.9626C84.9023 38.8427 84.8424 38.7228 84.7924 38.6029C84.7625 38.543 84.7325 38.4831 84.7026 38.4131C84.6726 38.3532 84.6427 38.2933 84.6127 38.2233C84.5528 38.1035 84.5028 37.9836 84.4429 37.8637C84.4429 37.8637 84.4429 37.8537 84.4429 37.8437C84.383 37.7338 84.3331 37.624 84.2732 37.5141C84.2732 37.5041 84.2732 37.4941 84.2632 37.4841V37.4741C84.2232 37.3842 84.1733 37.3043 84.1333 37.2144C84.1333 37.1945 84.1233 37.1845 84.1133 37.1745C84.1133 37.1545 84.0933 37.1445 84.0933 37.1245C84.0534 37.0446 84.0134 36.9747 83.9735 36.8948C83.9535 36.8548 83.9236 36.8048 83.9036 36.7549C83.9036 36.7449 83.8936 36.7349 83.8836 36.715C83.8537 36.665 83.8236 36.6051 83.7937 36.5551C83.7637 36.5052 83.7338 36.4452 83.7038 36.3953C83.6838 36.3553 83.6539 36.3154 83.6339 36.2654C83.6339 36.2654 83.6339 36.2654 83.6339 36.2554C83.614 36.2155 83.5839 36.1655 83.564 36.1256C83.554 36.0956 83.5341 36.0656 83.5141 36.0357C83.4841 35.9857 83.4641 35.9458 83.4341 35.8958C83.4042 35.8359 83.3642 35.776 83.3343 35.716C83.3243 35.6961 83.3143 35.676 83.3043 35.6561C83.2943 35.6361 83.2844 35.6161 83.2744 35.5961C83.2644 35.5762 83.2544 35.5562 83.2444 35.5362C83.2045 35.4663 83.1645 35.3964 83.1246 35.3264C83.1246 35.3164 83.1146 35.3065 83.1046 35.2965C83.1046 35.2865 83.0846 35.2665 83.0846 35.2565C83.0746 35.2365 83.0546 35.2065 83.0446 35.1866C83.0146 35.1366 82.9847 35.0767 82.9447 35.0268L82.9247 34.9868C82.9247 34.9868 82.9149 34.9668 82.9049 34.9568C82.8449 34.8569 82.785 34.757 82.715 34.6571C82.6751 34.5972 82.6451 34.5473 82.6052 34.4873C82.5852 34.4574 82.5652 34.4174 82.5452 34.3874C82.5252 34.3575 82.5053 34.3275 82.4853 34.2975C82.4654 34.2576 82.4355 34.2176 82.4155 34.1876C82.4055 34.1677 82.3955 34.1477 82.3755 34.1277C82.3355 34.0678 82.3056 34.0178 82.2656 33.9579C82.2057 33.868 82.1457 33.7781 82.0858 33.6882C82.0758 33.6682 82.0559 33.6382 82.0359 33.6183C82.026 33.5983 82.0159 33.5883 82.006 33.5683C81.936 33.4784 81.876 33.3785 81.8061 33.2886C81.7462 33.1987 81.6763 33.0988 81.6064 33.0089C81.5964 32.9889 81.5864 32.9789 81.5664 32.959C81.5465 32.939 81.5366 32.919 81.5266 32.899C81.4567 32.8091 81.3967 32.7192 81.3267 32.6293C81.2968 32.5794 81.2569 32.5294 81.2169 32.4795L81.0871 32.3097C81.0871 32.3097 81.067 32.2797 81.0571 32.2697L80.9272 32.0899C80.9272 32.0899 80.8673 32.01 80.8374 31.97C80.7674 31.8701 80.6876 31.7802 80.6177 31.6803C80.5977 31.6604 80.5777 31.6404 80.5677 31.6104C80.4878 31.5205 80.4179 31.4206 80.338 31.3207C80.288 31.2608 80.2481 31.2108 80.1981 31.1509C80.1682 31.1209 80.1482 31.091 80.1183 31.061C80.0883 31.021 80.0484 30.9811 80.0184 30.9411C79.9885 30.9011 79.9584 30.8712 79.9285 30.8412C79.8985 30.8013 79.8686 30.7713 79.8386 30.7313C79.8186 30.7114 79.7987 30.6814 79.7787 30.6614L79.6689 30.5316C79.6689 30.5316 79.6189 30.4716 79.5889 30.4416L79.5489 30.3917C79.5489 30.3917 79.529 30.3617 79.509 30.3517C79.4292 30.2618 79.3593 30.172 79.2794 30.092C79.1895 29.9921 79.0996 29.8922 79.0097 29.7923C78.9198 29.6924 78.8299 29.5926 78.73 29.4927C78.6401 29.3928 78.5502 29.2929 78.4503 29.203C78.2605 29.0032 78.0708 28.8134 77.8811 28.6236C77.8311 28.5737 77.7912 28.5237 77.7412 28.4837C77.6913 28.4338 77.6413 28.3939 77.6014 28.3439C77.5015 28.254 77.4016 28.1541 77.3117 28.0642C77.2118 27.9743 77.122 27.8744 77.0221 27.7845C76.9223 27.6946 76.8223 27.6047 76.7225 27.5048C76.6226 27.4149 76.5228 27.325 76.4229 27.2351C76.343 27.1651 76.2531 27.0852 76.1732 27.0153C76.1532 26.9953 76.1332 26.9854 76.1232 26.9654C76.0234 26.8755 75.9234 26.7856 75.8136 26.7056C75.7137 26.6257 75.6239 26.5458 75.524 26.4659C75.504 26.4459 75.474 26.426 75.454 26.406C75.3941 26.356 75.3442 26.3161 75.2843 26.2661C75.2643 26.2561 75.2543 26.2461 75.2443 26.2361C75.2243 26.2262 75.2143 26.2162 75.2043 26.1962C75.1344 26.1362 75.0645 26.0863 74.9946 26.0264C74.9647 26.0064 74.9347 25.9764 74.9148 25.9564C74.9148 25.9564 74.9048 25.9465 74.8948 25.9365C74.8448 25.8965 74.7849 25.8466 74.7249 25.8066C74.685 25.7766 74.645 25.7467 74.5951 25.7067C74.5851 25.7067 74.5751 25.6967 74.5651 25.6867C74.4552 25.6068 74.3554 25.5169 74.2456 25.437C74.1357 25.3571 74.0359 25.2772 73.926 25.1972C73.916 25.1972 73.906 25.1773 73.896 25.1773C73.8061 25.1074 73.7162 25.0474 73.6263 24.9775C73.6163 24.9775 73.6063 24.9675 73.5963 24.9575C73.5664 24.9375 73.5464 24.9176 73.5165 24.8976C73.4865 24.8776 73.4665 24.8576 73.4365 24.8376C73.4065 24.8177 73.3666 24.7977 73.3366 24.7677C73.3167 24.7577 73.3067 24.7477 73.2868 24.7377C73.2768 24.7377 73.2668 24.7278 73.2568 24.7178C73.1469 24.6379 73.0371 24.5579 72.9172 24.488C72.8573 24.4481 72.8073 24.4081 72.7474 24.3781C72.6875 24.3482 72.6375 24.3082 72.5776 24.2682C72.5476 24.2483 72.5177 24.2283 72.4977 24.2083C72.4777 24.1983 72.4677 24.1883 72.4477 24.1783C72.4477 24.1783 72.4278 24.1684 72.4179 24.1584C72.3779 24.1284 72.328 24.0984 72.288 24.0784C72.278 24.0784 72.268 24.0685 72.248 24.0585C72.238 24.0585 72.218 24.0385 72.208 24.0385C72.1082 23.9686 71.9984 23.9086 71.8985 23.8387C71.8386 23.8087 71.7886 23.7688 71.7286 23.7388C71.6687 23.6989 71.6187 23.6689 71.5588 23.6289H71.5389C71.4491 23.559 71.3591 23.5091 71.2693 23.4591C71.2493 23.4491 71.2292 23.4391 71.2093 23.4191C71.1094 23.3592 71.0196 23.3093 70.9197 23.2493C70.8897 23.2294 70.8597 23.2094 70.8297 23.1994C70.7598 23.1594 70.6999 23.1195 70.63 23.0895C70.6101 23.0795 70.59 23.0695 70.57 23.0595C70.5301 23.0396 70.5001 23.0196 70.4602 22.9996C70.3603 22.9397 70.2505 22.8797 70.1406 22.8198C70.0408 22.7699 69.9508 22.7099 69.851 22.66C69.831 22.65 69.8111 22.64 69.7811 22.62C69.6712 22.5601 69.5514 22.5001 69.4316 22.4402C69.4316 22.4402 69.4315 22.4402 69.4216 22.4402C69.3017 22.3803 69.1818 22.3203 69.0619 22.2504L68.7823 22.1105C68.7823 22.1105 68.7223 22.0806 68.6924 22.0706C68.6025 22.0307 68.5227 21.9907 68.4328 21.9407C68.3729 21.9108 68.3129 21.8808 68.253 21.8508C68.1831 21.8209 68.1032 21.7809 68.0333 21.7509C68.0033 21.741 67.9833 21.731 67.9533 21.711C67.9133 21.691 67.8634 21.671 67.8234 21.651C67.8234 21.651 67.7436 21.6211 67.7136 21.6011C67.6736 21.5811 67.6337 21.5711 67.5938 21.5511C67.5938 21.5511 67.5937 21.5511 67.5838 21.5511C67.5538 21.5412 67.5239 21.5212 67.4939 21.5112C67.394 21.4713 67.2941 21.4313 67.2042 21.3813C67.1842 21.3813 67.1743 21.3713 67.1544 21.3613C67.0645 21.3214 66.9646 21.2814 66.8747 21.2415C66.8547 21.2415 66.8347 21.2215 66.8247 21.2215C66.7947 21.2115 66.7648 21.1915 66.7248 21.1815C66.6949 21.1716 66.6649 21.1516 66.635 21.1416C66.5751 21.1116 66.5051 21.0917 66.4451 21.0617C66.3253 21.0117 66.2155 20.9718 66.0956 20.9218C66.0357 20.8918 65.9658 20.8719 65.8959 20.8419C65.8559 20.8219 65.826 20.8119 65.786 20.802C65.7661 20.802 65.746 20.782 65.7161 20.782C65.6961 20.782 65.6862 20.772 65.6662 20.762C65.6263 20.742 65.5763 20.732 65.5364 20.712C65.4565 20.6821 65.3766 20.6521 65.2867 20.6222C65.2767 20.6222 65.2567 20.6122 65.2367 20.6022C65.1268 20.5622 65.007 20.5223 64.8871 20.4823C64.8871 20.4823 64.8671 20.4823 64.8571 20.4823C64.7373 20.4424 64.6075 20.3924 64.4776 20.3524C64.4776 20.3524 64.4576 20.3524 64.4476 20.3425C64.3477 20.3025 64.2379 20.2725 64.1381 20.2426C64.1281 20.2426 64.1181 20.2326 64.0981 20.2326H64.0881C63.9682 20.1926 63.8384 20.1526 63.7185 20.1127C63.7185 20.1127 63.6987 20.1127 63.6887 20.1127C63.6587 20.1027 63.6287 20.0927 63.5987 20.0827L63.4988 20.0528C63.4389 20.0328 63.3691 20.0128 63.3091 19.9928H63.2891C63.2592 19.9928 63.2391 19.9729 63.2092 19.9729C63.1093 19.9429 63.0095 19.9129 62.9096 19.8829C62.8497 19.863 62.7897 19.853 62.7298 19.833C62.6599 19.813 62.59 19.793 62.5201 19.7731C62.4302 19.7431 62.3303 19.7231 62.2304 19.6932C62.1904 19.6932 62.1505 19.6732 62.1205 19.6632C62.1106 19.6632 62.1005 19.6632 62.0806 19.6532C62.0406 19.6432 61.9907 19.6332 61.9507 19.6232C61.8608 19.6032 61.771 19.5733 61.6712 19.5533C61.5313 19.5133 61.3814 19.4834 61.2316 19.4534C61.1018 19.4234 60.9719 19.3935 60.8321 19.3635C60.7922 19.3635 60.7622 19.3435 60.7223 19.3435C60.7023 19.3435 60.6924 19.3435 60.6824 19.3435C60.6724 19.3435 60.6524 19.3435 60.6424 19.3335C60.5725 19.3235 60.5126 19.3036 60.4427 19.2936C60.4327 19.2936 60.4227 19.2936 60.4027 19.2836C60.2629 19.2536 60.123 19.2336 59.9832 19.2037C59.8633 19.1837 59.7335 19.1537 59.6036 19.1338C59.5038 19.1138 59.404 19.0938 59.2941 19.0838C59.2541 19.0838 59.2142 19.0738 59.1842 19.0638C59.1443 19.0638 59.1043 19.0538 59.0644 19.0438C58.9645 19.0239 58.8546 19.0139 58.7547 18.9939C58.6748 18.9839 58.5849 18.9739 58.505 18.9539C58.4351 18.9439 58.3652 18.9339 58.2853 18.924C58.1555 18.904 58.0256 18.894 57.8958 18.874C57.8059 18.864 57.716 18.854 57.6161 18.8441C57.5762 18.8441 57.5362 18.8341 57.4863 18.8341C57.4863 18.8341 57.4863 18.8341 57.4763 18.8341C57.4363 18.8341 57.4064 18.8341 57.3664 18.8241C57.3664 18.8241 57.3464 18.8241 57.3364 18.8241C57.2465 18.8141 57.1568 18.8041 57.0669 18.7941C56.957 18.7841 56.847 18.7741 56.7272 18.7642C56.6972 18.7642 56.6673 18.7642 56.6373 18.7642C56.6174 18.7642 56.5875 18.7642 56.5675 18.7642C56.4476 18.7542 56.3377 18.7442 56.2178 18.7342C56.078 18.7242 55.9282 18.7142 55.7884 18.7042C55.6086 18.6942 55.4288 18.6842 55.2491 18.6742C55.1392 18.6742 55.0394 18.6642 54.9295 18.3646H54.9095C54.8296 18.6542 54.7497 18.6443 54.6698 18.6443C54.6099 18.6443 54.49 18.864 54.49 18.864H54.48C54.48 18.864 54.3601 18.6343 54.3002 18.6343C54.2203 18.6343 54.0605 18.3646 54.0605 18.3646H54.0006C54.0006 18.3646 53.8608 18.6243 53.7909 18.6243C53.701 18.6243 53.6111 18.6243 53.5212 18.864H53.2316C51.6436 18.6343 50.0755 18.7142 48.5274 18.864C48.1578 18.904 47.7983 18.934 47.4288 18.9739C47.249 18.9939 47.0592 19.0139 46.8794 19.0438C46.6996 19.0638 46.5199 19.0938 46.3401 19.1138C46.1703 19.1337 46.0105 19.1537 45.8407 19.1837C45.8207 19.1837 45.8108 19.1837 45.7908 19.1837C45.4312 19.2336 45.0717 19.2936 44.7121 19.3535C44.5323 19.3835 44.3526 19.4135 44.1728 19.4434C44.0829 19.4634 43.983 19.4734 43.8931 19.4934C43.8032 19.5133 43.7034 19.5233 43.6135 19.5433C43.3838 19.5833 43.1441 19.6332 42.9143 19.6832C42.6746 19.7331 42.4349 19.783 42.1952 19.833C42.1852 19.833 42.1753 19.833 42.1653 19.833C41.9256 19.8829 41.6759 19.9429 41.4362 20.0028C41.1865 20.0628 40.9368 20.1227 40.6771 20.1826C40.5373 20.2126 40.3974 20.2526 40.2576 20.2925C39.9779 20.3624 39.6983 20.4423 39.4187 20.5223C39.2788 20.5622 39.139 20.6022 38.9992 20.6421C38.8594 20.6821 38.7195 20.7221 38.5797 20.762C38.4399 20.802 38.3 20.8419 38.1602 20.8819C38.0304 20.9218 37.8905 20.9618 37.7607 21.0017H37.7408C37.6109 21.0517 37.4711 21.0916 37.3312 21.1416C37.2014 21.1815 37.0616 21.2315 36.9218 21.2814C36.7919 21.3214 36.6621 21.3714 36.5322 21.4113C36.4324 21.4413 36.3225 21.4812 36.2226 21.5112C36.1427 21.5412 36.0628 21.5711 35.9729 21.6011C35.6433 21.711 35.3238 21.8308 35.0042 21.9507C34.9243 21.9807 34.8543 22.0107 34.7744 22.0406C34.6845 22.0806 34.5947 22.1105 34.5048 22.1405C34.345 22.2005 34.1851 22.2704 34.0253 22.3303C33.9354 22.3603 33.8456 22.4003 33.7557 22.4402C33.516 22.5401 33.2763 22.64 33.0366 22.7399C32.9067 22.7998 32.7669 22.8498 32.637 22.9097C32.5272 22.9597 32.4173 23.0096 32.2975 23.0595C31.878 23.2493 31.4585 23.4391 31.049 23.6289C30.9292 23.6789 30.8193 23.7388 30.6995 23.7987C29.2513 24.498 27.833 25.2572 26.4647 26.0863C16.2373 32.2297 8.2772 41.7496 4.12235 53.1074C3.06366 56.0043 2.25469 59.0211 1.71536 62.1278C1.20599 59.2009 0.946289 56.1841 0.946289 53.1074C0.946289 50.0307 1.20599 47.0139 1.71536 44.0871C5.49068 22.3003 22.6794 5.11874 44.4624 1.34277C47.5686 1.8822 50.5948 2.69134 53.4912 3.7502C64.8472 7.90576 74.3754 15.8672 80.5178 26.0863C85.182 33.838 87.8887 42.8883 87.9885 52.558C87.9885 52.4082 87.9885 52.2683 87.9785 52.1285L87.8087 52.0286Z" fill="url(#paint2_linear_2371_2166)"/>
<path d="M62.4303 104.782C59.5039 105.291 56.4876 105.551 53.4014 105.551C50.3152 105.551 47.3089 105.281 44.3726 104.782C22.5795 101.016 5.39083 83.8241 1.62549 62.0374C2.16482 58.9307 2.97385 55.914 4.03254 53.0171C8.1874 41.6592 16.1475 32.1394 26.3749 25.996C27.7432 25.1768 29.1614 24.4077 30.6096 23.7084C30.7195 23.6485 30.8393 23.5985 30.9592 23.5386C31.3786 23.3388 31.7881 23.149 32.2076 22.9692C32.3175 22.9193 32.4274 22.8693 32.5472 22.8194C32.6771 22.7594 32.8169 22.7095 32.9468 22.6495C33.1865 22.5496 33.4261 22.4498 33.6658 22.3499C33.7557 22.3099 33.8456 22.2799 33.9355 22.24C34.0953 22.18 34.2551 22.1101 34.4149 22.0502C34.5048 22.0202 34.5947 21.9802 34.6846 21.9503C34.7645 21.9203 34.8344 21.8903 34.9143 21.8604C35.2339 21.7405 35.5535 21.6207 35.8831 21.5108C35.963 21.4808 36.0429 21.4508 36.1328 21.4208C36.2326 21.3809 36.3426 21.3509 36.4424 21.321C36.5723 21.271 36.7021 21.2311 36.8319 21.1911C36.9717 21.1412 37.1016 21.1012 37.2414 21.0512C37.3813 21.0113 37.5111 20.9613 37.6509 20.9214H37.6709C37.8007 20.8714 37.9405 20.8315 38.0704 20.7915C38.2102 20.7516 38.3501 20.7116 38.4899 20.6716C38.6297 20.6317 38.7695 20.5917 38.9093 20.5518C39.0492 20.5118 39.189 20.4719 39.3288 20.4319C39.6085 20.352 39.8881 20.2821 40.1678 20.2021C40.3076 20.1722 40.4474 20.1322 40.5873 20.0923C40.837 20.0323 41.0867 19.9724 41.3463 19.9125C41.586 19.8525 41.8357 19.8026 42.0754 19.7426C42.0854 19.7426 42.0954 19.7426 42.1054 19.7426C42.3451 19.6927 42.5848 19.6428 42.8245 19.5928C43.0542 19.5429 43.2839 19.5029 43.5236 19.4529C43.6135 19.433 43.7134 19.423 43.8033 19.403C43.8932 19.383 43.993 19.3731 44.0829 19.3531C44.2627 19.3231 44.4425 19.2931 44.6222 19.2632C44.9818 19.2032 45.3414 19.1433 45.7009 19.0933C45.7209 19.0933 45.7309 19.0933 45.7509 19.0933C45.9107 19.0734 46.0804 19.0434 46.2502 19.0234C46.43 19.0034 46.6098 18.9735 46.7896 18.9535C46.9694 18.9335 47.1491 18.9135 47.3389 18.8836C47.6985 18.8436 48.068 18.8036 48.4375 18.7737C49.9057 18.6338 51.3839 18.5539 52.892 18.5439C34.2751 18.8336 19.2337 33.8675 18.9441 52.4876C18.9441 52.5476 18.9441 52.5975 18.9441 52.6575C18.9441 52.7873 18.9441 52.9072 18.9441 53.0371C18.9441 53.1669 18.9441 53.2868 18.9441 53.4166C18.9441 53.4766 18.9441 53.5265 18.9441 53.5865C19.0439 63.2661 21.7606 72.3065 26.4148 80.0582C32.5572 90.2772 42.0854 98.2387 53.4413 102.394C56.3378 103.453 59.354 104.262 62.4701 104.802L62.4303 104.782Z" fill="url(#paint3_linear_2371_2166)"/>
<path d="M105.876 53.2179C105.876 56.2946 105.607 59.3114 105.107 62.2382C101.332 84.0249 84.1433 101.217 62.3503 104.983C59.2441 104.443 56.2179 103.634 53.3215 102.575C41.9655 98.4196 32.4373 90.458 26.295 80.239C21.6407 72.4873 18.9241 63.4369 18.8242 53.7673C19.1139 72.3874 34.1552 87.4213 52.7722 87.711C52.8321 87.711 52.882 87.711 52.942 87.711C53.0718 87.711 53.1916 87.711 53.3215 87.711C53.4513 87.711 53.5712 87.711 53.701 87.711C53.7609 87.711 53.8109 87.711 53.8708 87.711C63.5488 87.6111 72.5976 84.904 80.348 80.249C90.5754 74.1055 98.5355 64.5857 102.69 53.2279C103.749 50.331 104.568 47.3142 105.097 44.2075C105.607 47.1444 105.866 50.1512 105.866 53.2279L105.876 53.2179Z" fill="url(#paint4_linear_2371_2166)"/>
<path d="M105.107 43.9873C104.568 47.104 103.759 50.1108 102.7 53.0077C98.5455 64.3656 90.5854 73.8854 80.3581 80.0288C72.6077 84.6838 63.5589 87.4009 53.8808 87.4908C72.4978 87.2011 87.5392 72.1672 87.8288 53.5471C87.8288 53.4872 87.8288 53.4372 87.8288 53.3773C87.8288 53.2574 87.8288 53.1276 87.8288 52.9977C87.8288 52.8678 87.8288 52.748 87.8288 52.6181C87.8288 52.5682 87.8288 52.5082 87.8288 52.4483C87.7289 42.7786 85.0223 33.7283 80.3581 25.9766C74.2157 15.7575 64.6975 7.79602 53.3315 3.64046C50.4351 2.5816 47.4189 1.77246 44.3027 1.23303C47.2391 0.723579 50.2454 0.463867 53.3315 0.463867C56.4177 0.463867 59.424 0.733568 62.3603 1.23303C84.1534 4.99901 101.342 22.1906 105.117 43.9773L105.107 43.9873Z" fill="url(#paint5_linear_2371_2166)"/>
</g>
<mask id="mask1_2371_2166" style="mask-type:luminance" maskUnits="userSpaceOnUse" x="0" y="4" width="36" height="98">
<path d="M35.4034 83.2845C35.4034 82.6851 35.0938 82.1357 34.5944 81.806C32.6468 80.5274 30.819 79.039 29.1411 77.3608C25.975 74.1942 23.4882 70.5081 21.7503 66.4125C19.9625 62.177 19.0536 57.6718 19.0536 53.0068C19.0536 48.3418 19.9625 43.8466 21.7503 39.6112C23.4882 35.5155 25.975 31.8295 29.1411 28.6529C30.819 26.9747 32.6368 25.4962 34.5944 24.2076C35.0938 23.878 35.4034 23.3286 35.4034 22.7292V6.24683C35.4034 4.98817 34.125 4.13906 32.9664 4.63853C14.1497 12.63 0.956055 31.28 0.956055 53.0168C0.956055 74.7536 14.1497 93.3937 32.9664 101.395C34.125 101.885 35.4034 101.035 35.4034 99.7868V83.3044V83.2845Z" fill="white"/>
</mask>
<g mask="url(#mask1_2371_2166)">
<path d="M87.8087 52.0281C87.8087 51.8882 87.8087 51.7384 87.7987 51.5986C87.7987 51.5886 87.7987 51.5786 87.7987 51.5686C87.7987 51.4287 87.7888 51.2889 87.7788 51.149C87.7788 51.149 87.7788 51.149 87.7788 51.139C87.7788 50.9992 87.7688 50.8693 87.7588 50.7295C87.7588 50.7295 87.7588 50.7195 87.7588 50.7095C87.7588 50.5696 87.7388 50.4298 87.7289 50.2999C87.7289 50.2999 87.7289 50.2899 87.7289 50.28C87.7289 50.1801 87.7088 50.0702 87.6989 49.9703C87.6989 49.9403 87.6989 49.9103 87.6989 49.8704V49.8504C87.6789 49.6506 87.659 49.4508 87.639 49.2511C87.639 49.1711 87.619 49.0912 87.619 49.0213C87.619 48.9713 87.609 48.9214 87.599 48.8815C87.589 48.7916 87.579 48.6917 87.569 48.6018C87.569 48.5718 87.559 48.5318 87.549 48.4919C87.539 48.392 87.5191 48.2821 87.5092 48.1822C87.4992 48.0923 87.4792 48.0024 87.4692 47.9125C87.4492 47.7826 87.4293 47.6528 87.4093 47.5229V47.4929C87.3893 47.413 87.3793 47.3431 87.3693 47.2632C87.3693 47.2432 87.3693 47.2232 87.3693 47.2033C87.3693 47.1733 87.3693 47.1533 87.3593 47.1333C87.3593 47.1034 87.3493 47.0734 87.3493 47.0434C87.3493 47.0434 87.3493 47.0334 87.3493 47.0234C87.3493 47.0034 87.3493 46.9735 87.3393 46.9535C87.3393 46.9435 87.3393 46.9335 87.3393 46.9235C87.3393 46.9035 87.3393 46.8936 87.3393 46.8736C87.3193 46.7737 87.2993 46.6738 87.2893 46.5839C87.2694 46.494 87.2495 46.3941 87.2395 46.3042C87.2295 46.2343 87.2095 46.1644 87.1995 46.0944C87.1995 46.0745 87.1995 46.0545 87.1995 46.0345C87.1995 46.0145 87.1995 46.0045 87.1895 45.9846C87.1895 45.9546 87.1795 45.9346 87.1695 45.9046C87.1495 45.8247 87.1396 45.7448 87.1196 45.6649C87.1196 45.6549 87.1196 45.6449 87.1196 45.6349C87.1196 45.6349 87.1196 45.615 87.1196 45.605C87.1196 45.585 87.1196 45.575 87.1096 45.555C87.1096 45.535 87.1096 45.525 87.0996 45.5051C87.0896 45.4551 87.0796 45.3952 87.0596 45.3452C87.0596 45.3153 87.0496 45.2853 87.0396 45.2553C87.0097 45.1155 86.9797 44.9856 86.9398 44.8458C86.9298 44.8058 86.9199 44.7559 86.9099 44.7059C86.8899 44.616 86.8699 44.5261 86.8399 44.4362C86.8399 44.4162 86.8299 44.3962 86.8199 44.3763C86.8199 44.3763 86.8199 44.3663 86.8199 44.3563C86.8199 44.3363 86.8099 44.3063 86.7999 44.2864C86.78 44.2065 86.4904 44.0266 86.4904 44.0266C86.4904 44.0266 86.7201 43.9967 86.7201 43.9767C86.7201 43.9767 86.7201 43.9567 86.7201 43.9467C86.6901 43.8368 86.6602 43.727 86.6302 43.6271C86.5903 43.4972 86.5504 43.3574 86.5204 43.2275C86.5204 43.2175 86.5104 43.1975 86.5104 43.1875C86.5104 43.1775 86.5104 43.1576 86.5004 43.1476C86.4704 43.0377 86.4305 42.9178 86.4005 42.798C86.3606 42.6781 86.3206 42.5582 86.2807 42.4383C86.2607 42.3884 86.2507 42.3384 86.2307 42.2785C86.2107 42.2186 86.2007 42.1786 86.1807 42.1187C86.1807 42.0887 86.1608 42.0687 86.1508 42.0388C86.1409 42.0088 86.1308 41.9788 86.1209 41.9489C86.0909 41.849 86.051 41.7491 86.021 41.6492C85.9811 41.5493 85.9511 41.4394 85.9112 41.3395C85.9012 41.2995 85.8812 41.2596 85.8712 41.2196C85.8412 41.1497 85.8212 41.0798 85.7912 41.0099C85.7912 40.9899 85.7713 40.9599 85.7613 40.9399C85.7513 40.9 85.7313 40.86 85.7213 40.8201C85.7213 40.8001 85.7013 40.7801 85.7013 40.7601C85.6913 40.7202 85.6714 40.6802 85.6515 40.6403C85.6315 40.5903 85.6115 40.5304 85.5915 40.4804C85.5415 40.3506 85.4916 40.2207 85.4417 40.1008C85.4417 40.0908 85.4416 40.0809 85.4316 40.0709C85.3917 39.971 85.3517 39.8611 85.3018 39.7612C85.3018 39.7412 85.2919 39.7213 85.2819 39.7113C85.242 39.6114 85.202 39.5115 85.1521 39.4116C85.1521 39.3916 85.1321 39.3716 85.1221 39.3516V39.3317C85.0722 39.2218 85.0222 39.1119 84.9723 39.002C84.9723 38.992 84.9722 38.982 84.9523 38.9621C84.9023 38.8422 84.8424 38.7223 84.7924 38.6024C84.7625 38.5425 84.7325 38.4826 84.7026 38.4126C84.6726 38.3527 84.6427 38.2928 84.6127 38.2228C84.5528 38.103 84.5028 37.9831 84.4429 37.8632C84.4429 37.8632 84.4429 37.8532 84.4429 37.8432C84.383 37.7334 84.3331 37.6235 84.2732 37.5136C84.2732 37.5036 84.2732 37.4936 84.2632 37.4836V37.4736C84.2232 37.3837 84.1733 37.3038 84.1333 37.2139C84.1333 37.194 84.1233 37.184 84.1133 37.174C84.1133 37.154 84.0933 37.144 84.0933 37.124C84.0534 37.0441 84.0134 36.9742 83.9735 36.8943C83.9535 36.8543 83.9236 36.8044 83.9036 36.7544C83.9036 36.7444 83.8936 36.7345 83.8836 36.7145C83.8537 36.6645 83.8236 36.6046 83.7937 36.5546C83.7637 36.5047 83.7338 36.4448 83.7038 36.3948C83.6838 36.3549 83.6539 36.3149 83.6339 36.2649C83.6339 36.2649 83.6339 36.2649 83.6339 36.2549C83.614 36.215 83.5839 36.165 83.564 36.1251C83.554 36.0951 83.5341 36.0651 83.5141 36.0352C83.4841 35.9852 83.4641 35.9453 83.4341 35.8953C83.4042 35.8354 83.3642 35.7755 83.3343 35.7155C83.3243 35.6956 83.3143 35.6756 83.3043 35.6556C83.2943 35.6356 83.2844 35.6156 83.2744 35.5956C83.2644 35.5757 83.2544 35.5557 83.2444 35.5357C83.2045 35.4658 83.1645 35.3959 83.1246 35.3259C83.1246 35.316 83.1146 35.306 83.1046 35.296C83.1046 35.286 83.0846 35.266 83.0846 35.256C83.0746 35.236 83.0546 35.2061 83.0446 35.1861C83.0146 35.1361 82.9847 35.0762 82.9447 35.0263L82.9247 34.9863C82.9247 34.9863 82.9149 34.9663 82.9049 34.9563C82.8449 34.8564 82.785 34.7565 82.715 34.6566C82.6751 34.5967 82.6451 34.5468 82.6052 34.4868C82.5852 34.4569 82.5652 34.4169 82.5452 34.3869C82.5252 34.357 82.5053 34.327 82.4853 34.297C82.4654 34.2571 82.4355 34.2171 82.4155 34.1871C82.4055 34.1672 82.3955 34.1472 82.3755 34.1272C82.3355 34.0673 82.3056 34.0173 82.2656 33.9574C82.2057 33.8675 82.1457 33.7776 82.0858 33.6877C82.0758 33.6677 82.0559 33.6378 82.0359 33.6178C82.026 33.5978 82.0159 33.5878 82.006 33.5678C81.936 33.4779 81.876 33.378 81.8061 33.2881C81.7462 33.1982 81.6763 33.0983 81.6064 33.0084C81.5964 32.9884 81.5864 32.9785 81.5664 32.9585C81.5465 32.9385 81.5366 32.9185 81.5266 32.8985C81.4567 32.8086 81.3967 32.7187 81.3267 32.6288C81.2968 32.5789 81.2569 32.5289 81.2169 32.479L81.0871 32.3092C81.0871 32.3092 81.067 32.2792 81.0571 32.2692L80.9272 32.0894C80.9272 32.0894 80.8673 32.0095 80.8374 31.9695C80.7674 31.8697 80.6876 31.7797 80.6177 31.6798C80.5977 31.6599 80.5777 31.6399 80.5677 31.6099C80.4878 31.52 80.4179 31.4201 80.338 31.3202C80.288 31.2603 80.2481 31.2104 80.1981 31.1504C80.1682 31.1204 80.1482 31.0905 80.1183 31.0605C80.0883 31.0206 80.0484 30.9806 80.0184 30.9406C79.9885 30.9007 79.9584 30.8707 79.9285 30.8407C79.8985 30.8008 79.8686 30.7708 79.8386 30.7309C79.8186 30.7109 79.7987 30.6809 79.7787 30.6609L79.6689 30.5311C79.6689 30.5311 79.6189 30.4711 79.5889 30.4412L79.5489 30.3912C79.5489 30.3912 79.529 30.3612 79.509 30.3512C79.4292 30.2613 79.3593 30.1715 79.2794 30.0915C79.1895 29.9917 79.0996 29.8917 79.0097 29.7919C78.9198 29.692 78.8299 29.5921 78.73 29.4922C78.6401 29.3923 78.5502 29.2924 78.4503 29.2025C78.2605 29.0027 78.0708 28.8129 77.8811 28.6231C77.8311 28.5732 77.7912 28.5232 77.7412 28.4833C77.6913 28.4333 77.6413 28.3934 77.6014 28.3434C77.5015 28.2535 77.4016 28.1536 77.3117 28.0637C77.2118 27.9738 77.122 27.8739 77.0221 27.784C76.9223 27.6941 76.8223 27.6042 76.7225 27.5043C76.6226 27.4144 76.5228 27.3245 76.4229 27.2346C76.343 27.1647 76.2531 27.0847 76.1732 27.0148C76.1532 26.9948 76.1332 26.9849 76.1232 26.9649C76.0234 26.875 75.9234 26.7851 75.8136 26.7052C75.7137 26.6252 75.6239 26.5453 75.524 26.4654C75.504 26.4454 75.474 26.4255 75.454 26.4055C75.3941 26.3555 75.3442 26.3156 75.2843 26.2656C75.2643 26.2556 75.2543 26.2456 75.2443 26.2357C75.2243 26.2257 75.2143 26.2157 75.2043 26.1957C75.1344 26.1358 75.0645 26.0858 74.9946 26.0259C74.9647 26.0059 74.9347 25.9759 74.9148 25.956C74.9148 25.956 74.9048 25.946 74.8948 25.936C74.8448 25.896 74.7849 25.8461 74.7249 25.8061C74.685 25.7762 74.645 25.7462 74.5951 25.7062C74.5851 25.7062 74.5751 25.6962 74.5651 25.6863C74.4552 25.6063 74.3554 25.5164 74.2456 25.4365C74.1357 25.3566 74.0359 25.2767 73.926 25.1968C73.916 25.1968 73.906 25.1768 73.896 25.1768C73.8061 25.1069 73.7162 25.0469 73.6263 24.977C73.6163 24.977 73.6063 24.967 73.5963 24.957C73.5664 24.937 73.5464 24.9171 73.5165 24.8971C73.4865 24.8771 73.4665 24.8571 73.4365 24.8372C73.4065 24.8172 73.3666 24.7972 73.3366 24.7672C73.3167 24.7572 73.3067 24.7472 73.2868 24.7373C73.2768 24.7373 73.2668 24.7273 73.2568 24.7173C73.1469 24.6374 73.0371 24.5574 72.9172 24.4875C72.8573 24.4476 72.8073 24.4076 72.7474 24.3777C72.6875 24.3477 72.6375 24.3077 72.5776 24.2678C72.5476 24.2478 72.5177 24.2278 72.4977 24.2078C72.4777 24.1978 72.4677 24.1878 72.4477 24.1779C72.4477 24.1779 72.4278 24.1679 72.4179 24.1579C72.3779 24.1279 72.328 24.0979 72.288 24.078C72.278 24.078 72.268 24.068 72.248 24.058C72.238 24.058 72.218 24.038 72.208 24.038C72.1082 23.9681 71.9984 23.9081 71.8985 23.8382C71.8386 23.8083 71.7886 23.7683 71.7286 23.7383C71.6687 23.6984 71.6187 23.6684 71.5588 23.6285H71.5389C71.4491 23.5585 71.3591 23.5086 71.2693 23.4586C71.2493 23.4486 71.2292 23.4386 71.2093 23.4187C71.1094 23.3587 71.0196 23.3088 70.9197 23.2489C70.8897 23.2289 70.8597 23.2089 70.8297 23.1989C70.7598 23.1589 70.6999 23.119 70.63 23.089C70.6101 23.079 70.59 23.069 70.57 23.0591C70.5301 23.0391 70.5001 23.0191 70.4602 22.9991C70.3603 22.9392 70.2505 22.8793 70.1406 22.8193C70.0408 22.7694 69.9508 22.7094 69.851 22.6595C69.831 22.6495 69.8111 22.6395 69.7811 22.6195C69.6712 22.5596 69.5514 22.4997 69.4316 22.4397C69.4316 22.4397 69.4315 22.4397 69.4216 22.4397C69.3017 22.3798 69.1818 22.3199 69.0619 22.2499L68.7823 22.1101C68.7823 22.1101 68.7223 22.0801 68.6924 22.0701C68.6025 22.0302 68.5227 21.9902 68.4328 21.9403C68.3729 21.9103 68.3129 21.8803 68.253 21.8504C68.1831 21.8204 68.1032 21.7804 68.0333 21.7505C68.0033 21.7405 67.9833 21.7305 67.9533 21.7105C67.9133 21.6905 67.8634 21.6705 67.8234 21.6506C67.8234 21.6506 67.7436 21.6206 67.7136 21.6006C67.6736 21.5806 67.6337 21.5706 67.5938 21.5507C67.5938 21.5507 67.5937 21.5507 67.5838 21.5507C67.5538 21.5407 67.5239 21.5207 67.4939 21.5107C67.394 21.4708 67.2941 21.4308 67.2042 21.3809C67.1842 21.3809 67.1743 21.3709 67.1544 21.3609C67.0645 21.3209 66.9646 21.281 66.8747 21.241C66.8547 21.241 66.8347 21.221 66.8247 21.221C66.7947 21.211 66.7648 21.1911 66.7248 21.1811C66.6949 21.1711 66.6649 21.1511 66.635 21.1411C66.5751 21.1111 66.5051 21.0912 66.4451 21.0612C66.3253 21.0112 66.2155 20.9713 66.0956 20.9213C66.0357 20.8914 65.9658 20.8714 65.8959 20.8414C65.8559 20.8214 65.826 20.8115 65.786 20.8015C65.7661 20.8015 65.746 20.7815 65.7161 20.7815C65.6961 20.7815 65.6862 20.7715 65.6662 20.7615C65.6263 20.7415 65.5763 20.7315 65.5364 20.7116C65.4565 20.6816 65.3766 20.6516 65.2867 20.6217C65.2767 20.6217 65.2567 20.6117 65.2367 20.6017C65.1268 20.5617 65.007 20.5218 64.8871 20.4818C64.8871 20.4818 64.8671 20.4818 64.8571 20.4818C64.7373 20.4419 64.6075 20.3919 64.4776 20.352C64.4776 20.352 64.4576 20.352 64.4476 20.342C64.3477 20.302 64.2379 20.272 64.1381 20.2421C64.1281 20.2421 64.1181 20.2321 64.0981 20.2321H64.0881C63.9682 20.1921 63.8384 20.1522 63.7185 20.1122C63.7185 20.1122 63.6987 20.1122 63.6887 20.1122C63.6587 20.1022 63.6287 20.0922 63.5987 20.0822L63.4988 20.0523C63.4389 20.0323 63.3691 20.0123 63.3091 19.9923H63.2891C63.2592 19.9923 63.2391 19.9724 63.2092 19.9724C63.1093 19.9424 63.0095 19.9124 62.9096 19.8825C62.8497 19.8625 62.7897 19.8525 62.7298 19.8325C62.6599 19.8125 62.59 19.7925 62.5201 19.7726C62.4302 19.7426 62.3303 19.7226 62.2304 19.6927C62.1904 19.6927 62.1505 19.6727 62.1205 19.6627C62.1106 19.6627 62.1005 19.6627 62.0806 19.6527C62.0406 19.6427 61.9907 19.6327 61.9507 19.6227C61.8608 19.6028 61.771 19.5728 61.6712 19.5528C61.5313 19.5128 61.3814 19.4829 61.2316 19.4529C61.1018 19.4229 60.9719 19.393 60.8321 19.363C60.7922 19.363 60.7622 19.343 60.7223 19.343C60.7023 19.343 60.6924 19.343 60.6824 19.343C60.6724 19.343 60.6524 19.343 60.6424 19.333C60.5725 19.323 60.5126 19.3031 60.4427 19.2931C60.4327 19.2931 60.4227 19.2931 60.4027 19.2831C60.2629 19.2531 60.123 19.2331 59.9832 19.2032C59.8633 19.1832 59.7335 19.1532 59.6036 19.1333C59.5038 19.1133 59.404 19.0933 59.2941 19.0833C59.2541 19.0833 59.2142 19.0733 59.1842 19.0633C59.1443 19.0633 59.1043 19.0534 59.0644 19.0434C58.9645 19.0234 58.8546 19.0134 58.7547 18.9934C58.6748 18.9834 58.5849 18.9734 58.505 18.9534C58.4351 18.9434 58.3652 18.9335 58.2853 18.9235C58.1555 18.9035 58.0256 18.8935 57.8958 18.8735C57.8059 18.8635 57.716 18.8536 57.6161 18.8436C57.5762 18.8436 57.5362 18.8336 57.4863 18.8336C57.4863 18.8336 57.4863 18.8336 57.4763 18.8336C57.4363 18.8336 57.4064 18.8336 57.3664 18.8236C57.3664 18.8236 57.3464 18.8236 57.3364 18.8236C57.2465 18.8136 57.1568 18.8036 57.0669 18.7936C56.957 18.7836 56.847 18.7737 56.7272 18.7637C56.6972 18.7637 56.6673 18.7637 56.6373 18.7637C56.6174 18.7637 56.5875 18.7637 56.5675 18.7637C56.4476 18.7537 56.3377 18.7437 56.2178 18.7337C56.078 18.7237 55.9282 18.7137 55.7884 18.7037C55.6086 18.6937 55.4288 18.6837 55.2491 18.6737C55.1392 18.6737 55.0394 18.6637 54.9295 18.3641H54.9095C54.8296 18.6538 54.7497 18.6438 54.6698 18.6438C54.6099 18.6438 54.49 18.8635 54.49 18.8635H54.48C54.48 18.8635 54.3601 18.6338 54.3002 18.6338C54.2203 18.6338 54.0605 18.3641 54.0605 18.3641H54.0006C54.0006 18.3641 53.8608 18.6238 53.7909 18.6238C53.701 18.6238 53.6111 18.6238 53.5212 18.8635H53.2316C51.6436 18.6338 50.0755 18.7137 48.5274 18.8635C48.1578 18.9035 47.7983 18.9335 47.4288 18.9734C47.249 18.9934 47.0592 19.0134 46.8794 19.0434C46.6996 19.0633 46.5199 19.0933 46.3401 19.1133C46.1703 19.1332 46.0105 19.1532 45.8407 19.1832C45.8207 19.1832 45.8108 19.1832 45.7908 19.1832C45.4312 19.2331 45.0717 19.2931 44.7121 19.353C44.5323 19.383 44.3526 19.413 44.1728 19.4429C44.0829 19.4629 43.983 19.4729 43.8931 19.4929C43.8032 19.5128 43.7034 19.5229 43.6135 19.5428C43.3838 19.5828 43.1441 19.6327 42.9143 19.6827C42.6746 19.7326 42.4349 19.7826 42.1952 19.8325C42.1852 19.8325 42.1753 19.8325 42.1653 19.8325C41.9256 19.8824 41.6759 19.9424 41.4362 20.0023C41.1865 20.0623 40.9368 20.1222 40.6771 20.1821C40.5373 20.2121 40.3974 20.2521 40.2576 20.292C39.9779 20.362 39.6983 20.4418 39.4187 20.5218C39.2788 20.5617 39.139 20.6017 38.9992 20.6416C38.8594 20.6816 38.7195 20.7216 38.5797 20.7615C38.4399 20.8015 38.3 20.8414 38.1602 20.8814C38.0304 20.9214 37.8905 20.9613 37.7607 21.0013H37.7408C37.6109 21.0512 37.4711 21.0911 37.3312 21.1411C37.2014 21.1811 37.0616 21.231 36.9218 21.281C36.7919 21.3209 36.6621 21.3709 36.5322 21.4108C36.4324 21.4408 36.3225 21.4808 36.2226 21.5107C36.1427 21.5407 36.0628 21.5707 35.9729 21.6006C35.6433 21.7105 35.3238 21.8304 35.0042 21.9502C34.9243 21.9802 34.8543 22.0102 34.7744 22.0402C34.6845 22.0801 34.5947 22.1101 34.5048 22.14C34.345 22.2 34.1851 22.2699 34.0253 22.3298C33.9354 22.3598 33.8456 22.3998 33.7557 22.4397C33.516 22.5396 33.2763 22.6395 33.0366 22.7394C32.9067 22.7993 32.7669 22.8493 32.637 22.9092C32.5272 22.9592 32.4173 23.0091 32.2975 23.0591C31.878 23.2489 31.4585 23.4387 31.049 23.6285C30.9292 23.6784 30.8193 23.7383 30.6995 23.7983C29.2513 24.4975 27.833 25.2567 26.4647 26.0858C16.2373 32.2293 8.2772 41.7491 4.12235 53.1069C3.06366 56.0038 2.25469 59.0206 1.71536 62.1273C1.20599 59.2004 0.946289 56.1836 0.946289 53.1069C0.946289 50.0302 1.20599 47.0134 1.71536 44.0866C5.49068 22.2999 22.6794 5.11825 44.4624 1.34229C47.5686 1.88171 50.5948 2.69085 53.4912 3.74972C64.8472 7.90527 74.3754 15.8667 80.5178 26.0858C85.182 33.8375 87.8887 42.8879 87.9885 52.5575C87.9885 52.4077 87.9885 52.2678 87.9785 52.128L87.8087 52.0281Z" fill="url(#paint6_linear_2371_2166)"/>
<path d="M62.4303 104.781C59.5039 105.291 56.4876 105.55 53.4014 105.55C50.3152 105.55 47.3089 105.281 44.3726 104.781C22.5795 101.015 5.39083 83.8236 1.62549 62.0369C2.16482 58.9303 2.97385 55.9135 4.03254 53.0166C8.1874 41.6587 16.1475 32.1389 26.3749 25.9955C27.7432 25.1764 29.1614 24.4072 30.6096 23.7079C30.7195 23.648 30.8393 23.5981 30.9592 23.5381C31.3786 23.3383 31.7881 23.1485 32.2076 22.9687C32.3175 22.9188 32.4274 22.8688 32.5472 22.8189C32.6771 22.7589 32.8169 22.709 32.9468 22.6491C33.1865 22.5492 33.4261 22.4493 33.6658 22.3494C33.7557 22.3094 33.8456 22.2794 33.9355 22.2395C34.0953 22.1796 34.2551 22.1096 34.4149 22.0497C34.5048 22.0197 34.5947 21.9798 34.6846 21.9498C34.7645 21.9198 34.8344 21.8899 34.9143 21.8599C35.2339 21.74 35.5535 21.6202 35.8831 21.5103C35.963 21.4803 36.0429 21.4503 36.1328 21.4204C36.2326 21.3804 36.3426 21.3505 36.4424 21.3205C36.5723 21.2705 36.7021 21.2306 36.8319 21.1906C36.9717 21.1407 37.1016 21.1007 37.2414 21.0508C37.3813 21.0108 37.5111 20.9608 37.6509 20.9209H37.6709C37.8007 20.8709 37.9405 20.831 38.0704 20.7911C38.2102 20.7511 38.3501 20.7111 38.4899 20.6712C38.6297 20.6312 38.7695 20.5912 38.9093 20.5513C39.0492 20.5113 39.189 20.4714 39.3288 20.4314C39.6085 20.3515 39.8881 20.2816 40.1678 20.2017C40.3076 20.1717 40.4474 20.1317 40.5873 20.0918C40.837 20.0319 41.0867 19.9719 41.3463 19.912C41.586 19.8521 41.8357 19.8021 42.0754 19.7422C42.0854 19.7422 42.0954 19.7422 42.1054 19.7422C42.3451 19.6922 42.5848 19.6423 42.8245 19.5923C43.0542 19.5424 43.2839 19.5024 43.5236 19.4525C43.6135 19.4325 43.7134 19.4225 43.8033 19.4025C43.8932 19.3825 43.993 19.3726 44.0829 19.3526C44.2627 19.3226 44.4425 19.2927 44.6222 19.2627C44.9818 19.2028 45.3414 19.1428 45.7009 19.0929C45.7209 19.0929 45.7309 19.0929 45.7509 19.0929C45.9107 19.0729 46.0804 19.0429 46.2502 19.0229C46.43 19.0029 46.6098 18.973 46.7896 18.953C46.9694 18.933 47.1491 18.9131 47.3389 18.8831C47.6985 18.8431 48.068 18.8032 48.4375 18.7732C49.9057 18.6333 51.3839 18.5534 52.892 18.5435C34.2751 18.8331 19.2337 33.8671 18.9441 52.4871C18.9441 52.5471 18.9441 52.597 18.9441 52.657C18.9441 52.7868 18.9441 52.9067 18.9441 53.0366C18.9441 53.1664 18.9441 53.2863 18.9441 53.4161C18.9441 53.4761 18.9441 53.526 18.9441 53.586C19.0439 63.2656 21.7606 72.306 26.4148 80.0577C32.5572 90.2768 42.0854 98.2383 53.4413 102.394C56.3378 103.453 59.354 104.262 62.4701 104.801L62.4303 104.781Z" fill="url(#paint7_linear_2371_2166)"/>
<path d="M105.876 53.2174C105.876 56.2941 105.607 59.3109 105.107 62.2377C101.332 84.0245 84.1433 101.216 62.3503 104.982C59.2441 104.443 56.2179 103.633 53.3215 102.575C41.9655 98.4191 32.4373 90.4576 26.295 80.2385C21.6407 72.4868 18.9241 63.4365 18.8242 53.7668C19.1139 72.3869 34.1552 87.4208 52.7722 87.7105C52.8321 87.7105 52.882 87.7105 52.942 87.7105C53.0718 87.7105 53.1916 87.7105 53.3215 87.7105C53.4513 87.7105 53.5712 87.7105 53.701 87.7105C53.7609 87.7105 53.8109 87.7105 53.8708 87.7105C63.5488 87.6106 72.5976 84.9035 80.348 80.2485C90.5754 74.1051 98.5355 64.5852 102.69 53.2274C103.749 50.3305 104.568 47.3137 105.097 44.207C105.607 47.1439 105.866 50.1507 105.866 53.2274L105.876 53.2174Z" fill="url(#paint8_linear_2371_2166)"/>
</g>
<defs>
<linearGradient id="paint0_linear_2371_2166" x1="32.0278" y1="53.0081" x2="49.9855" y2="53.0081" gradientUnits="userSpaceOnUse">
<stop stop-color="#231F20"/>
<stop offset="0.04" stop-color="#2D292A"/>
<stop offset="0.31" stop-color="#777475"/>
<stop offset="0.55" stop-color="#B1B0B0"/>
<stop offset="0.75" stop-color="#DBDADB"/>
<stop offset="0.91" stop-color="#F5F5F5"/>
<stop offset="1" stop-color="white"/>
</linearGradient>
<linearGradient id="paint1_linear_2371_2166" x1="71.299" y1="53.0079" x2="35.9827" y2="53.0079" gradientUnits="userSpaceOnUse">
<stop stop-color="#231F20"/>
<stop offset="0.09" stop-color="#2A2728"/>
<stop offset="0.24" stop-color="#403D3E"/>
<stop offset="0.42" stop-color="#646162"/>
<stop offset="0.63" stop-color="#959494"/>
<stop offset="0.86" stop-color="#D4D3D3"/>
<stop offset="1" stop-color="white"/>
</linearGradient>
<linearGradient id="paint2_linear_2371_2166" x1="2.98377" y1="47.0739" x2="75.1867" y2="23.6161" gradientUnits="userSpaceOnUse">
<stop stop-color="white"/>
<stop offset="0.5" stop-color="white"/>
<stop offset="0.57" stop-color="#FAFAFA"/>
<stop offset="0.65" stop-color="#ECECEC"/>
<stop offset="0.73" stop-color="#D5D5D6"/>
<stop offset="0.82" stop-color="#B5B6B6"/>
<stop offset="0.91" stop-color="#8C8D8E"/>
<stop offset="1" stop-color="#58595B"/>
</linearGradient>
<linearGradient id="paint3_linear_2371_2166" x1="22.8692" y1="31.0306" x2="59.0449" y2="120.561" gradientUnits="userSpaceOnUse">
<stop stop-color="#58595B"/>
<stop offset="0.09" stop-color="#8A8B8C"/>
<stop offset="0.19" stop-color="#BCBCBD"/>
<stop offset="0.27" stop-color="#E0E0E1"/>
<stop offset="0.34" stop-color="#F6F6F7"/>
<stop offset="0.39" stop-color="white"/>
<stop offset="1" stop-color="white"/>
</linearGradient>
<linearGradient id="paint4_linear_2371_2166" x1="31.0591" y1="80.7085" x2="109.912" y2="69.634" gradientUnits="userSpaceOnUse">
<stop stop-color="#58595B"/>
<stop offset="0.09" stop-color="#8A8B8C"/>
<stop offset="0.19" stop-color="#BCBCBD"/>
<stop offset="0.27" stop-color="#E0E0E1"/>
<stop offset="0.34" stop-color="#F6F6F7"/>
<stop offset="0.39" stop-color="white"/>
<stop offset="1" stop-color="white"/>
</linearGradient>
<linearGradient id="paint5_linear_2371_2166" x1="83.5042" y1="77.2318" x2="56.5394" y2="-5.73683" gradientUnits="userSpaceOnUse">
<stop stop-color="#58595B"/>
<stop offset="0.09" stop-color="#8A8B8C"/>
<stop offset="0.19" stop-color="#BCBCBD"/>
<stop offset="0.27" stop-color="#E0E0E1"/>
<stop offset="0.34" stop-color="#F6F6F7"/>
<stop offset="0.39" stop-color="white"/>
<stop offset="1" stop-color="white"/>
</linearGradient>
<linearGradient id="paint6_linear_2371_2166" x1="2.98377" y1="47.0734" x2="75.1867" y2="23.6156" gradientUnits="userSpaceOnUse">
<stop stop-color="white"/>
<stop offset="0.5" stop-color="white"/>
<stop offset="0.57" stop-color="#FAFAFA"/>
<stop offset="0.65" stop-color="#ECECEC"/>
<stop offset="0.73" stop-color="#D5D5D6"/>
<stop offset="0.82" stop-color="#B5B6B6"/>
<stop offset="0.91" stop-color="#8C8D8E"/>
<stop offset="1" stop-color="#58595B"/>
</linearGradient>
<linearGradient id="paint7_linear_2371_2166" x1="22.8692" y1="31.0301" x2="59.0449" y2="120.56" gradientUnits="userSpaceOnUse">
<stop stop-color="#58595B"/>
<stop offset="0.09" stop-color="#8A8B8C"/>
<stop offset="0.19" stop-color="#BCBCBD"/>
<stop offset="0.27" stop-color="#E0E0E1"/>
<stop offset="0.34" stop-color="#F6F6F7"/>
<stop offset="0.39" stop-color="white"/>
<stop offset="1" stop-color="white"/>
</linearGradient>
<linearGradient id="paint8_linear_2371_2166" x1="31.0591" y1="80.708" x2="109.912" y2="69.6335" gradientUnits="userSpaceOnUse">
<stop stop-color="#58595B"/>
<stop offset="0.09" stop-color="#8A8B8C"/>
<stop offset="0.19" stop-color="#BCBCBD"/>
<stop offset="0.27" stop-color="#E0E0E1"/>
<stop offset="0.34" stop-color="#F6F6F7"/>
<stop offset="0.39" stop-color="white"/>
<stop offset="1" stop-color="white"/>
</linearGradient>
</defs>
</svg>
