<svg width="22" height="22" viewBox="0 0 22 22" fill="none" xmlns="http://www.w3.org/2000/svg">
<path d="M5.06269 13.222L4.31898 15.9947L1.60473 16.0533C0.793679 14.5483 0.333984 12.8267 0.333984 10.9996C0.333984 9.17253 0.764399 7.56214 1.52568 6.09521L3.94127 6.53734L4.99827 8.9383C4.77575 9.58539 4.6557 10.2764 4.6557 10.9996C4.6557 11.7814 4.79624 12.5339 5.05683 13.2249L5.06269 13.222Z" fill="#FBBB00"/>
<path d="M21.4794 9.00562C21.6024 9.64977 21.6668 10.3174 21.6668 10.9967C21.6668 11.7609 21.5877 12.5046 21.4326 13.2249C20.9143 15.6697 19.5557 17.8042 17.676 19.3151L14.6338 19.1599L14.2034 16.472C15.4507 15.74 16.4257 14.5952 16.9381 13.2249H11.2344V9.00562H21.4794Z" fill="#518EF8"/>
<path d="M17.6772 19.3152C15.8501 20.785 13.5282 21.6634 11.0014 21.6634C6.94027 21.6634 3.40911 19.3942 1.60547 16.0534L5.0605 13.225C5.96232 15.6289 8.28129 17.3388 10.9985 17.3388C12.1667 17.3388 13.2618 17.0226 14.2017 16.4721L17.6743 19.3152H17.6772Z" fill="#28B446"/>
<path d="M17.8089 2.78959L14.3539 5.61802C13.3818 5.009 12.2311 4.66058 11.0013 4.66058C8.22268 4.66058 5.85979 6.44958 5.00482 8.9413L1.5293 6.09529C3.30366 2.67247 6.88166 0.335938 11.0013 0.335938C13.5897 0.335938 15.9614 1.25826 17.8089 2.79253V2.78959Z" fill="#F14336"/>
</svg>
