<svg width="22" height="8" viewBox="0 0 22 8" fill="none" xmlns="http://www.w3.org/2000/svg">
<path d="M11.4492 2.41579V2.00329H12.6839V7.79846H11.9781C11.8384 7.7987 11.7042 7.74356 11.6051 7.64511C11.506 7.54666 11.4499 7.41292 11.4492 7.27321C10.9338 7.6505 10.3114 7.85437 9.67267 7.85346C8.87459 7.85346 8.10918 7.53655 7.54469 6.9724C6.98019 6.40825 6.66282 5.64303 6.66233 4.84496C6.66282 4.04689 6.98019 3.28167 7.54469 2.71752C8.10918 2.15337 8.87459 1.83646 9.67267 1.83646C10.3111 1.83574 10.934 2.03869 11.4492 2.41579ZM6.34242 0.140625V0.328542C6.34242 0.678708 6.29567 0.964709 6.06742 1.30021L6.03992 1.33137C5.96387 1.41665 5.88991 1.50376 5.81808 1.59262L1.85533 6.56646H6.34242V7.27046C6.34242 7.33987 6.32873 7.40861 6.30214 7.47273C6.27555 7.53685 6.23657 7.59509 6.18745 7.64414C6.13832 7.69318 6.08 7.73205 6.01584 7.75853C5.95167 7.78501 5.88292 7.79858 5.8135 7.79846H0V7.46662C0 7.06054 0.100833 6.87904 0.229167 6.69021L4.45225 1.46062H0.176V0.140625H6.34242ZM14.1808 7.79846C14.0641 7.79846 13.9522 7.7521 13.8697 7.66958C13.7872 7.58707 13.7408 7.47515 13.7408 7.35846V0.140625H15.0618V7.79846H14.1808ZM18.9686 1.79979C19.3666 1.79967 19.7607 1.87794 20.1284 2.03012C20.4961 2.18231 20.8302 2.40543 21.1117 2.68676C21.3932 2.96808 21.6166 3.30209 21.769 3.66972C21.9214 4.03735 21.9999 4.4314 22 4.82937C22.0001 5.22735 21.9219 5.62144 21.7697 5.98917C21.6175 6.35689 21.3944 6.69104 21.113 6.97253C20.8317 7.25402 20.4977 7.47735 20.1301 7.62976C19.7624 7.78217 19.3684 7.86067 18.9704 7.86079C18.1667 7.86103 17.3958 7.54198 16.8273 6.97383C16.2588 6.40567 15.9392 5.63495 15.939 4.83121C15.9388 4.02747 16.2578 3.25655 16.826 2.68805C17.3941 2.11955 18.1648 1.80004 18.9686 1.79979ZM9.67358 6.61504C9.90948 6.62041 10.1441 6.57858 10.3636 6.49202C10.5831 6.40545 10.7831 6.27589 10.9518 6.11095C11.1206 5.94601 11.2546 5.74901 11.3462 5.53153C11.4377 5.31404 11.4849 5.08046 11.4849 4.8445C11.4849 4.60854 11.4377 4.37496 11.3462 4.15747C11.2546 3.93999 11.1206 3.74299 10.9518 3.57805C10.7831 3.41311 10.5831 3.28355 10.3636 3.19698C10.1441 3.11042 9.90948 3.06859 9.67358 3.07396C9.21098 3.08448 8.77087 3.27565 8.44742 3.60654C8.12397 3.93743 7.94287 4.38178 7.94287 4.8445C7.94287 5.30722 8.12397 5.75156 8.44742 6.08246C8.77087 6.41335 9.21098 6.60451 9.67358 6.61504ZM18.9686 6.61229C19.4414 6.61229 19.8949 6.42445 20.2293 6.09009C20.5637 5.75573 20.7515 5.30223 20.7515 4.82937C20.7515 4.35652 20.5637 3.90302 20.2293 3.56866C19.8949 3.2343 19.4414 3.04646 18.9686 3.04646C18.4957 3.04646 18.0422 3.2343 17.7079 3.56866C17.3735 3.90302 17.1857 4.35652 17.1857 4.82937C17.1857 5.30223 17.3735 5.75573 17.7079 6.09009C18.0422 6.42445 18.4957 6.61229 18.9686 6.61229Z" fill="white"/>
</svg>
