<svg width="16" height="16" viewBox="0 0 16 16" fill="none" xmlns="http://www.w3.org/2000/svg">
<path fill-rule="evenodd" clip-rule="evenodd" d="M10.865 1.07524C10.9622 0.953252 11.1088 0.882324 11.2637 0.882324H15.2527C15.4498 0.882324 15.6295 0.996744 15.7145 1.17652C15.7996 1.3563 15.7751 1.5695 15.6514 1.72471L5.13495 14.9247C5.03777 15.0467 4.89118 15.1176 4.73626 15.1176H0.747254C0.550142 15.1176 0.370537 15.0032 0.28545 14.8234C0.200364 14.6436 0.22491 14.4304 0.348564 14.2752L10.865 1.07524ZM11.5087 1.91762L1.81707 14.0823H4.49127L14.1829 1.91762H11.5087Z" fill="white"/>
<path fill-rule="evenodd" clip-rule="evenodd" d="M0.28545 1.17652C0.370537 0.996744 0.550142 0.882324 0.747254 0.882324H4.73626C4.89118 0.882324 5.03777 0.953252 5.13495 1.07524L15.6514 14.2752C15.7751 14.4304 15.7996 14.6436 15.7145 14.8234C15.6295 15.0032 15.4498 15.1176 15.2527 15.1176H11.2637C11.1088 15.1176 10.9622 15.0467 10.865 14.9247L0.348564 1.72471C0.22491 1.5695 0.200364 1.3563 0.28545 1.17652ZM1.81707 1.91762L11.5087 14.0823H14.1829L4.49127 1.91762H1.81707Z" fill="white"/>
</svg>
