<svg width="18" height="13" viewBox="0 0 18 13" fill="none" xmlns="http://www.w3.org/2000/svg">
<path d="M9.05205 0.852905H9.14204C9.97316 0.855928 14.1844 0.886154 15.3198 1.19042C15.6631 1.28329 15.9759 1.46429 16.2269 1.71535C16.478 1.96641 16.6585 2.27873 16.7505 2.6211C16.8526 3.00396 16.9244 3.51075 16.9729 4.03365L16.9831 4.13843L17.0053 4.40039L17.0134 4.50517C17.0791 5.42604 17.0872 6.28848 17.0882 6.47689V6.55245C17.0872 6.74791 17.0781 7.66878 17.0053 8.62794L16.9972 8.73373L16.9881 8.83852C16.9376 9.41482 16.8627 9.98709 16.7505 10.4082C16.6588 10.7507 16.4784 11.0632 16.2273 11.3143C15.9761 11.5654 15.6632 11.7463 15.3198 11.8389C14.1469 12.1533 9.68904 12.1754 9.07126 12.1764H8.92768C8.61526 12.1764 7.32308 12.1704 5.96822 12.124L5.79633 12.118L5.70837 12.114L5.53547 12.1069L5.36257 12.0999C4.24026 12.0505 3.17154 11.9709 2.67913 11.8379C2.33586 11.7454 2.023 11.5647 1.7719 11.3137C1.52081 11.0628 1.34029 10.7506 1.24844 10.4082C1.13621 9.9881 1.06138 9.41482 1.01083 8.83852L1.00274 8.73273L0.994653 8.62794C0.944753 7.94525 0.917102 7.26112 0.911743 6.57663L0.911743 6.45271C0.913765 6.23609 0.921854 5.4875 0.976453 4.66133L0.983531 4.55756L0.986564 4.50517L0.994653 4.40039L1.0169 4.13843L1.02701 4.03365C1.07554 3.51075 1.14733 3.00296 1.24945 2.6211C1.34115 2.2786 1.5216 1.96613 1.7727 1.71502C2.02381 1.46392 2.33675 1.28301 2.68014 1.19042C3.17255 1.05945 4.24127 0.978845 5.36358 0.928469L5.53547 0.921417L5.70938 0.915372L5.79633 0.912349L5.96923 0.905297C6.93149 0.874441 7.89415 0.857311 8.85691 0.853913H9.05205V0.852905ZM7.38274 4.08705V8.94129L11.5858 6.51517L7.38274 4.08705Z" fill="white"/>
</svg>
