<svg width="69" height="68" viewBox="0 0 69 68" fill="none" xmlns="http://www.w3.org/2000/svg">
<g id="nonicons:interface-16" clip-path="url(#clip0_2056_1703)">
<path id="Union" fill-rule="evenodd" clip-rule="evenodd" d="M50.1485 19.2272C48.5705 19.1973 47.0024 19.4823 45.5358 20.0656C44.0693 20.6488 42.7337 21.5185 41.6071 22.624C40.4806 23.7294 39.5858 25.0483 38.9749 26.5035C38.364 27.9588 38.0494 29.5213 38.0494 31.0995C38.0494 32.6778 38.364 34.2403 38.9749 35.6956C39.5858 37.1508 40.4806 38.4697 41.6071 39.5751C42.7337 40.6805 44.0693 41.5503 45.5358 42.1335C47.0024 42.7168 48.5705 43.0018 50.1485 42.9719C53.2584 42.9131 56.221 41.6364 58.3995 39.4163C60.578 37.1962 61.7984 34.21 61.7984 31.0995C61.7984 27.9891 60.578 25.0029 58.3995 22.7828C56.221 20.5627 53.2584 19.286 50.1485 19.2272ZM21.5914 34.3406H32.0901C32.7476 38.0023 34.5088 41.4055 37.1757 44.0724C40.6169 47.5136 45.2841 49.4468 50.1506 49.4468C55.0172 49.4468 59.6844 47.5136 63.1256 44.0724C66.5668 40.6312 68.5 35.964 68.5 31.0974C68.5 26.2309 66.5668 21.5636 63.1256 18.1225C59.6844 14.6813 55.0172 12.748 50.1506 12.748C45.2841 12.748 40.6169 14.6813 37.1757 18.1225C34.5076 20.7906 32.746 24.1957 32.0892 27.8594H21.5928C21.4979 27.5577 21.3897 27.2598 21.2683 26.9667C20.7258 25.657 19.9306 24.4669 18.9282 23.4645C17.9258 22.4621 16.7358 21.667 15.4261 21.1245C14.1164 20.582 12.7126 20.3027 11.295 20.3027C9.87738 20.3027 8.47364 20.582 7.16393 21.1245C5.85422 21.667 4.66419 22.4621 3.66178 23.4645C2.65937 24.4669 1.86422 25.657 1.32172 26.9667C0.779221 28.2764 0.5 29.6801 0.5 31.0977C0.5 33.9607 1.63733 36.7065 3.66178 38.731C5.68624 40.7554 8.43199 41.8927 11.295 41.8927C14.158 41.8927 16.9038 40.7554 18.9282 38.731C20.1675 37.4916 21.0744 35.982 21.5914 34.3406ZM17.7678 31.0982C17.7899 31.9625 17.6388 32.8224 17.3234 33.6273C17.008 34.4323 16.5346 35.1659 15.9311 35.785C15.3277 36.4041 14.6064 36.8961 13.8098 37.2321C13.0132 37.568 12.1575 37.7411 11.2929 37.7411C10.4284 37.7411 9.5726 37.568 8.77601 37.2321C7.97942 36.8961 7.25814 36.4041 6.6547 35.785C6.05127 35.1659 5.57787 34.4323 5.26244 33.6273C4.947 32.8224 4.7959 31.9625 4.81804 31.0982C4.86131 29.4097 5.56246 27.8049 6.77202 26.6259C7.98158 25.4469 9.60384 24.7871 11.2929 24.7871C12.982 24.7871 14.6043 25.4469 15.8138 26.6259C17.0234 27.8049 17.7245 29.4097 17.7678 31.0982Z" fill="url(#paint0_linear_2056_1703)"/>
</g>
<defs>
<linearGradient id="paint0_linear_2056_1703" x1="34.5" y1="12.748" x2="34.5" y2="49.4468" gradientUnits="userSpaceOnUse">
<stop stop-color="#00D4FC"/>
<stop offset="1" stop-color="#1955B6"/>
</linearGradient>
<clipPath id="clip0_2056_1703">
<rect width="68" height="68" fill="white" transform="translate(0.5)"/>
</clipPath>
</defs>
</svg>
