<svg width="58" height="58" viewBox="0 0 58 58" fill="none" xmlns="http://www.w3.org/2000/svg">
<path fill-rule="evenodd" clip-rule="evenodd" d="M10 16.6501C10 15.1516 10.5819 13.7145 11.6177 12.6549C12.6534 11.5953 14.0582 11 15.523 11H41.477C42.2023 11 42.9204 11.1461 43.5905 11.4301C44.2606 11.714 44.8695 12.1302 45.3823 12.6549C45.8952 13.1795 46.302 13.8024 46.5796 14.4879C46.8571 15.1734 47 15.9081 47 16.6501V33.9416C47 34.6835 46.8571 35.4182 46.5796 36.1037C46.302 36.7892 45.8952 37.4121 45.3823 37.9368C44.8695 38.4614 44.2606 38.8776 43.5905 39.1615C42.9204 39.4455 42.2023 39.5916 41.477 39.5916H30.7092V44.74C30.7092 45.3394 30.4765 45.9142 30.0622 46.3381C29.6478 46.7619 29.0859 47 28.5 47C27.9141 47 27.3522 46.7619 26.9378 46.3381C26.5235 45.9142 26.2908 45.3394 26.2908 44.74V39.0922C25.9339 38.7992 25.6747 38.4002 25.549 37.9501C25.4233 37.5 25.4374 37.0211 25.5892 36.5795C25.741 36.138 26.0231 35.7555 26.3965 35.485C26.7699 35.2144 27.2162 35.0692 27.6738 35.0693H41.477C41.7699 35.0693 42.0509 34.9503 42.258 34.7383C42.4652 34.5264 42.5816 34.239 42.5816 33.9393V16.6501C42.5816 16.3504 42.4652 16.063 42.258 15.851C42.0509 15.6391 41.7699 15.5201 41.477 15.5201H15.523C15.2301 15.5201 14.9491 15.6391 14.742 15.851C14.5348 16.063 14.4184 16.3504 14.4184 16.6501V20.0401C14.4184 20.6395 14.1857 21.2144 13.7714 21.6382C13.3571 22.062 12.7951 22.3001 12.2092 22.3001C11.6233 22.3001 11.0614 22.062 10.6471 21.6382C10.2328 21.2144 10 20.6395 10 20.0401V16.6501Z" fill="url(#paint0_linear_1542_16781)"/>
<path fill-rule="evenodd" clip-rule="evenodd" d="M18.0164 45.7792C18.0164 45.2018 18.2522 44.6481 18.672 44.2399C19.0918 43.8316 19.6612 43.6023 20.2549 43.6023H36.7615C37.3552 43.6023 37.9246 43.8316 38.3444 44.2399C38.7642 44.6481 39 45.2018 39 45.7792C39 46.3565 38.7642 46.9102 38.3444 47.3185C37.9246 47.7267 37.3552 47.956 36.7615 47.956H20.2549C19.6612 47.956 19.0918 47.7267 18.672 47.3185C18.2522 46.9102 18.0164 46.3565 18.0164 45.7792ZM18.576 27.9112C18.0056 27.6006 17.3772 27.4039 16.7276 27.3326C16.078 27.2614 15.4203 27.3171 14.7931 27.4964C14.1659 27.6757 13.5819 27.975 13.0752 28.3767C12.5686 28.7785 12.1496 29.2746 11.8428 29.836C11.536 30.3973 11.3475 31.0126 11.2885 31.6458C11.2296 32.2789 11.3012 32.9171 11.4993 33.523C11.6973 34.1288 12.0178 34.6901 12.442 35.1739C12.8661 35.6576 13.3853 36.0541 13.9692 36.3401C15.1176 36.921 16.4554 37.0372 17.6915 36.6635C18.9276 36.2898 19.9619 35.4565 20.5693 34.3449C21.1767 33.2332 21.308 31.9333 20.9347 30.728C20.5614 29.5226 19.7137 28.5095 18.576 27.909V27.9112ZM7.98344 27.8415C8.80995 26.3303 10.0568 25.0755 11.5815 24.2205C13.1063 23.3654 14.8475 22.9445 16.6065 23.0059C18.3655 23.0672 20.0713 23.6083 21.5292 24.5673C22.987 25.5263 24.1383 26.8647 24.8514 28.4296C25.5645 29.9945 25.8108 31.7228 25.5621 33.4173C25.3134 35.1118 24.5798 36.7042 23.445 38.0126C22.3102 39.3211 20.82 40.2928 19.1444 40.817C17.4689 41.3411 15.6756 41.3965 13.9692 40.9769L10.2152 47.845C10.0772 48.0975 9.88941 48.321 9.66257 48.5028C9.43572 48.6847 9.17427 48.8213 8.89314 48.9049C8.612 48.9885 8.31669 49.0174 8.02406 48.99C7.73144 48.9626 7.44722 48.8794 7.18765 48.7452C6.92808 48.611 6.69824 48.4283 6.51125 48.2077C6.32425 47.9871 6.18377 47.7329 6.09782 47.4595C6.01187 47.1861 5.98213 46.8989 6.01031 46.6143C6.03848 46.3297 6.12402 46.0533 6.26204 45.8009L10.016 38.9328C8.45035 37.5715 7.39927 35.7391 7.0308 33.7284C6.66233 31.7177 6.99775 29.645 7.98344 27.8415Z" fill="url(#paint1_linear_1542_16781)"/>
<path fill-rule="evenodd" clip-rule="evenodd" d="M29 53.5385C42.5519 53.5385 53.5385 42.5519 53.5385 29C53.5385 15.4481 42.5519 4.46154 29 4.46154C15.4481 4.46154 4.46154 15.4481 4.46154 29C4.46154 42.5519 15.4481 53.5385 29 53.5385ZM29 58C45.0169 58 58 45.0169 58 29C58 12.9831 45.0169 0 29 0C12.9831 0 0 12.9831 0 29C0 45.0169 12.9831 58 29 58Z" fill="url(#paint2_linear_1542_16781)"/>
<defs>
<linearGradient id="paint0_linear_1542_16781" x1="12.3315" y1="1.37491" x2="61.7673" y2="65.0114" gradientUnits="userSpaceOnUse">
<stop stop-color="#0062FF"/>
<stop offset="0.19" stop-color="#1D8AFF"/>
<stop offset="0.46" stop-color="#41BCFF"/>
<stop offset="0.69" stop-color="#5CE0FF"/>
<stop offset="0.88" stop-color="#6CF6FF"/>
<stop offset="1" stop-color="#72FFFF"/>
</linearGradient>
<linearGradient id="paint1_linear_1542_16781" x1="8.07946" y1="16.0485" x2="41.2948" y2="68.8499" gradientUnits="userSpaceOnUse">
<stop stop-color="#0062FF"/>
<stop offset="0.19" stop-color="#1D8AFF"/>
<stop offset="0.46" stop-color="#41BCFF"/>
<stop offset="0.69" stop-color="#5CE0FF"/>
<stop offset="0.88" stop-color="#6CF6FF"/>
<stop offset="1" stop-color="#72FFFF"/>
</linearGradient>
<linearGradient id="paint2_linear_1542_16781" x1="3.65481" y1="-15.5071" x2="83.8144" y2="84.8901" gradientUnits="userSpaceOnUse">
<stop stop-color="#0062FF"/>
<stop offset="0.19" stop-color="#1D8AFF"/>
<stop offset="0.46" stop-color="#41BCFF"/>
<stop offset="0.69" stop-color="#5CE0FF"/>
<stop offset="0.88" stop-color="#6CF6FF"/>
<stop offset="1" stop-color="#72FFFF"/>
</linearGradient>
</defs>
</svg>
