<svg width="68" height="68" viewBox="0 0 68 68" fill="none" xmlns="http://www.w3.org/2000/svg">
<path fill-rule="evenodd" clip-rule="evenodd" d="M54.6634 3.66336C55.7699 2.55687 57.5638 2.55687 58.6703 3.66336C59.7768 4.76985 59.7768 6.56381 58.6703 7.6703L7.6703 58.6703C6.56381 59.7768 4.76985 59.7768 3.66336 58.6703C2.55687 57.5638 2.55687 55.7698 3.66336 54.6634L8.00525 50.3215C7.0129 49.8992 6.10046 49.2879 5.32309 48.5106C3.72903 46.9165 2.8335 44.7545 2.8335 42.5002V14.1668C2.8335 11.9125 3.72903 9.75048 5.32309 8.15642C6.91715 6.56236 9.07916 5.66683 11.3335 5.66683H52.6599L54.6634 3.66336ZM46.9932 11.3335H19.5473C18.9959 14.0349 17.6629 16.5388 15.6842 18.5175C13.7054 20.4963 11.2016 21.8292 8.50016 22.3807V42.5002C8.50016 43.2516 8.79867 43.9723 9.33003 44.5036C9.86138 45.035 10.5821 45.3335 11.3335 45.3335H12.9932L24.2377 34.089C23.1633 32.2655 22.6131 30.1635 22.6731 28.0183C22.7541 25.1233 23.9403 22.3693 25.9881 20.3214C28.0359 18.2736 30.79 17.0874 33.6849 17.0064C35.8302 16.9464 37.9322 17.4966 39.7557 18.5711L46.9932 11.3335ZM35.4658 22.861C34.9414 22.7207 34.3953 22.6554 33.8435 22.6709C32.396 22.7114 31.019 23.3045 29.995 24.3284C28.9711 25.3523 28.378 26.7293 28.3375 28.1768C28.3221 28.7286 28.3874 29.2747 28.5276 29.7991L35.4658 22.861ZM8.50016 16.514C9.68422 16.0954 10.7723 15.4156 11.6772 14.5106C12.5822 13.6056 13.2621 12.5176 13.6807 11.3335H11.3335C10.582 11.3335 9.86138 11.632 9.33003 12.1634C8.79867 12.6947 8.50016 13.4154 8.50016 14.1668V16.514ZM52.2716 28.1033C52.4065 26.5443 53.7798 25.3899 55.3387 25.5249L57.6669 25.7265C61.6655 26.0796 64.8599 29.508 64.5017 33.6386L62.9571 51.2545C62.9553 51.2964 62.9526 51.3383 62.9489 51.3803L62.5607 55.8173C62.1975 59.946 58.4538 62.7707 54.4544 62.422L19.5866 59.3704C18.0277 59.234 16.8746 57.8598 17.0109 56.3009C17.1473 54.7421 18.5215 53.5889 20.0804 53.7253L47.8302 56.1527C49.2937 51.9782 53.0882 49.0123 57.5202 48.386L58.8563 33.1491C58.9219 32.3787 58.3035 31.4722 57.1701 31.3713L54.8499 31.1704C53.2909 31.0355 52.1366 29.6622 52.2716 28.1033ZM57.0044 54.3088C55.7011 54.7673 54.6103 55.6116 53.8747 56.6826L54.9466 56.7767C56.0796 56.8746 56.8474 56.0899 56.9156 55.3234M56.9156 55.3234L57.0044 54.3088L56.9156 55.3234Z" fill="url(#paint0_linear_1542_16796)"/>
<path fill-rule="evenodd" clip-rule="evenodd" d="M45.3267 34.6111C46.5905 33.6885 48.363 33.9652 49.2857 35.229C50.9572 37.5189 51.0834 40.1904 50.3856 42.4724C49.7008 44.7121 48.2003 46.7205 46.314 48.0975C44.4183 49.4814 41.9335 50.3637 39.2746 49.9678C36.5516 49.5623 34.1088 47.8859 32.2434 45.0345C31.3867 43.725 31.7537 41.969 33.0632 41.1123C34.3727 40.2557 36.1287 40.6227 36.9854 41.9322C38.1487 43.7104 39.2901 44.2409 40.1093 44.3629C40.9927 44.4945 42.0081 44.2249 42.9729 43.5206C43.9472 42.8094 44.6676 41.7933 44.9666 40.8155C45.2527 39.88 45.1254 39.1408 44.7087 38.5701C43.7861 37.3062 44.0628 35.5337 45.3267 34.6111Z" fill="url(#paint1_linear_1542_16796)"/>
<defs>
<linearGradient id="paint0_linear_1542_16796" x1="6.72119" y1="-13.1061" x2="88.4482" y2="92.8224" gradientUnits="userSpaceOnUse">
<stop stop-color="#0062FF"/>
<stop offset="0.19" stop-color="#1D8AFF"/>
<stop offset="0.46" stop-color="#41BCFF"/>
<stop offset="0.69" stop-color="#5CE0FF"/>
<stop offset="0.88" stop-color="#6CF6FF"/>
<stop offset="1" stop-color="#72FFFF"/>
</linearGradient>
<linearGradient id="paint1_linear_1542_16796" x1="38.0771" y1="26.2648" x2="52.5447" y2="62.6077" gradientUnits="userSpaceOnUse">
<stop stop-color="#0062FF"/>
<stop offset="0.19" stop-color="#1D8AFF"/>
<stop offset="0.46" stop-color="#41BCFF"/>
<stop offset="0.69" stop-color="#5CE0FF"/>
<stop offset="0.88" stop-color="#6CF6FF"/>
<stop offset="1" stop-color="#72FFFF"/>
</linearGradient>
</defs>
</svg>
