<svg width="69" height="68" viewBox="0 0 69 68" fill="none" xmlns="http://www.w3.org/2000/svg">
<g clip-path="url(#clip0_2056_1717)">
<path d="M34.4813 46.1547C37.0882 46.1615 39.6711 45.6519 42.0809 44.6553C44.4907 43.6587 46.6797 42.1948 48.5216 40.3481L48.6475 40.2222C52.408 36.4714 54.533 31.3863 54.5584 26.0776V26.0812C54.5661 23.4771 54.0584 20.8978 53.0644 18.4918C52.0705 16.0858 50.61 13.9008 48.7672 12.0627L48.6396 11.9351L48.6468 11.9423L48.636 11.9315C44.8888 8.17463 39.8058 6.05455 34.4971 6.03425L34.5007 6.03425C31.8938 6.02746 29.3109 6.53708 26.9011 7.53371C24.4912 8.53033 22.3022 9.99422 20.4604 11.8409L20.3399 11.9614L20.3453 11.956L20.3345 11.9668C16.4241 15.8771 14.4548 20.9911 14.4235 26.1114L14.4235 26.1078C14.4332 28.0147 14.0637 29.9049 13.3367 31.6685C12.6096 33.432 11.5394 35.0339 10.1883 36.3809L10.1469 36.4222C9.09824 37.4709 9.09742 39.1681 10.1451 40.2157L20.3159 50.3865C20.5601 50.6312 20.8529 50.8219 21.1756 50.9463C21.4982 51.0706 21.8434 51.1258 22.1889 51.1083H22.1925C22.5476 51.117 22.9008 51.0533 23.2306 50.9212C23.5605 50.789 23.86 50.5912 24.1111 50.3397L24.1201 50.3307C26.897 47.6387 30.6138 46.1359 34.4795 46.1422L34.4813 46.1547ZM34.4174 40.6876C30.0746 40.6705 25.8482 42.0988 22.4041 44.7475L22.3268 44.8105L21.3618 43.8455L35.58 34.515C35.8848 34.3219 36.1486 34.0706 36.3563 33.7756C36.5641 33.4806 36.7118 33.1476 36.7909 32.7956C36.87 32.4437 36.8791 32.0797 36.8176 31.7243C36.756 31.369 36.6251 31.0294 36.4322 30.7248C36.2393 30.4202 35.9883 30.1566 35.6935 29.9491C35.3987 29.7417 35.0659 29.5943 34.714 29.5155C34.3621 29.4367 33.9981 29.428 33.6427 29.4899C33.2873 29.5518 32.9476 29.6831 32.6428 29.8762L32.6284 29.887L26.2602 34.0737L30.375 27.5114C30.5643 27.2059 30.6912 26.8661 30.7485 26.5115C30.8057 26.1569 30.7922 25.7945 30.7087 25.4453C30.6253 25.0961 30.4734 24.7669 30.262 24.4768C30.0506 24.1867 29.7838 23.9413 29.477 23.7549C29.1702 23.5685 28.8295 23.4447 28.4745 23.3907C28.1195 23.3367 27.7572 23.3535 27.4086 23.4402C27.06 23.5269 26.732 23.6818 26.4434 23.8958C26.1548 24.1099 25.9114 24.3789 25.7272 24.6874L25.7362 24.6712L16.7275 39.0781L15.829 38.1796C18.4747 34.6989 19.9214 30.4553 19.9519 26.0853L19.9519 26.0889C19.9718 23.2242 20.8401 20.4287 22.447 18.0554C24.054 15.6821 26.3276 13.8375 28.9808 12.7544C31.6341 11.6712 34.548 11.3982 37.3547 11.9696C40.1614 12.5411 42.7351 13.9315 44.7508 15.9653C46.7665 17.9991 48.1339 20.585 48.6803 23.3967C49.2268 26.2085 48.9277 29.1199 47.821 31.7634C46.7143 34.4069 44.8495 36.664 42.462 38.2497C40.0745 39.8355 37.2715 40.6788 34.4066 40.6732L34.4174 40.6876ZM19.6229 55.748L19.6553 55.7156C20.7039 54.667 20.7048 52.9698 19.6571 51.9222L8.69923 40.9643C8.18786 40.4529 7.49409 40.1658 6.77054 40.1662C6.047 40.1665 5.35295 40.4543 4.84108 40.9661C4.32921 41.478 4.04145 42.1721 4.0411 42.8956C4.04075 43.6192 4.32784 44.3129 4.83921 44.8243L15.7648 55.7499C16.2775 56.2588 16.9707 56.5441 17.6935 56.5438C18.4162 56.5434 19.1097 56.2574 19.6229 55.748ZM13.1906 55.1075L5.15814 47.075C4.90493 46.8218 4.60428 46.621 4.27336 46.4841C3.94243 46.3471 3.58771 46.2767 3.22945 46.2769C2.87119 46.2771 2.5164 46.3478 2.18534 46.4851C1.85428 46.6224 1.55344 46.8235 1.29998 47.0769C1.04653 47.3304 0.845434 47.6312 0.708172 47.9623C0.570911 48.2933 0.500174 48.6481 0.5 49.0064C0.499827 49.3646 0.57022 49.7194 0.707162 50.0503C0.844103 50.3812 1.04491 50.6819 1.29812 50.9351L9.33056 58.9675C9.84879 59.4432 10.5309 59.7003 11.2346 59.6851C11.9382 59.6699 12.6091 59.3836 13.1073 58.8859C13.6054 58.3882 13.8924 57.7176 13.9082 57.014C13.9241 56.3103 13.6658 55.6262 13.1906 55.1075Z" fill="url(#paint0_linear_2056_1717)"/>
</g>
<defs>
<linearGradient id="paint0_linear_2056_1717" x1="27.5293" y1="6.03418" x2="27.5293" y2="59.6858" gradientUnits="userSpaceOnUse">
<stop stop-color="#00D4FC"/>
<stop offset="1" stop-color="#1955B6"/>
</linearGradient>
<clipPath id="clip0_2056_1717">
<rect width="68" height="68" fill="white" transform="translate(0.171875)"/>
</clipPath>
</defs>
</svg>
