<svg width="52" height="52" viewBox="0 0 52 52" fill="none" xmlns="http://www.w3.org/2000/svg">
<path d="M37.3333 40.1667C38.1361 40.1667 38.8095 39.8947 39.3535 39.3507C39.8975 38.8067 40.1686 38.1342 40.1667 37.3333V14.6667C40.1667 13.8639 39.8947 13.1905 39.3507 12.6465C38.8067 12.1025 38.1342 11.8314 37.3333 11.8333H28.8333C27.275 11.8333 25.9405 12.3887 24.8298 13.4993C23.7192 14.61 23.1648 15.9436 23.1667 17.5V21.1833C22.2222 21.7028 21.5139 22.3639 21.0417 23.1667C20.5694 23.9694 20.3333 24.9139 20.3333 26C20.3333 27.5583 20.8887 28.8928 21.9993 30.0035C23.11 31.1142 24.4436 31.6686 26 31.6667C27.5583 31.6667 28.8928 31.1113 30.0035 30.0007C31.1142 28.89 31.6686 27.5564 31.6667 26C31.6667 24.9139 31.4069 23.9694 30.8875 23.1667C30.3681 22.3639 29.6833 21.7028 28.8333 21.1833V17.5H34.5V34.5H17.5V17.5C18.3028 17.5 18.9762 17.228 19.5202 16.684C20.0642 16.14 20.3352 15.4676 20.3333 14.6667C20.3333 13.8639 20.0613 13.1905 19.5173 12.6465C18.9733 12.1025 18.3009 11.8314 17.5 11.8333H14.6667C13.8639 11.8333 13.1905 12.1053 12.6465 12.6493C12.1025 13.1933 11.8314 13.8658 11.8333 14.6667V37.3333C11.8333 38.1361 12.1053 38.8095 12.6493 39.3535C13.1933 39.8975 13.8658 40.1686 14.6667 40.1667H37.3333ZM6.16667 51.5C4.60834 51.5 3.27384 50.9447 2.16317 49.834C1.0525 48.7233 0.498116 47.3898 0.500005 45.8333V6.16667C0.500005 4.60834 1.05534 3.27384 2.166 2.16317C3.27667 1.0525 4.61023 0.498116 6.16667 0.500005H45.8333C47.3917 0.500005 48.7262 1.05534 49.8368 2.166C50.9475 3.27667 51.5019 4.61023 51.5 6.16667V45.8333C51.5 47.3917 50.9447 48.7262 49.834 49.8368C48.7233 50.9475 47.3898 51.5019 45.8333 51.5H6.16667ZM6.16667 45.8333H45.8333V6.16667H6.16667V45.8333Z" fill="url(#paint0_linear_2056_1684)"/>
<defs>
<linearGradient id="paint0_linear_2056_1684" x1="26" y1="0.5" x2="26" y2="51.5" gradientUnits="userSpaceOnUse">
<stop stop-color="#00D4FC"/>
<stop offset="1" stop-color="#1955B6"/>
</linearGradient>
</defs>
</svg>
