<svg width="69" height="68" viewBox="0 0 69 68" fill="none" xmlns="http://www.w3.org/2000/svg">
<g id="pepicons-pop:monitor-loop-circle" clip-path="url(#clip0_2056_1692)">
<g id="Group">
<path id="Vector" fill-rule="evenodd" clip-rule="evenodd" d="M10.5 21.6501C10.5 20.1516 11.0819 18.7145 12.1177 17.6549C13.1534 16.5953 14.5582 16 16.023 16H41.977C42.7023 16 43.4204 16.1461 44.0905 16.4301C44.7606 16.714 45.3695 17.1302 45.8823 17.6549C46.3952 18.1795 46.802 18.8024 47.0796 19.4879C47.3571 20.1734 47.5 20.9081 47.5 21.6501V38.9416C47.5 39.6835 47.3571 40.4182 47.0796 41.1037C46.802 41.7892 46.3952 42.4121 45.8823 42.9368C45.3695 43.4614 44.7606 43.8776 44.0905 44.1615C43.4204 44.4455 42.7023 44.5916 41.977 44.5916H31.2092V49.74C31.2092 50.3394 30.9765 50.9142 30.5622 51.3381C30.1478 51.7619 29.5859 52 29 52C28.4141 52 27.8522 51.7619 27.4378 51.3381C27.0235 50.9142 26.7908 50.3394 26.7908 49.74V44.0922C26.4339 43.7992 26.1747 43.4002 26.049 42.9501C25.9233 42.5 25.9374 42.0211 26.0892 41.5795C26.241 41.138 26.5231 40.7555 26.8965 40.485C27.2699 40.2144 27.7162 40.0692 28.1738 40.0693H41.977C42.2699 40.0693 42.5509 39.9503 42.758 39.7383C42.9652 39.5264 43.0816 39.239 43.0816 38.9393V21.6501C43.0816 21.3504 42.9652 21.063 42.758 20.851C42.5509 20.6391 42.2699 20.5201 41.977 20.5201H16.023C15.7301 20.5201 15.4491 20.6391 15.242 20.851C15.0348 21.063 14.9184 21.3504 14.9184 21.6501V25.0401C14.9184 25.6395 14.6857 26.2144 14.2714 26.6382C13.8571 27.062 13.2951 27.3001 12.7092 27.3001C12.1233 27.3001 11.5614 27.062 11.1471 26.6382C10.7328 26.2144 10.5 25.6395 10.5 25.0401V21.6501Z" fill="url(#paint0_linear_2056_1692)"/>
<path id="Vector_2" fill-rule="evenodd" clip-rule="evenodd" d="M18.5164 50.7792C18.5164 50.2018 18.7522 49.6481 19.172 49.2399C19.5918 48.8316 20.1612 48.6023 20.7549 48.6023H37.2615C37.8552 48.6023 38.4246 48.8316 38.8444 49.2399C39.2642 49.6481 39.5 50.2018 39.5 50.7792C39.5 51.3565 39.2642 51.9102 38.8444 52.3185C38.4246 52.7267 37.8552 52.956 37.2615 52.956H20.7549C20.1612 52.956 19.5918 52.7267 19.172 52.3185C18.7522 51.9102 18.5164 51.3565 18.5164 50.7792ZM19.076 32.9112C18.5056 32.6006 17.8772 32.4039 17.2276 32.3326C16.578 32.2614 15.9203 32.3171 15.2931 32.4964C14.6659 32.6757 14.0819 32.975 13.5752 33.3767C13.0686 33.7785 12.6496 34.2746 12.3428 34.836C12.036 35.3973 11.8475 36.0126 11.7885 36.6458C11.7296 37.2789 11.8012 37.9171 11.9993 38.523C12.1973 39.1288 12.5178 39.6901 12.942 40.1739C13.3661 40.6576 13.8853 41.0541 14.4692 41.3401C15.6176 41.921 16.9554 42.0372 18.1915 41.6635C19.4276 41.2898 20.4619 40.4565 21.0693 39.3449C21.6767 38.2332 21.808 36.9333 21.4347 35.728C21.0614 34.5226 20.2137 33.5095 19.076 32.909V32.9112ZM8.48344 32.8415C9.30995 31.3303 10.5568 30.0755 12.0815 29.2205C13.6063 28.3654 15.3475 27.9445 17.1065 28.0059C18.8655 28.0672 20.5713 28.6083 22.0292 29.5673C23.487 30.5263 24.6383 31.8647 25.3514 33.4296C26.0645 34.9945 26.3108 36.7228 26.0621 38.4173C25.8134 40.1118 25.0798 41.7042 23.945 43.0126C22.8102 44.3211 21.32 45.2928 19.6444 45.817C17.9689 46.3411 16.1756 46.3965 14.4692 45.9769L10.7152 52.845C10.5772 53.0975 10.3894 53.321 10.1626 53.5028C9.93572 53.6847 9.67427 53.8213 9.39314 53.9049C9.112 53.9885 8.81669 54.0174 8.52406 53.99C8.23144 53.9626 7.94722 53.8794 7.68765 53.7452C7.42808 53.611 7.19824 53.4283 7.01125 53.2077C6.82425 52.9871 6.68377 52.7329 6.59782 52.4595C6.51187 52.1861 6.48213 51.8989 6.51031 51.6143C6.53848 51.3297 6.62402 51.0533 6.76204 50.8009L10.516 43.9328C8.95035 42.5715 7.89927 40.7391 7.5308 38.7284C7.16233 36.7177 7.49775 34.645 8.48344 32.8415Z" fill="url(#paint1_linear_2056_1692)"/>
<path id="Vector_3" fill-rule="evenodd" clip-rule="evenodd" d="M29.5 58.5385C43.0519 58.5385 54.0385 47.5519 54.0385 34C54.0385 20.4481 43.0519 9.46154 29.5 9.46154C15.9481 9.46154 4.96154 20.4481 4.96154 34C4.96154 47.5519 15.9481 58.5385 29.5 58.5385ZM29.5 63C45.5169 63 58.5 50.0169 58.5 34C58.5 17.9831 45.5169 5 29.5 5C13.4831 5 0.5 17.9831 0.5 34C0.5 50.0169 13.4831 63 29.5 63Z" fill="url(#paint2_linear_2056_1692)"/>
</g>
</g>
<defs>
<linearGradient id="paint0_linear_2056_1692" x1="29" y1="16" x2="29" y2="52" gradientUnits="userSpaceOnUse">
<stop stop-color="#00D4FC"/>
<stop offset="1" stop-color="#1955B6"/>
</linearGradient>
<linearGradient id="paint1_linear_2056_1692" x1="23" y1="28" x2="23" y2="54" gradientUnits="userSpaceOnUse">
<stop stop-color="#00D4FC"/>
<stop offset="1" stop-color="#1955B6"/>
</linearGradient>
<linearGradient id="paint2_linear_2056_1692" x1="29.5" y1="5" x2="29.5" y2="63" gradientUnits="userSpaceOnUse">
<stop stop-color="#00D4FC"/>
<stop offset="1" stop-color="#1955B6"/>
</linearGradient>
<clipPath id="clip0_2056_1692">
<rect width="68" height="68" fill="white" transform="translate(0.5)"/>
</clipPath>
</defs>
</svg>
