<svg width="55" height="54" viewBox="0 0 55 54" fill="none" xmlns="http://www.w3.org/2000/svg">
<path d="M34.4813 40.1547C37.0882 40.1615 39.6711 39.6519 42.0809 38.6553C44.4907 37.6587 46.6797 36.1948 48.5216 34.3481L48.6475 34.2222C52.408 30.4714 54.533 25.3863 54.5584 20.0776V20.0812C54.5661 17.4771 54.0584 14.8978 53.0644 12.4918C52.0705 10.0858 50.61 7.9008 48.7672 6.06268L48.6396 5.9351L48.6468 5.94228L48.636 5.9315C44.8888 2.17463 39.8058 0.0545468 34.4971 0.034248L34.5007 0.0342467C31.8938 0.0274553 29.3109 0.537081 26.9011 1.53371C24.4912 2.53033 22.3022 3.99422 20.4604 5.84085L20.3399 5.96137L20.3453 5.95597L20.3345 5.96676C16.4241 9.87715 14.4548 14.9911 14.4235 20.1114L14.4235 20.1078C14.4332 22.0147 14.0637 23.9049 13.3367 25.6685C12.6096 27.432 11.5394 29.0339 10.1883 30.3809L10.1469 30.4222C9.09824 31.4709 9.09742 33.1681 10.1451 34.2157L20.3159 44.3865C20.5601 44.6312 20.8529 44.8219 21.1756 44.9463C21.4982 45.0706 21.8434 45.1258 22.1889 45.1083H22.1925C22.5476 45.117 22.9008 45.0533 23.2306 44.9212C23.5605 44.789 23.86 44.5912 24.1111 44.3397L24.1201 44.3307C26.897 41.6387 30.6138 40.1359 34.4795 40.1422L34.4813 40.1547ZM34.4174 34.6876C30.0746 34.6705 25.8482 36.0988 22.4041 38.7475L22.3268 38.8105L21.3618 37.8455L35.58 28.515C35.8848 28.3219 36.1486 28.0706 36.3563 27.7756C36.5641 27.4806 36.7118 27.1476 36.7909 26.7956C36.87 26.4437 36.8791 26.0797 36.8176 25.7243C36.756 25.369 36.6251 25.0294 36.4322 24.7248C36.2393 24.4202 35.9883 24.1566 35.6935 23.9491C35.3987 23.7417 35.0659 23.5943 34.714 23.5155C34.3621 23.4367 33.9981 23.428 33.6427 23.4899C33.2873 23.5518 32.9476 23.6831 32.6428 23.8762L32.6284 23.887L26.2602 28.0737L30.375 21.5114C30.5643 21.2059 30.6912 20.8661 30.7485 20.5115C30.8057 20.1569 30.7922 19.7945 30.7087 19.4453C30.6253 19.0961 30.4734 18.7669 30.262 18.4768C30.0506 18.1867 29.7838 17.9413 29.477 17.7549C29.1702 17.5685 28.8295 17.4447 28.4745 17.3907C28.1195 17.3367 27.7572 17.3535 27.4086 17.4402C27.06 17.5269 26.732 17.6818 26.4434 17.8958C26.1548 18.1099 25.9114 18.3789 25.7272 18.6874L25.7362 18.6712L16.7275 33.0781L15.829 32.1796C18.4747 28.6989 19.9214 24.4553 19.9519 20.0853L19.9519 20.0889C19.9718 17.2242 20.8401 14.4287 22.447 12.0554C24.054 9.68214 26.3276 7.8375 28.9808 6.75436C31.6341 5.67123 34.548 5.39816 37.3547 5.96964C40.1614 6.54111 42.7351 7.9315 44.7508 9.96528C46.7665 11.9991 48.1339 14.585 48.6803 17.3967C49.2268 20.2085 48.9277 23.1199 47.821 25.7634C46.7143 28.4069 44.8495 30.664 42.462 32.2497C40.0745 33.8355 37.2715 34.6788 34.4066 34.6732L34.4174 34.6876ZM19.6229 49.748L19.6553 49.7156C20.7039 48.667 20.7048 46.9698 19.6571 45.9222L8.69923 34.9643C8.18786 34.4529 7.49409 34.1658 6.77054 34.1662C6.047 34.1665 5.35295 34.4543 4.84108 34.9661C4.32921 35.478 4.04145 36.1721 4.0411 36.8956C4.04075 37.6192 4.32784 38.3129 4.83921 38.8243L15.7648 49.7499C16.2775 50.2588 16.9707 50.5441 17.6935 50.5438C18.4162 50.5434 19.1097 50.2574 19.6229 49.748ZM13.1906 49.1075L5.15814 41.075C4.90493 40.8218 4.60428 40.621 4.27336 40.4841C3.94243 40.3471 3.58771 40.2767 3.22945 40.2769C2.87119 40.2771 2.5164 40.3478 2.18534 40.4851C1.85428 40.6224 1.55344 40.8235 1.29998 41.0769C1.04653 41.3304 0.845434 41.6312 0.708172 41.9623C0.570911 42.2933 0.500174 42.6481 0.5 43.0064C0.499827 43.3646 0.57022 43.7194 0.707162 44.0503C0.844103 44.3812 1.04491 44.6819 1.29812 44.9351L9.33056 52.9675C9.84879 53.4432 10.5309 53.7003 11.2346 53.6851C11.9382 53.6699 12.6091 53.3836 13.1073 52.8859C13.6054 52.3882 13.8924 51.7176 13.9082 51.014C13.9241 50.3103 13.6658 49.6262 13.1906 49.1075Z" fill="url(#paint0_linear_2056_1718)"/>
<defs>
<linearGradient id="paint0_linear_2056_1718" x1="27.5293" y1="0.0341797" x2="27.5293" y2="53.6858" gradientUnits="userSpaceOnUse">
<stop stop-color="#00D4FC"/>
<stop offset="1" stop-color="#1955B6"/>
</linearGradient>
</defs>
</svg>
