<svg width="59" height="58" viewBox="0 0 59 58" fill="none" xmlns="http://www.w3.org/2000/svg">
<path fill-rule="evenodd" clip-rule="evenodd" d="M10.5 16.6501C10.5 15.1516 11.0819 13.7145 12.1177 12.6549C13.1534 11.5953 14.5582 11 16.023 11H41.977C42.7023 11 43.4204 11.1461 44.0905 11.4301C44.7606 11.714 45.3695 12.1302 45.8823 12.6549C46.3952 13.1795 46.802 13.8024 47.0796 14.4879C47.3571 15.1734 47.5 15.9081 47.5 16.6501V33.9416C47.5 34.6835 47.3571 35.4182 47.0796 36.1037C46.802 36.7892 46.3952 37.4121 45.8823 37.9368C45.3695 38.4614 44.7606 38.8776 44.0905 39.1615C43.4204 39.4455 42.7023 39.5916 41.977 39.5916H31.2092V44.74C31.2092 45.3394 30.9765 45.9142 30.5622 46.3381C30.1478 46.7619 29.5859 47 29 47C28.4141 47 27.8522 46.7619 27.4378 46.3381C27.0235 45.9142 26.7908 45.3394 26.7908 44.74V39.0922C26.4339 38.7992 26.1747 38.4002 26.049 37.9501C25.9233 37.5 25.9374 37.0211 26.0892 36.5795C26.241 36.138 26.5231 35.7555 26.8965 35.485C27.2699 35.2144 27.7162 35.0692 28.1738 35.0693H41.977C42.2699 35.0693 42.5509 34.9503 42.758 34.7383C42.9652 34.5264 43.0816 34.239 43.0816 33.9393V16.6501C43.0816 16.3504 42.9652 16.063 42.758 15.851C42.5509 15.6391 42.2699 15.5201 41.977 15.5201H16.023C15.7301 15.5201 15.4491 15.6391 15.242 15.851C15.0348 16.063 14.9184 16.3504 14.9184 16.6501V20.0401C14.9184 20.6395 14.6857 21.2144 14.2714 21.6382C13.8571 22.062 13.2951 22.3001 12.7092 22.3001C12.1233 22.3001 11.5614 22.062 11.1471 21.6382C10.7328 21.2144 10.5 20.6395 10.5 20.0401V16.6501Z" fill="url(#paint0_linear_2056_1693)"/>
<path fill-rule="evenodd" clip-rule="evenodd" d="M18.5164 45.7792C18.5164 45.2018 18.7522 44.6481 19.172 44.2399C19.5918 43.8316 20.1612 43.6023 20.7549 43.6023H37.2615C37.8552 43.6023 38.4246 43.8316 38.8444 44.2399C39.2642 44.6481 39.5 45.2018 39.5 45.7792C39.5 46.3565 39.2642 46.9102 38.8444 47.3185C38.4246 47.7267 37.8552 47.956 37.2615 47.956H20.7549C20.1612 47.956 19.5918 47.7267 19.172 47.3185C18.7522 46.9102 18.5164 46.3565 18.5164 45.7792ZM19.076 27.9112C18.5056 27.6006 17.8772 27.4039 17.2276 27.3326C16.578 27.2614 15.9203 27.3171 15.2931 27.4964C14.6659 27.6757 14.0819 27.975 13.5752 28.3767C13.0686 28.7785 12.6496 29.2746 12.3428 29.836C12.036 30.3973 11.8475 31.0126 11.7885 31.6458C11.7296 32.2789 11.8012 32.9171 11.9993 33.523C12.1973 34.1288 12.5178 34.6901 12.942 35.1739C13.3661 35.6576 13.8853 36.0541 14.4692 36.3401C15.6176 36.921 16.9554 37.0372 18.1915 36.6635C19.4276 36.2898 20.4619 35.4565 21.0693 34.3449C21.6767 33.2332 21.808 31.9333 21.4347 30.728C21.0614 29.5226 20.2137 28.5095 19.076 27.909V27.9112ZM8.48344 27.8415C9.30995 26.3303 10.5568 25.0755 12.0815 24.2205C13.6063 23.3654 15.3475 22.9445 17.1065 23.0059C18.8655 23.0672 20.5713 23.6083 22.0292 24.5673C23.487 25.5263 24.6383 26.8647 25.3514 28.4296C26.0645 29.9945 26.3108 31.7228 26.0621 33.4173C25.8134 35.1118 25.0798 36.7042 23.945 38.0126C22.8102 39.3211 21.32 40.2928 19.6444 40.817C17.9689 41.3411 16.1756 41.3965 14.4692 40.9769L10.7152 47.845C10.5772 48.0975 10.3894 48.321 10.1626 48.5028C9.93572 48.6847 9.67427 48.8213 9.39314 48.9049C9.112 48.9885 8.81669 49.0174 8.52406 48.99C8.23144 48.9626 7.94722 48.8794 7.68765 48.7452C7.42808 48.611 7.19824 48.4283 7.01125 48.2077C6.82425 47.9871 6.68377 47.7329 6.59782 47.4595C6.51187 47.1861 6.48213 46.8989 6.51031 46.6143C6.53848 46.3297 6.62402 46.0533 6.76204 45.8009L10.516 38.9328C8.95035 37.5715 7.89927 35.7391 7.5308 33.7284C7.16233 31.7177 7.49775 29.645 8.48344 27.8415Z" fill="url(#paint1_linear_2056_1693)"/>
<path fill-rule="evenodd" clip-rule="evenodd" d="M29.5 53.5385C43.0519 53.5385 54.0385 42.5519 54.0385 29C54.0385 15.4481 43.0519 4.46154 29.5 4.46154C15.9481 4.46154 4.96154 15.4481 4.96154 29C4.96154 42.5519 15.9481 53.5385 29.5 53.5385ZM29.5 58C45.5169 58 58.5 45.0169 58.5 29C58.5 12.9831 45.5169 0 29.5 0C13.4831 0 0.5 12.9831 0.5 29C0.5 45.0169 13.4831 58 29.5 58Z" fill="url(#paint2_linear_2056_1693)"/>
<defs>
<linearGradient id="paint0_linear_2056_1693" x1="29" y1="11" x2="29" y2="47" gradientUnits="userSpaceOnUse">
<stop stop-color="#00D4FC"/>
<stop offset="1" stop-color="#1955B6"/>
</linearGradient>
<linearGradient id="paint1_linear_2056_1693" x1="23" y1="23" x2="23" y2="49" gradientUnits="userSpaceOnUse">
<stop stop-color="#00D4FC"/>
<stop offset="1" stop-color="#1955B6"/>
</linearGradient>
<linearGradient id="paint2_linear_2056_1693" x1="29.5" y1="0" x2="29.5" y2="58" gradientUnits="userSpaceOnUse">
<stop stop-color="#00D4FC"/>
<stop offset="1" stop-color="#1955B6"/>
</linearGradient>
</defs>
</svg>
