<svg width="58" height="52" viewBox="0 0 58 52" fill="none" xmlns="http://www.w3.org/2000/svg">
<path fill-rule="evenodd" clip-rule="evenodd" d="M51.6668 0.5C53.1696 0.5 54.611 1.09702 55.6737 2.15973C56.7364 3.22243 57.3334 4.66377 57.3334 6.16667V45.8333C57.3334 47.3362 56.7364 48.7776 55.6737 49.8403C54.611 50.903 53.1696 51.5 51.6668 51.5H6.33342C4.83052 51.5 3.38918 50.903 2.32648 49.8403C1.26377 48.7776 0.666748 47.3362 0.666748 45.8333V6.16667C0.666748 4.66377 1.26377 3.22243 2.32648 2.15973C3.38918 1.09702 4.83052 0.5 6.33342 0.5H51.6668ZM51.6668 6.16667H6.33342V45.8333H51.6668V6.16667ZM43.1668 34.5C43.8889 34.5008 44.5835 34.7773 45.1086 35.2731C45.6337 35.7688 45.9497 36.4464 45.9921 37.1673C46.0344 37.8882 45.7998 38.5981 45.3363 39.1519C44.8728 39.7056 44.2154 40.0615 43.4983 40.1468L43.1668 40.1667H14.8334C14.1113 40.1659 13.4167 39.8893 12.8915 39.3936C12.3664 38.8979 12.0504 38.2203 12.0081 37.4994C11.9658 36.7785 12.2003 36.0686 12.6638 35.5148C13.1273 34.961 13.7848 34.6051 14.5019 34.5198L14.8334 34.5H43.1668ZM23.3334 11.8333C24.8363 11.8333 26.2776 12.4304 27.3404 13.4931C28.4031 14.5558 29.0001 15.9971 29.0001 17.5V23.1667C29.0001 24.6696 28.4031 26.1109 27.3404 27.1736C26.2776 28.2363 24.8363 28.8333 23.3334 28.8333H17.6667C16.1639 28.8333 14.7225 28.2363 13.6598 27.1736C12.5971 26.1109 12.0001 24.6696 12.0001 23.1667V17.5C12.0001 15.9971 12.5971 14.5558 13.6598 13.4931C14.7225 12.4304 16.1639 11.8333 17.6667 11.8333H23.3334ZM43.1668 23.1667C43.9182 23.1667 44.6389 23.4652 45.1702 23.9965C45.7016 24.5279 46.0001 25.2486 46.0001 26C46.0001 26.7514 45.7016 27.4721 45.1702 28.0035C44.6389 28.5348 43.9182 28.8333 43.1668 28.8333H34.6667C33.9153 28.8333 33.1946 28.5348 32.6633 28.0035C32.1319 27.4721 31.8334 26.7514 31.8334 26C31.8334 25.2486 32.1319 24.5279 32.6633 23.9965C33.1946 23.4652 33.9153 23.1667 34.6667 23.1667H43.1668ZM23.3334 17.5H17.6667V23.1667H23.3334V17.5ZM43.1668 11.8333C43.8889 11.8341 44.5835 12.1107 45.1086 12.6064C45.6337 13.1021 45.9497 13.7797 45.9921 14.5006C46.0344 15.2215 45.7998 15.9314 45.3363 16.4852C44.8728 17.039 44.2154 17.3949 43.4983 17.4802L43.1668 17.5H34.6667C33.9446 17.4992 33.25 17.2227 32.7249 16.7269C32.1998 16.2312 31.8838 15.5536 31.8414 14.8327C31.7991 14.1118 32.0337 13.4019 32.4972 12.8481C32.9607 12.2944 33.6181 11.9385 34.3353 11.8532L34.6667 11.8333H43.1668Z" fill="url(#paint0_linear_1542_16795)"/>
<defs>
<linearGradient id="paint0_linear_1542_16795" x1="4.23754" y1="-13.1355" x2="72.7413" y2="82.1963" gradientUnits="userSpaceOnUse">
<stop stop-color="#0062FF"/>
<stop offset="0.19" stop-color="#1D8AFF"/>
<stop offset="0.46" stop-color="#41BCFF"/>
<stop offset="0.69" stop-color="#5CE0FF"/>
<stop offset="0.88" stop-color="#6CF6FF"/>
<stop offset="1" stop-color="#72FFFF"/>
</linearGradient>
</defs>
</svg>
