<svg width="69" height="68" viewBox="0 0 69 68" fill="none" xmlns="http://www.w3.org/2000/svg">
<g id="mingcute:profile-line" clip-path="url(#clip0_2056_1725)">
<g id="Group">
<path id="Vector" d="M45.9545 43.8182H5.04545V16.5455H45.9545M45.9545 12H5.04545C2.52273 12 0.5 14.0227 0.5 16.5455V43.8182C0.5 45.0237 0.978895 46.1799 1.83133 47.0323C2.68377 47.8847 3.83993 48.3636 5.04545 48.3636H20.9545V52.9091H16.4091V57.4545H34.5909V52.9091H30.0455V48.3636H45.9545C48.4773 48.3636 50.5 46.3409 50.5 43.8182V16.5455C50.5 15.3399 50.0211 14.1838 49.1687 13.3313C48.3162 12.4789 47.1601 12 45.9545 12ZM32.3182 19.9545L30.9091 23.0682L27.7727 24.5L30.9091 25.9318L32.3182 29.0455L33.75 25.9318L36.8636 24.5L33.75 23.0682L32.3182 19.9545ZM22.0909 24.5L19.6136 29.9773L14.1364 32.4545L19.6136 34.9318L22.0909 40.4091L24.5909 34.9318L30.0455 32.4545L24.5909 29.9773L22.0909 24.5Z" fill="url(#paint0_linear_2056_1725)"/>
</g>
</g>
<defs>
<linearGradient id="paint0_linear_2056_1725" x1="25.5" y1="12" x2="25.5" y2="57.4545" gradientUnits="userSpaceOnUse">
<stop stop-color="#00D4FC"/>
<stop offset="1" stop-color="#1955B6"/>
</linearGradient>
<clipPath id="clip0_2056_1725">
<rect width="68" height="68" fill="white" transform="translate(0.171875)"/>
</clipPath>
</defs>
</svg>
