<svg width="69" height="68" viewBox="0 0 69 68" fill="none" xmlns="http://www.w3.org/2000/svg">
<g id="material-symbols:nfc-outline-rounded" clip-path="url(#clip0_2056_1683)">
<path id="Vector" d="M37.3333 48.1667C38.1361 48.1667 38.8095 47.8947 39.3535 47.3507C39.8975 46.8067 40.1686 46.1342 40.1667 45.3333V22.6667C40.1667 21.8639 39.8947 21.1905 39.3507 20.6465C38.8067 20.1025 38.1342 19.8314 37.3333 19.8333H28.8333C27.275 19.8333 25.9405 20.3887 24.8298 21.4993C23.7192 22.61 23.1648 23.9436 23.1667 25.5V29.1833C22.2222 29.7028 21.5139 30.3639 21.0417 31.1667C20.5694 31.9694 20.3333 32.9139 20.3333 34C20.3333 35.5583 20.8887 36.8928 21.9993 38.0035C23.11 39.1142 24.4436 39.6686 26 39.6667C27.5583 39.6667 28.8928 39.1113 30.0035 38.0007C31.1142 36.89 31.6686 35.5564 31.6667 34C31.6667 32.9139 31.4069 31.9694 30.8875 31.1667C30.3681 30.3639 29.6833 29.7028 28.8333 29.1833V25.5H34.5V42.5H17.5V25.5C18.3028 25.5 18.9762 25.228 19.5202 24.684C20.0642 24.14 20.3352 23.4676 20.3333 22.6667C20.3333 21.8639 20.0613 21.1905 19.5173 20.6465C18.9733 20.1025 18.3009 19.8314 17.5 19.8333H14.6667C13.8639 19.8333 13.1905 20.1053 12.6465 20.6493C12.1025 21.1933 11.8314 21.8658 11.8333 22.6667V45.3333C11.8333 46.1361 12.1053 46.8095 12.6493 47.3535C13.1933 47.8975 13.8658 48.1686 14.6667 48.1667H37.3333ZM6.16667 59.5C4.60834 59.5 3.27384 58.9447 2.16317 57.834C1.0525 56.7233 0.498116 55.3898 0.500005 53.8333V14.1667C0.500005 12.6083 1.05534 11.2738 2.166 10.1632C3.27667 9.0525 4.61023 8.49812 6.16667 8.5H45.8333C47.3917 8.5 48.7262 9.05534 49.8368 10.166C50.9475 11.2767 51.5019 12.6102 51.5 14.1667V53.8333C51.5 55.3917 50.9447 56.7262 49.834 57.8368C48.7233 58.9475 47.3898 59.5019 45.8333 59.5H6.16667ZM6.16667 53.8333H45.8333V14.1667H6.16667V53.8333Z" fill="url(#paint0_linear_2056_1683)"/>
</g>
<defs>
<linearGradient id="paint0_linear_2056_1683" x1="26" y1="8.5" x2="26" y2="59.5" gradientUnits="userSpaceOnUse">
<stop stop-color="#00D4FC"/>
<stop offset="1" stop-color="#1955B6"/>
</linearGradient>
<clipPath id="clip0_2056_1683">
<rect width="68" height="68" fill="white" transform="translate(0.5)"/>
</clipPath>
</defs>
</svg>
