<svg width="68" height="38" viewBox="0 0 68 38" fill="none" xmlns="http://www.w3.org/2000/svg">
<path fill-rule="evenodd" clip-rule="evenodd" d="M49.6485 7.22717C48.0705 7.19732 46.5024 7.48233 45.0358 8.06557C43.5693 8.6488 42.2337 9.51855 41.1071 10.624C39.9806 11.7294 39.0858 13.0483 38.4749 14.5035C37.864 15.9588 37.5494 17.5213 37.5494 19.0995C37.5494 20.6778 37.864 22.2403 38.4749 23.6956C39.0858 25.1508 39.9806 26.4697 41.1071 27.5751C42.2337 28.6805 43.5693 29.5503 45.0358 30.1335C46.5024 30.7168 48.0705 31.0018 49.6485 30.9719C52.7584 30.9131 55.721 29.6364 57.8995 27.4163C60.078 25.1962 61.2984 22.21 61.2984 19.0995C61.2984 15.9891 60.078 13.0029 57.8995 10.7828C55.721 8.56271 52.7584 7.28601 49.6485 7.22717ZM21.0915 22.3401H31.59C32.2475 26.002 34.0087 29.4054 36.6757 32.0724C40.1169 35.5136 44.7841 37.4468 49.6506 37.4468C54.5172 37.4468 59.1844 35.5136 62.6256 32.0724C66.0668 28.6312 68 23.964 68 19.0974C68 14.2309 66.0668 9.56363 62.6256 6.12246C59.1844 2.68128 54.5172 0.748047 49.6506 0.748047C44.7841 0.748047 40.1169 2.68128 36.6757 6.12246C34.0077 8.79044 32.2461 12.1954 31.5892 15.8589H21.0927C20.9979 15.5573 20.8897 15.2595 20.7683 14.9664C20.2258 13.6567 19.4306 12.4667 18.4282 11.4643C17.4258 10.4619 16.2358 9.66671 14.9261 9.12421C13.6164 8.58171 12.2126 8.30249 10.795 8.30249C9.37738 8.30249 7.97364 8.58171 6.66393 9.12421C5.35422 9.66671 4.16419 10.4619 3.16178 11.4643C2.15937 12.4667 1.36422 13.6567 0.82172 14.9664C0.279221 16.2761 0 17.6799 0 19.0975C0 21.9605 1.13733 24.7063 3.16178 26.7307C5.18624 28.7552 7.93199 29.8925 10.795 29.8925C13.658 29.8925 16.4038 28.7552 18.4282 26.7307C19.6676 25.4913 20.5745 23.9816 21.0915 22.3401ZM17.2678 19.0975C17.2899 19.9617 17.1388 20.8217 16.8234 21.6266C16.508 22.4315 16.0346 23.1652 15.4311 23.7843C14.8277 24.4034 14.1064 24.8954 13.3098 25.2313C12.5132 25.5673 11.6575 25.7404 10.7929 25.7404C9.92838 25.7404 9.0726 25.5673 8.27601 25.2313C7.47942 24.8954 6.75814 24.4034 6.1547 23.7843C5.55127 23.1652 5.07787 22.4315 4.76244 21.6266C4.447 20.8217 4.2959 19.9617 4.31804 19.0975C4.36131 17.409 5.06246 15.8041 6.27202 14.6252C7.48158 13.4462 9.10384 12.7864 10.7929 12.7864C12.482 12.7864 14.1043 13.4462 15.3138 14.6252C16.5234 15.8041 17.2245 17.409 17.2678 19.0975Z" fill="url(#paint0_linear_1781_3646)"/>
<defs>
<linearGradient id="paint0_linear_1781_3646" x1="4.28495" y1="-9.06386" x2="42.0885" y2="78.6677" gradientUnits="userSpaceOnUse">
<stop stop-color="#0062FF"/>
<stop offset="0.19" stop-color="#1D8AFF"/>
<stop offset="0.46" stop-color="#41BCFF"/>
<stop offset="0.69" stop-color="#5CE0FF"/>
<stop offset="0.88" stop-color="#6CF6FF"/>
<stop offset="1" stop-color="#72FFFF"/>
</linearGradient>
</defs>
</svg>
