<svg width="69" height="68" viewBox="0 0 69 68" fill="none" xmlns="http://www.w3.org/2000/svg">
<g clip-path="url(#clip0_2056_1735)">
<path fill-rule="evenodd" clip-rule="evenodd" d="M12.7455 12.0002H39.3045C40.2012 12.0253 41.0796 12.265 41.8685 12.6988C42.6518 13.1295 43.3252 13.7402 43.8349 14.482L50.4632 23.8066C51.1896 24.8496 51.5523 26.1093 51.4939 27.3856C51.4355 28.662 50.9592 29.882 50.1406 30.852L50.1334 30.8605L30.281 54.0971C29.7756 54.7453 29.1337 55.2707 28.4023 55.6347C27.6545 56.0068 26.8327 56.2002 26 56.2002C25.1673 56.2002 24.3455 56.0068 23.5977 55.6347C22.8663 55.2707 22.2244 54.7453 21.719 54.0971L1.85939 30.852C1.0408 29.882 0.564527 28.662 0.506098 27.3856C0.447669 26.1093 0.81046 24.8497 1.5369 23.8067L1.54704 23.7921L8.16504 14.482C8.67482 13.7402 9.34817 13.1295 10.1315 12.6988C10.9204 12.265 11.7988 12.026 12.6955 12.0009L12.7455 12.0002ZM12.7744 15.7C12.4561 15.7121 12.1448 15.7985 11.8646 15.9526C11.5781 16.1101 11.3322 16.3339 11.1467 16.6059L11.1266 16.6352L4.50502 25.9499C4.2501 26.3188 4.1229 26.7634 4.14351 27.2138C4.16418 27.6651 4.33209 28.0965 4.62071 28.4401C4.62171 28.4413 4.62272 28.4425 4.62373 28.4437L24.4983 51.7064C24.5201 51.7319 24.5412 51.7581 24.5617 51.7848C24.7319 52.0076 24.9499 52.188 25.1992 52.312C25.4485 52.4361 25.7224 52.5005 26 52.5005C26.2776 52.5005 26.5515 52.4361 26.8008 52.312C27.0501 52.188 27.2681 52.0076 27.4383 51.7848C27.4588 51.7581 27.4799 51.7319 27.5017 51.7064L47.3763 28.4437C47.3773 28.4425 47.3783 28.4413 47.3793 28.4401C47.6679 28.0965 47.8358 27.6651 47.8565 27.2138C47.8771 26.7633 47.7499 26.3188 47.4949 25.9499L40.8531 16.6061C40.6675 16.3341 40.4219 16.1101 40.1354 15.9526C39.8552 15.7985 39.5439 15.7121 39.2256 15.7H12.7744Z" fill="url(#paint0_linear_2056_1735)"/>
<path fill-rule="evenodd" clip-rule="evenodd" d="M27.0215 12.2947C27.8701 11.7414 29.0003 11.9906 29.5459 12.8512L37.8841 26.0051H49.6734C50.6822 26.0051 51.5 26.8345 51.5 27.8576C51.5 28.8806 50.6822 29.71 49.6734 29.71H38.1045L27.6861 55.0604C27.4021 55.7514 26.736 56.2011 25.9978 56.2002C25.2597 56.1994 24.5946 55.748 24.3123 55.0564L13.9655 29.71H2.32665C1.31782 29.71 0.5 28.8806 0.5 27.8576C0.5 26.8345 1.31782 26.0051 2.32665 26.0051H14.1912L22.5656 12.8483C23.1127 11.9887 24.2433 11.7417 25.0909 12.2966C25.9385 12.8514 26.1821 13.998 25.635 14.8576L18.5395 26.0051H33.541L26.4728 14.8547C25.9272 13.9941 26.1729 12.8479 27.0215 12.2947ZM34.1466 29.71H17.9194L26.0057 49.5187L34.1466 29.71Z" fill="url(#paint1_linear_2056_1735)"/>
</g>
<defs>
<linearGradient id="paint0_linear_2056_1735" x1="26" y1="12.0002" x2="26" y2="56.2002" gradientUnits="userSpaceOnUse">
<stop stop-color="#00D4FC"/>
<stop offset="1" stop-color="#1955B6"/>
</linearGradient>
<linearGradient id="paint1_linear_2056_1735" x1="26" y1="12.0002" x2="26" y2="56.2002" gradientUnits="userSpaceOnUse">
<stop stop-color="#00D4FC"/>
<stop offset="1" stop-color="#1955B6"/>
</linearGradient>
<clipPath id="clip0_2056_1735">
<rect width="68" height="68" fill="white" transform="translate(0.171875)"/>
</clipPath>
</defs>
</svg>
