<svg width="86" height="50" viewBox="0 0 86 50" fill="none" xmlns="http://www.w3.org/2000/svg">
<g clip-path="url(#clip0_1549_17137)">
<path d="M31.9168 14.2502H36.1917C37.0876 14.2502 37.6251 14.9668 37.6251 15.6835V45.0668C37.6251 45.7817 36.9084 46.5002 36.1917 46.5002H31.9204C31.2037 46.5002 30.4871 45.7835 30.4871 45.0668V15.6835C30.3079 14.7877 31.021 14.2502 31.9168 14.2502ZM25.4417 1.7085H19.5292C18.6334 1.7085 17.9167 2.43054 17.9167 3.15437V12.4585H3.94175C2.86675 12.4585 1.79175 13.5425 1.79175 14.6264V44.3322C1.79175 45.418 2.86675 46.5002 3.94175 46.5002H25.4417C26.1584 46.5002 26.8751 45.9537 26.8751 45.0507V3.15437C26.8751 2.43054 26.3376 1.7085 25.4417 1.7085ZM17.9167 38.0489C17.9167 38.762 17.2001 39.4822 16.4834 39.4822H12.1834C11.4667 39.4822 10.7501 38.7673 10.7501 38.0489V21.0585C10.7501 20.3418 11.2876 19.6252 12.1834 19.6252H16.4834C17.3792 19.6252 17.9167 20.3418 17.9167 21.0585V38.0489ZM59.4834 26.7918C60.3793 26.7918 60.9168 27.8668 60.9168 28.2252V45.0668C60.9168 45.7817 60.1607 46.5002 59.4834 46.5002H42.6418C41.8803 46.5002 41.2084 45.7835 41.2084 45.0668V40.7919C41.2084 39.8961 41.9251 39.3604 42.6418 39.3604L53.7501 39.3335V33.9585H42.6418C42.0487 33.9585 41.2084 33.2418 41.2084 32.5234V15.6835C41.2084 14.7877 41.9251 14.2502 42.6418 14.2502H59.4834C60.1983 14.2502 60.9168 14.9668 60.9168 15.6835V19.9835C60.9168 20.521 60.4402 21.4168 59.4834 21.4168H48.3751V26.7918H59.4834ZM86.0001 32.1668V45.0668C86.0001 45.7817 85.2834 46.5002 84.565 46.5002H65.9334C65.5751 46.5002 64.5001 45.7835 64.5001 45.0668V15.6835C64.5001 14.7877 65.2741 14.2502 65.989 14.2502H84.5667C84.5667 14.2502 86.0001 14.2502 86.0001 15.6835V26.7918H78.8334V22.8502C78.8334 22.8502 79.0126 21.4168 77.4001 21.4168H73.1001C72.2042 21.4168 71.6667 22.1335 71.6667 22.8502V37.9002C71.6667 38.615 72.5626 39.3335 73.1001 39.3335H77.4001C78.115 39.3335 78.8334 38.6168 78.8334 37.9002V32.1668H86.0001Z" fill="#2196F3"/>
<path d="M82.0565 10.631H84.0292V5.07865H86V3.46436H80.2649V5.07865H82.0565V10.631ZM78.8584 7.93636H76.8105V8.10656C76.8105 8.79098 76.6385 9.13319 75.7857 9.13319C74.9347 9.13319 74.7645 8.79098 74.7645 7.76794V6.57111C74.7645 5.54627 74.7645 5.20586 75.7857 5.20586C76.4683 5.20586 76.8105 5.37606 76.8105 6.06048V6.23069H78.6864V6.06048C78.6864 4.18461 78.0038 3.50019 75.9577 3.50019H75.4435C73.3992 3.50019 72.7148 4.18461 72.7148 6.39911V7.76794C72.7148 9.81402 73.3974 10.6669 75.4435 10.6669H76.1297C78.0056 10.6669 78.6882 9.81223 78.6882 8.10477V7.93457L78.8584 7.93636ZM52.8828 3.50019L51.4513 8.69602L49.837 3.50019H46.9721V10.6669H48.9412V5.29186L50.3727 10.6669H52.3471L53.956 5.47102V10.6669H55.7477V3.50019H52.8828ZM69.3608 3.50019H66.1394L63.9912 10.6669H66.1394L66.4959 9.41269H69.0061L69.3626 10.6669H71.5108L69.3608 3.50019ZM67.9293 7.97936H67.2126L67.9293 4.93352L68.6423 7.97936H67.9293ZM60.7733 3.50019H57.3692V10.6669H59.3436V8.69602H60.7751C62.7496 8.69602 63.4626 7.97936 63.4626 6.18769V5.65019C63.4608 4.03769 62.7442 3.50019 60.7733 3.50019ZM61.49 6.36686C61.49 7.08352 61.3108 7.26269 60.7733 7.26269H59.3418V5.11269H60.596C61.3126 5.11269 61.4918 5.29186 61.4918 5.82936L61.49 6.36686ZM42.2726 3.50019H41.2478C39.1999 3.50019 38.5191 4.18461 38.5191 6.39911V7.76436C38.5191 9.81402 39.2017 10.6669 41.2478 10.6669H42.2726C44.3205 10.6669 45.0013 9.81223 45.0013 7.76436V6.39911C45.0013 4.18461 44.3205 3.50019 42.2726 3.50019ZM42.9552 7.42394C42.9552 8.44698 42.9552 8.79098 41.9322 8.79098H41.5918C40.5687 8.79098 40.5687 8.44877 40.5687 7.42394V6.39911C40.5687 5.37786 40.5687 5.03386 41.5918 5.03386H41.9322C42.9552 5.03386 42.9552 5.37606 42.9552 6.39911V7.42394ZM36.5894 7.93815H34.5398V8.10836C34.5398 8.79277 34.3696 9.1314 33.5167 9.1314C32.6639 9.1314 32.4937 8.79277 32.4937 7.76615V6.5729C32.4937 5.54627 32.4937 5.20765 33.5167 5.20765C34.1993 5.20765 34.5398 5.37786 34.5398 6.05869V6.23069H36.4174V6.05869C36.4174 4.18282 35.7348 3.50019 33.6887 3.50019H33.1763C31.1284 3.50019 30.4458 4.18281 30.4458 6.39911V7.76615C30.4458 9.81402 31.1284 10.6669 33.1763 10.6669H33.8589C35.7366 10.6669 36.4192 9.81223 36.4192 8.10656V7.93636H36.5894V7.93815Z" fill="#0D47A1"/>
</g>
<defs>
<clipPath id="clip0_1549_17137">
<rect width="86" height="86" fill="white" transform="translate(0 -18)"/>
</clipPath>
</defs>
</svg>
