<svg width="174" height="44" viewBox="0 0 174 44" fill="none" xmlns="http://www.w3.org/2000/svg">
<path d="M61.4977 18.078C61.4977 15.5102 58.9855 12.7831 54.6388 12.7831C49.7574 12.7831 44.3951 16.3425 43.5756 23.4432C42.7383 30.615 47.2276 33.8025 51.7526 33.8025C56.2779 33.8025 58.6472 32.0494 61.0702 29.712C58.9855 27.1088 56.2957 28.3131 55.779 28.5787C55.2089 28.8619 54.4785 29.2516 52.982 29.2516C51.236 29.2516 49.4545 28.4725 49.4545 25.2318C60.6427 24.134 61.4977 20.6454 61.4977 18.078ZM55.957 18.5029C55.8859 19.2996 55.5653 20.6633 49.9 21.4245C51.0937 17.2102 53.3737 16.8915 54.4251 16.8915C55.4049 16.8915 56.0282 17.6527 55.957 18.5029ZM37.0016 19.1934C37.0016 19.1934 34.5969 26.7015 34.4006 27.3212C34.3295 26.6838 32.5658 13.2081 32.5658 13.2081C28.4682 13.2081 26.277 16.1121 25.1191 19.1758C25.1191 19.1758 22.1972 26.7015 21.948 27.3388C21.93 26.7546 21.5025 19.2644 21.5025 19.2644C21.253 15.5099 17.797 13.226 15 13.226L18.3848 33.6431C22.6784 33.6255 24.9942 30.7391 26.2058 27.6754C26.2058 27.6754 28.7888 21.0351 28.8957 20.734C28.9137 21.0172 30.7486 33.6431 30.7486 33.6431C35.0599 33.6431 37.376 30.9337 38.623 27.9765L44.6623 13.226C40.4042 13.226 38.1598 16.1121 37.0016 19.1934ZM77.3174 12.7476C74.663 12.7476 72.6321 14.182 70.9218 16.2893V16.2717L72.454 4C68.9266 4 66.0584 7.04578 65.506 11.5788L62.8336 33.4838C64.8648 33.4838 67.0203 32.8995 68.1782 31.412C69.2115 32.7399 70.7615 33.8025 73.0596 33.8025C79.01 33.8025 83.0895 26.9318 83.0895 20.4861C83.0541 14.607 80.1856 12.7476 77.3174 12.7476ZM76.7653 23.2841C76.1418 26.8787 74.1286 29.3226 72.1866 29.3226C70.2271 29.3226 69.3898 28.4546 69.3898 28.4546C69.7639 25.3026 69.9953 23.3725 70.708 21.708C71.4207 20.0435 73.113 17.3872 74.8767 17.3872C76.6047 17.3872 77.3888 19.6717 76.7653 23.2841ZM97.9474 13.2254H93.7964L93.8144 13.0129C94.0993 10.3214 94.7406 8.90483 96.8606 8.67476C98.3037 8.53302 98.945 7.78912 99.1053 6.97477C99.2301 6.33738 99.6219 4.12356 99.6219 4.12356C91.2846 4.07045 88.6658 7.64766 87.9889 13.1015L87.9709 13.2257H87.8817C86.5278 13.2257 85.0315 14.7484 84.7821 16.6785L84.6929 17.3869H87.4722L85.1384 36.5469L84.4257 39.9824C84.5149 39.9824 84.6217 40 84.7106 40C88.6124 39.8583 91.1062 36.7949 91.6586 32.3502L93.4758 17.3869H94.7763C96.0588 17.3869 97.5556 16.1121 97.8228 13.9869L97.9474 13.2254ZM119.54 12.8715C114.747 12.8715 110.222 16.3777 108.832 21.8847C107.443 27.392 109.545 33.9084 116.6 33.9084C123.637 33.9084 127.699 27.1264 127.699 21.4774C127.699 15.8639 123.869 12.8715 119.54 12.8715ZM121.481 23.1066C121.232 25.6034 120.127 29.393 117.099 29.393C114.052 29.393 114.48 24.966 114.783 22.8587C115.103 20.6099 116.368 17.4045 119.094 17.4045C121.535 17.4045 121.766 20.2909 121.481 23.1066ZM151.375 19.1931C151.375 19.1931 148.97 26.7012 148.774 27.321C148.703 26.6836 146.939 13.2078 146.939 13.2078C142.842 13.2078 140.65 16.1118 139.493 19.1755C139.493 19.1755 136.571 26.7012 136.321 27.3386C136.303 26.7543 135.876 19.2641 135.876 19.2641C135.626 15.5097 132.17 13.2257 129.373 13.2257L132.741 33.6429C137.034 33.6253 139.35 30.7388 140.561 27.6752C140.561 27.6752 143.145 21.0348 143.234 20.7337C143.251 21.0169 145.086 33.6429 145.086 33.6429C149.398 33.6429 151.714 30.9334 152.961 27.9762L159 13.226C154.76 13.226 152.515 16.1118 151.375 19.1931ZM101.867 4.12384L98.3749 32.1201L97.6625 35.5732C97.7514 35.5732 97.8582 35.5911 97.9474 35.5911C101.706 35.538 104.379 32.2619 104.877 28.1359L106.891 12.0747C107.496 7.16962 104.557 4.12412 101.867 4.12412V4.12384Z" fill="#4353FF"/>
</svg>
