<svg width="56" height="56" viewBox="0 0 56 56" fill="none" xmlns="http://www.w3.org/2000/svg">
<g clip-path="url(#clip0_1753_3191)">
<mask id="mask0_1753_3191" style="mask-type:luminance" maskUnits="userSpaceOnUse" x="-1" y="-1" width="58" height="58">
<path d="M27.0156 19.2812C24.8711 19.3867 22.7969 19.8789 20.8281 20.6875C20.125 21.0039 19.457 21.3203 18.7891 21.707C18.5078 21.8828 18.332 22.1992 18.332 22.5156V33.4844C18.332 33.8359 18.5078 34.1172 18.7891 34.293C19.457 34.6797 20.125 35.0312 20.8281 35.3125C22.7969 36.1562 24.8711 36.6133 27.0156 36.7188C27.543 36.7539 28 36.332 28 35.7695V20.1953C28 19.9492 27.8945 19.7031 27.7187 19.5273C27.543 19.3516 27.2969 19.2461 27.0508 19.2461C27.0508 19.2812 27.0156 19.2812 27.0156 19.2812ZM16.9961 2.08984C6.9414 6.37891 -0.125 16.3633 -0.125 28C-0.125 39.6367 6.9414 49.6211 16.9961 53.9102C17.5937 54.1562 18.2969 53.7344 18.2969 53.0312V44.207C18.2969 43.8906 18.1211 43.6094 17.875 43.4336C16.8203 42.7305 15.8359 41.957 14.957 41.043C13.2695 39.3555 11.9336 37.3867 11.0195 35.1719C10.0703 32.8867 9.57812 30.4961 9.57812 28C9.57812 25.5039 10.0703 23.0781 11.0195 20.8281C11.9336 18.6484 13.2695 16.6445 14.957 14.957C15.8711 14.043 16.8203 13.2695 17.875 12.5664C18.1562 12.3906 18.2969 12.1094 18.2969 11.793V2.96875C18.2969 2.61719 18.1211 2.33594 17.875 2.19531C17.7344 2.08984 17.5586 2.05469 17.3477 2.05469C17.2422 2.01953 17.1367 2.01953 16.9961 2.08984ZM28.9141 -0.125C28.3867 -0.125 28 0.296875 28 0.824219V8.62891C28 9.12109 28.3867 9.54297 28.8789 9.57812C31.0586 9.68359 33.168 10.1758 35.1719 11.0195C37.3516 11.9336 39.3203 13.2695 41.043 14.9922C42.7305 16.6797 44.0664 18.6484 44.9805 20.8633C45.9297 23.1484 46.4219 25.5391 46.4219 28.0352C46.4219 30.5313 45.9297 32.957 44.9805 35.207C44.0664 37.3867 42.7305 39.3906 41.043 41.0781C39.3555 42.7656 37.3867 44.1016 35.1719 45.0508C33.168 45.8945 31.0586 46.3867 28.8789 46.4922C28.3867 46.5273 28 46.9141 28 47.4414V55.2461C28 55.2812 28 55.3164 28 55.3516C28.0352 55.6328 28.1758 55.8438 28.3867 56.0195C28.4219 56.0195 28.4219 56.0547 28.457 56.0547C28.5273 56.0898 28.6328 56.125 28.7031 56.1602C28.7734 56.1602 28.8437 56.1953 28.9492 56.1953H28.9844C44.0664 55.7031 56.1602 43.293 56.1602 28.0703C56.1602 12.8477 44.0664 0.367188 28.9141 -0.125C28.9492 -0.125 28.9492 -0.125 28.9141 -0.125Z" fill="white"/>
</mask>
<g mask="url(#mask0_1753_3191)">
<path d="M-24.4531 42.0625L13.9375 -24.4883L80.4531 13.9375L42.0625 80.4883L-24.4531 42.0625Z" fill="url(#paint0_linear_1753_3191)"/>
</g>
<mask id="mask1_1753_3191" style="mask-type:luminance" maskUnits="userSpaceOnUse" x="19" y="19" width="9" height="18">
<path d="M27.0156 19.2812C26.9805 19.2812 26.9102 19.2812 26.875 19.2812C24.8359 19.4219 24.3438 19.8789 22.4453 20.6875C21.7422 21.0039 21.0742 21.3203 20.4063 21.707C20.125 21.8828 19.9492 22.1992 19.9492 22.5156V33.4844C19.9492 33.8359 20.125 34.1172 20.4063 34.293C21.0742 34.6797 21.7422 35.0313 22.4453 35.3125C24.3789 36.1211 24.8711 36.6133 26.875 36.7188C26.9102 36.7188 26.9805 36.7188 27.0156 36.7188C27.543 36.7539 28 36.332 28 35.7695V20.1953C28 19.9492 27.8945 19.7031 27.7188 19.5273C27.543 19.3516 27.2969 19.2461 27.0508 19.2461C27.0508 19.2812 27.0156 19.2812 27.0156 19.2812Z" fill="white"/>
</mask>
<g mask="url(#mask1_1753_3191)">
<path d="M28 19.2812H19.9141V36.7539H28V19.2812Z" fill="url(#paint1_linear_1753_3191)"/>
</g>
<mask id="mask2_1753_3191" style="mask-type:luminance" maskUnits="userSpaceOnUse" x="-1" y="1" width="48" height="32">
<path d="M46.457 27.7188C46.457 27.6836 46.457 27.6484 46.457 27.6133C46.457 27.6484 46.457 27.6836 46.457 27.7188ZM16.9961 2.08984C12.6719 3.91797 8.91016 6.83594 5.99219 10.457C5.95703 10.5273 5.92187 10.5625 5.85156 10.6328L5.81641 10.668C5.78125 10.7031 5.74609 10.7734 5.71094 10.8086C5.71094 10.8438 5.67578 10.8438 5.67578 10.8789C5.64062 10.9141 5.60547 10.9492 5.57031 11.0195C5.53515 11.0547 5.53516 11.0547 5.5 11.0898C5.46484 11.125 5.42969 11.1602 5.39453 11.2305C5.35938 11.2656 5.35937 11.3008 5.32422 11.3008C5.28906 11.3359 5.25391 11.3711 5.25391 11.4063C5.21875 11.4414 5.21875 11.4766 5.18359 11.5117C5.14844 11.5469 5.14844 11.582 5.11328 11.6172C5.07813 11.6523 5.04297 11.6875 5.04297 11.7227C5.00781 11.7578 5.00781 11.793 4.97266 11.8281C4.9375 11.8633 4.90234 11.8984 4.90234 11.9688C4.86719 12.0039 4.86719 12.0391 4.83203 12.0391C4.79687 12.0742 4.76172 12.1445 4.72656 12.1797C4.69141 12.2148 4.69141 12.2148 4.65625 12.25C4.62109 12.2852 4.58594 12.3555 4.55078 12.3906C4.55078 12.4258 4.51562 12.4258 4.51562 12.4609C4.48047 12.5313 4.44531 12.5664 4.41016 12.6367C4.41016 12.6367 4.375 12.6719 4.375 12.707C4.33984 12.7773 4.30469 12.8125 4.26953 12.8828C4.26953 12.8828 4.26953 12.918 4.23438 12.918C4.19922 12.9883 4.12891 13.0586 4.09375 13.1289C2.19531 16.1523 0.859374 19.5625 0.261718 23.2188C0.121093 23.957 0.0507807 24.6953 -0.0195318 25.4336V25.4688C-0.0195318 25.5391 -0.0195312 25.6094 -0.0546875 25.6797C-0.0546875 25.7148 -0.0546875 25.75 -0.0546875 25.7852C-0.0546875 25.8555 -0.0546875 25.8906 -0.0546875 25.9609C-0.0546875 25.9961 -0.0546875 26.0312 -0.0546875 26.1016C-0.0546875 26.1367 -0.0546875 26.1719 -0.0546875 26.207C-0.0546875 26.2773 -0.0546875 26.3477 -0.0546875 26.3828C-0.0546875 26.418 -0.0546875 26.4531 -0.0546875 26.4883C-0.0546875 26.5586 -0.0546875 26.6289 -0.0546875 26.6992C-0.0546875 26.7344 -0.0546875 26.7344 -0.0546875 26.7695C-0.0546875 26.8398 -0.0546875 26.9102 -0.0546875 26.9805V27.0156C-0.0546875 27.0859 -0.0546875 27.1563 -0.0546875 27.2266C-0.0546875 27.2617 -0.0546875 27.2617 -0.0546875 27.2969C-0.0546875 27.3672 -0.0546875 27.4375 -0.0546875 27.543V27.5781C-0.0546875 27.6484 -0.0546875 27.7188 -0.0546875 27.8242V27.8594C-0.0546875 27.9297 -0.0546875 28.0352 -0.0546875 28.1055C-0.0546875 28.1758 -0.0546875 28.2812 -0.0546875 28.3516V28.3867C-0.0546875 28.457 -0.0546875 28.5273 -0.0546875 28.6328V28.668C-0.0546875 28.7383 -0.0546875 28.8086 -0.0546875 28.9141C-0.0546875 28.9141 -0.0546875 28.9492 -0.0546875 28.9844C-0.0546875 29.0547 -0.0546875 29.125 -0.0546875 29.1953V29.2305C-0.0546875 29.3008 -0.0546875 29.3711 -0.0546875 29.4062C-0.0546875 29.4414 -0.0546875 29.4414 -0.0546875 29.4766C-0.0546875 29.5469 -0.0546875 29.6172 -0.0546875 29.6875C-0.0546875 29.7227 -0.0546875 29.7578 -0.0546875 29.793C-0.0546875 29.8633 -0.0546875 29.8984 -0.0546875 29.9688C-0.0546875 30.0039 -0.0546875 30.0391 -0.0546875 30.0742C-0.0546875 30.1094 -0.0546875 30.1445 -0.0546875 30.2148C-0.0546875 30.2852 -0.0546875 30.3203 -0.0546875 30.3906C-0.0546875 30.4258 -0.0546875 30.4609 -0.0546875 30.4961C-0.0546875 30.5664 -0.054688 30.6367 -0.0195318 30.707V30.7422C0.0507807 31.4805 0.156249 32.2188 0.261718 32.957C0.542968 31.3047 0.999999 29.6875 1.5625 28.1406C3.77734 22.0586 8.03125 16.9609 13.5156 13.6562C14.2539 13.1992 14.9922 12.8125 15.7656 12.4258C15.8359 12.3906 15.9062 12.3555 15.9414 12.3555C16.1523 12.25 16.3984 12.1445 16.6094 12.0391C16.6797 12.0039 16.7148 12.0039 16.7852 11.9688C16.8555 11.9336 16.9258 11.8984 16.9961 11.8633C17.1367 11.793 17.2422 11.7578 17.3828 11.7227C17.418 11.6875 17.4883 11.6875 17.5234 11.6523C17.5937 11.6172 17.6992 11.582 17.7695 11.5469C17.8047 11.5469 17.875 11.5117 17.9102 11.4766C17.9453 11.4766 17.9805 11.4414 18.0156 11.4414C18.0859 11.4063 18.1562 11.3711 18.2266 11.3711V2.96875C18.2266 2.44141 17.7695 2.01953 17.2773 2.01953C17.2422 2.01953 17.1367 2.01953 16.9961 2.08984ZM28 8.62891C28 9.05078 28.2812 9.40234 28.668 9.54297C28.7031 9.54297 28.7031 9.54297 28.7383 9.54297C28.8086 9.54297 28.8438 9.54297 28.9141 9.54297C29.0195 9.54297 29.0898 9.54297 29.1953 9.54297C29.2656 9.54297 29.3359 9.54297 29.4063 9.54297C29.4766 9.54297 29.5469 9.54297 29.582 9.54297H29.6172H29.6523C29.7227 9.54297 29.7578 9.54297 29.8281 9.57812C29.8633 9.57812 29.9336 9.57812 29.9688 9.57812C30.0039 9.57812 30.0039 9.57812 30.0391 9.57812C30.0742 9.57812 30.0742 9.57812 30.1094 9.57812C30.1445 9.57812 30.2148 9.57812 30.25 9.61328C30.3203 9.61328 30.3906 9.61328 30.4609 9.64844C30.4961 9.64844 30.5313 9.64844 30.5664 9.64844C30.6016 9.64844 30.6719 9.64844 30.707 9.68359C30.7773 9.68359 30.8125 9.68359 30.8828 9.71875C30.918 9.71875 30.918 9.71875 30.9531 9.71875C30.9531 9.71875 30.9883 9.71875 31.0234 9.71875C31.0938 9.71875 31.1289 9.75391 31.1992 9.75391C31.2695 9.75391 31.3398 9.78906 31.4102 9.78906C31.4805 9.78906 31.5508 9.82422 31.6211 9.82422C31.6211 9.82422 31.6211 9.82422 31.6562 9.82422C31.6914 9.82422 31.7266 9.82422 31.7617 9.85938C31.7617 9.85938 31.7617 9.85938 31.7969 9.85938C31.7969 9.85938 31.7969 9.85938 31.832 9.85938C31.8672 9.85938 31.8672 9.85938 31.9023 9.85938C31.9727 9.85938 32.043 9.89453 32.1133 9.89453C32.1836 9.92969 32.2539 9.92969 32.3594 9.96484C32.3945 9.96484 32.4648 10 32.5 10C32.5352 10 32.5352 10 32.5703 10.0352C32.5703 10.0352 32.5703 10.0352 32.6055 10.0352C32.6406 10.0352 32.6406 10.0352 32.6758 10.0352C32.7109 10.0352 32.7812 10.0703 32.8164 10.0703C32.8516 10.0703 32.8867 10.1055 32.9219 10.1055C32.957 10.1055 32.9922 10.1055 33.0273 10.1406C33.0977 10.1406 33.1328 10.1758 33.2031 10.1758H33.2383C33.2734 10.1758 33.3086 10.1758 33.3438 10.2109C33.3789 10.2109 33.3789 10.2109 33.4141 10.2109H33.4492C33.5195 10.2461 33.5898 10.2461 33.6602 10.2812C33.6602 10.2812 33.6602 10.2812 33.6953 10.2812C33.7656 10.3164 33.8008 10.3164 33.8711 10.3516C33.9414 10.3867 34.0117 10.3867 34.082 10.4219C34.1523 10.457 34.2227 10.457 34.2578 10.4922C34.2578 10.4922 34.2578 10.4922 34.293 10.4922C34.3281 10.5273 34.3633 10.5273 34.4336 10.5273C34.4688 10.5273 34.4688 10.5273 34.5039 10.5625C34.5039 10.5625 34.5039 10.5625 34.5391 10.5625H34.5742C34.6094 10.5625 34.6094 10.5625 34.6445 10.5977C34.6797 10.5977 34.7148 10.6328 34.75 10.6328C34.8203 10.668 34.8906 10.668 34.9258 10.7031C34.9609 10.7031 34.9961 10.7383 35.0312 10.7383C35.0312 10.7383 35.0664 10.7383 35.0664 10.7734C35.0664 10.7734 35.1016 10.7734 35.1016 10.8086C35.1016 10.8086 35.1016 10.8086 35.1367 10.8086C35.1719 10.8438 35.2422 10.8438 35.2773 10.8789C35.2773 10.8789 35.2773 10.8789 35.3125 10.8789C35.3828 10.9141 35.418 10.9141 35.4531 10.9492C35.4531 10.9492 35.4883 10.9492 35.4883 10.9844C35.5234 10.9844 35.5234 11.0195 35.5586 11.0195C35.5938 11.0195 35.5938 11.0195 35.6289 11.0547C35.6641 11.0547 35.6641 11.0898 35.6992 11.0898H35.7344C35.7695 11.125 35.8047 11.125 35.875 11.1602C35.9102 11.1602 35.9453 11.1953 35.9805 11.1953C36.0156 11.2305 36.0859 11.2305 36.1211 11.2656C36.1211 11.2656 36.1562 11.2656 36.1562 11.3008C36.2266 11.3359 36.2617 11.3359 36.2969 11.3711C36.3672 11.4062 36.4375 11.4414 36.5078 11.4766C36.5781 11.5117 36.6133 11.5469 36.6836 11.582C36.6836 11.582 36.7188 11.582 36.7188 11.6172C36.7539 11.6523 36.8242 11.6875 36.8594 11.6875C36.9297 11.7227 36.9648 11.7578 37.0352 11.793C37.0703 11.793 37.0703 11.8281 37.1055 11.8281C37.1055 11.8281 37.1406 11.8281 37.1406 11.8633C37.1758 11.8984 37.2109 11.8984 37.2461 11.9336C37.2461 11.9336 37.2812 11.9336 37.2812 11.9688C37.3516 12.0039 37.3867 12.0391 37.4219 12.0742C37.4219 12.0742 37.457 12.0742 37.457 12.1094C37.4922 12.1445 37.5625 12.1797 37.5977 12.1797C37.6328 12.1797 37.668 12.2148 37.7031 12.25C37.7383 12.2852 37.7734 12.2852 37.8086 12.3203C37.8789 12.3555 37.9141 12.3906 37.9844 12.4258C37.9844 12.4258 37.9844 12.4258 38.0195 12.4258C38.0547 12.4258 38.0547 12.4609 38.0898 12.4609C38.0898 12.4609 38.0898 12.4609 38.125 12.4609L38.1602 12.4961C38.1953 12.5313 38.2305 12.5312 38.2656 12.5664C38.3008 12.6016 38.3359 12.6016 38.3711 12.6367C38.4414 12.6719 38.4766 12.707 38.5469 12.7773H38.582C38.6172 12.7773 38.6172 12.8125 38.6523 12.8125C38.6523 12.8125 38.6875 12.8125 38.6875 12.8477C38.6875 12.8477 38.7227 12.8477 38.7227 12.8828C38.7578 12.918 38.8281 12.9531 38.8633 12.9883C38.9336 13.0234 38.9688 13.0586 39.0391 13.1289C39.1094 13.1641 39.1445 13.1992 39.2148 13.2695C39.25 13.2695 39.25 13.3047 39.2852 13.3398C39.3203 13.375 39.3555 13.375 39.3555 13.4102L39.3906 13.4453C39.4258 13.4805 39.4609 13.5156 39.4961 13.5508H39.5313C39.5313 13.5508 39.5312 13.5508 39.5664 13.5859C39.6016 13.6211 39.6367 13.6211 39.6719 13.6562L39.707 13.6914C39.7773 13.7266 39.8125 13.7617 39.8477 13.832C39.918 13.8672 39.9531 13.9375 40.0234 13.9727C40.0234 13.9727 40.0234 13.9727 40.0586 14.0078C40.0938 14.043 40.1641 14.0781 40.1992 14.1133C40.2695 14.1484 40.3047 14.2188 40.375 14.2539C40.4453 14.2891 40.4805 14.3594 40.5508 14.3945C40.5859 14.4297 40.6563 14.5 40.6914 14.5352C40.7617 14.5703 40.7969 14.6406 40.832 14.6758C40.8672 14.7109 40.9023 14.7109 40.9023 14.7461C40.9375 14.7813 40.9375 14.8164 40.9727 14.8164C41.0781 14.9219 41.1836 15.0273 41.2891 15.1328C41.3242 15.168 41.3945 15.2383 41.4297 15.2734C41.4648 15.3438 41.5352 15.3789 41.5703 15.4492C41.6406 15.5195 41.6758 15.5547 41.7109 15.625C41.7461 15.6602 41.7813 15.7305 41.8164 15.7656C41.8164 15.7656 41.8164 15.7656 41.8516 15.8008C41.8516 15.8008 41.8516 15.8359 41.8867 15.8359L41.9219 15.8711C41.9219 15.9063 41.957 15.9062 41.9922 15.9414L42.0273 15.9766C42.0273 16.0117 42.0625 16.0117 42.0625 16.0469C42.0625 16.082 42.0977 16.082 42.0977 16.1172C42.0977 16.1523 42.1328 16.1523 42.168 16.1875L42.2031 16.2227C42.2383 16.2578 42.2734 16.293 42.2734 16.3281C42.3086 16.3633 42.3438 16.4336 42.4141 16.4687L42.4492 16.5039C42.4844 16.5391 42.5195 16.6094 42.5547 16.6445C42.5547 16.6797 42.5898 16.6797 42.5898 16.7148C42.625 16.75 42.625 16.7852 42.6602 16.8203C42.6602 16.8203 42.6602 16.8203 42.6602 16.8555C42.6953 16.8906 42.6953 16.9258 42.7305 16.9609C42.7656 16.9961 42.7656 17.0313 42.8008 17.0313C42.8359 17.0664 42.8711 17.1367 42.9062 17.1719C42.9062 17.1719 42.9062 17.207 42.9414 17.207C42.9414 17.207 42.9414 17.2422 42.9766 17.2422C43.0117 17.3125 43.0469 17.3477 43.082 17.3828C43.1172 17.4531 43.1523 17.4883 43.1875 17.5234V17.5586C43.1875 17.5586 43.1875 17.5938 43.2227 17.5938C43.2578 17.6289 43.293 17.6992 43.3281 17.7344C43.3633 17.7695 43.3633 17.8047 43.3984 17.8047C43.3984 17.8047 43.3984 17.8398 43.4336 17.8398C43.4336 17.875 43.4688 17.875 43.4688 17.9102C43.4688 17.9453 43.5039 17.9453 43.5039 17.9453C43.5039 17.9453 43.5391 17.9805 43.5391 18.0156C43.5391 18.0508 43.5742 18.0859 43.6094 18.1211C43.6445 18.1914 43.6797 18.2266 43.7148 18.2969C43.7148 18.2969 43.7148 18.2969 43.7148 18.332C43.7148 18.3672 43.75 18.4023 43.7852 18.4023C43.7852 18.4023 43.7852 18.4375 43.8203 18.4375C43.8203 18.4375 43.8203 18.4375 43.8203 18.4727C43.8555 18.5078 43.8555 18.543 43.8906 18.5781C43.8906 18.5781 43.8906 18.6133 43.9258 18.6133V18.6484V18.6836C43.9609 18.7188 43.9609 18.7539 43.9961 18.7891C43.9961 18.8242 44.0313 18.8242 44.0313 18.8594L44.0664 18.8945C44.0664 18.9297 44.1016 18.9297 44.1016 18.9648C44.1016 19 44.1367 19 44.1367 19.0352C44.1367 19.0703 44.1719 19.1055 44.1719 19.1055C44.1719 19.1406 44.207 19.1758 44.207 19.1758C44.207 19.1758 44.207 19.1758 44.207 19.2109C44.207 19.2461 44.2422 19.2461 44.2422 19.2812C44.2773 19.3164 44.2773 19.3516 44.3125 19.3867C44.3125 19.3867 44.3125 19.3867 44.3125 19.4219C44.3125 19.4219 44.3125 19.4219 44.3125 19.457C44.3477 19.4922 44.3477 19.5625 44.3828 19.5977C44.418 19.668 44.4531 19.7031 44.4883 19.7734C44.5234 19.8438 44.5586 19.9141 44.5938 19.9844C44.5938 20.0195 44.6289 20.0547 44.6289 20.0898C44.6289 20.125 44.6641 20.1602 44.6641 20.1953C44.6992 20.2656 44.7344 20.3359 44.7344 20.4063C44.7344 20.4063 44.7344 20.4062 44.7344 20.4414C44.7695 20.5117 44.7695 20.5469 44.8047 20.6172V20.6523C44.8398 20.7227 44.8398 20.7578 44.875 20.8281V20.8633C44.9102 20.9336 44.9102 20.9688 44.9453 21.0391C44.9805 21.1094 45.0156 21.1797 45.0156 21.25C45.0156 21.2852 45.0508 21.3203 45.0508 21.3203C45.0508 21.3555 45.0508 21.3555 45.0859 21.3906V21.4258C45.0859 21.4609 45.0859 21.4609 45.1211 21.4961V21.5312C45.1211 21.5664 45.1563 21.6016 45.1563 21.6367C45.1563 21.6719 45.1562 21.6719 45.1914 21.707C45.1914 21.7773 45.2266 21.8125 45.2617 21.8828C45.2969 21.918 45.2969 21.9883 45.332 22.0234C45.332 22.0234 45.332 22.0586 45.3672 22.0586V22.0938C45.3672 22.1289 45.4023 22.1641 45.4023 22.1641C45.4023 22.1992 45.4375 22.2344 45.4375 22.2344C45.4727 22.3047 45.4727 22.375 45.5078 22.4453C45.543 22.5156 45.543 22.5508 45.5781 22.6211C45.5781 22.6211 45.5781 22.6211 45.5781 22.6563C45.5781 22.6563 45.5781 22.6563 45.5781 22.6914C45.6133 22.7617 45.6133 22.832 45.6484 22.9023C45.6484 22.9727 45.6836 23.0078 45.6836 23.0781C45.6836 23.0781 45.6836 23.0781 45.6836 23.1133C45.6836 23.1484 45.7188 23.2188 45.7188 23.2539V23.2891V23.3242C45.7188 23.3594 45.7539 23.4297 45.7539 23.4648C45.7539 23.5 45.7539 23.5 45.7891 23.5352C45.7891 23.6055 45.8242 23.6758 45.8242 23.7461V23.7812C45.8242 23.8164 45.8242 23.8516 45.8594 23.8516C45.8594 23.8516 45.8594 23.8516 45.8594 23.8867C45.8594 23.8867 45.8594 23.8867 45.8594 23.9219C45.8594 23.957 45.8945 23.9922 45.8945 24.0625V24.0977C45.8945 24.0977 45.8945 24.0977 45.8945 24.1328V24.168C45.8945 24.2031 45.8945 24.2383 45.9297 24.2734C45.9297 24.3086 45.9297 24.3789 45.9648 24.4141C45.9648 24.4492 45.9648 24.5195 46 24.5547V24.5898V24.625V24.6602V24.6953C46 24.6953 46 24.6953 46 24.7305C46 24.7656 46 24.8008 46.0352 24.8359C46.0352 24.9062 46.0703 24.9766 46.0703 25.0469C46.0703 25.082 46.0703 25.1523 46.1055 25.1875C46.1055 25.2578 46.1055 25.293 46.1406 25.3633C46.1406 25.3984 46.1406 25.3984 46.1406 25.4336C46.1406 25.4688 46.1406 25.5391 46.1758 25.5742C46.1758 25.6094 46.1758 25.6445 46.1758 25.6445C46.1758 25.6797 46.1758 25.7148 46.1758 25.7852C46.1758 25.8906 46.2109 25.9961 46.2109 26.1016C46.2109 26.1016 46.2109 26.1367 46.2109 26.1719C46.2109 26.2422 46.2109 26.2773 46.2109 26.3477C46.2109 26.418 46.2109 26.4883 46.2109 26.5586C46.2109 26.6289 46.2109 26.6992 46.2109 26.7695C46.2109 26.8398 46.2109 26.9102 46.2109 26.9805C46.2109 27.0508 46.2109 27.1211 46.2109 27.2266C46.2109 27.2617 46.2109 27.332 46.2109 27.3672C46.1406 22.2344 44.6992 17.418 42.2031 13.2695C38.8984 7.78516 33.8008 3.53125 27.7539 1.31641V8.62891H28Z" fill="white"/>
</mask>
<g mask="url(#mask2_1753_3191)">
<path d="M-10.0391 5.11328L41.1484 -13.2383L56.4062 29.2656L5.18359 47.6523L-10.0391 5.11328Z" fill="url(#paint2_linear_1753_3191)"/>
</g>
<mask id="mask3_1753_3191" style="mask-type:luminance" maskUnits="userSpaceOnUse" x="0" y="11" width="33" height="46">
<path d="M28 55.1758C28 55.7031 28.4219 56.125 28.9492 56.125C30.25 56.0898 31.5508 55.9492 32.8164 55.7383C31.1641 55.457 29.5469 55 28 54.4375V55.1758ZM18.0859 11.3359C18.0508 11.3359 18.0156 11.3711 17.9805 11.3711C17.9453 11.3711 17.875 11.4062 17.8398 11.4414C17.7695 11.4766 17.6641 11.5117 17.5938 11.5469C17.5586 11.582 17.4883 11.582 17.4531 11.6172C17.3125 11.6523 17.207 11.7227 17.0664 11.7578C16.9961 11.793 16.9258 11.8281 16.8555 11.8633C16.7852 11.8984 16.75 11.9336 16.6797 11.9336C16.4688 12.0391 16.2227 12.1445 16.0117 12.25C15.9414 12.2852 15.8711 12.3203 15.8359 12.3203C15.0625 12.707 14.2891 13.0937 13.5859 13.5508C8.10156 16.8555 3.84766 21.9531 1.63281 28.0352C1.07031 29.582 0.648437 31.1992 0.332031 32.8516C1.98437 42.3789 8.41797 50.2891 17.1016 53.9453C17.6992 54.1562 18.3672 53.6992 18.3672 53.0664V48.4258C16.5039 46.668 14.9219 44.6641 13.5859 42.4844C11.0898 38.3359 9.64844 33.4844 9.57812 28.3164C9.57812 28.2812 9.57812 28.2461 9.57812 28.2109C9.57812 28.1406 9.57812 28.0703 9.57812 28C9.57812 27.9297 9.57812 27.8594 9.57812 27.7891C9.57812 27.7539 9.57812 27.7187 9.57812 27.6836C9.68359 21.2852 13.0586 15.6602 18.0859 12.4258C18.2617 12.25 18.3672 12.0039 18.3672 11.7578V11.2305C18.2617 11.2656 18.1562 11.3008 18.0859 11.3359Z" fill="white"/>
</mask>
<g mask="url(#mask3_1753_3191)">
<path d="M28.2461 -0.0546875L48.4258 49.832L4.86719 67.4453L-15.2773 17.5234L28.2461 -0.0546875Z" fill="url(#paint3_linear_1753_3191)"/>
</g>
<mask id="mask4_1753_3191" style="mask-type:luminance" maskUnits="userSpaceOnUse" x="9" y="23" width="48" height="33">
<path d="M13.5508 42.4844C14.8516 44.6641 16.4688 46.668 18.332 48.4258V44.207C18.332 43.9609 18.2266 43.7148 18.0508 43.5391C13.0234 40.3047 9.64844 34.6797 9.54297 28.2813C9.57812 33.4844 11.0547 38.3359 13.5508 42.4844ZM54.4023 28C52.1875 34.082 47.9336 39.1797 42.4492 42.4844C38.4063 44.9102 33.6953 46.3516 28.668 46.457C28.2812 46.5625 28 46.9492 28 47.3711V54.4375C29.5469 55 31.1641 55.457 32.8164 55.7383C34.5039 55.457 36.1211 55 37.7031 54.4375C37.8438 54.3672 38.0195 54.332 38.1602 54.2617C38.1602 54.2617 38.1602 54.2617 38.1953 54.2617C38.2656 54.2266 38.3711 54.1914 38.4414 54.1562C38.4766 54.1562 38.4766 54.1562 38.5117 54.1211C38.582 54.0859 38.6523 54.0508 38.7227 54.0508C38.7578 54.0508 38.7578 54.0156 38.793 54.0156C38.8281 54.0156 38.8633 53.9805 38.8984 53.9805C38.9336 53.9805 38.9688 53.9453 39.0039 53.9453C39.0742 53.9102 39.1094 53.9102 39.1797 53.875C39.2148 53.875 39.25 53.8398 39.2852 53.8398C39.3203 53.8398 39.3555 53.8047 39.3906 53.8047C39.4258 53.7695 39.4961 53.7695 39.5313 53.7344C39.5664 53.6992 39.6016 53.6992 39.6367 53.6641C39.6719 53.6289 39.707 53.6289 39.7773 53.5938C39.8125 53.5938 39.8477 53.5586 39.8477 53.5586C39.918 53.5234 39.9883 53.4883 40.0234 53.4883C40.0586 53.4883 40.0586 53.4531 40.0937 53.4531C40.1641 53.418 40.1992 53.3828 40.2695 53.3828C40.3047 53.3828 40.3047 53.3828 40.3398 53.3477C40.4102 53.3125 40.4805 53.2773 40.5156 53.2422C40.5156 53.2422 40.5508 53.2422 40.5859 53.207C40.6563 53.1719 40.7266 53.1367 40.7969 53.1016H40.832C40.9023 53.0664 40.9727 53.0313 41.043 52.9961H41.0781C41.1484 52.9609 41.2188 52.9258 41.2891 52.8906C41.2891 52.8906 41.3242 52.8906 41.3242 52.8555C41.4648 52.7852 41.6055 52.7148 41.7812 52.6094C41.7812 52.6094 41.7812 52.6094 41.8164 52.6094C41.8867 52.5742 41.957 52.5391 42.0273 52.4688C49.1289 48.3906 54.2969 41.2539 55.7383 32.8867C55.9141 31.9023 56.0195 30.918 56.0898 29.8984C56.0898 29.8633 56.0898 29.793 56.0898 29.7578C56.0898 29.7578 56.0898 29.7578 56.0898 29.7227C56.0898 29.6875 56.0898 29.6523 56.0898 29.582V29.5469C56.0898 29.5117 56.0898 29.4766 56.0898 29.4062C56.0898 29.4062 56.0898 29.4062 56.0898 29.3711C56.0898 29.2305 56.0898 29.125 56.0898 28.9844C56.0898 28.9492 56.0898 28.9141 56.0898 28.9141C56.0898 28.8789 56.0898 28.8437 56.0898 28.8437C56.0898 28.8086 56.0898 28.7734 56.0898 28.7734C56.0898 28.7383 56.0898 28.7383 56.0898 28.7031C56.0898 28.668 56.0898 28.6328 56.0898 28.5977C56.0898 28.5625 56.0898 28.5625 56.0898 28.5273C56.0898 28.4922 56.0898 28.457 56.0898 28.4219C56.0898 28.3867 56.0898 28.3867 56.0898 28.3516C56.0898 28.3164 56.0898 28.2812 56.0898 28.2461V28.2109C56.0898 28.1406 56.0898 28.1055 56.0898 28.0352C56.0898 27.9648 56.0898 27.9297 56.0898 27.8594V27.8242C56.0898 27.7891 56.0898 27.7539 56.0898 27.7187C56.0898 27.6836 56.0898 27.6836 56.0898 27.6484C56.0898 27.6133 56.0898 27.5781 56.0898 27.543C56.0898 27.5078 56.0898 27.5078 56.0898 27.4727C56.0898 27.4375 56.0898 27.4023 56.0898 27.3672C56.0898 27.332 56.0898 27.332 56.0898 27.2969C56.0898 27.2617 56.0898 27.2266 56.0898 27.2266C56.0898 27.1914 56.0898 27.1562 56.0898 27.1562C56.0898 27.1211 56.0898 27.0859 56.0898 27.0859C56.0898 27.0508 56.0898 27.0156 56.0898 27.0156C56.0898 26.9102 56.0898 26.8398 56.0898 26.7344C56.0898 26.7344 56.0898 26.7344 56.0898 26.6992C56.0898 26.6641 56.0898 26.6289 56.0898 26.5586V26.5234C56.0898 26.4883 56.0898 26.4531 56.0898 26.3828C56.0898 26.3828 56.0898 26.3828 56.0898 26.3477C56.0898 26.3125 56.0898 26.2422 56.0898 26.207C56.0195 25.1875 55.9141 24.2031 55.7383 23.2188C55.4219 24.8359 55 26.4531 54.4023 28Z" fill="white"/>
</mask>
<g mask="url(#mask4_1753_3191)">
<path d="M-3.99219 30.3906L45.7891 3.8125L69.6602 48.4961L19.8789 75.1094L-3.99219 30.3906Z" fill="url(#paint4_linear_1753_3191)"/>
</g>
<mask id="mask5_1753_3191" style="mask-type:luminance" maskUnits="userSpaceOnUse" x="28" y="-1" width="28" height="48">
<path d="M28.9141 -0.125C28.3867 -0.125 28 0.296875 28 0.824219V1.5625C34.082 3.77734 39.1797 8.06641 42.4492 13.5156C44.9453 17.6641 46.3867 22.5156 46.457 27.6836C46.457 27.7188 46.457 27.7539 46.457 27.7891C46.457 27.8594 46.457 27.9297 46.457 28C46.457 28.0703 46.457 28.1406 46.457 28.2109C46.457 28.2461 46.457 28.2812 46.457 28.3164C46.3164 38.1602 38.4766 46.1406 28.7031 46.4922C33.7305 46.3867 38.4414 44.9453 42.4844 42.5195C47.9688 39.2148 52.2227 34.1172 54.4375 28.0352C55 26.4883 55.457 24.8711 55.7383 23.2188C54.3672 15.2031 49.5859 8.34766 42.9414 4.19922C42.9414 4.19922 42.9414 4.19922 42.9062 4.19922C42.7656 4.12891 42.625 4.02344 42.4844 3.95312C42.4844 3.95312 42.4492 3.95312 42.4492 3.91797C42.3789 3.88281 42.3086 3.84766 42.2383 3.8125C42.2383 3.8125 42.2383 3.8125 42.2031 3.8125C42.1328 3.77734 42.0625 3.74219 42.0273 3.70703C42.0273 3.70703 41.9922 3.70703 41.9922 3.67187C41.9219 3.63672 41.8516 3.60156 41.7812 3.56641C41.7461 3.56641 41.7461 3.53125 41.7109 3.53125C41.6406 3.49609 41.6055 3.46094 41.5352 3.42578C41.5 3.42578 41.5 3.39062 41.4648 3.39062C41.4297 3.35547 41.3594 3.32031 41.3242 3.32031C41.2891 3.32031 41.2539 3.28516 41.2539 3.28516C41.1836 3.25 41.1484 3.21484 41.0781 3.17969C41.043 3.17969 41.0078 3.14453 40.9727 3.14453C40.9375 3.14453 40.9023 3.10937 40.8672 3.07422C40.832 3.03906 40.7969 3.03906 40.7617 3.00391C40.7266 2.96875 40.6562 2.96875 40.6211 2.93359C40.5859 2.93359 40.5508 2.89844 40.5156 2.86328C40.4805 2.86328 40.4453 2.82813 40.4453 2.82813C40.375 2.79297 40.3047 2.75781 40.2695 2.72266C40.2344 2.72266 40.2344 2.6875 40.1992 2.6875C40.0586 2.61719 39.918 2.54688 39.8125 2.51172C39.8125 2.51172 39.7773 2.51172 39.7422 2.47656C39.6719 2.44141 39.5664 2.40625 39.4961 2.37109C39.4609 2.33594 39.3906 2.33594 39.3555 2.30078C37.1055 1.31641 34.7148 0.613281 32.2188 0.261718C31.0938 0.0156245 30.0039 -0.0898438 28.9141 -0.125Z" fill="white"/>
</mask>
<g mask="url(#mask5_1753_3191)">
<path d="M35.418 58.7617L7.39844 12.3555L48.2852 -12.3945L76.3398 33.9766L35.418 58.7617Z" fill="url(#paint5_linear_1753_3191)"/>
</g>
</g>
<defs>
<linearGradient id="paint0_linear_1753_3191" x1="-7.40572" y1="89.3239" x2="59.0949" y2="-25.8585" gradientUnits="userSpaceOnUse">
<stop stop-color="#4067B1"/>
<stop offset="0.1269" stop-color="#4169B2"/>
<stop offset="0.2182" stop-color="#426EB5"/>
<stop offset="0.2983" stop-color="#4476BB"/>
<stop offset="0.3715" stop-color="#4783C4"/>
<stop offset="0.4143" stop-color="#498DCB"/>
<stop offset="0.524" stop-color="#499BD3"/>
<stop offset="0.7296" stop-color="#4BB2E1"/>
<stop offset="0.8956" stop-color="#4CC0EA"/>
<stop offset="1" stop-color="#4BC8EE"/>
</linearGradient>
<linearGradient id="paint1_linear_1753_3191" x1="34.8252" y1="28.0166" x2="20.3738" y2="28.0166" gradientUnits="userSpaceOnUse">
<stop stop-color="#4067B1"/>
<stop offset="0.1972" stop-color="#447EBF"/>
<stop offset="0.4611" stop-color="#469BD2"/>
<stop offset="0.6926" stop-color="#49B2E0"/>
<stop offset="0.88" stop-color="#4CC0EA"/>
<stop offset="1" stop-color="#4BC8EE"/>
</linearGradient>
<linearGradient id="paint2_linear_1753_3191" x1="0.943932" y1="25.169" x2="39.1623" y2="11.4614" gradientUnits="userSpaceOnUse">
<stop stop-color="#4067B1"/>
<stop offset="0.1946" stop-color="#4579BD"/>
<stop offset="0.3763" stop-color="#4887C7"/>
<stop offset="0.4874" stop-color="#498DCB"/>
<stop offset="0.6053" stop-color="#4996D1"/>
<stop offset="0.8349" stop-color="#4BB0E0"/>
<stop offset="1" stop-color="#4BC8EE"/>
</linearGradient>
<linearGradient id="paint3_linear_1753_3191" x1="9.80508" y1="16.9713" x2="29.184" y2="64.9354" gradientUnits="userSpaceOnUse">
<stop stop-color="#4BC8EE"/>
<stop offset="0.0805772" stop-color="#4BB5E3"/>
<stop offset="0.213" stop-color="#499FD6"/>
<stop offset="0.3209" stop-color="#4992CE"/>
<stop offset="0.39" stop-color="#498DCB"/>
<stop offset="0.3933" stop-color="#498CCB"/>
<stop offset="0.6531" stop-color="#4478BC"/>
<stop offset="0.8646" stop-color="#426CB4"/>
<stop offset="1" stop-color="#4067B1"/>
</linearGradient>
<linearGradient id="paint4_linear_1753_3191" x1="17.3149" y1="47.7357" x2="55.9536" y2="27.1015" gradientUnits="userSpaceOnUse">
<stop stop-color="#4BC8EE"/>
<stop offset="0.0805772" stop-color="#4BB5E3"/>
<stop offset="0.213" stop-color="#499FD6"/>
<stop offset="0.3209" stop-color="#4992CE"/>
<stop offset="0.39" stop-color="#498DCB"/>
<stop offset="0.3933" stop-color="#498CCB"/>
<stop offset="0.6531" stop-color="#4478BC"/>
<stop offset="0.8646" stop-color="#426CB4"/>
<stop offset="1" stop-color="#4067B1"/>
</linearGradient>
<linearGradient id="paint5_linear_1753_3191" x1="49.7434" y1="36.2071" x2="25.9224" y2="-3.16202" gradientUnits="userSpaceOnUse">
<stop stop-color="#4BC8EE"/>
<stop offset="0.0805772" stop-color="#4BB5E3"/>
<stop offset="0.213" stop-color="#499FD6"/>
<stop offset="0.3209" stop-color="#4992CE"/>
<stop offset="0.39" stop-color="#498DCB"/>
<stop offset="0.3933" stop-color="#498CCB"/>
<stop offset="0.6531" stop-color="#4478BC"/>
<stop offset="0.8646" stop-color="#426CB4"/>
<stop offset="1" stop-color="#4067B1"/>
</linearGradient>
<clipPath id="clip0_1753_3191">
<rect width="56" height="56" fill="white"/>
</clipPath>
</defs>
</svg>
