<svg width="16" height="18" viewBox="0 0 16 18" fill="none" xmlns="http://www.w3.org/2000/svg">
<path fill-rule="evenodd" clip-rule="evenodd" d="M6.29058 11.3139C3.93037 11.3139 2.01704 13.2272 2.01704 15.5875V16.4422C2.01704 16.9142 1.63437 17.2969 1.16233 17.2969C0.690284 17.2969 0.307617 16.9142 0.307617 16.4422V15.5875C0.307617 12.2832 2.98628 9.60449 6.29058 9.60449H9.70942C13.0137 9.60449 15.6924 12.2832 15.6924 15.5875V16.4422C15.6924 16.9142 15.3097 17.2969 14.8377 17.2969C14.3656 17.2969 13.983 16.9142 13.983 16.4422V15.5875C13.983 13.2272 12.0696 11.3139 9.70942 11.3139H6.29058Z" fill="#1B94D2"/>
<path fill-rule="evenodd" clip-rule="evenodd" d="M7.99999 1.91254C6.58386 1.91254 5.43586 3.06054 5.43586 4.47667C5.43586 5.8928 6.58386 7.0408 7.99999 7.0408C9.41609 7.0408 10.5641 5.8928 10.5641 4.47667C10.5641 3.06055 9.41609 1.91254 7.99999 1.91254ZM3.72644 4.47667C3.72644 2.11646 5.63977 0.203125 7.99999 0.203125C10.3602 0.203125 12.2735 2.11645 12.2735 4.47667C12.2735 6.83689 10.3602 8.75022 7.99999 8.75022C5.63977 8.75022 3.72644 6.83689 3.72644 4.47667Z" fill="#1B94D2"/>
</svg>
