<svg width="16" height="16" viewBox="0 0 16 16" fill="none" xmlns="http://www.w3.org/2000/svg">
<g id="Group">
<path id="Vector (Stroke)" fill-rule="evenodd" clip-rule="evenodd" d="M6.40078 10.3993C4.19164 10.3993 2.40078 12.1902 2.40078 14.3993V15.1993C2.40078 15.6411 2.04261 15.9993 1.60078 15.9993C1.15895 15.9993 0.800781 15.6411 0.800781 15.1993V14.3993C0.800781 11.3065 3.30798 8.79932 6.40078 8.79932H9.60078C12.6936 8.79932 15.2008 11.3065 15.2008 14.3993V15.1993C15.2008 15.6411 14.8426 15.9993 14.4008 15.9993C13.959 15.9993 13.6008 15.6411 13.6008 15.1993V14.3993C13.6008 12.1902 11.8099 10.3993 9.60078 10.3993H6.40078Z" fill="#1B94D2"/>
<path id="Vector (Stroke)_2" fill-rule="evenodd" clip-rule="evenodd" d="M8 1.59976C6.67452 1.59976 5.6 2.67427 5.6 3.99976C5.6 5.32524 6.67452 6.39976 8 6.39976C9.32546 6.39976 10.4 5.32523 10.4 3.99976C10.4 2.67428 9.32546 1.59976 8 1.59976ZM4 3.99976C4 1.79062 5.79086 -0.000244141 8 -0.000244141C10.2091 -0.000244141 12 1.79061 12 3.99976C12 6.2089 10.2091 7.99976 8 7.99976C5.79086 7.99976 4 6.2089 4 3.99976Z" fill="#1B94D2"/>
</g>
</svg>
