<svg width="24" height="24" viewBox="0 0 24 24" fill="none" xmlns="http://www.w3.org/2000/svg">
<path d="M13.1245 19.124L13.1245 4.12402C13.1245 3.92511 13.0455 3.73434 12.9048 3.59369C12.7642 3.45304 12.5734 3.37402 12.3745 3.37402C12.1756 3.37402 11.9848 3.45304 11.8442 3.59369C11.7035 3.73434 11.6245 3.92511 11.6245 4.12402L11.6245 19.124C11.6245 19.3229 11.7035 19.5137 11.8442 19.6544C11.9848 19.795 12.1756 19.874 12.3745 19.874C12.5734 19.874 12.7642 19.795 12.9048 19.6544C13.0455 19.5137 13.1245 19.3229 13.1245 19.124Z" fill="white"/>
<path d="M12.3745 18.8141L6.15554 12.5936C6.01471 12.4528 5.8237 12.3737 5.62454 12.3737C5.42538 12.3737 5.23437 12.4528 5.09354 12.5936C4.95271 12.7345 4.87359 12.9255 4.87359 13.1246C4.87359 13.3238 4.95271 13.5148 5.09354 13.6556L11.8435 20.4056C11.9132 20.4755 11.996 20.5309 12.0871 20.5687C12.1782 20.6065 12.2759 20.626 12.3745 20.626C12.4732 20.626 12.5709 20.6065 12.662 20.5687C12.7531 20.5309 12.8359 20.4755 12.9055 20.4056L19.6555 13.6556C19.7964 13.5148 19.8755 13.3238 19.8755 13.1246C19.8755 12.9255 19.7964 12.7345 19.6555 12.5936C19.5147 12.4528 19.3237 12.3737 19.1245 12.3737C18.9254 12.3737 18.7344 12.4528 18.5935 12.5936L12.3745 18.8141Z" fill="white"/>
</svg>
