<svg width="24" height="24" viewBox="0 0 24 24" fill="none" xmlns="http://www.w3.org/2000/svg">
<g id="ic-add">
<path id="Union" fill-rule="evenodd" clip-rule="evenodd" d="M13.0044 14.506L13.0044 19.2723C13.0044 19.7215 12.5572 20.085 12.0044 20.085C11.4516 20.085 11.0044 19.7207 11.0044 19.2723V12.7306C11.0044 12.7247 11.0045 12.7188 11.0046 12.7129L11.0046 4.88094C11.0046 4.77641 11.0305 4.67291 11.0808 4.57633C11.131 4.47976 11.2047 4.39201 11.2975 4.3181C11.3904 4.24418 11.5006 4.18555 11.6219 4.14555C11.7433 4.10555 11.8733 4.08496 12.0046 4.08496C12.136 4.08496 12.266 4.10555 12.3873 4.14555C12.5086 4.18555 12.6189 4.24418 12.7117 4.3181C12.8046 4.39201 12.8783 4.47976 12.9285 4.57633C12.9788 4.67291 13.0046 4.77641 13.0046 4.88094L13.0046 14.4887C13.0046 14.4945 13.0046 14.5002 13.0044 14.506Z" fill="white"/>
<path id="Union_2" fill-rule="evenodd" clip-rule="evenodd" d="M9.58335 13.085L4.81701 13.085C4.36783 13.085 4.00439 12.6377 4.00439 12.085C4.00439 11.5322 4.36864 11.085 4.81701 11.085L11.3588 11.085C11.3647 11.085 11.3705 11.085 11.3764 11.0852L19.2084 11.0852C19.3129 11.0852 19.4164 11.1111 19.513 11.1613C19.6096 11.2116 19.6973 11.2852 19.7713 11.3781C19.8452 11.4709 19.9038 11.5812 19.9438 11.7025C19.9838 11.8238 20.0044 11.9539 20.0044 12.0852C20.0044 12.2165 19.9838 12.3466 19.9438 12.4679C19.9038 12.5892 19.8452 12.6994 19.7713 12.7923C19.6973 12.8852 19.6096 12.9588 19.513 13.0091C19.4164 13.0593 19.3129 13.0852 19.2084 13.0852L9.60064 13.0852C9.59487 13.0852 9.58911 13.0851 9.58335 13.085Z" fill="white"/>
</g>
</svg>
