<svg width="24" height="24" viewBox="0 0 24 24" fill="none" xmlns="http://www.w3.org/2000/svg">
<path d="M13.1245 4.87598L13.1245 19.876C13.1245 20.0749 13.0455 20.2657 12.9048 20.4063C12.7642 20.547 12.5734 20.626 12.3745 20.626C12.1756 20.626 11.9848 20.547 11.8442 20.4063C11.7035 20.2657 11.6245 20.0749 11.6245 19.876L11.6245 4.87598C11.6245 4.67706 11.7035 4.4863 11.8442 4.34565C11.9848 4.20499 12.1756 4.12598 12.3745 4.12598C12.5734 4.12598 12.7642 4.20499 12.9048 4.34565C13.0455 4.4863 13.1245 4.67706 13.1245 4.87598Z" fill="white"/>
<path d="M12.3745 5.18586L6.15554 11.4064C6.01471 11.5472 5.8237 11.6263 5.62454 11.6263C5.42538 11.6263 5.23437 11.5472 5.09354 11.4064C4.95271 11.2655 4.87359 11.0745 4.87359 10.8754C4.87359 10.6762 4.95271 10.4852 5.09354 10.3444L11.8435 3.59436C11.9132 3.52452 11.996 3.4691 12.0871 3.4313C12.1782 3.39349 12.2759 3.37402 12.3745 3.37402C12.4732 3.37402 12.5709 3.39349 12.662 3.4313C12.7531 3.4691 12.8359 3.52452 12.9055 3.59436L19.6555 10.3444C19.7964 10.4852 19.8755 10.6762 19.8755 10.8754C19.8755 11.0745 19.7964 11.2655 19.6555 11.4064C19.5147 11.5472 19.3237 11.6263 19.1245 11.6263C18.9254 11.6263 18.7344 11.5472 18.5935 11.4064L12.3745 5.18586Z" fill="white"/>
</svg>
