<svg width="24" height="24" viewBox="0 0 24 24" fill="none" xmlns="http://www.w3.org/2000/svg">
<path d="M19.4985 11.25H4.49854C4.29962 11.25 4.10886 11.329 3.9682 11.4697C3.82755 11.6103 3.74854 11.8011 3.74854 12C3.74854 12.1989 3.82755 12.3897 3.9682 12.5303C4.10886 12.671 4.29962 12.75 4.49854 12.75H19.4985C19.6974 12.75 19.8882 12.671 20.0289 12.5303C20.1695 12.3897 20.2485 12.1989 20.2485 12C20.2485 11.8011 20.1695 11.6103 20.0289 11.4697C19.8882 11.329 19.6974 11.25 19.4985 11.25Z" fill="white"/>
<path d="M19.1882 12L12.9677 18.219C12.8268 18.3598 12.7477 18.5508 12.7477 18.75C12.7477 18.9491 12.8268 19.1401 12.9677 19.281C13.1085 19.4218 13.2995 19.5009 13.4987 19.5009C13.6978 19.5009 13.8888 19.4218 14.0297 19.281L20.7797 12.531C20.8495 12.4613 20.9049 12.3785 20.9427 12.2874C20.9805 12.1963 21 12.0986 21 12C21 11.9013 20.9805 11.8036 20.9427 11.7125C20.9049 11.6214 20.8495 11.5386 20.7797 11.469L14.0297 4.71897C13.8888 4.57814 13.6978 4.49902 13.4987 4.49902C13.2995 4.49902 13.1085 4.57814 12.9677 4.71897C12.8268 4.8598 12.7477 5.05081 12.7477 5.24997C12.7477 5.44913 12.8268 5.64014 12.9677 5.78097L19.1882 12Z" fill="white"/>
</svg>
