<svg width="24" height="24" viewBox="0 0 24 24" fill="none" xmlns="http://www.w3.org/2000/svg">
<g id="ic-card">
<path id="Vector" fill-rule="evenodd" clip-rule="evenodd" d="M10.2789 5.00012H13.7214C15.2602 5.00012 16.4791 5.00012 17.4327 5.12252C18.4139 5.24892 19.2084 5.51452 19.8355 6.11292C20.4617 6.71212 20.7396 7.47132 20.8719 8.40892C20.9473 8.94732 20.9782 9.57372 20.9908 10.2993C21.0017 10.3601 21.0029 10.4222 20.9941 10.4833C21 10.9361 21 11.4257 21 11.9553V12.0449C21 13.5153 21 14.6801 20.8719 15.5913C20.7396 16.5289 20.4617 17.2881 19.8355 17.8873C19.2084 18.4857 18.4139 18.7513 17.4327 18.8777C16.4783 19.0001 15.2602 19.0001 13.7214 19.0001H10.2789C8.74011 19.0001 7.52115 19.0001 6.56758 18.8777C5.58639 18.7513 4.79189 18.4857 4.16483 17.8873C3.53861 17.2881 3.26066 16.5289 3.12839 15.5913C3.00029 14.6793 3.00029 13.5153 3.00029 12.0449V11.9553C3.00029 11.4257 3.00029 10.9361 3.00615 10.4833C2.99718 10.4222 2.99803 10.3602 3.00867 10.2993C3.02206 9.57372 3.05304 8.94732 3.12839 8.40892C3.26066 7.47132 3.53861 6.71212 4.16483 6.11292C4.79189 5.51452 5.58639 5.24892 6.56758 5.12252C7.52199 5.00012 8.74011 5.00012 10.2789 5.00012ZM4.25776 11.0001C4.25609 11.3105 4.25609 11.6433 4.25609 12.0001C4.25609 13.5257 4.25776 14.6089 4.3733 15.4321C4.48632 16.2361 4.69896 16.7001 5.0531 17.0385C5.40723 17.3769 5.89281 17.5801 6.73502 17.6881C7.59566 17.7985 8.72922 17.8001 10.3258 17.8001H13.6745C15.2711 17.8001 16.4055 17.7985 17.2661 17.6881C18.1075 17.5801 18.5931 17.3769 18.9472 17.0385C19.3013 16.7001 19.514 16.2361 19.627 15.4313C19.7425 14.6089 19.7442 13.5257 19.7442 12.0001C19.7442 11.6433 19.7442 11.3105 19.7425 11.0001H4.25776ZM19.7224 9.80012H4.27785C4.2946 9.33052 4.32306 8.92492 4.3733 8.56812C4.48632 7.76412 4.69896 7.30012 5.0531 6.96172C5.40723 6.62332 5.89281 6.42012 6.73502 6.31212C7.59566 6.20172 8.72922 6.20012 10.3258 6.20012H13.6745C15.2711 6.20012 16.4055 6.20172 17.2661 6.31212C18.1075 6.42012 18.5931 6.62332 18.9472 6.96172C19.3013 7.30012 19.514 7.76412 19.627 8.56892C19.6772 8.92492 19.7057 9.33052 19.7224 9.80012ZM6.34908 15.2001C6.34908 15.041 6.41523 14.8884 6.53298 14.7759C6.65074 14.6633 6.81044 14.6001 6.97697 14.6001H10.3258C10.4923 14.6001 10.652 14.6633 10.7697 14.7759C10.8875 14.8884 10.9537 15.041 10.9537 15.2001C10.9537 15.3593 10.8875 15.5119 10.7697 15.6244C10.652 15.7369 10.4923 15.8001 10.3258 15.8001H6.97697C6.81044 15.8001 6.65074 15.7369 6.53298 15.6244C6.41523 15.5119 6.34908 15.3593 6.34908 15.2001ZM11.7908 15.2001C11.7908 15.041 11.857 14.8884 11.9748 14.7759C12.0925 14.6633 12.2522 14.6001 12.4187 14.6001H13.6745C13.8411 14.6001 14.0008 14.6633 14.1185 14.7759C14.2363 14.8884 14.3024 15.041 14.3024 15.2001C14.3024 15.3593 14.2363 15.5119 14.1185 15.6244C14.0008 15.7369 13.8411 15.8001 13.6745 15.8001H12.4187C12.2522 15.8001 12.0925 15.7369 11.9748 15.6244C11.857 15.5119 11.7908 15.3593 11.7908 15.2001Z" fill="#1B94D2"/>
</g>
</svg>
