<svg width="24" height="24" viewBox="0 0 24 24" fill="none" xmlns="http://www.w3.org/2000/svg">
<path d="M17.4 17.4C17.8774 17.4 18.3352 17.5896 18.6728 17.9272C19.0104 18.2648 19.2 18.7226 19.2 19.2C19.2 19.6774 19.0104 20.1352 18.6728 20.4728C18.3352 20.8104 17.8774 21 17.4 21C16.9226 21 16.4648 20.8104 16.1272 20.4728C15.7896 20.1352 15.6 19.6774 15.6 19.2C15.6 18.201 16.401 17.4 17.4 17.4ZM3 3H5.943L6.789 4.8H20.1C20.3387 4.8 20.5676 4.89482 20.7364 5.0636C20.9052 5.23239 21 5.46131 21 5.7C21 5.853 20.955 6.006 20.892 6.15L17.67 11.973C17.364 12.522 16.77 12.9 16.095 12.9H9.39L8.58 14.367L8.553 14.475C8.553 14.5347 8.5767 14.5919 8.6189 14.6341C8.6611 14.6763 8.71833 14.7 8.778 14.7H19.2V16.5H8.4C7.92261 16.5 7.46477 16.3104 7.12721 15.9728C6.78964 15.6352 6.6 15.1774 6.6 14.7C6.6 14.385 6.681 14.088 6.816 13.836L8.04 11.631L4.8 4.8H3V3ZM8.4 17.4C8.87739 17.4 9.33523 17.5896 9.67279 17.9272C10.0104 18.2648 10.2 18.7226 10.2 19.2C10.2 19.6774 10.0104 20.1352 9.67279 20.4728C9.33523 20.8104 8.87739 21 8.4 21C7.92261 21 7.46477 20.8104 7.12721 20.4728C6.78964 20.1352 6.6 19.6774 6.6 19.2C6.6 18.201 7.401 17.4 8.4 17.4ZM16.5 11.1L19.002 6.6H7.626L9.75 11.1H16.5Z" fill="white"/>
</svg>
