<svg width="24" height="24" viewBox="0 0 24 24" fill="none" xmlns="http://www.w3.org/2000/svg">
<path d="M12.2059 18.0465H12C10.051 18.0465 8.39706 17.3649 7.03824 16.0015C5.67941 14.6382 5 12.9788 5 11.0233C5 9.06777 5.67941 7.40835 7.03824 6.04501C8.39706 4.68167 10.051 4 12 4C12.9745 4 13.884 4.18233 14.7284 4.54699C15.5727 4.91165 16.3139 5.41429 16.9519 6.05492C17.5898 6.69556 18.0905 7.4392 18.454 8.28584C18.8175 9.13249 18.9995 10.045 19 11.0233C19 12.8686 18.4817 14.5831 17.4452 16.1668C16.4086 17.7504 15.1014 18.9898 13.5235 19.885C13.3863 19.9538 13.249 19.9918 13.1118 19.999C12.9745 20.0062 12.851 19.975 12.7412 19.9056C12.6314 19.8368 12.5353 19.7473 12.4529 19.6371C12.3706 19.5269 12.3225 19.3961 12.3088 19.2446L12.2059 18.0465ZM14.0588 17.5095C15.0333 16.6832 15.8261 15.7156 16.4372 14.6068C17.0482 13.4979 17.3535 12.3034 17.3529 11.0233C17.3529 9.52221 16.8347 8.25197 15.7981 7.21252C14.7616 6.17308 13.4955 5.65308 12 5.65253C10.5039 5.65253 9.23788 6.17253 8.20188 7.21252C7.16588 8.25252 6.64761 9.52276 6.64706 11.0233C6.64706 12.5243 7.16533 13.7946 8.20188 14.834C9.23843 15.8734 10.5045 16.3934 12 16.394H14.0588V17.5095ZM11.9794 15.5471C12.2127 15.5471 12.4118 15.4644 12.5765 15.2992C12.7412 15.1339 12.8235 14.9343 12.8235 14.7001C12.8235 14.466 12.7412 14.2664 12.5765 14.1011C12.4118 13.9359 12.2127 13.8532 11.9794 13.8532C11.7461 13.8532 11.5471 13.9359 11.3824 14.1011C11.2176 14.2664 11.1353 14.466 11.1353 14.7001C11.1353 14.9343 11.2176 15.1339 11.3824 15.2992C11.5471 15.4644 11.7461 15.5471 11.9794 15.5471ZM10.1882 9.26745C10.3392 9.3363 10.4902 9.33988 10.6412 9.27819C10.7922 9.21649 10.9157 9.11652 11.0118 8.97825C11.1353 8.813 11.2794 8.68548 11.4441 8.59569C11.6088 8.50591 11.7941 8.46129 12 8.46184C12.3294 8.46184 12.5971 8.55466 12.8029 8.74029C13.0088 8.92592 13.1118 9.16361 13.1118 9.45336C13.1118 9.63238 13.0602 9.81141 12.9569 9.99043C12.8537 10.1695 12.672 10.3898 12.4118 10.6514C12.0686 10.9544 11.8147 11.2403 11.65 11.5091C11.4853 11.7779 11.4029 12.0498 11.4029 12.3246C11.4029 12.4899 11.4614 12.6312 11.5784 12.7485C11.6953 12.8658 11.8358 12.9242 12 12.9237C12.1647 12.9237 12.302 12.8617 12.4118 12.7378C12.5216 12.6138 12.6039 12.4692 12.6588 12.304C12.7275 12.0699 12.851 11.8564 13.0294 11.6636C13.2078 11.4708 13.3725 11.2987 13.5235 11.1472C13.8118 10.858 14.0281 10.5688 14.1725 10.2796C14.3169 9.99043 14.3888 9.70124 14.3882 9.41204C14.3882 8.77857 14.1719 8.26904 13.7393 7.88345C13.3067 7.49786 12.7269 7.30507 12 7.30507C11.5608 7.30507 11.1559 7.41193 10.7853 7.62566C10.4147 7.83938 10.1127 8.13188 9.87941 8.50315C9.79706 8.65463 9.78663 8.80254 9.84812 8.94686C9.90961 9.09118 10.023 9.19804 10.1882 9.26745Z" fill="white"/>
</svg>
