<svg width="24" height="24" viewBox="0 0 24 24" fill="none" xmlns="http://www.w3.org/2000/svg">
<path d="M19.0713 4.92862C19.4602 5.31753 19.4595 5.94756 19.0713 6.33577L6.3363 19.0708C6.1497 19.2574 5.89662 19.3622 5.63273 19.3622C5.36884 19.3622 5.11576 19.2574 4.92916 19.0708C4.74256 18.8842 4.63773 18.6311 4.63773 18.3672C4.63773 18.1033 4.74256 17.8502 4.92916 17.6636L17.6641 4.92862C18.0531 4.53972 18.6831 4.54042 19.0713 4.92862Z" fill="white"/>
<path d="M14.1252 15.1201C13.8613 15.1201 13.6082 15.0152 13.4216 14.8287L4.92924 6.3363C4.83685 6.24391 4.76356 6.13422 4.71355 6.0135C4.66355 5.89278 4.63781 5.76339 4.63781 5.63273C4.63781 5.50206 4.66355 5.37268 4.71355 5.25196C4.76356 5.13124 4.83685 5.02155 4.92924 4.92916C5.02164 4.83676 5.13132 4.76347 5.25204 4.71347C5.37276 4.66346 5.50215 4.63773 5.63281 4.63773C5.76348 4.63773 5.89286 4.66346 6.01358 4.71347C6.1343 4.76347 6.24399 4.83676 6.33638 4.92916L14.8287 13.4215C15.0153 13.6081 15.1202 13.8612 15.1202 14.1251C15.1202 14.389 15.0153 14.6421 14.8287 14.8287C14.6421 15.0153 14.3891 15.1201 14.1252 15.1201Z" fill="white"/>
<path d="M17.8753 19.2824C18.147 19.5541 18.6825 19.4602 19.0714 19.0713C19.4603 18.6824 19.5547 18.1475 19.2824 17.8752L15.3177 13.9105C15.1871 13.7798 14.9877 13.7287 14.7634 13.7683C14.5391 13.8079 14.3082 13.9349 14.1216 14.1215C13.935 14.3081 13.808 14.539 13.7684 14.7633C13.7288 14.9876 13.7799 15.187 13.9106 15.3176L17.8753 19.2824Z" fill="white"/>
</svg>
