<svg width="24" height="24" viewBox="0 0 24 24" fill="none" xmlns="http://www.w3.org/2000/svg">
<path fill-rule="evenodd" clip-rule="evenodd" d="M10.0724 4.16016H13.9279C15.6513 4.16016 17.0164 4.16016 18.0844 4.29724C19.1833 4.4388 20.0731 4.73626 20.7754 5.40644C21.4767 6.07752 21.788 6.92779 21.9361 7.97786C22.0205 8.58084 22.0552 9.28238 22.0693 10.095C22.0815 10.1631 22.0828 10.2326 22.073 10.3011C22.0796 10.8082 22.0796 11.3565 22.0796 11.9497V12.05C22.0796 13.6968 22.0796 15.0013 21.9361 16.0218C21.788 17.0719 21.4767 17.9222 20.7754 18.5932C20.0731 19.2634 19.1833 19.5609 18.0844 19.7024C17.0155 19.8395 15.6513 19.8395 13.9279 19.8395H10.0724C8.34907 19.8395 6.98389 19.8395 5.91594 19.7024C4.81705 19.5609 3.92725 19.2634 3.22497 18.5932C2.52363 17.9222 2.21234 17.0719 2.0642 16.0218C1.92074 15.0004 1.92074 13.6968 1.92074 12.05V11.9497C1.92074 11.3565 1.92074 10.8082 1.9273 10.3011C1.91725 10.2327 1.9182 10.1632 1.93012 10.095C1.94512 9.28238 1.97981 8.58084 2.0642 7.97786C2.21234 6.92779 2.52363 6.07752 3.22497 5.40644C3.92725 4.73626 4.81705 4.4388 5.91594 4.29724C6.98483 4.16016 8.34907 4.16016 10.0724 4.16016ZM3.32905 10.8799C3.32717 11.2275 3.32717 11.6002 3.32717 11.9998C3.32717 13.7084 3.32905 14.9216 3.45844 15.8435C3.58502 16.744 3.82317 17.2636 4.21979 17.6426C4.6164 18.0216 5.16022 18.2492 6.10347 18.3701C7.06734 18.4938 8.33688 18.4956 10.1249 18.4956H13.8754C15.6634 18.4956 16.9339 18.4938 17.8978 18.3701C18.8401 18.2492 19.3839 18.0216 19.7805 17.6426C20.1772 17.2636 20.4153 16.744 20.5419 15.8426C20.6713 14.9216 20.6732 13.7084 20.6732 11.9998C20.6732 11.6002 20.6732 11.2275 20.6713 10.8799H3.32905ZM20.6488 9.53594H3.35155C3.3703 9.01001 3.40218 8.55575 3.45844 8.15615C3.58502 7.25571 3.82317 6.73605 4.21979 6.35706C4.6164 5.97807 5.16022 5.75049 6.10347 5.62954C7.06734 5.50589 8.33688 5.5041 10.1249 5.5041H13.8754C15.6634 5.5041 16.9339 5.50589 17.8978 5.62954C18.8401 5.75049 19.3839 5.97807 19.7805 6.35706C20.1772 6.73605 20.4153 7.25571 20.5419 8.15705C20.5981 8.55575 20.63 9.01001 20.6488 9.53594ZM5.67122 15.5837C5.67122 15.4055 5.74531 15.2346 5.87719 15.1085C6.00907 14.9825 6.18793 14.9117 6.37444 14.9117H10.1249C10.3114 14.9117 10.4903 14.9825 10.6222 15.1085C10.754 15.2346 10.8281 15.4055 10.8281 15.5837C10.8281 15.7619 10.754 15.9328 10.6222 16.0588C10.4903 16.1849 10.3114 16.2557 10.1249 16.2557H6.37444C6.18793 16.2557 6.00907 16.1849 5.87719 16.0588C5.74531 15.9328 5.67122 15.7619 5.67122 15.5837ZM11.7658 15.5837C11.7658 15.4055 11.8398 15.2346 11.9717 15.1085C12.1036 14.9825 12.2825 14.9117 12.469 14.9117H13.8754C14.0619 14.9117 14.2408 14.9825 14.3727 15.1085C14.5045 15.2346 14.5786 15.4055 14.5786 15.5837C14.5786 15.7619 14.5045 15.9328 14.3727 16.0588C14.2408 16.1849 14.0619 16.2557 13.8754 16.2557H12.469C12.2825 16.2557 12.1036 16.1849 11.9717 16.0588C11.8398 15.9328 11.7658 15.7619 11.7658 15.5837Z" fill="white"/>
</svg>
