<svg width="24" height="24" viewBox="0 0 24 24" fill="none" xmlns="http://www.w3.org/2000/svg">
<g clip-path="url(#clip0_1899_7866)">
<path d="M6.5 7.1875C5.9561 7.1875 5.42442 7.02622 4.97218 6.72404C4.51995 6.42187 4.16747 5.99238 3.95933 5.48988C3.75119 4.98738 3.69673 4.43445 3.80284 3.901C3.90895 3.36756 4.17086 2.87755 4.55546 2.49296C4.94005 2.10836 5.43005 1.84645 5.9635 1.74034C6.49695 1.63423 7.04988 1.68869 7.55238 1.89683C8.05488 2.10497 8.48437 2.45745 8.78654 2.90968C9.08872 3.36192 9.25 3.8936 9.25 4.4375C9.25 5.16685 8.96027 5.86632 8.44454 6.38205C7.92882 6.89777 7.22935 7.1875 6.5 7.1875ZM6.5 3.0625C6.22805 3.0625 5.96221 3.14314 5.73609 3.29423C5.50997 3.44532 5.33374 3.66006 5.22967 3.91131C5.1256 4.16256 5.09837 4.43903 5.15142 4.70575C5.20447 4.97247 5.33543 5.21748 5.52773 5.40977C5.72003 5.60207 5.96503 5.73303 6.23175 5.78608C6.49847 5.83914 6.77494 5.81191 7.02619 5.70784C7.27744 5.60377 7.49218 5.42753 7.64327 5.20141C7.79436 4.97529 7.875 4.70945 7.875 4.4375C7.875 4.07283 7.73013 3.72309 7.47227 3.46523C7.21441 3.20737 6.86467 3.0625 6.5 3.0625ZM17.5 7.1875C16.9561 7.1875 16.4244 7.02622 15.9722 6.72404C15.5199 6.42187 15.1675 5.99238 14.9593 5.48988C14.7512 4.98738 14.6967 4.43445 14.8028 3.901C14.9089 3.36756 15.1709 2.87755 15.5555 2.49296C15.9401 2.10836 16.4301 1.84645 16.9635 1.74034C17.4969 1.63423 18.0499 1.68869 18.5524 1.89683C19.0549 2.10497 19.4844 2.45745 19.7865 2.90968C20.0887 3.36192 20.25 3.8936 20.25 4.4375C20.25 5.16685 19.9603 5.86632 19.4445 6.38205C18.9288 6.89777 18.2293 7.1875 17.5 7.1875ZM17.5 3.0625C17.2281 3.0625 16.9622 3.14314 16.7361 3.29423C16.51 3.44532 16.3337 3.66006 16.2297 3.91131C16.1256 4.16256 16.0984 4.43903 16.1514 4.70575C16.2045 4.97247 16.3354 5.21748 16.5277 5.40977C16.72 5.60207 16.965 5.73303 17.2318 5.78608C17.4985 5.83914 17.7749 5.81191 18.0262 5.70784C18.2774 5.60377 18.4922 5.42753 18.6433 5.20141C18.7944 4.97529 18.875 4.70945 18.875 4.4375C18.875 4.07283 18.7301 3.72309 18.4723 3.46523C18.2144 3.20737 17.8647 3.0625 17.5 3.0625ZM18.875 21.625H16.125C15.7603 21.625 15.4106 21.4801 15.1527 21.2223C14.8949 20.9644 14.75 20.6147 14.75 20.25V15.4375H16.125V20.25H18.875V14.0625H20.25V9.9375C20.25 9.75517 20.1776 9.5803 20.0486 9.45137C19.9197 9.32243 19.7448 9.25 19.5625 9.25H15.1488L12 14.75L8.85125 9.25H4.4375C4.25516 9.25 4.0803 9.32243 3.95136 9.45137C3.82243 9.5803 3.75 9.75517 3.75 9.9375V14.0625H5.125V20.25H7.875V15.4375H9.25V20.25C9.25 20.6147 9.10513 20.9644 8.84727 21.2223C8.58941 21.4801 8.23967 21.625 7.875 21.625H5.125C4.76033 21.625 4.41059 21.4801 4.15273 21.2223C3.89487 20.9644 3.75 20.6147 3.75 20.25V15.4375C3.38533 15.4375 3.03559 15.2926 2.77773 15.0348C2.51987 14.7769 2.375 14.4272 2.375 14.0625V9.9375C2.375 9.39049 2.5923 8.86589 2.97909 8.47909C3.36589 8.0923 3.89049 7.875 4.4375 7.875H9.64875L12 12L14.3512 7.875H19.5625C20.1095 7.875 20.6341 8.0923 21.0209 8.47909C21.4077 8.86589 21.625 9.39049 21.625 9.9375V14.0625C21.625 14.4272 21.4801 14.7769 21.2223 15.0348C20.9644 15.2926 20.6147 15.4375 20.25 15.4375V20.25C20.25 20.6147 20.1051 20.9644 19.8473 21.2223C19.5894 21.4801 19.2397 21.625 18.875 21.625Z" fill="white"/>
</g>
<defs>
<clipPath id="clip0_1899_7866">
<rect width="22" height="22" fill="white" transform="translate(1 1)"/>
</clipPath>
</defs>
</svg>
