<svg width="24" height="24" viewBox="0 0 24 24" fill="none" xmlns="http://www.w3.org/2000/svg">
<path d="M19.5645 6.46866C19.9534 6.85757 20.0215 7.41877 19.718 7.72223L9.7628 17.6775C9.61694 17.8233 9.40292 17.8891 9.16783 17.8603C8.93274 17.8315 8.69583 17.7105 8.50924 17.5239C8.32264 17.3373 8.20163 17.1004 8.17283 16.8653C8.14402 16.6302 8.20979 16.4162 8.35566 16.2703L18.3109 6.31509C18.6149 6.01107 19.1763 6.08046 19.5645 6.46866Z" fill="white"/>
<path d="M8.71779 17.6834C9.02173 17.9874 9.5833 17.9196 9.97221 17.5307C10.3611 17.1418 10.4294 16.5808 10.1249 16.2763L5.69049 11.8419C5.5444 11.6958 5.33017 11.6298 5.09492 11.6584C4.85967 11.6871 4.62268 11.808 4.43608 11.9946C4.24948 12.1812 4.12856 12.4182 4.09992 12.6534C4.07127 12.8887 4.13726 13.1029 4.28335 13.249L8.71779 17.6834Z" fill="white"/>
</svg>
