<svg width="24" height="24" viewBox="0 0 24 24" fill="none" xmlns="http://www.w3.org/2000/svg">
<path d="M16 17C16.2833 17 16.521 16.904 16.713 16.712C16.905 16.52 17.0007 16.2827 17 16V8C17 7.71667 16.904 7.479 16.712 7.287C16.52 7.095 16.2827 6.99934 16 7H13C12.45 7 11.979 7.196 11.587 7.588C11.195 7.98 10.9993 8.45067 11 9V10.3C10.6667 10.4833 10.4167 10.7167 10.25 11C10.0833 11.2833 10 11.6167 10 12C10 12.55 10.196 13.021 10.588 13.413C10.98 13.805 11.4507 14.0007 12 14C12.55 14 13.021 13.804 13.413 13.412C13.805 13.02 14.0007 12.5493 14 12C14 11.6167 13.9083 11.2833 13.725 11C13.5417 10.7167 13.3 10.4833 13 10.3V9H15V15H9V9C9.28334 9 9.521 8.904 9.713 8.712C9.905 8.52 10.0007 8.28267 10 8C10 7.71667 9.904 7.479 9.712 7.287C9.52 7.095 9.28267 6.99934 9 7H8C7.71667 7 7.479 7.096 7.287 7.288C7.095 7.48 6.99934 7.71734 7 8V16C7 16.2833 7.096 16.521 7.288 16.713C7.48 16.905 7.71734 17.0007 8 17H16ZM5 21C4.45 21 3.979 20.804 3.587 20.412C3.195 20.02 2.99934 19.5493 3 19V5C3 4.45 3.196 3.979 3.588 3.587C3.98 3.195 4.45067 2.99934 5 3H19C19.55 3 20.021 3.196 20.413 3.588C20.805 3.98 21.0007 4.45067 21 5V19C21 19.55 20.804 20.021 20.412 20.413C20.02 20.805 19.5493 21.0007 19 21H5ZM5 19H19V5H5V19Z" fill="white"/>
</svg>
