<svg width="24" height="24" viewBox="0 0 24 24" fill="none" xmlns="http://www.w3.org/2000/svg">
<path fill-rule="evenodd" clip-rule="evenodd" d="M17.4731 5.21777C17.1607 4.93001 16.6542 4.93001 16.3417 5.21777C16.0293 5.50552 16.0293 5.97207 16.3417 6.25982L17.3761 7.2125H13.7074C13.0709 7.2125 12.4605 7.4454 12.0104 7.85995C11.5603 8.2745 11.3074 8.83676 11.3074 9.42303V15.3178C11.3074 15.5132 11.2231 15.7006 11.0731 15.8388C10.9231 15.977 10.7196 16.0546 10.5074 16.0546H8.77016C8.65196 15.7467 8.46 15.4637 8.20448 15.2284C7.75439 14.8138 7.14394 14.5809 6.50742 14.5809C5.8709 14.5809 5.26045 14.8138 4.81037 15.2284C4.36028 15.6429 4.10742 16.2052 4.10742 16.7915C4.10742 17.3777 4.36028 17.94 4.81037 18.3545C5.26045 18.7691 5.8709 19.002 6.50742 19.002C7.14394 19.002 7.75439 18.7691 8.20448 18.3545C8.46 18.1192 8.65196 17.8362 8.77016 17.5283H10.5074C11.1439 17.5283 11.7544 17.2954 12.2045 16.8808C12.6546 16.4663 12.9074 15.904 12.9074 15.3178V9.42303C12.9074 9.22761 12.9917 9.04019 13.1417 8.902C13.2918 8.76382 13.4952 8.68619 13.7074 8.68619H17.376L16.3417 9.63882C16.0293 9.92658 16.0293 10.3931 16.3417 10.6809C16.6542 10.9686 17.1607 10.9686 17.4731 10.6809L19.8694 8.47373C19.8818 8.46244 19.8939 8.45079 19.9055 8.43878C20.0296 8.3102 20.1056 8.14133 20.1074 7.95614C20.1074 7.95387 20.1074 7.95161 20.1074 7.94934C20.1074 7.94554 20.1074 7.94174 20.1073 7.93794C20.1058 7.84625 20.0861 7.75863 20.0514 7.67798C20.0124 7.58706 19.953 7.50184 19.8731 7.4283L17.4731 5.21777ZM5.94174 16.2704C6.09177 16.1322 6.29525 16.0546 6.50742 16.0546C6.71959 16.0546 6.92308 16.1322 7.07311 16.2704C7.22314 16.4086 7.30742 16.596 7.30742 16.7915C7.30742 16.9869 7.22314 17.1743 7.07311 17.3125C6.92308 17.4507 6.71959 17.5283 6.50742 17.5283C6.29525 17.5283 6.09177 17.4507 5.94174 17.3125C5.79171 17.1743 5.70742 16.9869 5.70742 16.7915C5.70742 16.596 5.79171 16.4086 5.94174 16.2704Z" fill="white"/>
</svg>
