<svg width="24" height="24" viewBox="0 0 24 24" fill="none" xmlns="http://www.w3.org/2000/svg">
<g clip-path="url(#clip0_1899_7972)">
<path fill-rule="evenodd" clip-rule="evenodd" d="M12.9823 5.31492C12.7014 5.11081 12.3558 5 11.9999 5C11.6441 5 11.2984 5.11081 11.0175 5.31492L4.31048 10.1875C3.70889 10.6262 4.04008 11.5267 4.80247 11.5267H5.67605L6.33204 17.6541C6.37151 18.0229 6.55627 18.3648 6.85045 18.6135C7.14463 18.8623 7.52724 19 7.924 19H16.0758C16.4726 19 16.8552 18.8623 17.1494 18.6135C17.4436 18.3648 17.6283 18.0229 17.6678 17.6541L18.3238 11.5267H19.1974C19.959 11.5267 20.2918 10.6262 19.6894 10.1882L12.9823 5.31492ZM7.19682 10.7121C7.18617 10.6129 7.15453 10.5165 7.10371 10.4288C7.0529 10.341 6.98394 10.2636 6.90082 10.201L11.9999 6.49495L17.099 10.2002C17.0159 10.2629 16.9469 10.3403 16.8961 10.4281C16.8453 10.5158 16.8137 10.6121 16.803 10.7114L16.0758 17.5053H7.924L7.19682 10.7121ZM10.7999 13.0214C10.7999 12.7241 10.9264 12.4389 11.1514 12.2287C11.3764 12.0185 11.6817 11.9004 11.9999 11.9004C12.3182 11.9004 12.6234 12.0185 12.8484 12.2287C13.0735 12.4389 13.1999 12.7241 13.1999 13.0214C13.1999 13.3187 13.0735 13.6038 12.8484 13.814C12.6234 14.0243 12.3182 14.1424 11.9999 14.1424C11.6817 14.1424 11.3764 14.0243 11.1514 13.814C10.9264 13.6038 10.7999 13.3187 10.7999 13.0214ZM11.9999 10.4057C11.2573 10.4057 10.5452 10.6813 10.0201 11.1718C9.49497 11.6624 9.19998 12.3277 9.19998 13.0214C9.19998 13.7151 9.49497 14.3804 10.0201 14.8709C10.5452 15.3614 11.2573 15.637 11.9999 15.637C12.7425 15.637 13.4547 15.3614 13.9798 14.8709C14.5049 14.3804 14.7999 13.7151 14.7999 13.0214C14.7999 12.3277 14.5049 11.6624 13.9798 11.1718C13.4547 10.6813 12.7425 10.4057 11.9999 10.4057Z" fill="white"/>
</g>
<defs>
<clipPath id="clip0_1899_7972">
<rect width="24" height="24" fill="white"/>
</clipPath>
</defs>
</svg>
