<svg width="24" height="24" viewBox="0 0 24 24" fill="none" xmlns="http://www.w3.org/2000/svg">
<path d="M10.7037 9.14815C10.7037 8.94304 10.7645 8.74254 10.8785 8.572C10.9924 8.40146 11.1544 8.26854 11.3439 8.19005C11.5334 8.11156 11.7419 8.09102 11.9431 8.13104C12.1442 8.17105 12.329 8.26982 12.474 8.41485C12.6191 8.55988 12.7178 8.74467 12.7579 8.94583C12.7979 9.147 12.7773 9.35551 12.6988 9.545C12.6203 9.7345 12.4874 9.89646 12.3169 10.0104C12.1463 10.1244 11.9458 10.1852 11.7407 10.1852C11.4657 10.1852 11.2019 10.0759 11.0074 9.88144C10.813 9.68696 10.7037 9.42319 10.7037 9.14815ZM19 12C19 13.3845 18.5895 14.7378 17.8203 15.889C17.0511 17.0401 15.9579 17.9373 14.6788 18.4672C13.3997 18.997 11.9922 19.1356 10.6344 18.8655C9.2765 18.5954 8.02922 17.9287 7.05026 16.9497C6.07129 15.9708 5.4046 14.7235 5.13451 13.3656C4.86441 12.0078 5.00303 10.6003 5.53285 9.32121C6.06266 8.04213 6.95987 6.94888 8.11101 6.17971C9.26215 5.41054 10.6155 5 12 5C13.8559 5.00206 15.6352 5.74022 16.9475 7.05253C18.2598 8.36483 18.9979 10.1441 19 12ZM17.4444 12C17.4444 10.9232 17.1251 9.87056 16.5269 8.97523C15.9286 8.07989 15.0783 7.38207 14.0835 6.96999C13.0887 6.55791 11.994 6.45009 10.9378 6.66017C9.88172 6.87024 8.91162 7.38878 8.1502 8.1502C7.38878 8.91161 6.87025 9.88172 6.66017 10.9378C6.4501 11.994 6.55791 13.0887 6.96999 14.0835C7.38207 15.0783 8.0799 15.9286 8.97523 16.5269C9.87056 17.1251 10.9232 17.4444 12 17.4444C13.4435 17.4429 14.8274 16.8688 15.8481 15.8481C16.8688 14.8274 17.4429 13.4435 17.4444 12ZM12.7778 14.3774V12.2593C12.7778 11.9155 12.6412 11.5857 12.3981 11.3426C12.155 11.0995 11.8253 10.963 11.4815 10.963C11.2978 10.9627 11.12 11.0274 10.9794 11.1457C10.8389 11.264 10.7448 11.4282 10.7137 11.6092C10.6827 11.7903 10.7167 11.9765 10.8098 12.1348C10.9028 12.2932 11.049 12.4135 11.2222 12.4744V14.5926C11.2222 14.9364 11.3588 15.2661 11.6019 15.5092C11.845 15.7523 12.1747 15.8889 12.5185 15.8889C12.7022 15.8892 12.88 15.8244 13.0206 15.7061C13.1611 15.5878 13.2552 15.4236 13.2863 15.2426C13.3173 15.0616 13.2833 14.8754 13.1902 14.717C13.0972 14.5587 12.9511 14.4384 12.7778 14.3774Z" fill="white"/>
</svg>
