<svg width="24" height="24" viewBox="0 0 24 24" fill="none" xmlns="http://www.w3.org/2000/svg">
<g clip-path="url(#clip0_1899_8012)">
<path fill-rule="evenodd" clip-rule="evenodd" d="M17.523 6.78577C16.9661 6.77524 16.4126 6.87583 15.895 7.08168C15.3774 7.28753 14.906 7.59449 14.5084 7.98464C14.1108 8.37478 13.795 8.84028 13.5794 9.3539C13.3638 9.86753 13.2527 10.419 13.2527 10.976C13.2527 11.5331 13.3638 12.0845 13.5794 12.5981C13.795 13.1118 14.1108 13.5773 14.5084 13.9674C14.906 14.3576 15.3774 14.6645 15.895 14.8704C16.4126 15.0762 16.9661 15.1768 17.523 15.1663C18.6206 15.1455 19.6662 14.6949 20.4351 13.9113C21.204 13.1278 21.6347 12.0738 21.6347 10.976C21.6347 9.87823 21.204 8.82427 20.4351 8.0407C19.6662 7.25714 18.6206 6.80654 17.523 6.78577ZM7.44405 12.1198H11.1494C11.3815 13.4122 12.0031 14.6134 12.9444 15.5547C14.1589 16.7692 15.8061 17.4515 17.5238 17.4515C19.2414 17.4515 20.8886 16.7692 22.1032 15.5547C23.3177 14.3401 24 12.6929 24 10.9753C24 9.25767 23.3177 7.61041 22.1032 6.39587C20.8886 5.18134 19.2414 4.49902 17.5238 4.49902C15.8061 4.49902 14.1589 5.18134 12.9444 6.39587C12.0027 7.33751 11.381 8.53927 11.1491 9.83226H7.4445C7.41102 9.72581 7.37283 9.62071 7.32998 9.51727C7.13851 9.05502 6.85787 8.63501 6.50408 8.28122C6.15029 7.92743 5.73027 7.64679 5.26802 7.45532C4.80577 7.26385 4.31034 7.1653 3.81 7.1653C3.30966 7.1653 2.81423 7.26385 2.35198 7.45532C1.88973 7.64679 1.46971 7.92743 1.11592 8.28122C0.762132 8.63501 0.481489 9.05502 0.290019 9.51727C0.0985485 9.97952 0 10.475 0 10.9753C0 11.9858 0.40141 12.9549 1.11592 13.6694C1.83044 14.3839 2.79953 14.7853 3.81 14.7853C4.82047 14.7853 5.78956 14.3839 6.50408 13.6694C6.94151 13.2319 7.26159 12.6991 7.44405 12.1198ZM6.09452 10.9753C6.10233 11.2803 6.049 11.5838 5.93767 11.8679C5.82634 12.152 5.65926 12.411 5.44628 12.6295C5.2333 12.848 4.97874 13.0216 4.69759 13.1402C4.41644 13.2588 4.1144 13.3198 3.80927 13.3198C3.50414 13.3198 3.20209 13.2588 2.92094 13.1402C2.63979 13.0216 2.38523 12.848 2.17225 12.6295C1.95927 12.411 1.79219 12.152 1.68086 11.8679C1.56953 11.5838 1.5162 11.2803 1.52402 10.9753C1.53928 10.3793 1.78675 9.81293 2.21365 9.39683C2.64056 8.98072 3.21312 8.74785 3.80927 8.74785C4.40541 8.74785 4.97797 8.98072 5.40488 9.39683C5.83178 9.81293 6.07925 10.3793 6.09452 10.9753Z" fill="white"/>
</g>
<defs>
<clipPath id="clip0_1899_8012">
<rect width="24" height="24" fill="white"/>
</clipPath>
</defs>
</svg>
