<svg width="24" height="24" viewBox="0 0 24 24" fill="none" xmlns="http://www.w3.org/2000/svg">
<path d="M15.785 18.651C15.8537 18.7273 15.9074 18.8171 15.943 18.9152C15.9786 19.0134 15.9955 19.1179 15.9927 19.2229C15.9899 19.3279 15.9674 19.4312 15.9265 19.5271C15.8857 19.6229 15.8272 19.7094 15.7546 19.7815C15.6819 19.8537 15.5964 19.9101 15.503 19.9475C15.4096 19.9849 15.31 20.0026 15.2101 19.9997C15.1101 19.9967 15.0117 19.9731 14.9205 19.9302C14.8292 19.8873 14.7469 19.8259 14.6782 19.7495L8.20807 12.5538C8.07445 12.4053 8 12.2088 8 12.0045C8 11.8002 8.07445 11.6037 8.20807 11.4552L14.6782 4.25864C14.7465 4.18064 14.8288 4.11765 14.9203 4.07333C15.0119 4.02902 15.111 4.00426 15.2118 4.0005C15.3126 3.99674 15.413 4.01405 15.5074 4.05143C15.6018 4.0888 15.6881 4.1455 15.7614 4.21822C15.8347 4.29094 15.8936 4.37824 15.9345 4.47504C15.9754 4.57185 15.9976 4.67623 15.9998 4.78212C16.002 4.88802 15.9842 4.99331 15.9473 5.0919C15.9104 5.19048 15.8552 5.28039 15.785 5.35639L9.8081 12.0045L15.785 18.651Z" fill="white"/>
</svg>
