<svg width="24" height="24" viewBox="0 0 24 24" fill="none" xmlns="http://www.w3.org/2000/svg">
<path fill-rule="evenodd" clip-rule="evenodd" d="M4.72705 5.42754C4.72705 5.04094 5.04045 4.72754 5.42705 4.72754H11.7241C12.1107 4.72754 12.4241 5.04094 12.4241 5.42754C12.4241 5.81414 12.1107 6.12754 11.7241 6.12754H6.12705V17.3275H11.7271C12.1137 17.3275 12.4271 17.6409 12.4271 18.0275C12.4271 18.4141 12.1137 18.7275 11.7271 18.7275H5.42705C5.04045 18.7275 4.72705 18.4141 4.72705 18.0275V5.42754ZM14.3823 8.08262C14.6556 7.80925 15.0989 7.80925 15.3722 8.08262L18.4804 11.1908C18.6316 11.3192 18.7275 11.5107 18.7275 11.7246C18.7275 11.751 18.7261 11.7771 18.7232 11.8028C18.7068 11.9561 18.6398 12.105 18.5222 12.2226L15.3722 15.3726C15.0989 15.6459 14.6556 15.6459 14.3823 15.3726C14.1089 15.0992 14.1089 14.656 14.3823 14.3826L16.3403 12.4246H8.92754C8.54094 12.4246 8.22754 12.1112 8.22754 11.7246C8.22754 11.338 8.54094 11.0246 8.92754 11.0246H16.3343L14.3823 9.07257C14.1089 8.7992 14.1089 8.35598 14.3823 8.08262Z" fill="white"/>
</svg>
