<svg width="24" height="24" viewBox="0 0 24 24" fill="none" xmlns="http://www.w3.org/2000/svg">
<path fill-rule="evenodd" clip-rule="evenodd" d="M17.4437 3.84672C17.7367 3.5537 18.2118 3.5537 18.5048 3.84672C18.7978 4.13973 18.7978 4.61481 18.5048 4.90782L4.99913 18.4135C4.70611 18.7065 4.23104 18.7065 3.93802 18.4135C3.64501 18.1205 3.64501 17.6454 3.93802 17.3524L5.08783 16.2026C4.82504 16.0908 4.58341 15.9289 4.37755 15.723C3.95541 15.3009 3.71826 14.7284 3.71826 14.1314V6.62822C3.71826 6.03123 3.95541 5.45869 4.37755 5.03656C4.79968 4.61442 5.37222 4.37727 5.96921 4.37727H16.9132L17.4437 3.84672ZM15.4125 5.8779H8.14438C7.99834 6.59329 7.64535 7.25635 7.12135 7.78035C6.59734 8.30436 5.93428 8.65735 5.21889 8.80338V14.1314C5.21889 14.3304 5.29794 14.5212 5.43866 14.6619C5.57937 14.8026 5.77021 14.8817 5.96921 14.8817H6.40873L9.38648 11.904C9.10195 11.4211 8.95623 10.8644 8.97213 10.2963C8.99359 9.52969 9.30771 8.80036 9.85001 8.25807C10.3923 7.71577 11.1216 7.40164 11.8883 7.38019C12.4564 7.36429 13.013 7.51 13.4959 7.79454L15.4125 5.8779ZM12.3599 8.93057C12.221 8.89344 12.0764 8.87614 11.9302 8.88023C11.5469 8.89096 11.1823 9.04802 10.9111 9.31917C10.64 9.59032 10.4829 9.95499 10.4722 10.3383C10.4681 10.4844 10.4854 10.6291 10.5225 10.7679L12.3599 8.93057ZM5.21889 7.2498C5.53245 7.13893 5.82058 6.9589 6.06024 6.71925C6.29989 6.47959 6.47993 6.19146 6.59079 5.8779H5.96921C5.77021 5.8779 5.57937 5.95695 5.43866 6.09766C5.29794 6.23838 5.21889 6.42922 5.21889 6.62822V7.2498ZM16.8103 10.3188C16.8461 9.90598 17.2097 9.60028 17.6226 9.63603L18.2391 9.68941C19.298 9.78292 20.1439 10.6908 20.0491 11.7847L19.64 16.4497C19.6396 16.4608 19.6388 16.4719 19.6379 16.483L19.5351 17.658C19.4389 18.7513 18.4475 19.4994 17.3884 19.407L8.15477 18.5989C7.74196 18.5628 7.43659 18.1989 7.4727 17.7861C7.50881 17.3732 7.87273 17.0679 8.28554 17.104L15.6342 17.7468C16.0217 16.6413 17.0266 15.8559 18.2003 15.6901L18.5541 11.655C18.5715 11.451 18.4077 11.211 18.1075 11.1843L17.4931 11.1311C17.0803 11.0953 16.7746 10.7317 16.8103 10.3188ZM18.0637 17.2585C17.7185 17.3799 17.4297 17.6035 17.2349 17.8871L17.5187 17.9121C17.8188 17.938 18.0221 17.7302 18.0401 17.5272M18.0401 17.5272L18.0637 17.2585L18.0401 17.5272Z" fill="white"/>
<path fill-rule="evenodd" clip-rule="evenodd" d="M15.9975 12.2154C16.4436 11.8898 17.0692 11.9874 17.3948 12.4335C17.9848 13.2417 18.0293 14.1846 17.7831 14.99C17.5414 15.7805 17.0118 16.4893 16.346 16.9753C15.6769 17.4637 14.7999 17.7751 13.8615 17.6354C12.9004 17.4923 12.0383 16.9006 11.3799 15.8942C11.0775 15.4321 11.2071 14.8123 11.6693 14.5099C12.1314 14.2076 12.7512 14.3371 13.0536 14.7993C13.4641 15.4269 13.867 15.6142 14.1561 15.6572C14.4679 15.7036 14.8263 15.6085 15.1668 15.3599C15.5107 15.1089 15.7649 14.7503 15.8705 14.4052C15.9714 14.075 15.9265 13.8141 15.7794 13.6127C15.4538 13.1666 15.5515 12.541 15.9975 12.2154Z" fill="white"/>
</svg>
