<svg width="24" height="24" viewBox="0 0 24 24" fill="none" xmlns="http://www.w3.org/2000/svg">
<path fill-rule="evenodd" clip-rule="evenodd" d="M5.29395 7.6416C5.29395 7.11272 5.49932 6.60551 5.86489 6.23153C6.23045 5.85756 6.72627 5.64746 7.24326 5.64746H16.4035C16.6594 5.64746 16.9129 5.69904 17.1494 5.79926C17.3859 5.89947 17.6008 6.04636 17.7818 6.23153C17.9628 6.41671 18.1064 6.63654 18.2044 6.87848C18.3024 7.12042 18.3528 7.37973 18.3528 7.6416V13.7445C18.3528 14.0064 18.3024 14.2657 18.2044 14.5076C18.1064 14.7495 17.9628 14.9694 17.7818 15.1546C17.6008 15.3397 17.3859 15.4866 17.1494 15.5868C16.9129 15.687 16.6594 15.7386 16.4035 15.7386H12.6031V17.5557C12.6031 17.7672 12.5209 17.9701 12.3747 18.1197C12.2285 18.2693 12.0302 18.3533 11.8234 18.3533C11.6166 18.3533 11.4182 18.2693 11.272 18.1197C11.1258 17.9701 11.0436 17.7672 11.0436 17.5557V15.5623C10.9177 15.459 10.8262 15.3181 10.7818 15.1593C10.7375 15.0004 10.7424 14.8314 10.796 14.6755C10.8496 14.5197 10.9491 14.3847 11.0809 14.2892C11.2127 14.1937 11.3702 14.1425 11.5317 14.1425H16.4035C16.5069 14.1425 16.606 14.1005 16.6791 14.0257C16.7522 13.9509 16.7933 13.8495 16.7933 13.7437V7.6416C16.7933 7.53583 16.7522 7.43438 16.6791 7.35959C16.606 7.28479 16.5069 7.24278 16.4035 7.24278H7.24326C7.13986 7.24278 7.0407 7.28479 6.96758 7.35959C6.89447 7.43438 6.85339 7.53583 6.85339 7.6416V8.83809C6.85339 9.04964 6.77124 9.25253 6.62502 9.40212C6.47879 9.55171 6.28047 9.63575 6.07367 9.63575C5.86687 9.63575 5.66855 9.55171 5.52232 9.40212C5.37609 9.25253 5.29395 9.04964 5.29395 8.83809V7.6416Z" fill="white"/>
<path fill-rule="evenodd" clip-rule="evenodd" d="M8.12339 17.9215C8.12339 17.7178 8.20663 17.5223 8.3548 17.3783C8.50296 17.2342 8.70391 17.1532 8.91345 17.1532H14.7393C14.9489 17.1532 15.1498 17.2342 15.298 17.3783C15.4461 17.5223 15.5294 17.7178 15.5294 17.9215C15.5294 18.1253 15.4461 18.3207 15.298 18.4648C15.1498 18.6089 14.9489 18.6899 14.7393 18.6899H8.91345C8.70391 18.6899 8.50296 18.6089 8.3548 18.4648C8.20663 18.3207 8.12339 18.1253 8.12339 17.9215ZM8.32091 11.6152C8.1196 11.5056 7.8978 11.4361 7.66853 11.411C7.43925 11.3859 7.20713 11.4055 6.98577 11.4688C6.76441 11.5321 6.55828 11.6377 6.37946 11.7795C6.20065 11.9213 6.05276 12.0964 5.94448 12.2945C5.83619 12.4927 5.76969 12.7098 5.74887 12.9333C5.72805 13.1567 5.75334 13.382 5.82324 13.5958C5.89315 13.8097 6.00627 14.0078 6.15596 14.1785C6.30566 14.3492 6.48891 14.4892 6.69497 14.5901C7.10029 14.7951 7.57247 14.8361 8.00873 14.7043C8.445 14.5724 8.81004 14.2782 9.02442 13.8859C9.2388 13.4936 9.28515 13.0348 9.15339 12.6094C9.02164 12.1839 8.72244 11.8264 8.32091 11.6144V11.6152ZM4.58236 11.5906C4.87407 11.0572 5.31412 10.6144 5.85227 10.3126C6.39042 10.0108 7.00498 9.86226 7.6258 9.8839C8.24661 9.90555 8.84866 10.0965 9.36321 10.435C9.87775 10.7735 10.2841 11.2458 10.5357 11.7982C10.7874 12.3505 10.8744 12.9605 10.7866 13.5585C10.6988 14.1566 10.4399 14.7186 10.0394 15.1804C9.63887 15.6422 9.11291 15.9852 8.52154 16.1702C7.93017 16.3552 7.29723 16.3747 6.69497 16.2266L5.37005 18.6507C5.32134 18.7398 5.25506 18.8187 5.175 18.8828C5.09493 18.947 5.00266 18.9952 4.90343 19.0247C4.80421 19.0542 4.69998 19.0644 4.5967 19.0548C4.49342 19.0451 4.39311 19.0157 4.3015 18.9684C4.20988 18.921 4.12876 18.8565 4.06276 18.7787C3.99677 18.7008 3.94718 18.6111 3.91685 18.5146C3.88651 18.4181 3.87602 18.3167 3.88596 18.2163C3.89591 18.1159 3.9261 18.0183 3.97481 17.9292L5.29973 15.5052C4.74715 15.0247 4.37618 14.378 4.24614 13.6683C4.11609 12.9587 4.23447 12.2271 4.58236 11.5906Z" fill="white"/>
<path fill-rule="evenodd" clip-rule="evenodd" d="M11.9999 20.6606C16.783 20.6606 20.6606 16.783 20.6606 11.9999C20.6606 7.21691 16.783 3.33931 11.9999 3.33931C7.21691 3.33931 3.33931 7.21691 3.33931 11.9999C3.33931 16.783 7.21691 20.6606 11.9999 20.6606ZM11.9999 22.2352C17.653 22.2352 22.2352 17.653 22.2352 11.9999C22.2352 6.34691 17.653 1.76465 11.9999 1.76465C6.34691 1.76465 1.76465 6.34691 1.76465 11.9999C1.76465 17.653 6.34691 22.2352 11.9999 22.2352Z" fill="white"/>
</svg>
