<svg width="24" height="24" viewBox="0 0 24 24" fill="none" xmlns="http://www.w3.org/2000/svg">
<path fill-rule="evenodd" clip-rule="evenodd" d="M4.61538 5H16.1026C16.4424 5 16.7179 5.26863 16.7179 5.6V8.2H19.3846C19.7245 8.2 20 8.46863 20 8.8V16.8C20 17.3835 19.7623 17.9431 19.3391 18.3556C18.916 18.7682 18.342 19 17.7436 19H6.25641C5.65797 19 5.08405 18.7682 4.66089 18.3556C4.23773 17.9431 4 17.3835 4 16.8V5.6C4 5.26863 4.27552 5 4.61538 5ZM5.23077 6.2V16.8C5.23077 17.0652 5.33883 17.3196 5.53117 17.5071C5.72352 17.6946 5.98439 17.8 6.25641 17.8H15.7338C15.5732 17.4932 15.4872 17.1509 15.4872 16.8V8.8V6.2H5.23077ZM16.7179 9.4V16.8C16.7179 17.0652 16.826 17.3196 17.0184 17.5071C17.2107 17.6946 17.4716 17.8 17.7436 17.8C18.0156 17.8 18.2765 17.6946 18.4688 17.5071C18.6612 17.3196 18.7692 17.0652 18.7692 16.8V9.4H16.7179ZM7.89744 8.2C7.55757 8.2 7.28205 8.46863 7.28205 8.8C7.28205 9.13137 7.55757 9.4 7.89744 9.4H12.8205C13.1604 9.4 13.4359 9.13137 13.4359 8.8C13.4359 8.46863 13.1604 8.2 12.8205 8.2H7.89744ZM9.53846 11.4C9.19859 11.4 8.92308 11.6686 8.92308 12C8.92308 12.3314 9.19859 12.6 9.53846 12.6H12.8205C13.1604 12.6 13.4359 12.3314 13.4359 12C13.4359 11.6686 13.1604 11.4 12.8205 11.4H9.53846Z" fill="white"/>
</svg>
