<svg width="24" height="24" viewBox="0 0 24 24" fill="none" xmlns="http://www.w3.org/2000/svg">
<path d="M19 6H5V9.78947H5.7V16.7368C5.7 17.0719 5.8475 17.3931 6.11005 17.63C6.3726 17.8669 6.7287 18 7.1 18H16.9C17.2713 18 17.6274 17.8669 17.8899 17.63C18.1525 17.3931 18.3 17.0719 18.3 16.7368V9.78947H19V6ZM6.4 7.26316H17.6V8.52632H6.4V7.26316ZM16.9 16.7368H7.1V9.78947H16.9V16.7368ZM9.9 11.0526H14.1C14.1 11.3876 13.9525 11.7089 13.6899 11.9458C13.4274 12.1827 13.0713 12.3158 12.7 12.3158H11.3C10.9287 12.3158 10.5726 12.1827 10.3101 11.9458C10.0475 11.7089 9.9 11.3876 9.9 11.0526Z" fill="white"/>
</svg>
