<svg width="24" height="24" viewBox="0 0 24 24" fill="none" xmlns="http://www.w3.org/2000/svg">
<path d="M14.4756 9.80864V13.4163H13.4285V17.7036H10.5756V13.4199H9.52847V9.80864C9.52847 9.65209 9.58768 9.51689 9.69868 9.4066C9.81339 9.2963 9.954 9.23938 10.1168 9.23938H13.8873C14.039 9.23938 14.1759 9.2963 14.298 9.4066C14.4127 9.52045 14.4756 9.65209 14.4756 9.80864ZM10.7199 7.54227C10.7199 6.71329 11.1455 6.29701 11.9965 6.29701C12.8475 6.29701 13.2731 6.71329 13.2731 7.54227C13.2731 8.36058 12.8475 8.76974 11.9965 8.76974C11.1455 8.76974 10.7199 8.36058 10.7199 7.54227ZM11.9854 3.17676C17.2323 3.17676 21.1767 7.09398 21.1767 12.0003C21.1767 17.2339 16.7919 20.8238 11.9854 20.8238C7.02715 20.8238 2.82373 16.9279 2.82373 12.0003C2.82373 7.27187 6.69783 3.17676 11.9854 3.17676ZM12.015 4.76713C7.64138 4.76713 4.47772 8.25029 4.47772 12.0003C4.47772 15.9068 7.85229 19.2157 12.015 19.2157C15.8336 19.2157 19.519 16.3302 19.519 12.0003C19.5227 7.95143 16.1814 4.76713 12.015 4.76713Z" fill="white"/>
</svg>
