<svg width="24" height="24" viewBox="0 0 24 24" fill="none" xmlns="http://www.w3.org/2000/svg">
<g clip-path="url(#clip0_1899_8021)">
<path fill-rule="evenodd" clip-rule="evenodd" d="M18.2918 4.92188C18.7089 4.92188 19.109 5.08759 19.404 5.38257C19.699 5.67754 19.8647 6.07761 19.8647 6.49477V17.505C19.8647 17.9222 19.699 18.3223 19.404 18.6172C19.109 18.9122 18.7089 19.0779 18.2918 19.0779H5.70864C5.29148 19.0779 4.89141 18.9122 4.59643 18.6172C4.30146 18.3223 4.13574 17.9222 4.13574 17.505V6.49477C4.13574 6.07761 4.30146 5.67754 4.59643 5.38257C4.89141 5.08759 5.29148 4.92188 5.70864 4.92188H18.2918ZM18.2918 6.49477H5.70864V17.505H18.2918V6.49477ZM15.9324 14.3592C16.1329 14.3595 16.3257 14.4362 16.4715 14.5738C16.6172 14.7114 16.7049 14.8995 16.7167 15.0996C16.7284 15.2997 16.6633 15.4967 16.5347 15.6505C16.406 15.8042 16.2235 15.903 16.0245 15.9266L15.9324 15.9321H8.06798C7.86753 15.9319 7.67473 15.8552 7.52897 15.7176C7.38321 15.58 7.2955 15.3919 7.28376 15.1918C7.27201 14.9917 7.33711 14.7946 7.46577 14.6409C7.59442 14.4872 7.77692 14.3884 7.97596 14.3647L8.06798 14.3592H15.9324ZM10.4273 8.06766C10.8445 8.06766 11.2445 8.23338 11.5395 8.52835C11.8345 8.82333 12.0002 9.2234 12.0002 9.64056V11.2135C12.0002 11.6306 11.8345 12.0307 11.5395 12.3257C11.2445 12.6206 10.8445 12.7863 10.4273 12.7863H8.85443C8.43727 12.7863 8.0372 12.6206 7.74222 12.3257C7.44725 12.0307 7.28153 11.6306 7.28153 11.2135V9.64056C7.28153 9.2234 7.44725 8.82333 7.74222 8.52835C8.0372 8.23338 8.43727 8.06766 8.85443 8.06766H10.4273ZM15.9324 11.2135C16.141 11.2135 16.3411 11.2963 16.4886 11.4438C16.636 11.5913 16.7189 11.7913 16.7189 11.9999C16.7189 12.2085 16.636 12.4085 16.4886 12.556C16.3411 12.7035 16.141 12.7863 15.9324 12.7863H13.5731C13.3645 12.7863 13.1645 12.7035 13.017 12.556C12.8695 12.4085 12.7867 12.2085 12.7867 11.9999C12.7867 11.7913 12.8695 11.5913 13.017 11.4438C13.1645 11.2963 13.3645 11.2135 13.5731 11.2135H15.9324ZM10.4273 9.64056H8.85443V11.2135H10.4273V9.64056ZM15.9324 8.06766C16.1329 8.06789 16.3257 8.14464 16.4715 8.28224C16.6172 8.41985 16.7049 8.60792 16.7167 8.80802C16.7284 9.00813 16.6633 9.20516 16.5347 9.35888C16.406 9.51259 16.2235 9.61138 16.0245 9.63505L15.9324 9.64056H13.5731C13.3727 9.64034 13.1799 9.56358 13.0341 9.42598C12.8883 9.28837 12.8006 9.10031 12.7889 8.9002C12.7771 8.7001 12.8422 8.50306 12.9709 8.34934C13.0996 8.19563 13.282 8.09684 13.4811 8.07317L13.5731 8.06766H15.9324Z" fill="white"/>
</g>
<defs>
<clipPath id="clip0_1899_8021">
<rect width="24" height="24" fill="white"/>
</clipPath>
</defs>
</svg>
