<svg width="24" height="24" viewBox="0 0 24 24" fill="none" xmlns="http://www.w3.org/2000/svg">
<path d="M9.97197 7.38503C9.8376 7.34888 9.69437 7.36758 9.57379 7.43703C9.4532 7.50648 9.36515 7.62098 9.32899 7.75536C9.29283 7.88973 9.31154 8.03296 9.38099 8.15355C9.45044 8.27413 9.56494 8.36218 9.69932 8.39834L15.8005 10.027C15.867 10.0449 15.9364 10.0495 16.0048 10.0406C16.0731 10.0316 16.139 10.0094 16.1987 9.97497C16.3193 9.90552 16.4073 9.79102 16.4435 9.65664C16.4614 9.59011 16.466 9.5207 16.4571 9.45238C16.4482 9.38406 16.4259 9.31816 16.3915 9.25845C16.3571 9.19875 16.3113 9.1464 16.2567 9.1044C16.202 9.06239 16.1397 9.03156 16.0732 9.01366L9.97331 7.38437L9.97197 7.38503ZM8.64734 10.2896C8.68373 10.155 8.77203 10.0403 8.89289 9.97067C9.01374 9.90106 9.15727 9.88222 9.29199 9.9183L15.3918 11.5483C15.4584 11.5662 15.5207 11.597 15.5753 11.639C15.63 11.681 15.6758 11.7334 15.7102 11.7931C15.7446 11.8528 15.7668 11.9187 15.7758 11.987C15.7847 12.0553 15.7801 12.1247 15.7622 12.1912C15.7443 12.2578 15.7134 12.3201 15.6714 12.3748C15.6294 12.4294 15.5771 12.4752 15.5174 12.5096C15.4577 12.544 15.3918 12.5663 15.3234 12.5752C15.2551 12.5841 15.1857 12.5795 15.1192 12.5616L9.01933 10.9323C8.95268 10.9146 8.89018 10.8839 8.8354 10.842C8.78062 10.8001 8.73464 10.7478 8.70009 10.6881C8.66554 10.6284 8.6431 10.5625 8.63405 10.4941C8.625 10.4257 8.62951 10.3562 8.64734 10.2896ZM8.61068 12.4522C8.54414 12.4343 8.47473 12.4297 8.40641 12.4386C8.33809 12.4476 8.27219 12.4698 8.21249 12.5042C8.15278 12.5386 8.10043 12.5844 8.05843 12.6391C8.01643 12.6937 7.98559 12.756 7.96769 12.8226C7.94979 12.8891 7.94517 12.9585 7.95409 13.0268C7.96301 13.0951 7.9853 13.161 8.01969 13.2208C8.05408 13.2805 8.09989 13.3328 8.15451 13.3748C8.20912 13.4168 8.27148 13.4476 8.33802 13.4655L11.8966 14.4169C11.9631 14.4348 12.0325 14.4394 12.1009 14.4305C12.1692 14.4215 12.2351 14.3992 12.2948 14.3649C12.3545 14.3305 12.4068 14.2847 12.4488 14.23C12.4908 14.1754 12.5217 14.1131 12.5396 14.0465C12.5575 13.98 12.5621 13.9106 12.5532 13.8423C12.5443 13.7739 12.522 13.708 12.4876 13.6483C12.4532 13.5886 12.4074 13.5363 12.3528 13.4943C12.2981 13.4523 12.2358 13.4215 12.1693 13.4035L8.61068 12.4522ZM17.9071 6.24573L9.77265 4.07178C9.23403 3.92744 8.66015 4.00261 8.17688 4.2808C7.69361 4.55899 7.3404 5.01749 7.19471 5.55575L4.60544 15.1848C4.53415 15.4513 4.51612 15.7293 4.55238 16.0027C4.58864 16.2762 4.67847 16.5398 4.81674 16.7785C4.95502 17.0173 5.13901 17.2264 5.35819 17.3939C5.57737 17.5614 5.82744 17.684 6.09407 17.7548L14.2279 19.928C14.7666 20.0726 15.3406 19.9975 15.824 19.7193C16.3075 19.4411 16.6608 18.9825 16.8065 18.4441L19.3944 8.81566C19.4658 8.54913 19.4839 8.27112 19.4477 7.99758C19.4115 7.72403 19.3217 7.46031 19.1834 7.22153C19.0451 6.98275 18.8611 6.77359 18.6418 6.60603C18.4226 6.43847 18.1725 6.31581 17.9058 6.24506L17.9071 6.24573ZM8.21135 5.82707C8.28428 5.55807 8.46085 5.32893 8.70238 5.18986C8.94392 5.05079 9.23073 5.01311 9.49999 5.08509L17.6338 7.25837C17.7671 7.29374 17.892 7.35505 18.0016 7.43879C18.1111 7.52253 18.2031 7.62706 18.2722 7.74638C18.3413 7.8657 18.3862 7.99748 18.4043 8.13418C18.4224 8.27088 18.4134 8.4098 18.3778 8.543L15.7898 18.1734C15.7169 18.4424 15.5403 18.6716 15.2988 18.8106C15.0573 18.9497 14.7705 18.9874 14.5012 18.9154L6.3674 16.7408C6.23406 16.7055 6.109 16.6442 5.99938 16.5605C5.88975 16.4768 5.79772 16.3723 5.72855 16.253C5.65938 16.1336 5.61443 16.0018 5.59627 15.8651C5.57812 15.7284 5.58712 15.5894 5.62275 15.4562L8.21135 5.82707Z" fill="white"/>
</svg>
