<svg width="24" height="24" viewBox="0 0 24 24" fill="none" xmlns="http://www.w3.org/2000/svg">
<path d="M10.7926 1.53863C11.1594 1.3259 11.5758 1.21387 11.9998 1.21387C12.4238 1.21387 12.8403 1.3259 13.2071 1.53863L20.0862 5.52888C21.2275 6.19026 21.2275 7.83888 20.0862 8.50163L13.2071 12.4919C12.8403 12.7046 12.4238 12.8166 11.9998 12.8166C11.5758 12.8166 11.1594 12.7046 10.7926 12.4919L3.91346 8.50163C3.65351 8.35022 3.43781 8.13328 3.28789 7.87247C3.13798 7.61166 3.05908 7.31609 3.05908 7.01525C3.05908 6.71442 3.13798 6.41885 3.28789 6.15804C3.43781 5.89723 3.65351 5.68029 3.91346 5.52888L10.7926 1.53863ZM12.1717 3.32338C12.1195 3.29294 12.0602 3.2769 11.9998 3.2769C11.9394 3.2769 11.8801 3.29294 11.828 3.32338L5.46171 7.01525L11.828 10.7071C11.8801 10.7376 11.9394 10.7536 11.9998 10.7536C12.0602 10.7536 12.1195 10.7376 12.1717 10.7071L18.538 7.01525L12.1717 3.32338ZM3.20121 11.7095C3.2691 11.5923 3.3594 11.4896 3.46697 11.4073C3.57454 11.3251 3.69727 11.2648 3.82815 11.2299C3.95902 11.195 4.09548 11.1863 4.22973 11.2042C4.36398 11.2221 4.4934 11.2662 4.61058 11.3341L11.828 15.5196C11.8801 15.5501 11.9394 15.5661 11.9998 15.5661C12.0602 15.5661 12.1195 15.5501 12.1717 15.5196L19.3891 11.3341C19.6258 11.197 19.9072 11.1595 20.1715 11.2299C20.4358 11.3003 20.6613 11.4728 20.7985 11.7095C20.9356 11.9462 20.9731 12.2276 20.9027 12.4919C20.8323 12.7562 20.6598 12.9818 20.4231 13.1189L13.2071 17.3044C12.8403 17.5171 12.4238 17.6291 11.9998 17.6291C11.5758 17.6291 11.1594 17.5171 10.7926 17.3044L3.57658 13.1189C3.45927 13.0511 3.35647 12.9609 3.27404 12.8534C3.19161 12.7458 3.13118 12.6231 3.09619 12.4923C3.0612 12.3614 3.05235 12.2249 3.07013 12.0906C3.08791 11.9563 3.13336 11.8268 3.20121 11.7095ZM3.20121 16.522C3.2691 16.4048 3.3594 16.3021 3.46697 16.2198C3.57454 16.1376 3.69727 16.0773 3.82815 16.0424C3.95902 16.0075 4.09548 15.9988 4.22973 16.0167C4.36398 16.0346 4.4934 16.0787 4.61058 16.1466L11.828 20.3321C11.8801 20.3626 11.9394 20.3786 11.9998 20.3786C12.0602 20.3786 12.1195 20.3626 12.1717 20.3321L19.3891 16.1466C19.6258 16.0095 19.9072 15.972 20.1715 16.0424C20.4358 16.1128 20.6613 16.2853 20.7985 16.522C20.9356 16.7587 20.9731 17.0401 20.9027 17.3044C20.8323 17.5687 20.6598 17.7943 20.4231 17.9314L13.2071 22.1169C12.8403 22.3296 12.4238 22.4416 11.9998 22.4416C11.5758 22.4416 11.1594 22.3296 10.7926 22.1169L3.57658 17.9314C3.45939 17.8635 3.35671 17.7732 3.27442 17.6656C3.19213 17.558 3.13183 17.4353 3.09698 17.3044C3.06212 17.1736 3.05338 17.0371 3.07127 16.9029C3.08915 16.7686 3.13331 16.6392 3.20121 16.522Z" fill="white"/>
</svg>
