<svg width="60" height="60" viewBox="0 0 60 60" fill="none" xmlns="http://www.w3.org/2000/svg">
<path d="M47.6415 17.1025C48.5484 18.0095 48.7073 19.3183 47.9996 20.026L24.783 43.2426C24.4428 43.5828 23.9437 43.7362 23.3955 43.669C22.8472 43.6018 22.2947 43.3196 21.8596 42.8845C21.4244 42.4493 21.1422 41.8968 21.075 41.3486C21.0078 40.8003 21.1612 40.3012 21.5014 39.961L44.718 16.7444C45.427 16.0354 46.7361 16.1972 47.6415 17.1025Z" fill="#27AE60"/>
<path d="M22.3446 43.254C23.0534 43.9628 24.3631 43.8048 25.27 42.8978C26.177 41.9908 26.3363 40.6825 25.6262 39.9724L15.2846 29.6308C14.9439 29.2901 14.4443 29.1362 13.8957 29.203C13.3471 29.2698 12.7944 29.5518 12.3592 29.987C11.924 30.4222 11.642 30.9748 11.5752 31.5235C11.5084 32.0721 11.6623 32.5717 12.003 32.9124L22.3446 43.254Z" fill="#27AE60"/>
<path fill-rule="evenodd" clip-rule="evenodd" d="M30 55.9766C44.3465 55.9766 55.9766 44.3465 55.9766 30C55.9766 15.6535 44.3465 4.02337 30 4.02337C15.6535 4.02337 4.02337 15.6535 4.02337 30C4.02337 44.3465 15.6535 55.9766 30 55.9766ZM30 60C46.5685 60 60 46.5685 60 30C60 13.4315 46.5685 0 30 0C13.4315 0 0 13.4315 0 30C0 46.5685 13.4315 60 30 60Z" fill="#27AE60"/>
</svg>
