<svg width="82" height="83" viewBox="0 0 82 83" fill="none" xmlns="http://www.w3.org/2000/svg">
<g id="Logo">
<g id="fullcl">
<g id="Group">
<path id="Vector" d="M40.9655 30.6638C40.9655 29.8837 40.3181 29.2674 39.5381 29.3064C36.426 29.4703 33.4074 30.1568 30.5527 31.3659C29.5231 31.8028 28.5325 32.2943 27.5731 32.856C27.1597 33.0978 26.9102 33.5503 26.9102 34.0261V49.9016C26.9102 50.3852 27.1597 50.8377 27.5731 51.0717C28.5325 51.6256 29.5309 52.1249 30.5527 52.554C33.4074 53.7631 36.426 54.4575 39.5381 54.6135C40.3103 54.6525 40.9655 54.0284 40.9655 53.2561V30.656V30.6638Z" fill="url(#paint0_linear_2682_8112)"/>
<path id="Vector_2" d="M40.9654 30.6717C40.9654 29.8916 40.318 29.2752 39.538 29.3143C36.4259 29.4781 35.7473 30.1646 32.8925 31.3738C31.8629 31.8106 30.8724 32.3021 29.913 32.856C29.4996 33.0978 29.25 33.5503 29.25 34.0262V49.8938C29.25 50.3775 29.4996 50.8299 29.913 51.064C30.8724 51.6178 31.8629 52.1171 32.8925 52.5462C35.7473 53.7554 36.4259 54.4419 39.538 54.6057C40.3102 54.6447 40.9654 54.0284 40.9654 53.2483V30.6717Z" fill="url(#paint1_linear_2682_8112)"/>
</g>
<g id="Clip path group">
<mask id="mask0_2682_8112" style="mask-type:luminance" maskUnits="userSpaceOnUse" x="40" y="0" width="42" height="83">
<g id="clippath">
<path id="Vector_3" d="M81.9999 41.9612C81.9999 64.1556 64.38 82.2309 42.3688 82.972C41.5966 82.9954 40.9648 82.3791 40.9648 81.6068V70.2015C40.9648 69.4682 41.542 68.8675 42.2674 68.8363C45.4419 68.688 48.5229 67.9937 51.4322 66.7611C54.6301 65.4037 57.5162 63.4613 59.9887 60.9883C62.4613 58.5153 64.4035 55.6367 65.7607 52.4382C67.1646 49.1305 67.8666 45.6121 67.8666 41.969C67.8666 38.3258 67.1568 34.8153 65.7607 31.5076C64.4035 28.3091 62.4613 25.4305 59.9887 22.9575C57.5162 20.4845 54.6301 18.542 51.4322 17.1846C48.5229 15.9521 45.4419 15.2577 42.2674 15.1095C41.542 15.0783 40.9648 14.4776 40.9648 13.7443V2.33898C40.9648 1.56667 41.6044 0.942573 42.3688 0.973778C64.38 1.71489 81.9999 19.7902 81.9999 41.9846V41.9612Z" fill="white"/>
</g>
</mask>
<g mask="url(#mask0_2682_8112)">
<g id="Group_2">
<g id="Group_3">
<path id="Vector_4" d="M67.8276 41.1984C67.8276 41.0892 67.8276 40.9722 67.8198 40.863C67.8198 40.8552 67.8198 40.8474 67.8198 40.8396C67.8198 40.7304 67.8121 40.6211 67.8043 40.5119C67.8043 40.5119 67.8043 40.5119 67.8043 40.5041C67.8043 40.3949 67.7965 40.2935 67.7887 40.1843C67.7887 40.1843 67.7887 40.1765 67.7887 40.1687C67.7887 40.0595 67.773 39.9502 67.7652 39.8488C67.7652 39.8488 67.7652 39.841 67.7652 39.8332C67.7652 39.7552 67.7496 39.6694 67.7418 39.5914C67.7418 39.568 67.7418 39.5446 67.7418 39.5134V39.4978C67.7262 39.3418 67.7107 39.1857 67.6951 39.0297C67.6951 38.9673 67.6795 38.9049 67.6795 38.8503C67.6795 38.8113 67.6716 38.7723 67.6638 38.7411C67.656 38.6709 67.6482 38.5928 67.6404 38.5226C67.6404 38.4992 67.6326 38.468 67.6248 38.4368C67.617 38.3588 67.6015 38.273 67.5937 38.195C67.5859 38.1248 67.5702 38.0546 67.5624 37.9844C67.5468 37.8829 67.5313 37.7815 67.5157 37.6801V37.6567C67.5001 37.5943 67.4923 37.5397 67.4845 37.4773C67.4845 37.4617 67.4845 37.4461 67.4845 37.4305C67.4845 37.4071 67.4844 37.3915 67.4766 37.3759C67.4766 37.3525 67.4688 37.3291 67.4688 37.3057C67.4688 37.3057 67.4688 37.2978 67.4688 37.29C67.4688 37.2744 67.4688 37.251 67.461 37.2354C67.461 37.2276 67.461 37.2198 67.461 37.212C67.461 37.1964 67.461 37.1886 67.461 37.173C67.4454 37.095 67.4298 37.017 67.422 36.9468C67.4064 36.8766 67.3909 36.7986 67.383 36.7283C67.3753 36.6737 67.3596 36.6191 67.3518 36.5645C67.3518 36.5489 67.3518 36.5333 67.3518 36.5177C67.3518 36.5021 67.3518 36.4943 67.344 36.4787C67.344 36.4553 67.3362 36.4397 67.3284 36.4163C67.3128 36.3539 67.3051 36.2915 67.2895 36.2291C67.2895 36.2213 67.2895 36.2135 67.2895 36.2057C67.2895 36.2057 67.2895 36.1901 67.2895 36.1823C67.2895 36.1667 67.2895 36.1589 67.2816 36.1433C67.2816 36.1277 67.2816 36.1199 67.2738 36.1043C67.266 36.0653 67.2582 36.0184 67.2426 35.9794C67.2426 35.956 67.2348 35.9326 67.227 35.9092C67.2036 35.8 67.1802 35.6986 67.149 35.5894C67.1412 35.5582 67.1335 35.5192 67.1257 35.4802C67.1101 35.41 67.0944 35.3397 67.071 35.2695C67.071 35.2539 67.0632 35.2383 67.0554 35.2227C67.0554 35.2227 67.0554 35.2149 67.0554 35.2071C67.0554 35.1915 67.0476 35.1681 67.0398 35.1525C67.0242 35.0901 66.7981 34.9497 66.7981 34.9497C66.7981 34.9497 66.9774 34.9263 66.9774 34.9107C66.9774 34.9107 66.9774 34.8951 66.9774 34.8873C66.954 34.8015 66.9307 34.7156 66.9073 34.6376C66.8761 34.5362 66.8449 34.427 66.8215 34.3256C66.8215 34.3178 66.8137 34.3022 66.8137 34.2944C66.8137 34.2866 66.8137 34.271 66.8059 34.2632C66.7825 34.1774 66.7513 34.0838 66.7279 33.9901C66.6967 33.8965 66.6655 33.8029 66.6343 33.7093C66.6187 33.6703 66.6109 33.6313 66.5953 33.5845C66.5797 33.5377 66.5718 33.5065 66.5562 33.4597C66.5562 33.4362 66.5407 33.4207 66.5329 33.3973C66.5251 33.3738 66.5173 33.3504 66.5095 33.327C66.4861 33.249 66.4549 33.171 66.4315 33.093C66.4003 33.015 66.3769 32.9292 66.3457 32.8512C66.3379 32.82 66.3223 32.7888 66.3145 32.7575C66.2911 32.7029 66.2754 32.6483 66.252 32.5937C66.252 32.5781 66.2365 32.5547 66.2287 32.5391C66.2209 32.5079 66.2053 32.4767 66.1975 32.4455C66.1975 32.4299 66.1818 32.4143 66.1818 32.3987C66.174 32.3675 66.1585 32.3363 66.1429 32.3051C66.1273 32.2661 66.1117 32.2193 66.0961 32.1803C66.0571 32.0789 66.018 31.9774 65.979 31.8838C65.979 31.876 65.979 31.8682 65.9712 31.8604C65.94 31.7824 65.9088 31.6966 65.8698 31.6186C65.8698 31.603 65.8621 31.5874 65.8543 31.5796C65.8231 31.5016 65.7919 31.4235 65.7529 31.3455C65.7529 31.3299 65.7373 31.3143 65.7295 31.2987V31.2831C65.6905 31.1973 65.6515 31.1115 65.6125 31.0257C65.6125 31.0179 65.6124 31.0101 65.5968 30.9945C65.5579 30.9009 65.511 30.8073 65.472 30.7136C65.4486 30.6668 65.4253 30.62 65.4019 30.5654C65.3785 30.5186 65.3551 30.4718 65.3317 30.4172C65.2849 30.3236 65.2458 30.23 65.1991 30.1364C65.1991 30.1364 65.1991 30.1285 65.1991 30.1207C65.1523 30.0349 65.1133 29.9491 65.0665 29.8633C65.0665 29.8555 65.0665 29.8477 65.0587 29.8399V29.8321C65.0275 29.7619 64.9885 29.6995 64.9573 29.6293C64.9573 29.6137 64.9495 29.6059 64.9417 29.5981C64.9417 29.5825 64.9261 29.5747 64.9261 29.5591C64.8949 29.4966 64.8637 29.4421 64.8325 29.3796C64.8169 29.3484 64.7935 29.3094 64.7779 29.2704C64.7779 29.2626 64.7701 29.2548 64.7623 29.2392C64.7389 29.2002 64.7154 29.1534 64.692 29.1144C64.6686 29.0754 64.6453 29.0286 64.6219 28.9896C64.6063 28.9584 64.5829 28.9272 64.5673 28.8882C64.5673 28.8882 64.5673 28.8882 64.5673 28.8804C64.5517 28.8492 64.5283 28.8101 64.5127 28.7789C64.5049 28.7555 64.4893 28.7321 64.4737 28.7087C64.4503 28.6697 64.4347 28.6385 64.4113 28.5995C64.3879 28.5527 64.3567 28.5059 64.3333 28.4591C64.3255 28.4435 64.3176 28.4279 64.3099 28.4123C64.3021 28.3967 64.2943 28.3811 64.2865 28.3655C64.2787 28.3499 64.2709 28.3343 64.2631 28.3187C64.2319 28.2641 64.2007 28.2095 64.1695 28.1549C64.1695 28.1471 64.1617 28.1393 64.1539 28.1315C64.1539 28.1236 64.1383 28.108 64.1383 28.1002C64.1305 28.0846 64.1149 28.0612 64.107 28.0456C64.0836 28.0066 64.0603 27.9598 64.0291 27.9208L64.0135 27.8896C64.0135 27.8896 64.0057 27.874 63.9979 27.8662C63.9511 27.7882 63.9043 27.7102 63.8497 27.6322C63.8185 27.5854 63.7951 27.5464 63.7639 27.4996C63.7483 27.4762 63.7327 27.4449 63.7171 27.4215C63.7015 27.3981 63.6859 27.3747 63.6703 27.3513C63.6547 27.3201 63.6313 27.2889 63.6157 27.2655C63.6079 27.2499 63.6001 27.2343 63.5845 27.2187C63.5533 27.1719 63.5299 27.1329 63.4987 27.0861C63.4519 27.0159 63.4051 26.9457 63.3583 26.8754C63.3505 26.8598 63.3349 26.8365 63.3194 26.8209C63.3116 26.8053 63.3037 26.7974 63.2959 26.7818C63.2413 26.7116 63.1945 26.6336 63.1399 26.5634C63.0931 26.4932 63.0385 26.4152 62.9839 26.345C62.9761 26.3294 62.9683 26.3216 62.9527 26.306C62.9371 26.2904 62.9293 26.2748 62.9216 26.2592C62.867 26.189 62.8201 26.1187 62.7655 26.0485C62.7421 26.0095 62.7109 25.9705 62.6797 25.9315L62.5783 25.7989C62.5783 25.7989 62.5627 25.7755 62.5549 25.7677L62.4535 25.6273C62.4535 25.6273 62.4067 25.5649 62.3833 25.5337C62.3287 25.4557 62.2663 25.3854 62.2117 25.3074C62.1961 25.2918 62.1805 25.2762 62.1727 25.2528C62.1103 25.1826 62.0557 25.1046 61.9933 25.0266C61.9543 24.9798 61.9231 24.9408 61.8841 24.894C61.8607 24.8706 61.8451 24.8472 61.8217 24.8238C61.7983 24.7926 61.7672 24.7613 61.7438 24.7301C61.7204 24.6989 61.6969 24.6755 61.6735 24.6521C61.6501 24.6209 61.6267 24.5975 61.6033 24.5663C61.5877 24.5507 61.5722 24.5273 61.5566 24.5117L61.4708 24.4103C61.4708 24.4103 61.4317 24.3635 61.4083 24.3401L61.3771 24.3011C61.3771 24.3011 61.3616 24.2777 61.346 24.2699C61.2836 24.1996 61.229 24.1294 61.1666 24.067C61.0964 23.989 61.0262 23.911 60.956 23.833C60.8858 23.755 60.8155 23.677 60.7375 23.599C60.6674 23.521 60.5971 23.4429 60.5191 23.3727C60.3709 23.2167 60.2228 23.0685 60.0746 22.9203C60.0356 22.8813 60.0044 22.8422 59.9654 22.811C59.9264 22.772 59.8874 22.7408 59.8562 22.7018C59.7782 22.6316 59.7001 22.5536 59.6299 22.4834C59.5519 22.4132 59.4818 22.3352 59.4038 22.265C59.3258 22.1948 59.2478 22.1245 59.1698 22.0465C59.0918 21.9763 59.0138 21.9061 58.9358 21.8359C58.8734 21.7813 58.8032 21.7189 58.7408 21.6643C58.7252 21.6487 58.7096 21.6409 58.7018 21.6253C58.6238 21.5551 58.5458 21.4848 58.46 21.4224C58.382 21.36 58.3118 21.2976 58.2338 21.2352C58.2182 21.2196 58.1948 21.204 58.1792 21.1884C58.1324 21.1494 58.0934 21.1182 58.0466 21.0792C58.031 21.0714 58.0232 21.0636 58.0154 21.0558C57.9998 21.048 57.992 21.0402 57.9842 21.0246C57.9296 20.9778 57.875 20.9388 57.8204 20.892C57.797 20.8764 57.7736 20.8529 57.758 20.8373C57.758 20.8373 57.7502 20.8295 57.7424 20.8217C57.7034 20.7905 57.6566 20.7515 57.6098 20.7203C57.5786 20.6969 57.5474 20.6735 57.5084 20.6423C57.5006 20.6423 57.4928 20.6345 57.485 20.6267C57.3992 20.5643 57.3212 20.4941 57.2354 20.4317C57.1496 20.3693 57.0717 20.3069 56.9859 20.2444C56.9781 20.2444 56.9702 20.2288 56.9624 20.2288C56.8922 20.1742 56.822 20.1274 56.7518 20.0728C56.744 20.0728 56.7362 20.065 56.7284 20.0572C56.705 20.0416 56.6894 20.026 56.666 20.0104C56.6426 19.9948 56.627 19.9792 56.6036 19.9636C56.5802 19.948 56.549 19.9324 56.5256 19.909C56.51 19.9012 56.5023 19.8934 56.4867 19.8856C56.4789 19.8856 56.471 19.8778 56.4632 19.87C56.3774 19.8076 56.2917 19.7452 56.1981 19.6906C56.1513 19.6594 56.1122 19.6282 56.0654 19.6048C56.0186 19.5814 55.9796 19.5501 55.9328 19.5189C55.9094 19.5033 55.886 19.4877 55.8704 19.4721C55.8548 19.4643 55.847 19.4565 55.8314 19.4487C55.8314 19.4487 55.8159 19.4409 55.8081 19.4331C55.7769 19.4097 55.7379 19.3863 55.7067 19.3707C55.6989 19.3707 55.691 19.3629 55.6754 19.3551C55.6676 19.3551 55.652 19.3395 55.6442 19.3395C55.5662 19.2849 55.4805 19.2381 55.4025 19.1835C55.3557 19.1601 55.3166 19.1289 55.2698 19.1055C55.223 19.0743 55.184 19.0509 55.1372 19.0197H55.1217C55.0515 18.9651 54.9813 18.9261 54.9111 18.887C54.8955 18.8792 54.8798 18.8714 54.8642 18.8558C54.7862 18.809 54.7161 18.77 54.6381 18.7232C54.6147 18.7076 54.5912 18.692 54.5678 18.6842C54.5132 18.653 54.4665 18.6218 54.4119 18.5984C54.3963 18.5906 54.3806 18.5828 54.365 18.575C54.3338 18.5594 54.3104 18.5438 54.2792 18.5282C54.2012 18.4814 54.1155 18.4346 54.0297 18.3878C53.9517 18.3488 53.8815 18.302 53.8035 18.263C53.7879 18.2552 53.7723 18.2473 53.7489 18.2317C53.6631 18.1849 53.5695 18.1381 53.4759 18.0913C53.4759 18.0913 53.4759 18.0913 53.4681 18.0913C53.3745 18.0445 53.2808 17.9977 53.1872 17.9431L52.9689 17.8339C52.9689 17.8339 52.922 17.8105 52.8986 17.8027C52.8284 17.7715 52.7661 17.7403 52.6959 17.7013C52.6491 17.6779 52.6023 17.6545 52.5555 17.6311C52.5009 17.6077 52.4385 17.5765 52.3839 17.553C52.3605 17.5452 52.3449 17.5374 52.3215 17.5218C52.2903 17.5062 52.2513 17.4906 52.2201 17.475C52.2201 17.475 52.1577 17.4516 52.1343 17.436C52.1031 17.4204 52.0719 17.4126 52.0407 17.397C52.0407 17.397 52.0407 17.397 52.0329 17.397C52.0095 17.3892 51.9861 17.3736 51.9627 17.3658C51.8847 17.3346 51.8067 17.3034 51.7365 17.2644C51.7209 17.2644 51.7131 17.2566 51.6975 17.2488C51.6273 17.2176 51.5493 17.1864 51.4791 17.1552C51.4635 17.1552 51.4479 17.1396 51.4401 17.1396C51.4167 17.1318 51.3933 17.1162 51.3621 17.1084C51.3387 17.1006 51.3153 17.085 51.2919 17.0772C51.2451 17.0538 51.1905 17.0382 51.1437 17.0148C51.0501 16.9758 50.9643 16.9445 50.8707 16.9055C50.8239 16.8821 50.7693 16.8665 50.7147 16.8431C50.6835 16.8275 50.6602 16.8197 50.629 16.8119C50.6134 16.8119 50.5977 16.7963 50.5743 16.7963C50.5587 16.7963 50.551 16.7885 50.5354 16.7807C50.5042 16.7651 50.4652 16.7573 50.434 16.7417C50.3716 16.7183 50.3092 16.6949 50.239 16.6715C50.2312 16.6715 50.2155 16.6637 50.1999 16.6559C50.1141 16.6247 50.0205 16.5935 49.9269 16.5623C49.9269 16.5623 49.9113 16.5623 49.9035 16.5623C49.8099 16.5311 49.7085 16.4921 49.6071 16.4609C49.6071 16.4609 49.5915 16.4609 49.5837 16.4531C49.5057 16.4219 49.42 16.3985 49.342 16.3751C49.3342 16.3751 49.3263 16.3673 49.3107 16.3673H49.3029C49.2093 16.3361 49.1079 16.3048 49.0143 16.2736C49.0143 16.2736 48.9988 16.2736 48.991 16.2736C48.9676 16.2658 48.9441 16.258 48.9207 16.2502L48.8428 16.2268C48.796 16.2112 48.7414 16.1956 48.6946 16.18H48.679C48.6556 16.18 48.6399 16.1644 48.6165 16.1644C48.5385 16.141 48.4606 16.1176 48.3826 16.0942C48.3358 16.0786 48.2889 16.0708 48.2421 16.0552C48.1875 16.0396 48.133 16.024 48.0784 16.0084C48.0082 15.985 47.9302 15.9694 47.8522 15.946C47.821 15.946 47.7898 15.9304 47.7664 15.9226C47.7586 15.9226 47.7507 15.9226 47.7351 15.9148C47.7039 15.907 47.6649 15.8992 47.6337 15.8914C47.5635 15.8758 47.4934 15.8524 47.4154 15.8368C47.3062 15.8056 47.1892 15.7822 47.0722 15.7588C46.9708 15.7354 46.8694 15.712 46.7602 15.6886C46.729 15.6886 46.7056 15.673 46.6744 15.673C46.6588 15.673 46.651 15.673 46.6432 15.673C46.6354 15.673 46.6198 15.673 46.612 15.6652C46.5574 15.6573 46.5106 15.6418 46.456 15.634C46.4482 15.634 46.4404 15.634 46.4248 15.6262C46.3156 15.6028 46.2064 15.5871 46.0972 15.5637C46.0036 15.5481 45.9022 15.5247 45.8008 15.5091C45.7228 15.4935 45.6448 15.4779 45.559 15.4701C45.5278 15.4701 45.4967 15.4623 45.4733 15.4545C45.4421 15.4545 45.4109 15.4467 45.3797 15.4389C45.3017 15.4233 45.2158 15.4155 45.1378 15.3999C45.0754 15.3921 45.0052 15.3843 44.9428 15.3687C44.8882 15.3609 44.8336 15.3531 44.7712 15.3453C44.6698 15.3297 44.5684 15.3219 44.467 15.3063C44.3968 15.2985 44.3266 15.2907 44.2486 15.2829C44.2174 15.2829 44.1862 15.2751 44.1472 15.2751C44.1472 15.2751 44.1472 15.2751 44.1394 15.2751C44.1082 15.2751 44.0848 15.2751 44.0536 15.2673C44.0536 15.2673 44.038 15.2673 44.0302 15.2673C43.96 15.2595 43.8899 15.2517 43.8197 15.2439C43.7339 15.2361 43.648 15.2283 43.5544 15.2205C43.531 15.2205 43.5076 15.2205 43.4842 15.2205C43.4687 15.2205 43.4453 15.2205 43.4297 15.2205C43.3361 15.2127 43.2502 15.2049 43.1566 15.1971C43.0474 15.1893 42.9305 15.1815 42.8213 15.1737C42.6809 15.1659 42.5405 15.1581 42.4001 15.1503C42.3143 15.1503 42.2363 15.1425 42.1505 14.9084H42.1349C42.0725 15.1347 42.0101 15.1269 41.9477 15.1269C41.9009 15.1269 41.8073 15.2985 41.8073 15.2985H41.7995C41.7995 15.2985 41.7059 15.1191 41.6591 15.1191C41.5967 15.1191 41.4719 14.9084 41.4719 14.9084H41.4251C41.4251 14.9084 41.3159 15.1113 41.2613 15.1113C41.1911 15.1113 41.1209 15.1113 41.0507 15.2985H40.8245C39.5843 15.1191 38.3597 15.1815 37.1508 15.2985C36.8622 15.3297 36.5814 15.3531 36.2928 15.3843C36.1524 15.3999 36.0042 15.4155 35.8638 15.4389C35.7234 15.4545 35.583 15.4779 35.4426 15.4935C35.31 15.5091 35.1852 15.5247 35.0526 15.5481C35.037 15.5481 35.0292 15.5481 35.0136 15.5481C34.7328 15.5871 34.452 15.634 34.1712 15.6808C34.0308 15.7042 33.8904 15.7276 33.75 15.751C33.6798 15.7666 33.6018 15.7744 33.5316 15.79C33.4614 15.8056 33.3834 15.8134 33.3132 15.829C33.1338 15.8602 32.9466 15.8992 32.7672 15.9382C32.58 15.9772 32.3928 16.0162 32.2056 16.0552C32.1978 16.0552 32.1901 16.0552 32.1823 16.0552C31.9951 16.0942 31.8001 16.141 31.6129 16.1878C31.4179 16.2346 31.2229 16.2814 31.0201 16.3283C30.9109 16.3517 30.8016 16.3829 30.6924 16.4141C30.4741 16.4687 30.2557 16.5311 30.0373 16.5935C29.9281 16.6247 29.8189 16.6559 29.7097 16.6871C29.6005 16.7183 29.4913 16.7495 29.3821 16.7807C29.2729 16.8119 29.1637 16.8431 29.0545 16.8743C28.9531 16.9056 28.8439 16.9368 28.7425 16.968H28.7269C28.6255 17.007 28.5163 17.0382 28.4071 17.0772C28.3057 17.1084 28.1965 17.1474 28.0873 17.1864C27.9859 17.2176 27.8845 17.2566 27.7831 17.2878C27.7051 17.3112 27.6193 17.3424 27.5413 17.3658C27.4789 17.3892 27.4165 17.4126 27.3463 17.436C27.0889 17.5218 26.8394 17.6154 26.5898 17.7091C26.5274 17.7325 26.4727 17.7559 26.4103 17.7793C26.3401 17.8105 26.27 17.8339 26.1998 17.8573C26.075 17.9041 25.9501 17.9587 25.8253 18.0055C25.7551 18.0289 25.685 18.0601 25.6148 18.0913C25.4276 18.1693 25.2404 18.2473 25.0532 18.3254C24.9518 18.3722 24.8425 18.4112 24.7411 18.458C24.6553 18.497 24.5696 18.536 24.476 18.575C24.1484 18.7232 23.8208 18.8715 23.501 19.0197C23.4074 19.0587 23.3216 19.1055 23.228 19.1523C22.097 19.6984 20.9894 20.2913 19.9208 20.9388C11.9338 25.7365 5.71728 33.171 2.47254 42.041C1.64575 44.3033 1.01399 46.6593 0.592792 49.0854C0.194999 46.7997 -0.0078125 44.4437 -0.0078125 42.041C-0.0078125 39.6382 0.194999 37.2822 0.592792 34.9965C3.54114 17.9821 16.9647 4.56408 33.9762 1.61523C36.402 2.0365 38.7653 2.6684 41.0273 3.49532C49.8957 6.74061 57.3368 12.9581 62.1338 20.9388C65.7763 26.9925 67.89 34.0603 67.968 41.6119C67.968 41.4949 67.968 41.3857 67.9602 41.2765L67.8276 41.1984Z" fill="url(#paint2_linear_2682_8112)"/>
<path id="Vector_5" d="M48.0091 82.3964C45.7237 82.7943 43.3681 82.9971 40.958 82.9971C38.5478 82.9971 36.2 82.7865 33.9069 82.3964C16.8875 79.4554 3.46399 66.0295 0.523438 49.0152C0.94463 46.589 1.57645 44.233 2.40323 41.9707C5.64798 33.1007 11.8645 25.6662 19.8515 20.8685C20.9201 20.2288 22.0277 19.6281 23.1587 19.082C23.2445 19.0352 23.338 18.9962 23.4316 18.9494C23.7592 18.7934 24.079 18.6452 24.4066 18.5047C24.4924 18.4657 24.5782 18.4267 24.6718 18.3877C24.7732 18.3409 24.8825 18.3019 24.9839 18.2551C25.1711 18.1771 25.3582 18.0991 25.5454 18.0211C25.6156 17.9899 25.6858 17.9665 25.756 17.9353C25.8808 17.8884 26.0056 17.8338 26.1304 17.787C26.2006 17.7636 26.2708 17.7324 26.341 17.709C26.4034 17.6856 26.458 17.6622 26.5204 17.6388C26.77 17.5452 27.0196 17.4516 27.277 17.3658C27.3394 17.3424 27.4018 17.319 27.472 17.2955C27.55 17.2643 27.6358 17.241 27.7138 17.2176C27.8152 17.1786 27.9166 17.1473 28.018 17.1161C28.1272 17.0771 28.2286 17.0459 28.3378 17.0069C28.447 16.9757 28.5484 16.9367 28.6576 16.9055H28.6732C28.7746 16.8665 28.8837 16.8353 28.9851 16.8041C29.0943 16.7729 29.2036 16.7417 29.3128 16.7105C29.422 16.6793 29.5312 16.6481 29.6404 16.6168C29.7495 16.5856 29.8587 16.5544 29.9679 16.5232C30.1863 16.4608 30.4047 16.4062 30.6231 16.3438C30.7323 16.3204 30.8415 16.2892 30.9507 16.258C31.1457 16.2112 31.3407 16.1644 31.5435 16.1176C31.7307 16.0708 31.9257 16.0318 32.1129 15.985C32.1207 15.985 32.1285 15.985 32.1363 15.985C32.3235 15.9459 32.5107 15.9069 32.6979 15.8679C32.8773 15.8289 33.0567 15.7977 33.2439 15.7587C33.3141 15.7431 33.3921 15.7353 33.4623 15.7197C33.5325 15.7041 33.6105 15.6963 33.6807 15.6807C33.8211 15.6573 33.9615 15.6339 34.1019 15.6105C34.3826 15.5637 34.6635 15.5169 34.9443 15.4779C34.9599 15.4779 34.9676 15.4779 34.9832 15.4779C35.108 15.4623 35.2406 15.4389 35.3732 15.4233C35.5136 15.4077 35.6541 15.3843 35.7945 15.3687C35.9349 15.3531 36.0752 15.3375 36.2234 15.3141C36.5042 15.2829 36.7928 15.2516 37.0814 15.2282C38.228 15.119 39.3824 15.0566 40.5602 15.0488C26.0212 15.2751 14.2746 27.0158 14.0484 41.5572C14.0484 41.604 14.0484 41.6431 14.0484 41.6899C14.0484 41.7913 14.0484 41.8849 14.0484 41.9863C14.0484 42.0877 14.0484 42.1813 14.0484 42.2827C14.0484 42.3295 14.0484 42.3686 14.0484 42.4154C14.1264 49.9747 16.248 57.0348 19.8827 63.0885C24.6796 71.0691 32.1207 77.2867 40.9891 80.532C43.2511 81.3589 45.6067 81.9908 48.0402 82.412L48.0091 82.3964Z" fill="url(#paint3_linear_2682_8112)"/>
<path id="Vector_6" d="M81.9387 42.1265C81.9387 44.5293 81.7281 46.8852 81.3381 49.171C78.3898 66.1854 64.9662 79.6112 47.9469 82.5522C45.5211 82.131 43.1578 81.4991 40.8958 80.6722C32.0274 77.4269 24.5863 71.2093 19.7894 63.2287C16.1546 57.175 14.0331 50.1071 13.9551 42.5556C14.1813 57.097 25.9279 68.8378 40.4668 69.064C40.5136 69.064 40.5526 69.064 40.5994 69.064C40.7008 69.064 40.7944 69.064 40.8958 69.064C40.9972 69.064 41.0908 69.064 41.1922 69.064C41.239 69.064 41.278 69.064 41.3248 69.064C48.8829 68.986 55.9495 66.8719 62.0022 63.2365C69.9893 58.4388 76.2058 51.0043 79.4505 42.1343C80.2773 39.872 80.9169 37.516 81.3303 35.0898C81.7281 37.3834 81.9309 39.7315 81.9309 42.1343L81.9387 42.1265Z" fill="url(#paint4_linear_2682_8112)"/>
<path id="Vector_7" d="M81.3372 34.9185C80.916 37.3524 80.2841 39.7006 79.4574 41.9629C76.2126 50.8329 69.9961 58.2674 62.0091 63.0651C55.9564 66.7005 48.8897 68.8224 41.3316 68.8926C55.8706 68.6664 67.6171 56.9256 67.8433 42.3842C67.8433 42.3374 67.8433 42.2984 67.8433 42.2516C67.8433 42.158 67.8433 42.0565 67.8433 41.9551C67.8433 41.8537 67.8433 41.7601 67.8433 41.6587C67.8433 41.6197 67.8433 41.5729 67.8433 41.5261C67.7653 33.9745 65.6516 26.9067 62.0091 20.8529C57.2121 12.8723 49.7789 6.65477 40.9026 3.40948C38.6407 2.58256 36.2851 1.95066 33.8516 1.52939C36.1447 1.13153 38.4925 0.928711 40.9026 0.928711C43.3128 0.928711 45.6605 1.13933 47.9537 1.52939C64.973 4.47044 78.3966 17.8963 81.345 34.9107L81.3372 34.9185Z" fill="url(#paint5_linear_2682_8112)"/>
</g>
</g>
</g>
</g>
<g id="Clip path group_2">
<mask id="mask1_2682_8112" style="mask-type:luminance" maskUnits="userSpaceOnUse" x="0" y="4" width="27" height="76">
<g id="clippath-1">
<path id="Vector_8" d="M26.9017 65.6035C26.9017 65.1355 26.6599 64.7064 26.2699 64.449C24.749 63.4504 23.3216 62.288 22.0112 60.9774C19.5386 58.5044 17.5965 55.6258 16.2393 52.4273C14.8432 49.1196 14.1334 45.6013 14.1334 41.9582C14.1334 38.315 14.8432 34.8045 16.2393 31.4968C17.5965 28.2983 19.5386 25.4196 22.0112 22.9389C23.3216 21.6283 24.7412 20.4737 26.2699 19.4673C26.6599 19.2099 26.9017 18.7808 26.9017 18.3128V5.44082C26.9017 4.45787 25.9033 3.79475 24.9986 4.18481C10.3036 10.4258 0 24.9906 0 41.9659C0 58.9413 10.3036 73.4983 24.9986 79.7471C25.9033 80.1293 26.9017 79.4662 26.9017 78.4911V65.6191V65.6035Z" fill="white"/>
</g>
</mask>
<g mask="url(#mask1_2682_8112)">
<g id="Group_4">
<g id="Group_5">
<path id="Vector_9" d="M67.8276 41.1975C67.8276 41.0882 67.8276 40.9712 67.8198 40.862C67.8198 40.8542 67.8198 40.8464 67.8198 40.8386C67.8198 40.7294 67.8121 40.6202 67.8043 40.511C67.8043 40.511 67.8043 40.5109 67.8043 40.5031C67.8043 40.3939 67.7965 40.2925 67.7887 40.1833C67.7887 40.1833 67.7887 40.1755 67.7887 40.1677C67.7887 40.0585 67.773 39.9493 67.7652 39.8478C67.7652 39.8478 67.7652 39.8401 67.7652 39.8323C67.7652 39.7542 67.7496 39.6684 67.7418 39.5904C67.7418 39.567 67.7418 39.5436 67.7418 39.5124V39.4968C67.7262 39.3408 67.7107 39.1848 67.6951 39.0287C67.6951 38.9663 67.6795 38.9039 67.6795 38.8493C67.6795 38.8103 67.6716 38.7713 67.6638 38.7401C67.656 38.6699 67.6482 38.5919 67.6404 38.5217C67.6404 38.4983 67.6326 38.467 67.6248 38.4358C67.617 38.3578 67.6015 38.272 67.5937 38.194C67.5859 38.1238 67.5702 38.0536 67.5624 37.9834C67.5468 37.882 67.5313 37.7805 67.5157 37.6791V37.6557C67.5001 37.5933 67.4923 37.5387 67.4845 37.4763C67.4845 37.4607 67.4845 37.4451 67.4845 37.4295C67.4845 37.4061 67.4844 37.3905 67.4766 37.3749C67.4766 37.3515 67.4688 37.3281 67.4688 37.3047C67.4688 37.3047 67.4688 37.2969 67.4688 37.2891C67.4688 37.2735 67.4688 37.2501 67.461 37.2345C67.461 37.2267 67.461 37.2188 67.461 37.211C67.461 37.1954 67.461 37.1876 67.461 37.172C67.4454 37.094 67.4298 37.016 67.422 36.9458C67.4064 36.8756 67.3909 36.7976 67.383 36.7274C67.3753 36.6728 67.3596 36.6182 67.3518 36.5636C67.3518 36.548 67.3518 36.5324 67.3518 36.5168C67.3518 36.5011 67.3518 36.4934 67.344 36.4778C67.344 36.4543 67.3362 36.4387 67.3284 36.4153C67.3128 36.3529 67.3051 36.2905 67.2895 36.2281C67.2895 36.2203 67.2895 36.2125 67.2895 36.2047C67.2895 36.2047 67.2895 36.1891 67.2895 36.1813C67.2895 36.1657 67.2895 36.1579 67.2816 36.1423C67.2816 36.1267 67.2816 36.1189 67.2738 36.1033C67.266 36.0643 67.2582 36.0175 67.2426 35.9785C67.2426 35.9551 67.2348 35.9317 67.227 35.9083C67.2036 35.799 67.1802 35.6976 67.149 35.5884C67.1412 35.5572 67.1335 35.5182 67.1257 35.4792C67.1101 35.409 67.0944 35.3388 67.071 35.2686C67.071 35.253 67.0632 35.2374 67.0554 35.2218C67.0554 35.2218 67.0554 35.214 67.0554 35.2062C67.0554 35.1906 67.0476 35.1671 67.0398 35.1515C67.0242 35.0891 66.7981 34.9487 66.7981 34.9487C66.7981 34.9487 66.9774 34.9253 66.9774 34.9097C66.9774 34.9097 66.9774 34.8941 66.9774 34.8863C66.954 34.8005 66.9307 34.7147 66.9073 34.6367C66.8761 34.5352 66.8449 34.426 66.8215 34.3246C66.8215 34.3168 66.8137 34.3012 66.8137 34.2934C66.8137 34.2856 66.8137 34.27 66.8059 34.2622C66.7825 34.1764 66.7513 34.0828 66.7279 33.9892C66.6967 33.8956 66.6655 33.8019 66.6343 33.7083C66.6187 33.6693 66.6109 33.6303 66.5953 33.5835C66.5797 33.5367 66.5718 33.5055 66.5562 33.4587C66.5562 33.4353 66.5407 33.4197 66.5329 33.3963C66.5251 33.3729 66.5173 33.3495 66.5095 33.3261C66.4861 33.2481 66.4549 33.17 66.4315 33.092C66.4003 33.014 66.3769 32.9282 66.3457 32.8502C66.3379 32.819 66.3223 32.7878 66.3145 32.7566C66.2911 32.702 66.2754 32.6474 66.252 32.5928C66.252 32.5772 66.2365 32.5537 66.2287 32.5381C66.2209 32.5069 66.2053 32.4757 66.1975 32.4445C66.1975 32.4289 66.1818 32.4133 66.1818 32.3977C66.174 32.3665 66.1585 32.3353 66.1429 32.3041C66.1273 32.2651 66.1117 32.2183 66.0961 32.1793C66.0571 32.0779 66.018 31.9765 65.979 31.8828C65.979 31.875 65.979 31.8672 65.9712 31.8594C65.94 31.7814 65.9088 31.6956 65.8698 31.6176C65.8698 31.602 65.8621 31.5864 65.8543 31.5786C65.8231 31.5006 65.7919 31.4226 65.7529 31.3446C65.7529 31.329 65.7373 31.3134 65.7295 31.2978V31.2822C65.6905 31.1963 65.6515 31.1105 65.6125 31.0247C65.6125 31.0169 65.6124 31.0091 65.5968 30.9935C65.5579 30.8999 65.511 30.8063 65.472 30.7127C65.4486 30.6659 65.4253 30.6191 65.4019 30.5644C65.3785 30.5176 65.3551 30.4708 65.3317 30.4162C65.2849 30.3226 65.2458 30.229 65.1991 30.1354C65.1991 30.1354 65.1991 30.1276 65.1991 30.1198C65.1523 30.034 65.1133 29.9482 65.0665 29.8623C65.0665 29.8545 65.0665 29.8467 65.0587 29.8389V29.8311C65.0275 29.7609 64.9885 29.6985 64.9573 29.6283C64.9573 29.6127 64.9495 29.6049 64.9417 29.5971C64.9417 29.5815 64.9261 29.5737 64.9261 29.5581C64.8949 29.4957 64.8637 29.4411 64.8325 29.3787C64.8169 29.3475 64.7935 29.3084 64.7779 29.2694C64.7779 29.2616 64.7701 29.2539 64.7623 29.2383C64.7389 29.1992 64.7154 29.1524 64.692 29.1134C64.6686 29.0744 64.6453 29.0276 64.6219 28.9886C64.6063 28.9574 64.5829 28.9262 64.5673 28.8872C64.5673 28.8872 64.5673 28.8872 64.5673 28.8794C64.5517 28.8482 64.5283 28.8092 64.5127 28.778C64.5049 28.7546 64.4893 28.7312 64.4737 28.7078C64.4503 28.6688 64.4347 28.6376 64.4113 28.5986C64.3879 28.5517 64.3567 28.5049 64.3333 28.4581C64.3255 28.4425 64.3176 28.4269 64.3099 28.4113C64.3021 28.3957 64.2943 28.3801 64.2865 28.3645C64.2787 28.3489 64.2709 28.3333 64.2631 28.3177C64.2319 28.2631 64.2007 28.2085 64.1695 28.1539C64.1695 28.1461 64.1617 28.1383 64.1539 28.1305C64.1539 28.1227 64.1383 28.1071 64.1383 28.0993C64.1305 28.0837 64.1149 28.0603 64.107 28.0447C64.0836 28.0056 64.0603 27.9589 64.0291 27.9199L64.0135 27.8886C64.0135 27.8886 64.0057 27.873 63.9979 27.8652C63.9511 27.7872 63.9043 27.7092 63.8497 27.6312C63.8185 27.5844 63.7951 27.5454 63.7639 27.4986C63.7483 27.4752 63.7327 27.444 63.7171 27.4206C63.7015 27.3972 63.6859 27.3738 63.6703 27.3504C63.6547 27.3192 63.6313 27.2879 63.6157 27.2645C63.6079 27.2489 63.6001 27.2333 63.5845 27.2177C63.5533 27.1709 63.5299 27.1319 63.4987 27.0851C63.4519 27.0149 63.4051 26.9447 63.3583 26.8745C63.3505 26.8589 63.3349 26.8355 63.3194 26.8199C63.3116 26.8043 63.3037 26.7965 63.2959 26.7809C63.2413 26.7107 63.1945 26.6326 63.1399 26.5624C63.0931 26.4922 63.0385 26.4142 62.9839 26.344C62.9761 26.3284 62.9683 26.3206 62.9527 26.305C62.9371 26.2894 62.9293 26.2738 62.9216 26.2582C62.867 26.188 62.8201 26.1178 62.7655 26.0476C62.7421 26.0085 62.7109 25.9695 62.6797 25.9305L62.5783 25.7979C62.5783 25.7979 62.5627 25.7745 62.5549 25.7667L62.4535 25.6263C62.4535 25.6263 62.4067 25.5639 62.3833 25.5327C62.3287 25.4547 62.2663 25.3845 62.2117 25.3065C62.1961 25.2908 62.1805 25.2752 62.1727 25.2518C62.1103 25.1816 62.0557 25.1036 61.9933 25.0256C61.9543 24.9788 61.9231 24.9398 61.8841 24.893C61.8607 24.8696 61.8451 24.8462 61.8217 24.8228C61.7983 24.7916 61.7672 24.7604 61.7438 24.7291C61.7204 24.6979 61.6969 24.6746 61.6735 24.6512C61.6501 24.62 61.6267 24.5965 61.6033 24.5653C61.5877 24.5497 61.5722 24.5263 61.5566 24.5107L61.4708 24.4093C61.4708 24.4093 61.4317 24.3625 61.4083 24.3391L61.3771 24.3001C61.3771 24.3001 61.3616 24.2767 61.346 24.2689C61.2836 24.1987 61.229 24.1285 61.1666 24.0661C61.0964 23.9881 61.0262 23.91 60.956 23.832C60.8858 23.754 60.8155 23.676 60.7375 23.598C60.6674 23.52 60.5971 23.442 60.5191 23.3717C60.3709 23.2157 60.2228 23.0675 60.0746 22.9193C60.0356 22.8803 60.0044 22.8413 59.9654 22.8101C59.9264 22.7711 59.8874 22.7399 59.8562 22.7009C59.7782 22.6306 59.7001 22.5526 59.6299 22.4824C59.5519 22.4122 59.4818 22.3342 59.4038 22.264C59.3258 22.1938 59.2478 22.1236 59.1698 22.0456C59.0918 21.9754 59.0138 21.9051 58.9358 21.8349C58.8734 21.7803 58.8032 21.7179 58.7408 21.6633C58.7252 21.6477 58.7096 21.6399 58.7018 21.6243C58.6238 21.5541 58.5458 21.4839 58.46 21.4215C58.382 21.359 58.3118 21.2966 58.2338 21.2342C58.2182 21.2186 58.1948 21.203 58.1792 21.1874C58.1324 21.1484 58.0934 21.1172 58.0466 21.0782C58.031 21.0704 58.0232 21.0626 58.0154 21.0548C57.9998 21.047 57.992 21.0392 57.9842 21.0236C57.9296 20.9768 57.875 20.9378 57.8204 20.891C57.797 20.8754 57.7736 20.852 57.758 20.8364C57.758 20.8364 57.7502 20.8286 57.7424 20.8208C57.7034 20.7896 57.6566 20.7506 57.6098 20.7194C57.5786 20.6959 57.5474 20.6725 57.5084 20.6413C57.5006 20.6413 57.4928 20.6335 57.485 20.6257C57.3992 20.5633 57.3212 20.4931 57.2354 20.4307C57.1496 20.3683 57.0717 20.3059 56.9859 20.2435C56.9781 20.2435 56.9702 20.2279 56.9624 20.2279C56.8922 20.1733 56.822 20.1265 56.7518 20.0719C56.744 20.0719 56.7362 20.064 56.7284 20.0562C56.705 20.0406 56.6894 20.025 56.666 20.0094C56.6426 19.9938 56.627 19.9782 56.6036 19.9626C56.5802 19.947 56.549 19.9314 56.5256 19.908C56.51 19.9002 56.5023 19.8924 56.4867 19.8846C56.4789 19.8846 56.471 19.8768 56.4632 19.869C56.3774 19.8066 56.2917 19.7442 56.1981 19.6896C56.1513 19.6584 56.1122 19.6272 56.0654 19.6038C56.0186 19.5804 55.9796 19.5492 55.9328 19.518C55.9094 19.5024 55.886 19.4868 55.8704 19.4712C55.8548 19.4634 55.847 19.4556 55.8314 19.4478C55.8314 19.4478 55.8159 19.44 55.8081 19.4322C55.7769 19.4088 55.7379 19.3853 55.7067 19.3697C55.6989 19.3697 55.691 19.3619 55.6754 19.3541C55.6676 19.3541 55.652 19.3386 55.6442 19.3386C55.5662 19.2839 55.4805 19.2371 55.4025 19.1825C55.3557 19.1591 55.3166 19.1279 55.2698 19.1045C55.223 19.0733 55.184 19.0499 55.1372 19.0187H55.1217C55.0515 18.9641 54.9813 18.9251 54.9111 18.8861C54.8955 18.8783 54.8798 18.8705 54.8642 18.8549C54.7862 18.8081 54.7161 18.7691 54.6381 18.7222C54.6147 18.7066 54.5912 18.691 54.5678 18.6832C54.5132 18.652 54.4665 18.6208 54.4119 18.5974C54.3963 18.5896 54.3806 18.5818 54.365 18.574C54.3338 18.5584 54.3104 18.5428 54.2792 18.5272C54.2012 18.4804 54.1155 18.4336 54.0297 18.3868C53.9517 18.3478 53.8815 18.301 53.8035 18.262C53.7879 18.2542 53.7723 18.2464 53.7489 18.2308C53.6631 18.184 53.5695 18.1372 53.4759 18.0904C53.4759 18.0904 53.4759 18.0904 53.4681 18.0904C53.3745 18.0435 53.2808 17.9967 53.1872 17.9421L52.9689 17.8329C52.9689 17.8329 52.922 17.8095 52.8986 17.8017C52.8284 17.7705 52.7661 17.7393 52.6959 17.7003C52.6491 17.6769 52.6023 17.6535 52.5555 17.6301C52.5009 17.6067 52.4385 17.5755 52.3839 17.5521C52.3605 17.5443 52.3449 17.5365 52.3215 17.5209C52.2903 17.5053 52.2513 17.4897 52.2201 17.4741C52.2201 17.4741 52.1577 17.4507 52.1343 17.4351C52.1031 17.4195 52.0719 17.4116 52.0407 17.396C52.0407 17.396 52.0407 17.396 52.0329 17.396C52.0095 17.3882 51.9861 17.3727 51.9627 17.3649C51.8847 17.3336 51.8067 17.3024 51.7365 17.2634C51.7209 17.2634 51.7131 17.2556 51.6975 17.2478C51.6273 17.2166 51.5493 17.1854 51.4791 17.1542C51.4635 17.1542 51.4479 17.1386 51.4401 17.1386C51.4167 17.1308 51.3933 17.1152 51.3621 17.1074C51.3387 17.0996 51.3153 17.084 51.2919 17.0762C51.2451 17.0528 51.1905 17.0372 51.1437 17.0138C51.0501 16.9748 50.9643 16.9436 50.8707 16.9046C50.8239 16.8812 50.7693 16.8656 50.7147 16.8422C50.6835 16.8266 50.6602 16.8188 50.629 16.811C50.6134 16.811 50.5977 16.7954 50.5743 16.7954C50.5587 16.7954 50.551 16.7876 50.5354 16.7798C50.5042 16.7642 50.4652 16.7563 50.434 16.7407C50.3716 16.7173 50.3092 16.6939 50.239 16.6705C50.2312 16.6705 50.2155 16.6627 50.1999 16.6549C50.1141 16.6237 50.0205 16.5925 49.9269 16.5613C49.9269 16.5613 49.9113 16.5613 49.9035 16.5613C49.8099 16.5301 49.7085 16.4911 49.6071 16.4599C49.6071 16.4599 49.5915 16.4599 49.5837 16.4521C49.5057 16.4209 49.42 16.3975 49.342 16.3741C49.3342 16.3741 49.3263 16.3663 49.3107 16.3663H49.3029C49.2093 16.3351 49.1079 16.3039 49.0143 16.2727C49.0143 16.2727 48.9988 16.2727 48.991 16.2727C48.9676 16.2649 48.9441 16.2571 48.9207 16.2493L48.8428 16.2259C48.796 16.2103 48.7414 16.1947 48.6946 16.1791H48.679C48.6556 16.1791 48.6399 16.1635 48.6165 16.1635C48.5385 16.1401 48.4606 16.1167 48.3826 16.0933C48.3358 16.0777 48.2889 16.0698 48.2421 16.0542C48.1875 16.0386 48.133 16.023 48.0784 16.0074C48.0082 15.984 47.9302 15.9684 47.8522 15.945C47.821 15.945 47.7898 15.9294 47.7664 15.9216C47.7586 15.9216 47.7507 15.9216 47.7351 15.9138C47.7039 15.906 47.6649 15.8982 47.6337 15.8904C47.5635 15.8748 47.4934 15.8514 47.4154 15.8358C47.3062 15.8046 47.1892 15.7812 47.0722 15.7578C46.9708 15.7344 46.8694 15.711 46.7602 15.6876C46.729 15.6876 46.7056 15.672 46.6744 15.672C46.6588 15.672 46.651 15.672 46.6432 15.672C46.6354 15.672 46.6198 15.672 46.612 15.6642C46.5574 15.6564 46.5106 15.6408 46.456 15.633C46.4482 15.633 46.4404 15.633 46.4248 15.6252C46.3156 15.6018 46.2064 15.5862 46.0972 15.5628C46.0036 15.5472 45.9022 15.5238 45.8008 15.5082C45.7228 15.4926 45.6448 15.4769 45.559 15.4691C45.5278 15.4691 45.4967 15.4614 45.4733 15.4536C45.4421 15.4536 45.4109 15.4458 45.3797 15.438C45.3017 15.4224 45.2158 15.4145 45.1378 15.3989C45.0754 15.3911 45.0052 15.3833 44.9428 15.3677C44.8882 15.3599 44.8336 15.3521 44.7712 15.3443C44.6698 15.3287 44.5684 15.3209 44.467 15.3053C44.3968 15.2975 44.3266 15.2897 44.2486 15.2819C44.2174 15.2819 44.1862 15.2741 44.1472 15.2741C44.1472 15.2741 44.1472 15.2741 44.1394 15.2741C44.1082 15.2741 44.0848 15.2741 44.0536 15.2663C44.0536 15.2663 44.038 15.2663 44.0302 15.2663C43.96 15.2585 43.8899 15.2507 43.8197 15.2429C43.7339 15.2351 43.648 15.2273 43.5544 15.2195C43.531 15.2195 43.5076 15.2195 43.4842 15.2195C43.4687 15.2195 43.4453 15.2195 43.4297 15.2195C43.3361 15.2117 43.2502 15.2039 43.1566 15.1961C43.0474 15.1883 42.9305 15.1805 42.8213 15.1727C42.6809 15.1649 42.5405 15.1571 42.4001 15.1493C42.3143 15.1493 42.2363 15.1415 42.1505 14.9075H42.1349C42.0725 15.1337 42.0101 15.1259 41.9477 15.1259C41.9009 15.1259 41.8073 15.2975 41.8073 15.2975H41.7995C41.7995 15.2975 41.7059 15.1181 41.6591 15.1181C41.5967 15.1181 41.4719 14.9075 41.4719 14.9075H41.4251C41.4251 14.9075 41.3159 15.1103 41.2613 15.1103C41.1911 15.1103 41.1209 15.1103 41.0507 15.2975H40.8245C39.5843 15.1181 38.3597 15.1805 37.1508 15.2975C36.8622 15.3287 36.5814 15.3521 36.2928 15.3833C36.1524 15.3989 36.0042 15.4146 35.8638 15.438C35.7234 15.4536 35.583 15.4769 35.4426 15.4925C35.31 15.5082 35.1852 15.5238 35.0526 15.5472C35.037 15.5472 35.0292 15.5472 35.0136 15.5472C34.7328 15.5862 34.452 15.633 34.1712 15.6798C34.0308 15.7032 33.8904 15.7266 33.75 15.75C33.6798 15.7656 33.6018 15.7734 33.5316 15.789C33.4614 15.8046 33.3834 15.8124 33.3132 15.828C33.1338 15.8592 32.9466 15.8982 32.7672 15.9372C32.58 15.9762 32.3928 16.0152 32.2056 16.0542C32.1978 16.0542 32.1901 16.0542 32.1823 16.0542C31.9951 16.0932 31.8001 16.1401 31.6129 16.1869C31.4179 16.2337 31.2229 16.2805 31.0201 16.3273C30.9109 16.3507 30.8016 16.3819 30.6924 16.4131C30.4741 16.4677 30.2557 16.5301 30.0373 16.5925C29.9281 16.6237 29.8189 16.6549 29.7097 16.6861C29.6005 16.7173 29.4913 16.7486 29.3821 16.7798C29.2729 16.811 29.1637 16.8422 29.0545 16.8734C28.9531 16.9046 28.8439 16.9358 28.7425 16.967H28.7269C28.6255 17.006 28.5163 17.0372 28.4071 17.0762C28.3057 17.1074 28.1965 17.1464 28.0873 17.1854C27.9859 17.2166 27.8845 17.2556 27.7831 17.2868C27.7051 17.3102 27.6193 17.3414 27.5413 17.3649C27.4789 17.3883 27.4165 17.4117 27.3463 17.4351C27.0889 17.5209 26.8394 17.6145 26.5898 17.7081C26.5274 17.7315 26.4727 17.7549 26.4103 17.7783C26.3401 17.8095 26.27 17.8329 26.1998 17.8563C26.075 17.9031 25.9501 17.9577 25.8253 18.0045C25.7551 18.0279 25.685 18.0592 25.6148 18.0904C25.4276 18.1684 25.2404 18.2464 25.0532 18.3244C24.9518 18.3712 24.8425 18.4102 24.7411 18.457C24.6553 18.496 24.5696 18.535 24.476 18.574C24.1484 18.7222 23.8208 18.8705 23.501 19.0187C23.4074 19.0577 23.3216 19.1045 23.228 19.1513C22.097 19.6974 20.9894 20.2903 19.9208 20.9378C11.9338 25.7355 5.71728 33.17 2.47254 42.04C1.64575 44.3023 1.01399 46.6583 0.592792 49.0844C0.194999 46.7987 -0.0078125 44.4427 -0.0078125 42.04C-0.0078125 39.6372 0.194999 37.2813 0.592792 34.9955C3.54114 17.9811 16.9647 4.56311 33.9762 1.61426C36.402 2.03552 38.7653 2.66742 41.0273 3.49435C49.8957 6.73964 57.3368 12.9572 62.1338 20.9378C65.7763 26.9915 67.89 34.0594 67.968 41.6109C67.968 41.4939 67.968 41.3847 67.9602 41.2755L67.8276 41.1975Z" fill="url(#paint6_linear_2682_8112)"/>
<path id="Vector_10" d="M48.0091 82.3955C45.7237 82.7933 43.3681 82.9961 40.958 82.9961C38.5478 82.9961 36.2 82.7855 33.9069 82.3955C16.8876 79.4544 3.46399 66.0286 0.523438 49.0142C0.94463 46.588 1.57645 44.2321 2.40323 41.9697C5.64798 33.0998 11.8645 25.6653 19.8515 20.8675C20.9201 20.2278 22.0277 19.6271 23.1587 19.081C23.2445 19.0342 23.338 18.9953 23.4316 18.9484C23.7592 18.7924 24.079 18.6442 24.4066 18.5038C24.4924 18.4648 24.5782 18.4258 24.6718 18.3868C24.7732 18.34 24.8825 18.3009 24.9839 18.2541C25.1711 18.1761 25.3582 18.0981 25.5454 18.0201C25.6156 17.9889 25.6858 17.9655 25.756 17.9343C25.8808 17.8875 26.0056 17.8329 26.1304 17.7861C26.2006 17.7626 26.2708 17.7314 26.341 17.708C26.4034 17.6846 26.458 17.6612 26.5204 17.6378C26.77 17.5442 27.0196 17.4506 27.277 17.3648C27.3394 17.3414 27.4018 17.318 27.472 17.2946C27.55 17.2634 27.6358 17.24 27.7138 17.2166C27.8152 17.1776 27.9166 17.1464 28.018 17.1152C28.1272 17.0762 28.2286 17.0449 28.3378 17.0059C28.447 16.9747 28.5484 16.9357 28.6576 16.9045H28.6732C28.7746 16.8655 28.8837 16.8343 28.9851 16.8031C29.0943 16.7719 29.2036 16.7407 29.3128 16.7095C29.422 16.6783 29.5312 16.6471 29.6404 16.6159C29.7496 16.5847 29.8587 16.5535 29.9679 16.5223C30.1863 16.4599 30.4048 16.4052 30.6231 16.3428C30.7323 16.3194 30.8415 16.2882 30.9507 16.257C31.1457 16.2102 31.3407 16.1634 31.5435 16.1166C31.7307 16.0698 31.9257 16.0308 32.1129 15.984C32.1207 15.984 32.1285 15.984 32.1363 15.984C32.3235 15.945 32.5107 15.906 32.6979 15.867C32.8773 15.828 33.0567 15.7967 33.2439 15.7577C33.3141 15.7421 33.3921 15.7343 33.4623 15.7187C33.5325 15.7031 33.6105 15.6953 33.6807 15.6797C33.8211 15.6563 33.9615 15.6329 34.1019 15.6095C34.3827 15.5627 34.6635 15.5159 34.9443 15.4769C34.9599 15.4769 34.9676 15.4769 34.9832 15.4769C35.108 15.4613 35.2406 15.4379 35.3732 15.4223C35.5136 15.4067 35.6541 15.3833 35.7945 15.3677C35.9349 15.3521 36.0752 15.3365 36.2234 15.3131C36.5042 15.2819 36.7928 15.2507 37.0814 15.2273C38.228 15.118 39.3824 15.0557 40.5602 15.0479C26.0212 15.2741 14.2746 27.0149 14.0484 41.5563C14.0484 41.6031 14.0484 41.6421 14.0484 41.6889C14.0484 41.7903 14.0484 41.8839 14.0484 41.9853C14.0484 42.0868 14.0484 42.1803 14.0484 42.2818C14.0484 42.3286 14.0484 42.3676 14.0484 42.4144C14.1264 49.9737 16.248 57.0338 19.8827 63.0875C24.6796 71.0681 32.1207 77.2857 40.9892 80.531C43.2511 81.3579 45.6067 81.9898 48.0402 82.411L48.0091 82.3955Z" fill="url(#paint7_linear_2682_8112)"/>
<path id="Vector_11" d="M81.9387 42.1255C81.9387 44.5283 81.7281 46.8842 81.3381 49.17C78.3898 66.1844 64.9662 79.6102 47.9469 82.5513C45.5211 82.13 43.1578 81.4981 40.8958 80.6712C32.0274 77.4259 24.5863 71.2083 19.7894 63.2277C16.1546 57.174 14.0331 50.1061 13.9551 42.5546C14.1813 57.096 25.9279 68.8368 40.4668 69.063C40.5136 69.063 40.5526 69.063 40.5994 69.063C40.7008 69.063 40.7944 69.063 40.8958 69.063C40.9972 69.063 41.0908 69.063 41.1922 69.063C41.239 69.063 41.278 69.063 41.3248 69.063C48.8829 68.985 55.9495 66.8709 62.0022 63.2355C69.9893 58.4378 76.2058 51.0033 79.4505 42.1333C80.2773 39.871 80.9169 37.515 81.3303 35.0889C81.7281 37.3824 81.9309 39.7306 81.9309 42.1333L81.9387 42.1255Z" fill="url(#paint8_linear_2682_8112)"/>
</g>
</g>
</g>
</g>
</g>
</g>
<defs>
<linearGradient id="paint0_linear_2682_8112" x1="24.266" y1="41.96" x2="38.2902" y2="41.96" gradientUnits="userSpaceOnUse">
<stop stop-color="#231F20"/>
<stop offset="0.04" stop-color="#2D292A"/>
<stop offset="0.31" stop-color="#777475"/>
<stop offset="0.55" stop-color="#B1B0B0"/>
<stop offset="0.75" stop-color="#DBDADB"/>
<stop offset="0.91" stop-color="#F5F5F5"/>
<stop offset="1" stop-color="white"/>
</linearGradient>
<linearGradient id="paint1_linear_2682_8112" x1="54.935" y1="41.96" x2="27.3546" y2="41.96" gradientUnits="userSpaceOnUse">
<stop stop-color="#231F20"/>
<stop offset="0.09" stop-color="#2A2728"/>
<stop offset="0.24" stop-color="#403D3E"/>
<stop offset="0.42" stop-color="#646162"/>
<stop offset="0.63" stop-color="#959494"/>
<stop offset="0.86" stop-color="#D4D3D3"/>
<stop offset="1" stop-color="white"/>
</linearGradient>
<linearGradient id="paint2_linear_2682_8112" x1="1.58336" y1="37.329" x2="57.9704" y2="19.0096" gradientUnits="userSpaceOnUse">
<stop stop-color="white"/>
<stop offset="0.5" stop-color="white"/>
<stop offset="0.57" stop-color="#FAFAFA"/>
<stop offset="0.65" stop-color="#ECECEC"/>
<stop offset="0.73" stop-color="#D5D5D6"/>
<stop offset="0.82" stop-color="#B5B6B6"/>
<stop offset="0.91" stop-color="#8C8D8E"/>
<stop offset="1" stop-color="#58595B"/>
</linearGradient>
<linearGradient id="paint3_linear_2682_8112" x1="17.1137" y1="24.8003" x2="45.3653" y2="94.719" gradientUnits="userSpaceOnUse">
<stop stop-color="#58595B"/>
<stop offset="0.09" stop-color="#8A8B8C"/>
<stop offset="0.19" stop-color="#BCBCBD"/>
<stop offset="0.27" stop-color="#E0E0E1"/>
<stop offset="0.34" stop-color="#F6F6F7"/>
<stop offset="0.39" stop-color="white"/>
<stop offset="1" stop-color="white"/>
</linearGradient>
<linearGradient id="paint4_linear_2682_8112" x1="23.5099" y1="63.5954" x2="85.0903" y2="54.9467" gradientUnits="userSpaceOnUse">
<stop stop-color="#58595B"/>
<stop offset="0.09" stop-color="#8A8B8C"/>
<stop offset="0.19" stop-color="#BCBCBD"/>
<stop offset="0.27" stop-color="#E0E0E1"/>
<stop offset="0.34" stop-color="#F6F6F7"/>
<stop offset="0.39" stop-color="white"/>
<stop offset="1" stop-color="white"/>
</linearGradient>
<linearGradient id="paint5_linear_2682_8112" x1="64.466" y1="60.8808" x2="43.4078" y2="-3.91374" gradientUnits="userSpaceOnUse">
<stop stop-color="#58595B"/>
<stop offset="0.09" stop-color="#8A8B8C"/>
<stop offset="0.19" stop-color="#BCBCBD"/>
<stop offset="0.27" stop-color="#E0E0E1"/>
<stop offset="0.34" stop-color="#F6F6F7"/>
<stop offset="0.39" stop-color="white"/>
<stop offset="1" stop-color="white"/>
</linearGradient>
<linearGradient id="paint6_linear_2682_8112" x1="1.58336" y1="37.3281" x2="57.9704" y2="19.0087" gradientUnits="userSpaceOnUse">
<stop stop-color="white"/>
<stop offset="0.5" stop-color="white"/>
<stop offset="0.57" stop-color="#FAFAFA"/>
<stop offset="0.65" stop-color="#ECECEC"/>
<stop offset="0.73" stop-color="#D5D5D6"/>
<stop offset="0.82" stop-color="#B5B6B6"/>
<stop offset="0.91" stop-color="#8C8D8E"/>
<stop offset="1" stop-color="#58595B"/>
</linearGradient>
<linearGradient id="paint7_linear_2682_8112" x1="17.1137" y1="24.7993" x2="45.3653" y2="94.718" gradientUnits="userSpaceOnUse">
<stop stop-color="#58595B"/>
<stop offset="0.09" stop-color="#8A8B8C"/>
<stop offset="0.19" stop-color="#BCBCBD"/>
<stop offset="0.27" stop-color="#E0E0E1"/>
<stop offset="0.34" stop-color="#F6F6F7"/>
<stop offset="0.39" stop-color="white"/>
<stop offset="1" stop-color="white"/>
</linearGradient>
<linearGradient id="paint8_linear_2682_8112" x1="23.5099" y1="63.5944" x2="85.0903" y2="54.9457" gradientUnits="userSpaceOnUse">
<stop stop-color="#58595B"/>
<stop offset="0.09" stop-color="#8A8B8C"/>
<stop offset="0.19" stop-color="#BCBCBD"/>
<stop offset="0.27" stop-color="#E0E0E1"/>
<stop offset="0.34" stop-color="#F6F6F7"/>
<stop offset="0.39" stop-color="white"/>
<stop offset="1" stop-color="white"/>
</linearGradient>
</defs>
</svg>
