<svg width="52" height="45" viewBox="0 0 52 45" fill="none" xmlns="http://www.w3.org/2000/svg">
<path fill-rule="evenodd" clip-rule="evenodd" d="M12.7455 0.000244141H39.3045C40.2012 0.0252623 41.0796 0.265038 41.8685 0.698842C42.6518 1.12954 43.3252 1.74017 43.8349 2.48198L50.4632 11.8066C51.1896 12.8496 51.5523 14.1093 51.4939 15.3856C51.4355 16.662 50.9592 17.882 50.1406 18.852L50.1334 18.8605L30.281 42.0971C29.7756 42.7453 29.1337 43.2707 28.4023 43.6347C27.6545 44.0068 26.8327 44.2002 26 44.2002C25.1673 44.2002 24.3455 44.0068 23.5977 43.6347C22.8663 43.2707 22.2244 42.7453 21.719 42.0971L1.85939 18.852C1.0408 17.882 0.564527 16.662 0.506098 15.3856C0.447669 14.1093 0.81046 12.8497 1.5369 11.8067L1.54704 11.7921L8.16504 2.482C8.67482 1.74019 9.34817 1.12954 10.1315 0.698842C10.9204 0.265037 11.7988 0.0259593 12.6955 0.000941093L12.7455 0.000244141ZM12.7744 3.69995C12.4561 3.71212 12.1448 3.79854 11.8646 3.95263C11.5781 4.11013 11.3322 4.3339 11.1467 4.60585L11.1266 4.63524L4.50502 13.9499C4.2501 14.3188 4.1229 14.7634 4.14351 15.2138C4.16418 15.6651 4.33209 16.0965 4.62071 16.4401C4.62171 16.4413 4.62272 16.4425 4.62373 16.4437L24.4983 39.7064C24.5201 39.7319 24.5412 39.7581 24.5617 39.7848C24.7319 40.0076 24.9499 40.188 25.1992 40.312C25.4485 40.4361 25.7224 40.5005 26 40.5005C26.2776 40.5005 26.5515 40.4361 26.8008 40.312C27.0501 40.188 27.2681 40.0076 27.4383 39.7848C27.4588 39.7581 27.4799 39.7319 27.5017 39.7064L47.3763 16.4437C47.3773 16.4425 47.3783 16.4413 47.3793 16.4401C47.6679 16.0965 47.8358 15.6651 47.8565 15.2138C47.8771 14.7633 47.7499 14.3188 47.4949 13.9499L40.8531 4.60605C40.6675 4.3341 40.4219 4.11013 40.1354 3.95263C39.8552 3.79854 39.5439 3.71212 39.2256 3.69995H12.7744Z" fill="url(#paint0_linear_2056_1736)"/>
<path fill-rule="evenodd" clip-rule="evenodd" d="M27.0215 0.294681C27.8701 -0.258561 29.0003 -0.00939916 29.5459 0.8512L37.8841 14.0051H49.6734C50.6822 14.0051 51.5 14.8345 51.5 15.8576C51.5 16.8806 50.6822 17.71 49.6734 17.71H38.1045L27.6861 43.0604C27.4021 43.7514 26.736 44.2011 25.9978 44.2002C25.2597 44.1994 24.5946 43.748 24.3123 43.0564L13.9655 17.71H2.32665C1.31782 17.71 0.5 16.8806 0.5 15.8576C0.5 14.8345 1.31782 14.0051 2.32665 14.0051H14.1912L22.5656 0.848288C23.1127 -0.0112753 24.2433 -0.258294 25.0909 0.296556C25.9385 0.851407 26.1821 1.99802 25.635 2.85758L18.5395 14.0051H33.541L26.4728 2.85467C25.9272 1.99407 26.1729 0.847923 27.0215 0.294681ZM34.1466 17.71H17.9194L26.0057 37.5187L34.1466 17.71Z" fill="url(#paint1_linear_2056_1736)"/>
<defs>
<linearGradient id="paint0_linear_2056_1736" x1="26" y1="0.000244141" x2="26" y2="44.2002" gradientUnits="userSpaceOnUse">
<stop stop-color="#00D4FC"/>
<stop offset="1" stop-color="#1955B6"/>
</linearGradient>
<linearGradient id="paint1_linear_2056_1736" x1="26" y1="0.000244141" x2="26" y2="44.2002" gradientUnits="userSpaceOnUse">
<stop stop-color="#00D4FC"/>
<stop offset="1" stop-color="#1955B6"/>
</linearGradient>
</defs>
</svg>
