<svg width="51" height="46" viewBox="0 0 51 46" fill="none" xmlns="http://www.w3.org/2000/svg">
<path d="M45.9545 31.8182H5.04545V4.54545H45.9545M45.9545 0H5.04545C2.52273 0 0.5 2.02273 0.5 4.54545V31.8182C0.5 33.0237 0.978895 34.1799 1.83133 35.0323C2.68377 35.8847 3.83993 36.3636 5.04545 36.3636H20.9545V40.9091H16.4091V45.4545H34.5909V40.9091H30.0455V36.3636H45.9545C48.4773 36.3636 50.5 34.3409 50.5 31.8182V4.54545C50.5 3.33993 50.0211 2.18377 49.1687 1.33133C48.3162 0.478895 47.1601 0 45.9545 0ZM32.3182 7.95455L30.9091 11.0682L27.7727 12.5L30.9091 13.9318L32.3182 17.0455L33.75 13.9318L36.8636 12.5L33.75 11.0682L32.3182 7.95455ZM22.0909 12.5L19.6136 17.9773L14.1364 20.4545L19.6136 22.9318L22.0909 28.4091L24.5909 22.9318L30.0455 20.4545L24.5909 17.9773L22.0909 12.5Z" fill="url(#paint0_linear_2056_1728)"/>
<defs>
<linearGradient id="paint0_linear_2056_1728" x1="25.5" y1="0" x2="25.5" y2="45.4545" gradientUnits="userSpaceOnUse">
<stop stop-color="#00D4FC"/>
<stop offset="1" stop-color="#1955B6"/>
</linearGradient>
</defs>
</svg>
