<svg width="58" height="32" viewBox="0 0 58 32" fill="none" xmlns="http://www.w3.org/2000/svg">
<path fill-rule="evenodd" clip-rule="evenodd" d="M42.1732 5.77661C40.8328 5.75124 39.5008 5.99335 38.255 6.48877C37.0092 6.9842 35.8747 7.723 34.9178 8.66198C33.9609 9.60097 33.2008 10.7213 32.6819 11.9575C32.163 13.1936 31.8957 14.5209 31.8957 15.8615C31.8957 17.2022 32.163 18.5294 32.6819 19.7656C33.2008 21.0018 33.9609 22.1221 34.9178 23.0611C35.8747 24 37.0092 24.7388 38.255 25.2343C39.5008 25.7297 40.8328 25.9718 42.1732 25.9464C44.8149 25.8965 47.3315 24.812 49.182 22.9261C51.0325 21.0403 52.0691 18.5036 52.0691 15.8615C52.0691 13.2194 51.0325 10.6828 49.182 8.79692C47.3315 6.91107 44.8149 5.82659 42.1732 5.77661ZM17.916 18.6142H26.8335C27.392 21.7248 28.8881 24.6158 31.1535 26.8812C34.0766 29.8043 38.0412 31.4465 42.175 31.4465C46.3089 31.4465 50.2735 29.8043 53.1966 26.8812C56.1196 23.9581 57.7618 19.9936 57.7618 15.8597C57.7618 11.7259 56.1196 7.7613 53.1966 4.83821C50.2735 1.91512 46.3089 0.272949 42.175 0.272949C38.0412 0.272949 34.0766 1.91512 31.1535 4.83821C28.8872 7.10451 27.3909 9.99685 26.8329 13.1088H17.9171C17.8365 12.8526 17.7446 12.5996 17.6415 12.3507C17.1807 11.2381 16.5052 10.2273 15.6537 9.37579C14.8023 8.5243 13.7914 7.84886 12.6789 7.38803C11.5663 6.92721 10.3739 6.69003 9.16975 6.69003C7.96556 6.69003 6.77316 6.92721 5.66064 7.38803C4.54811 7.84886 3.53725 8.5243 2.68576 9.37579C1.83427 10.2273 1.15883 11.2381 0.698006 12.3507C0.237183 13.4632 0 14.6556 0 15.8598C0 18.2917 0.966096 20.6241 2.68576 22.3438C4.40542 24.0634 6.73778 25.0295 9.16975 25.0295C11.6017 25.0295 13.9341 24.0634 15.6537 22.3438C16.7065 21.291 17.4769 20.0086 17.916 18.6142ZM14.6684 15.8598C14.6873 16.5939 14.5589 17.3244 14.291 18.0081C14.023 18.6919 13.6209 19.3151 13.1083 19.841C12.5957 20.3669 11.983 20.7848 11.3064 21.0702C10.6297 21.3555 9.90277 21.5026 9.1684 21.5026C8.43402 21.5026 7.70708 21.3555 7.03042 21.0702C6.35376 20.7848 5.74108 20.3669 5.22849 19.841C4.71591 19.3151 4.31379 18.6919 4.04584 18.0081C3.77789 17.3244 3.64954 16.5939 3.66835 15.8598C3.7051 14.4255 4.3007 13.0623 5.32815 12.0608C6.3556 11.0593 7.73362 10.4989 9.1684 10.4989C10.6032 10.4989 11.9812 11.0593 13.0086 12.0608C14.0361 13.0623 14.6317 14.4255 14.6684 15.8598Z" fill="url(#paint0_linear_2133_1357)"/>
<defs>
<linearGradient id="paint0_linear_2133_1357" x1="28.8809" y1="0.272949" x2="28.8809" y2="31.4465" gradientUnits="userSpaceOnUse">
<stop stop-color="#00D4FC"/>
<stop offset="1" stop-color="#1955B6"/>
</linearGradient>
</defs>
</svg>
