<svg width="114" height="114" viewBox="0 0 114 114" fill="none" xmlns="http://www.w3.org/2000/svg">
<g opacity="0.39">
<g filter="url(#filter0_d_2371_2166)">
<path d="M57.4113 38.5436C57.4113 37.5447 56.5823 36.7555 55.5836 36.8055C51.5985 37.0152 47.7333 37.8943 44.0778 39.4426C42.7594 40.002 41.491 40.6314 40.2625 41.3506C39.7332 41.6603 39.4136 42.2396 39.4136 42.849V63.1773C39.4136 63.7966 39.7332 64.376 40.2625 64.6757C41.491 65.3849 42.7694 66.0242 44.0778 66.5736C47.7333 68.122 51.5985 69.011 55.5836 69.2108C56.5723 69.2608 57.4113 68.4616 57.4113 67.4727V38.5336V38.5436Z" fill="url(#paint0_linear_2371_2166)"/>
<path d="M57.4111 38.5534C57.4111 37.5545 56.5821 36.7653 55.5834 36.8152C51.5983 37.025 50.7294 37.9041 47.0739 39.4524C45.7555 40.0118 44.4871 40.6412 43.2586 41.3504C42.7292 41.6601 42.4097 42.2394 42.4097 42.8488V63.1671C42.4097 63.7864 42.7292 64.3658 43.2586 64.6655C44.4871 65.3747 45.7555 66.014 47.0739 66.5634C50.7294 68.1118 51.5983 68.9909 55.5834 69.2006C56.5721 69.2506 57.4111 68.4614 57.4111 67.4625V38.5534Z" fill="url(#paint1_linear_2371_2166)"/>
<mask id="mask0_2371_2166" style="mask-type:luminance" maskUnits="userSpaceOnUse" x="57" y="0" width="53" height="106">
<path d="M109.956 53.0078C109.956 81.4274 87.3939 104.573 59.2088 105.522C58.2201 105.552 57.4111 104.762 57.4111 103.773V89.1691C57.4111 88.2301 58.1501 87.4609 59.079 87.421C63.144 87.2312 67.0891 86.3421 70.8145 84.7638C74.9094 83.0257 78.6049 80.5383 81.771 77.3717C84.9371 74.2051 87.424 70.5191 89.1619 66.4234C90.9596 62.188 91.8585 57.6828 91.8585 53.0178C91.8585 48.3528 90.9496 43.8576 89.1619 39.6221C87.424 35.5265 84.9371 31.8404 81.771 28.6738C78.6049 25.5072 74.9094 23.0198 70.8145 21.2817C67.0891 19.7034 63.144 18.8143 59.079 18.6245C58.1501 18.5846 57.4111 17.8154 57.4111 16.8764V2.27203C57.4111 1.28309 58.23 0.48394 59.2088 0.523897C87.3939 1.47288 109.956 24.6181 109.956 53.0378V53.0078Z" fill="white"/>
</mask>
<g mask="url(#mask0_2371_2166)">
<path d="M91.8087 52.0286C91.8087 51.8887 91.8087 51.7389 91.7987 51.599C91.7987 51.5891 91.7987 51.5791 91.7987 51.5691C91.7987 51.4292 91.7888 51.2894 91.7788 51.1495C91.7788 51.1495 91.7788 51.1495 91.7788 51.1395C91.7788 50.9997 91.7688 50.8698 91.7588 50.73C91.7588 50.73 91.7588 50.72 91.7588 50.71C91.7588 50.5701 91.7388 50.4303 91.7289 50.3004C91.7289 50.3004 91.7289 50.2904 91.7289 50.2804C91.7289 50.1806 91.7088 50.0707 91.6989 49.9708C91.6989 49.9408 91.6989 49.9108 91.6989 49.8709V49.8509C91.6789 49.6511 91.659 49.4513 91.639 49.2515C91.639 49.1716 91.619 49.0917 91.619 49.0218C91.619 48.9718 91.609 48.9219 91.599 48.8819C91.589 48.792 91.579 48.6922 91.569 48.6022C91.569 48.5723 91.559 48.5323 91.549 48.4923C91.539 48.3925 91.5191 48.2826 91.5092 48.1827C91.4992 48.0928 91.4792 48.0029 91.4692 47.913C91.4492 47.7831 91.4293 47.6532 91.4093 47.5234V47.4934C91.3893 47.4135 91.3793 47.3436 91.3693 47.2637C91.3693 47.2437 91.3693 47.2237 91.3693 47.2037C91.3693 47.1738 91.3693 47.1538 91.3593 47.1338C91.3593 47.1038 91.3493 47.0739 91.3493 47.0439C91.3493 47.0439 91.3493 47.0339 91.3493 47.0239C91.3493 47.0039 91.3493 46.974 91.3393 46.954C91.3393 46.944 91.3393 46.934 91.3393 46.924C91.3393 46.904 91.3393 46.8941 91.3393 46.8741C91.3193 46.7742 91.2993 46.6743 91.2893 46.5844C91.2694 46.4945 91.2495 46.3946 91.2395 46.3047C91.2295 46.2348 91.2095 46.1648 91.1995 46.0949C91.1995 46.0749 91.1995 46.055 91.1995 46.035C91.1995 46.015 91.1995 46.005 91.1895 45.9851C91.1895 45.9551 91.1795 45.9351 91.1695 45.9051C91.1495 45.8252 91.1396 45.7453 91.1196 45.6654C91.1196 45.6554 91.1196 45.6454 91.1196 45.6354C91.1196 45.6354 91.1196 45.6154 91.1196 45.6054C91.1196 45.5855 91.1196 45.5755 91.1096 45.5555C91.1096 45.5355 91.1096 45.5255 91.0996 45.5056C91.0896 45.4556 91.0796 45.3957 91.0596 45.3457C91.0596 45.3158 91.0496 45.2858 91.0396 45.2558C91.0097 45.116 90.9797 44.9861 90.9398 44.8463C90.9298 44.8063 90.9199 44.7564 90.9099 44.7064C90.8899 44.6165 90.8699 44.5266 90.8399 44.4367C90.8399 44.4167 90.8299 44.3967 90.8199 44.3768C90.8199 44.3768 90.8199 44.3668 90.8199 44.3568C90.8199 44.3368 90.8099 44.3068 90.7999 44.2869C90.78 44.2069 90.4904 44.0271 90.4904 44.0271C90.4904 44.0271 90.7201 43.9972 90.7201 43.9772C90.7201 43.9772 90.7201 43.9572 90.7201 43.9472C90.6901 43.8373 90.6602 43.7274 90.6302 43.6276C90.5903 43.4977 90.5504 43.3578 90.5204 43.228C90.5204 43.218 90.5104 43.198 90.5104 43.188C90.5104 43.178 90.5104 43.158 90.5004 43.1481C90.4704 43.0382 90.4305 42.9183 90.4005 42.7985C90.3606 42.6786 90.3206 42.5587 90.2807 42.4388C90.2607 42.3889 90.2507 42.3389 90.2307 42.279C90.2107 42.2191 90.2007 42.1791 90.1807 42.1192C90.1807 42.0892 90.1608 42.0692 90.1508 42.0393C90.1409 42.0093 90.1308 41.9793 90.1209 41.9494C90.0909 41.8495 90.051 41.7495 90.021 41.6497C89.9811 41.5498 89.9511 41.4399 89.9112 41.34C89.9012 41.3 89.8812 41.2601 89.8712 41.2201C89.8412 41.1502 89.8212 41.0803 89.7912 41.0104C89.7912 40.9904 89.7713 40.9604 89.7613 40.9404C89.7513 40.9005 89.7313 40.8605 89.7213 40.8206C89.7213 40.8006 89.7013 40.7806 89.7013 40.7606C89.6913 40.7207 89.6714 40.6807 89.6515 40.6408C89.6315 40.5908 89.6115 40.5309 89.5915 40.4809C89.5415 40.3511 89.4916 40.2212 89.4417 40.1013C89.4417 40.0913 89.4416 40.0813 89.4316 40.0714C89.3917 39.9715 89.3517 39.8616 89.3018 39.7617C89.3018 39.7417 89.2919 39.7217 89.2819 39.7118C89.242 39.6119 89.202 39.512 89.1521 39.4121C89.1521 39.3921 89.1321 39.3721 89.1221 39.3521V39.3322C89.0722 39.2223 89.0222 39.1124 88.9723 39.0025C88.9723 38.9925 88.9722 38.9825 88.9523 38.9626C88.9023 38.8427 88.8424 38.7228 88.7924 38.6029C88.7625 38.543 88.7325 38.4831 88.7026 38.4131C88.6726 38.3532 88.6427 38.2933 88.6127 38.2233C88.5528 38.1035 88.5028 37.9836 88.4429 37.8637C88.4429 37.8637 88.4429 37.8537 88.4429 37.8437C88.383 37.7338 88.3331 37.624 88.2732 37.5141C88.2732 37.5041 88.2732 37.4941 88.2632 37.4841V37.4741C88.2232 37.3842 88.1733 37.3043 88.1333 37.2144C88.1333 37.1945 88.1233 37.1845 88.1133 37.1745C88.1133 37.1545 88.0933 37.1445 88.0933 37.1245C88.0534 37.0446 88.0134 36.9747 87.9735 36.8948C87.9535 36.8548 87.9236 36.8048 87.9036 36.7549C87.9036 36.7449 87.8936 36.7349 87.8836 36.715C87.8537 36.665 87.8236 36.6051 87.7937 36.5551C87.7637 36.5052 87.7338 36.4452 87.7038 36.3953C87.6838 36.3553 87.6539 36.3154 87.6339 36.2654C87.6339 36.2654 87.6339 36.2654 87.6339 36.2554C87.614 36.2155 87.5839 36.1655 87.564 36.1256C87.554 36.0956 87.5341 36.0656 87.5141 36.0357C87.4841 35.9857 87.4641 35.9458 87.4341 35.8958C87.4042 35.8359 87.3642 35.776 87.3343 35.716C87.3243 35.6961 87.3143 35.676 87.3043 35.6561C87.2943 35.6361 87.2844 35.6161 87.2744 35.5961C87.2644 35.5762 87.2544 35.5562 87.2444 35.5362C87.2045 35.4663 87.1645 35.3964 87.1246 35.3264C87.1246 35.3164 87.1146 35.3065 87.1046 35.2965C87.1046 35.2865 87.0846 35.2665 87.0846 35.2565C87.0746 35.2365 87.0546 35.2065 87.0446 35.1866C87.0146 35.1366 86.9847 35.0767 86.9447 35.0268L86.9247 34.9868C86.9247 34.9868 86.9149 34.9668 86.9049 34.9568C86.8449 34.8569 86.785 34.757 86.715 34.6571C86.6751 34.5972 86.6451 34.5473 86.6052 34.4873C86.5852 34.4574 86.5652 34.4174 86.5452 34.3874C86.5252 34.3575 86.5053 34.3275 86.4853 34.2975C86.4654 34.2576 86.4355 34.2176 86.4155 34.1876C86.4055 34.1677 86.3955 34.1477 86.3755 34.1277C86.3355 34.0678 86.3056 34.0178 86.2656 33.9579C86.2057 33.868 86.1457 33.7781 86.0858 33.6882C86.0758 33.6682 86.0559 33.6382 86.0359 33.6183C86.026 33.5983 86.0159 33.5883 86.006 33.5683C85.936 33.4784 85.876 33.3785 85.8061 33.2886C85.7462 33.1987 85.6763 33.0988 85.6064 33.0089C85.5964 32.9889 85.5864 32.9789 85.5664 32.959C85.5465 32.939 85.5366 32.919 85.5266 32.899C85.4567 32.8091 85.3967 32.7192 85.3267 32.6293C85.2968 32.5794 85.2569 32.5294 85.2169 32.4795L85.0871 32.3097C85.0871 32.3097 85.067 32.2797 85.0571 32.2697L84.9272 32.0899C84.9272 32.0899 84.8673 32.01 84.8374 31.97C84.7674 31.8701 84.6876 31.7802 84.6177 31.6803C84.5977 31.6604 84.5777 31.6404 84.5677 31.6104C84.4878 31.5205 84.4179 31.4206 84.338 31.3207C84.288 31.2608 84.2481 31.2108 84.1981 31.1509C84.1682 31.1209 84.1482 31.091 84.1183 31.061C84.0883 31.021 84.0484 30.9811 84.0184 30.9411C83.9885 30.9011 83.9584 30.8712 83.9285 30.8412C83.8985 30.8013 83.8686 30.7713 83.8386 30.7313C83.8186 30.7114 83.7987 30.6814 83.7787 30.6614L83.6689 30.5316C83.6689 30.5316 83.6189 30.4716 83.5889 30.4416L83.5489 30.3917C83.5489 30.3917 83.529 30.3617 83.509 30.3517C83.4292 30.2618 83.3593 30.172 83.2794 30.092C83.1895 29.9921 83.0996 29.8922 83.0097 29.7923C82.9198 29.6924 82.8299 29.5926 82.73 29.4927C82.6401 29.3928 82.5502 29.2929 82.4503 29.203C82.2605 29.0032 82.0708 28.8134 81.8811 28.6236C81.8311 28.5737 81.7912 28.5237 81.7412 28.4837C81.6913 28.4338 81.6413 28.3939 81.6014 28.3439C81.5015 28.254 81.4016 28.1541 81.3117 28.0642C81.2118 27.9743 81.122 27.8744 81.0221 27.7845C80.9223 27.6946 80.8223 27.6047 80.7225 27.5048C80.6226 27.4149 80.5228 27.325 80.4229 27.2351C80.343 27.1651 80.2531 27.0852 80.1732 27.0153C80.1532 26.9953 80.1332 26.9854 80.1232 26.9654C80.0234 26.8755 79.9234 26.7856 79.8136 26.7056C79.7137 26.6257 79.6239 26.5458 79.524 26.4659C79.504 26.4459 79.474 26.426 79.454 26.406C79.3941 26.356 79.3442 26.3161 79.2843 26.2661C79.2643 26.2561 79.2543 26.2461 79.2443 26.2361C79.2243 26.2262 79.2143 26.2162 79.2043 26.1962C79.1344 26.1362 79.0645 26.0863 78.9946 26.0264C78.9647 26.0064 78.9347 25.9764 78.9148 25.9564C78.9148 25.9564 78.9048 25.9465 78.8948 25.9365C78.8448 25.8965 78.7849 25.8466 78.7249 25.8066C78.685 25.7766 78.645 25.7467 78.5951 25.7067C78.5851 25.7067 78.5751 25.6967 78.5651 25.6867C78.4552 25.6068 78.3554 25.5169 78.2456 25.437C78.1357 25.3571 78.0359 25.2772 77.926 25.1972C77.916 25.1972 77.906 25.1773 77.896 25.1773C77.8061 25.1074 77.7162 25.0474 77.6263 24.9775C77.6163 24.9775 77.6063 24.9675 77.5963 24.9575C77.5664 24.9375 77.5464 24.9176 77.5165 24.8976C77.4865 24.8776 77.4665 24.8576 77.4365 24.8376C77.4065 24.8177 77.3666 24.7977 77.3366 24.7677C77.3167 24.7577 77.3067 24.7477 77.2868 24.7377C77.2768 24.7377 77.2668 24.7278 77.2568 24.7178C77.1469 24.6379 77.0371 24.5579 76.9172 24.488C76.8573 24.4481 76.8073 24.4081 76.7474 24.3781C76.6875 24.3482 76.6375 24.3082 76.5776 24.2682C76.5476 24.2483 76.5177 24.2283 76.4977 24.2083C76.4777 24.1983 76.4677 24.1883 76.4477 24.1783C76.4477 24.1783 76.4278 24.1684 76.4179 24.1584C76.3779 24.1284 76.328 24.0984 76.288 24.0784C76.278 24.0784 76.268 24.0685 76.248 24.0585C76.238 24.0585 76.218 24.0385 76.208 24.0385C76.1082 23.9686 75.9984 23.9086 75.8985 23.8387C75.8386 23.8087 75.7886 23.7688 75.7286 23.7388C75.6687 23.6989 75.6187 23.6689 75.5588 23.6289H75.5389C75.4491 23.559 75.3591 23.5091 75.2693 23.4591C75.2493 23.4491 75.2292 23.4391 75.2093 23.4191C75.1094 23.3592 75.0196 23.3093 74.9197 23.2493C74.8897 23.2294 74.8597 23.2094 74.8297 23.1994C74.7598 23.1594 74.6999 23.1195 74.63 23.0895C74.6101 23.0795 74.59 23.0695 74.57 23.0595C74.5301 23.0396 74.5001 23.0196 74.4602 22.9996C74.3603 22.9397 74.2505 22.8797 74.1406 22.8198C74.0408 22.7699 73.9508 22.7099 73.851 22.66C73.831 22.65 73.8111 22.64 73.7811 22.62C73.6712 22.5601 73.5514 22.5001 73.4316 22.4402C73.4316 22.4402 73.4315 22.4402 73.4216 22.4402C73.3017 22.3803 73.1818 22.3203 73.0619 22.2504L72.7823 22.1105C72.7823 22.1105 72.7223 22.0806 72.6924 22.0706C72.6025 22.0307 72.5227 21.9907 72.4328 21.9407C72.3729 21.9108 72.3129 21.8808 72.253 21.8508C72.1831 21.8209 72.1032 21.7809 72.0333 21.7509C72.0033 21.741 71.9833 21.731 71.9533 21.711C71.9133 21.691 71.8634 21.671 71.8234 21.651C71.8234 21.651 71.7436 21.6211 71.7136 21.6011C71.6736 21.5811 71.6337 21.5711 71.5938 21.5511C71.5938 21.5511 71.5937 21.5511 71.5838 21.5511C71.5538 21.5412 71.5239 21.5212 71.4939 21.5112C71.394 21.4713 71.2941 21.4313 71.2042 21.3813C71.1842 21.3813 71.1743 21.3713 71.1544 21.3613C71.0645 21.3214 70.9646 21.2814 70.8747 21.2415C70.8547 21.2415 70.8347 21.2215 70.8247 21.2215C70.7947 21.2115 70.7648 21.1915 70.7248 21.1815C70.6949 21.1716 70.6649 21.1516 70.635 21.1416C70.5751 21.1116 70.5051 21.0917 70.4451 21.0617C70.3253 21.0117 70.2155 20.9718 70.0956 20.9218C70.0357 20.8918 69.9658 20.8719 69.8959 20.8419C69.8559 20.8219 69.826 20.8119 69.786 20.802C69.7661 20.802 69.746 20.782 69.7161 20.782C69.6961 20.782 69.6862 20.772 69.6662 20.762C69.6263 20.742 69.5763 20.732 69.5364 20.712C69.4565 20.6821 69.3766 20.6521 69.2867 20.6222C69.2767 20.6222 69.2567 20.6122 69.2367 20.6022C69.1268 20.5622 69.007 20.5223 68.8871 20.4823C68.8871 20.4823 68.8671 20.4823 68.8571 20.4823C68.7373 20.4424 68.6075 20.3924 68.4776 20.3524C68.4776 20.3524 68.4576 20.3524 68.4476 20.3425C68.3477 20.3025 68.2379 20.2725 68.1381 20.2426C68.1281 20.2426 68.1181 20.2326 68.0981 20.2326H68.0881C67.9682 20.1926 67.8384 20.1526 67.7185 20.1127C67.7185 20.1127 67.6987 20.1127 67.6887 20.1127C67.6587 20.1027 67.6287 20.0927 67.5987 20.0827L67.4988 20.0528C67.4389 20.0328 67.3691 20.0128 67.3091 19.9928H67.2891C67.2592 19.9928 67.2391 19.9729 67.2092 19.9729C67.1093 19.9429 67.0095 19.9129 66.9096 19.8829C66.8497 19.863 66.7897 19.853 66.7298 19.833C66.6599 19.813 66.59 19.793 66.5201 19.7731C66.4302 19.7431 66.3303 19.7231 66.2304 19.6932C66.1904 19.6932 66.1505 19.6732 66.1205 19.6632C66.1106 19.6632 66.1005 19.6632 66.0806 19.6532C66.0406 19.6432 65.9907 19.6332 65.9507 19.6232C65.8608 19.6032 65.771 19.5733 65.6712 19.5533C65.5313 19.5133 65.3814 19.4834 65.2316 19.4534C65.1018 19.4234 64.9719 19.3935 64.8321 19.3635C64.7922 19.3635 64.7622 19.3435 64.7223 19.3435C64.7023 19.3435 64.6924 19.3435 64.6824 19.3435C64.6724 19.3435 64.6524 19.3435 64.6424 19.3335C64.5725 19.3235 64.5126 19.3036 64.4427 19.2936C64.4327 19.2936 64.4227 19.2936 64.4027 19.2836C64.2629 19.2536 64.123 19.2336 63.9832 19.2037C63.8633 19.1837 63.7335 19.1537 63.6036 19.1338C63.5038 19.1138 63.404 19.0938 63.2941 19.0838C63.2541 19.0838 63.2142 19.0738 63.1842 19.0638C63.1443 19.0638 63.1043 19.0538 63.0644 19.0438C62.9645 19.0239 62.8546 19.0139 62.7547 18.9939C62.6748 18.9839 62.5849 18.9739 62.505 18.9539C62.4351 18.9439 62.3652 18.9339 62.2853 18.924C62.1555 18.904 62.0256 18.894 61.8958 18.874C61.8059 18.864 61.716 18.854 61.6161 18.8441C61.5762 18.8441 61.5362 18.8341 61.4863 18.8341C61.4863 18.8341 61.4863 18.8341 61.4763 18.8341C61.4363 18.8341 61.4064 18.8341 61.3664 18.8241C61.3664 18.8241 61.3464 18.8241 61.3364 18.8241C61.2465 18.8141 61.1568 18.8041 61.0669 18.7941C60.957 18.7841 60.847 18.7741 60.7272 18.7642C60.6972 18.7642 60.6673 18.7642 60.6373 18.7642C60.6174 18.7642 60.5875 18.7642 60.5675 18.7642C60.4476 18.7542 60.3377 18.7442 60.2178 18.7342C60.078 18.7242 59.9282 18.7142 59.7884 18.7042C59.6086 18.6942 59.4288 18.6842 59.2491 18.6742C59.1392 18.6742 59.0394 18.6642 58.9295 18.3646H58.9095C58.8296 18.6542 58.7497 18.6443 58.6698 18.6443C58.6099 18.6443 58.49 18.864 58.49 18.864H58.48C58.48 18.864 58.3601 18.6343 58.3002 18.6343C58.2203 18.6343 58.0605 18.3646 58.0605 18.3646H58.0006C58.0006 18.3646 57.8608 18.6243 57.7909 18.6243C57.701 18.6243 57.6111 18.6243 57.5212 18.864H57.2316C55.6436 18.6343 54.0755 18.7142 52.5274 18.864C52.1578 18.904 51.7983 18.934 51.4288 18.9739C51.249 18.9939 51.0592 19.0139 50.8794 19.0438C50.6996 19.0638 50.5199 19.0938 50.3401 19.1138C50.1703 19.1337 50.0105 19.1537 49.8407 19.1837C49.8207 19.1837 49.8108 19.1837 49.7908 19.1837C49.4312 19.2336 49.0717 19.2936 48.7121 19.3535C48.5323 19.3835 48.3526 19.4135 48.1728 19.4434C48.0829 19.4634 47.983 19.4734 47.8931 19.4934C47.8032 19.5133 47.7034 19.5233 47.6135 19.5433C47.3838 19.5833 47.1441 19.6332 46.9143 19.6832C46.6746 19.7331 46.4349 19.783 46.1952 19.833C46.1852 19.833 46.1753 19.833 46.1653 19.833C45.9256 19.8829 45.6759 19.9429 45.4362 20.0028C45.1865 20.0628 44.9368 20.1227 44.6771 20.1826C44.5373 20.2126 44.3974 20.2526 44.2576 20.2925C43.9779 20.3624 43.6983 20.4423 43.4187 20.5223C43.2788 20.5622 43.139 20.6022 42.9992 20.6421C42.8594 20.6821 42.7195 20.7221 42.5797 20.762C42.4399 20.802 42.3 20.8419 42.1602 20.8819C42.0304 20.9218 41.8905 20.9618 41.7607 21.0017H41.7408C41.6109 21.0517 41.4711 21.0916 41.3312 21.1416C41.2014 21.1815 41.0616 21.2315 40.9218 21.2814C40.7919 21.3214 40.6621 21.3714 40.5322 21.4113C40.4324 21.4413 40.3225 21.4812 40.2226 21.5112C40.1427 21.5412 40.0628 21.5711 39.9729 21.6011C39.6433 21.711 39.3238 21.8308 39.0042 21.9507C38.9243 21.9807 38.8543 22.0107 38.7744 22.0406C38.6845 22.0806 38.5947 22.1105 38.5048 22.1405C38.345 22.2005 38.1851 22.2704 38.0253 22.3303C37.9354 22.3603 37.8456 22.4003 37.7557 22.4402C37.516 22.5401 37.2763 22.64 37.0366 22.7399C36.9067 22.7998 36.7669 22.8498 36.637 22.9097C36.5272 22.9597 36.4173 23.0096 36.2975 23.0595C35.878 23.2493 35.4585 23.4391 35.049 23.6289C34.9292 23.6789 34.8193 23.7388 34.6995 23.7987C33.2513 24.498 31.833 25.2572 30.4647 26.0863C20.2373 32.2297 12.2772 41.7496 8.12235 53.1074C7.06366 56.0043 6.25469 59.0211 5.71536 62.1278C5.20599 59.2009 4.94629 56.1841 4.94629 53.1074C4.94629 50.0307 5.20599 47.0139 5.71536 44.0871C9.49068 22.3003 26.6794 5.11874 48.4624 1.34277C51.5686 1.8822 54.5948 2.69134 57.4912 3.7502C68.8472 7.90576 78.3754 15.8672 84.5178 26.0863C89.182 33.838 91.8887 42.8883 91.9885 52.558C91.9885 52.4082 91.9885 52.2683 91.9785 52.1285L91.8087 52.0286Z" fill="url(#paint2_linear_2371_2166)"/>
<path d="M66.4303 104.782C63.5039 105.291 60.4876 105.551 57.4014 105.551C54.3152 105.551 51.3089 105.281 48.3726 104.782C26.5795 101.016 9.39083 83.8241 5.62549 62.0374C6.16482 58.9307 6.97385 55.914 8.03254 53.0171C12.1874 41.6592 20.1475 32.1394 30.3749 25.996C31.7432 25.1768 33.1614 24.4077 34.6096 23.7084C34.7195 23.6485 34.8393 23.5985 34.9592 23.5386C35.3786 23.3388 35.7881 23.149 36.2076 22.9692C36.3175 22.9193 36.4274 22.8693 36.5472 22.8194C36.6771 22.7594 36.8169 22.7095 36.9468 22.6495C37.1865 22.5496 37.4261 22.4498 37.6658 22.3499C37.7557 22.3099 37.8456 22.2799 37.9355 22.24C38.0953 22.18 38.2551 22.1101 38.4149 22.0502C38.5048 22.0202 38.5947 21.9802 38.6846 21.9503C38.7645 21.9203 38.8344 21.8903 38.9143 21.8604C39.2339 21.7405 39.5535 21.6207 39.8831 21.5108C39.963 21.4808 40.0429 21.4508 40.1328 21.4208C40.2326 21.3809 40.3426 21.3509 40.4424 21.321C40.5723 21.271 40.7021 21.2311 40.8319 21.1911C40.9717 21.1412 41.1016 21.1012 41.2414 21.0512C41.3813 21.0113 41.5111 20.9613 41.6509 20.9214H41.6709C41.8007 20.8714 41.9405 20.8315 42.0704 20.7915C42.2102 20.7516 42.3501 20.7116 42.4899 20.6716C42.6297 20.6317 42.7695 20.5917 42.9093 20.5518C43.0492 20.5118 43.189 20.4719 43.3288 20.4319C43.6085 20.352 43.8881 20.2821 44.1678 20.2021C44.3076 20.1722 44.4474 20.1322 44.5873 20.0923C44.837 20.0323 45.0867 19.9724 45.3463 19.9125C45.586 19.8525 45.8357 19.8026 46.0754 19.7426C46.0854 19.7426 46.0954 19.7426 46.1054 19.7426C46.3451 19.6927 46.5848 19.6428 46.8245 19.5928C47.0542 19.5429 47.2839 19.5029 47.5236 19.4529C47.6135 19.433 47.7134 19.423 47.8033 19.403C47.8932 19.383 47.993 19.3731 48.0829 19.3531C48.2627 19.3231 48.4425 19.2931 48.6222 19.2632C48.9818 19.2032 49.3414 19.1433 49.7009 19.0933C49.7209 19.0933 49.7309 19.0933 49.7509 19.0933C49.9107 19.0734 50.0804 19.0434 50.2502 19.0234C50.43 19.0034 50.6098 18.9735 50.7896 18.9535C50.9694 18.9335 51.1491 18.9135 51.3389 18.8836C51.6985 18.8436 52.068 18.8036 52.4375 18.7737C53.9057 18.6338 55.3839 18.5539 56.892 18.5439C38.2751 18.8336 23.2337 33.8675 22.9441 52.4876C22.9441 52.5476 22.9441 52.5975 22.9441 52.6575C22.9441 52.7873 22.9441 52.9072 22.9441 53.0371C22.9441 53.1669 22.9441 53.2868 22.9441 53.4166C22.9441 53.4766 22.9441 53.5265 22.9441 53.5865C23.0439 63.2661 25.7606 72.3065 30.4148 80.0582C36.5572 90.2772 46.0854 98.2387 57.4413 102.394C60.3378 103.453 63.354 104.262 66.4701 104.802L66.4303 104.782Z" fill="url(#paint3_linear_2371_2166)"/>
<path d="M109.876 53.2179C109.876 56.2946 109.607 59.3114 109.107 62.2382C105.332 84.0249 88.1433 101.217 66.3503 104.983C63.2441 104.443 60.2179 103.634 57.3215 102.575C45.9655 98.4196 36.4373 90.458 30.295 80.239C25.6407 72.4873 22.9241 63.4369 22.8242 53.7673C23.1139 72.3874 38.1552 87.4213 56.7722 87.711C56.8321 87.711 56.882 87.711 56.942 87.711C57.0718 87.711 57.1916 87.711 57.3215 87.711C57.4513 87.711 57.5712 87.711 57.701 87.711C57.7609 87.711 57.8109 87.711 57.8708 87.711C67.5488 87.6111 76.5976 84.904 84.348 80.249C94.5754 74.1055 102.535 64.5857 106.69 53.2279C107.749 50.331 108.568 47.3142 109.097 44.2075C109.607 47.1444 109.866 50.1512 109.866 53.2279L109.876 53.2179Z" fill="url(#paint4_linear_2371_2166)"/>
<path d="M109.107 43.9873C108.568 47.104 107.759 50.1108 106.7 53.0077C102.546 64.3656 94.5854 73.8854 84.3581 80.0288C76.6077 84.6838 67.5589 87.4009 57.8808 87.4908C76.4978 87.2011 91.5392 72.1672 91.8288 53.5471C91.8288 53.4872 91.8288 53.4372 91.8288 53.3773C91.8288 53.2574 91.8288 53.1276 91.8288 52.9977C91.8288 52.8678 91.8288 52.748 91.8288 52.6181C91.8288 52.5682 91.8288 52.5082 91.8288 52.4483C91.7289 42.7786 89.0223 33.7283 84.3581 25.9766C78.2157 15.7575 68.6975 7.79602 57.3315 3.64046C54.4351 2.5816 51.4189 1.77246 48.3027 1.23303C51.2391 0.723579 54.2454 0.463867 57.3315 0.463867C60.4177 0.463867 63.424 0.733568 66.3603 1.23303C88.1534 4.99901 105.342 22.1906 109.117 43.9773L109.107 43.9873Z" fill="url(#paint5_linear_2371_2166)"/>
</g>
<mask id="mask1_2371_2166" style="mask-type:luminance" maskUnits="userSpaceOnUse" x="4" y="4" width="36" height="98">
<path d="M39.4034 83.2845C39.4034 82.6851 39.0938 82.1357 38.5944 81.806C36.6468 80.5274 34.819 79.039 33.1411 77.3608C29.975 74.1942 27.4882 70.5081 25.7503 66.4125C23.9625 62.177 23.0536 57.6718 23.0536 53.0068C23.0536 48.3418 23.9625 43.8466 25.7503 39.6112C27.4882 35.5155 29.975 31.8295 33.1411 28.6529C34.819 26.9747 36.6368 25.4962 38.5944 24.2076C39.0938 23.878 39.4034 23.3286 39.4034 22.7292V6.24683C39.4034 4.98817 38.125 4.13906 36.9664 4.63853C18.1497 12.63 4.95605 31.28 4.95605 53.0168C4.95605 74.7536 18.1497 93.3937 36.9664 101.395C38.125 101.885 39.4034 101.035 39.4034 99.7868V83.3044V83.2845Z" fill="white"/>
</mask>
<g mask="url(#mask1_2371_2166)">
<path d="M91.8087 52.0281C91.8087 51.8882 91.8087 51.7384 91.7987 51.5986C91.7987 51.5886 91.7987 51.5786 91.7987 51.5686C91.7987 51.4287 91.7888 51.2889 91.7788 51.149C91.7788 51.149 91.7788 51.149 91.7788 51.139C91.7788 50.9992 91.7688 50.8693 91.7588 50.7295C91.7588 50.7295 91.7588 50.7195 91.7588 50.7095C91.7588 50.5696 91.7388 50.4298 91.7289 50.2999C91.7289 50.2999 91.7289 50.2899 91.7289 50.28C91.7289 50.1801 91.7088 50.0702 91.6989 49.9703C91.6989 49.9403 91.6989 49.9103 91.6989 49.8704V49.8504C91.6789 49.6506 91.659 49.4508 91.639 49.2511C91.639 49.1711 91.619 49.0912 91.619 49.0213C91.619 48.9713 91.609 48.9214 91.599 48.8815C91.589 48.7916 91.579 48.6917 91.569 48.6018C91.569 48.5718 91.559 48.5318 91.549 48.4919C91.539 48.392 91.5191 48.2821 91.5092 48.1822C91.4992 48.0923 91.4792 48.0024 91.4692 47.9125C91.4492 47.7826 91.4293 47.6528 91.4093 47.5229V47.4929C91.3893 47.413 91.3793 47.3431 91.3693 47.2632C91.3693 47.2432 91.3693 47.2232 91.3693 47.2033C91.3693 47.1733 91.3693 47.1533 91.3593 47.1333C91.3593 47.1034 91.3493 47.0734 91.3493 47.0434C91.3493 47.0434 91.3493 47.0334 91.3493 47.0234C91.3493 47.0034 91.3493 46.9735 91.3393 46.9535C91.3393 46.9435 91.3393 46.9335 91.3393 46.9235C91.3393 46.9035 91.3393 46.8936 91.3393 46.8736C91.3193 46.7737 91.2993 46.6738 91.2893 46.5839C91.2694 46.494 91.2495 46.3941 91.2395 46.3042C91.2295 46.2343 91.2095 46.1644 91.1995 46.0944C91.1995 46.0745 91.1995 46.0545 91.1995 46.0345C91.1995 46.0145 91.1995 46.0045 91.1895 45.9846C91.1895 45.9546 91.1795 45.9346 91.1695 45.9046C91.1495 45.8247 91.1396 45.7448 91.1196 45.6649C91.1196 45.6549 91.1196 45.6449 91.1196 45.6349C91.1196 45.6349 91.1196 45.615 91.1196 45.605C91.1196 45.585 91.1196 45.575 91.1096 45.555C91.1096 45.535 91.1096 45.525 91.0996 45.5051C91.0896 45.4551 91.0796 45.3952 91.0596 45.3452C91.0596 45.3153 91.0496 45.2853 91.0396 45.2553C91.0097 45.1155 90.9797 44.9856 90.9398 44.8458C90.9298 44.8058 90.9199 44.7559 90.9099 44.7059C90.8899 44.616 90.8699 44.5261 90.8399 44.4362C90.8399 44.4162 90.8299 44.3962 90.8199 44.3763C90.8199 44.3763 90.8199 44.3663 90.8199 44.3563C90.8199 44.3363 90.8099 44.3063 90.7999 44.2864C90.78 44.2065 90.4904 44.0266 90.4904 44.0266C90.4904 44.0266 90.7201 43.9967 90.7201 43.9767C90.7201 43.9767 90.7201 43.9567 90.7201 43.9467C90.6901 43.8368 90.6602 43.727 90.6302 43.6271C90.5903 43.4972 90.5504 43.3574 90.5204 43.2275C90.5204 43.2175 90.5104 43.1975 90.5104 43.1875C90.5104 43.1775 90.5104 43.1576 90.5004 43.1476C90.4704 43.0377 90.4305 42.9178 90.4005 42.798C90.3606 42.6781 90.3206 42.5582 90.2807 42.4383C90.2607 42.3884 90.2507 42.3384 90.2307 42.2785C90.2107 42.2186 90.2007 42.1786 90.1807 42.1187C90.1807 42.0887 90.1608 42.0687 90.1508 42.0388C90.1409 42.0088 90.1308 41.9788 90.1209 41.9489C90.0909 41.849 90.051 41.7491 90.021 41.6492C89.9811 41.5493 89.9511 41.4394 89.9112 41.3395C89.9012 41.2995 89.8812 41.2596 89.8712 41.2196C89.8412 41.1497 89.8212 41.0798 89.7912 41.0099C89.7912 40.9899 89.7713 40.9599 89.7613 40.9399C89.7513 40.9 89.7313 40.86 89.7213 40.8201C89.7213 40.8001 89.7013 40.7801 89.7013 40.7601C89.6913 40.7202 89.6714 40.6802 89.6515 40.6403C89.6315 40.5903 89.6115 40.5304 89.5915 40.4804C89.5415 40.3506 89.4916 40.2207 89.4417 40.1008C89.4417 40.0908 89.4416 40.0809 89.4316 40.0709C89.3917 39.971 89.3517 39.8611 89.3018 39.7612C89.3018 39.7412 89.2919 39.7213 89.2819 39.7113C89.242 39.6114 89.202 39.5115 89.1521 39.4116C89.1521 39.3916 89.1321 39.3716 89.1221 39.3516V39.3317C89.0722 39.2218 89.0222 39.1119 88.9723 39.002C88.9723 38.992 88.9722 38.982 88.9523 38.9621C88.9023 38.8422 88.8424 38.7223 88.7924 38.6024C88.7625 38.5425 88.7325 38.4826 88.7026 38.4126C88.6726 38.3527 88.6427 38.2928 88.6127 38.2228C88.5528 38.103 88.5028 37.9831 88.4429 37.8632C88.4429 37.8632 88.4429 37.8532 88.4429 37.8432C88.383 37.7334 88.3331 37.6235 88.2732 37.5136C88.2732 37.5036 88.2732 37.4936 88.2632 37.4836V37.4736C88.2232 37.3837 88.1733 37.3038 88.1333 37.2139C88.1333 37.194 88.1233 37.184 88.1133 37.174C88.1133 37.154 88.0933 37.144 88.0933 37.124C88.0534 37.0441 88.0134 36.9742 87.9735 36.8943C87.9535 36.8543 87.9236 36.8044 87.9036 36.7544C87.9036 36.7444 87.8936 36.7345 87.8836 36.7145C87.8537 36.6645 87.8236 36.6046 87.7937 36.5546C87.7637 36.5047 87.7338 36.4448 87.7038 36.3948C87.6838 36.3549 87.6539 36.3149 87.6339 36.2649C87.6339 36.2649 87.6339 36.2649 87.6339 36.2549C87.614 36.215 87.5839 36.165 87.564 36.1251C87.554 36.0951 87.5341 36.0651 87.5141 36.0352C87.4841 35.9852 87.4641 35.9453 87.4341 35.8953C87.4042 35.8354 87.3642 35.7755 87.3343 35.7155C87.3243 35.6956 87.3143 35.6756 87.3043 35.6556C87.2943 35.6356 87.2844 35.6156 87.2744 35.5956C87.2644 35.5757 87.2544 35.5557 87.2444 35.5357C87.2045 35.4658 87.1645 35.3959 87.1246 35.3259C87.1246 35.316 87.1146 35.306 87.1046 35.296C87.1046 35.286 87.0846 35.266 87.0846 35.256C87.0746 35.236 87.0546 35.2061 87.0446 35.1861C87.0146 35.1361 86.9847 35.0762 86.9447 35.0263L86.9247 34.9863C86.9247 34.9863 86.9149 34.9663 86.9049 34.9563C86.8449 34.8564 86.785 34.7565 86.715 34.6566C86.6751 34.5967 86.6451 34.5468 86.6052 34.4868C86.5852 34.4569 86.5652 34.4169 86.5452 34.3869C86.5252 34.357 86.5053 34.327 86.4853 34.297C86.4654 34.2571 86.4355 34.2171 86.4155 34.1871C86.4055 34.1672 86.3955 34.1472 86.3755 34.1272C86.3355 34.0673 86.3056 34.0173 86.2656 33.9574C86.2057 33.8675 86.1457 33.7776 86.0858 33.6877C86.0758 33.6677 86.0559 33.6378 86.0359 33.6178C86.026 33.5978 86.0159 33.5878 86.006 33.5678C85.936 33.4779 85.876 33.378 85.8061 33.2881C85.7462 33.1982 85.6763 33.0983 85.6064 33.0084C85.5964 32.9884 85.5864 32.9785 85.5664 32.9585C85.5465 32.9385 85.5366 32.9185 85.5266 32.8985C85.4567 32.8086 85.3967 32.7187 85.3267 32.6288C85.2968 32.5789 85.2569 32.5289 85.2169 32.479L85.0871 32.3092C85.0871 32.3092 85.067 32.2792 85.0571 32.2692L84.9272 32.0894C84.9272 32.0894 84.8673 32.0095 84.8374 31.9695C84.7674 31.8697 84.6876 31.7797 84.6177 31.6798C84.5977 31.6599 84.5777 31.6399 84.5677 31.6099C84.4878 31.52 84.4179 31.4201 84.338 31.3202C84.288 31.2603 84.2481 31.2104 84.1981 31.1504C84.1682 31.1204 84.1482 31.0905 84.1183 31.0605C84.0883 31.0206 84.0484 30.9806 84.0184 30.9406C83.9885 30.9007 83.9584 30.8707 83.9285 30.8407C83.8985 30.8008 83.8686 30.7708 83.8386 30.7309C83.8186 30.7109 83.7987 30.6809 83.7787 30.6609L83.6689 30.5311C83.6689 30.5311 83.6189 30.4711 83.5889 30.4412L83.5489 30.3912C83.5489 30.3912 83.529 30.3612 83.509 30.3512C83.4292 30.2613 83.3593 30.1715 83.2794 30.0915C83.1895 29.9917 83.0996 29.8917 83.0097 29.7919C82.9198 29.692 82.8299 29.5921 82.73 29.4922C82.6401 29.3923 82.5502 29.2924 82.4503 29.2025C82.2605 29.0027 82.0708 28.8129 81.8811 28.6231C81.8311 28.5732 81.7912 28.5232 81.7412 28.4833C81.6913 28.4333 81.6413 28.3934 81.6014 28.3434C81.5015 28.2535 81.4016 28.1536 81.3117 28.0637C81.2118 27.9738 81.122 27.8739 81.0221 27.784C80.9223 27.6941 80.8223 27.6042 80.7225 27.5043C80.6226 27.4144 80.5228 27.3245 80.4229 27.2346C80.343 27.1647 80.2531 27.0847 80.1732 27.0148C80.1532 26.9948 80.1332 26.9849 80.1232 26.9649C80.0234 26.875 79.9234 26.7851 79.8136 26.7052C79.7137 26.6252 79.6239 26.5453 79.524 26.4654C79.504 26.4454 79.474 26.4255 79.454 26.4055C79.3941 26.3555 79.3442 26.3156 79.2843 26.2656C79.2643 26.2556 79.2543 26.2456 79.2443 26.2357C79.2243 26.2257 79.2143 26.2157 79.2043 26.1957C79.1344 26.1358 79.0645 26.0858 78.9946 26.0259C78.9647 26.0059 78.9347 25.9759 78.9148 25.956C78.9148 25.956 78.9048 25.946 78.8948 25.936C78.8448 25.896 78.7849 25.8461 78.7249 25.8061C78.685 25.7762 78.645 25.7462 78.5951 25.7062C78.5851 25.7062 78.5751 25.6962 78.5651 25.6863C78.4552 25.6063 78.3554 25.5164 78.2456 25.4365C78.1357 25.3566 78.0359 25.2767 77.926 25.1968C77.916 25.1968 77.906 25.1768 77.896 25.1768C77.8061 25.1069 77.7162 25.0469 77.6263 24.977C77.6163 24.977 77.6063 24.967 77.5963 24.957C77.5664 24.937 77.5464 24.9171 77.5165 24.8971C77.4865 24.8771 77.4665 24.8571 77.4365 24.8372C77.4065 24.8172 77.3666 24.7972 77.3366 24.7672C77.3167 24.7572 77.3067 24.7472 77.2868 24.7373C77.2768 24.7373 77.2668 24.7273 77.2568 24.7173C77.1469 24.6374 77.0371 24.5574 76.9172 24.4875C76.8573 24.4476 76.8073 24.4076 76.7474 24.3777C76.6875 24.3477 76.6375 24.3077 76.5776 24.2678C76.5476 24.2478 76.5177 24.2278 76.4977 24.2078C76.4777 24.1978 76.4677 24.1878 76.4477 24.1779C76.4477 24.1779 76.4278 24.1679 76.4179 24.1579C76.3779 24.1279 76.328 24.0979 76.288 24.078C76.278 24.078 76.268 24.068 76.248 24.058C76.238 24.058 76.218 24.038 76.208 24.038C76.1082 23.9681 75.9984 23.9081 75.8985 23.8382C75.8386 23.8083 75.7886 23.7683 75.7286 23.7383C75.6687 23.6984 75.6187 23.6684 75.5588 23.6285H75.5389C75.4491 23.5585 75.3591 23.5086 75.2693 23.4586C75.2493 23.4486 75.2292 23.4386 75.2093 23.4187C75.1094 23.3587 75.0196 23.3088 74.9197 23.2489C74.8897 23.2289 74.8597 23.2089 74.8297 23.1989C74.7598 23.1589 74.6999 23.119 74.63 23.089C74.6101 23.079 74.59 23.069 74.57 23.0591C74.5301 23.0391 74.5001 23.0191 74.4602 22.9991C74.3603 22.9392 74.2505 22.8793 74.1406 22.8193C74.0408 22.7694 73.9508 22.7094 73.851 22.6595C73.831 22.6495 73.8111 22.6395 73.7811 22.6195C73.6712 22.5596 73.5514 22.4997 73.4316 22.4397C73.4316 22.4397 73.4315 22.4397 73.4216 22.4397C73.3017 22.3798 73.1818 22.3199 73.0619 22.2499L72.7823 22.1101C72.7823 22.1101 72.7223 22.0801 72.6924 22.0701C72.6025 22.0302 72.5227 21.9902 72.4328 21.9403C72.3729 21.9103 72.3129 21.8803 72.253 21.8504C72.1831 21.8204 72.1032 21.7804 72.0333 21.7505C72.0033 21.7405 71.9833 21.7305 71.9533 21.7105C71.9133 21.6905 71.8634 21.6705 71.8234 21.6506C71.8234 21.6506 71.7436 21.6206 71.7136 21.6006C71.6736 21.5806 71.6337 21.5706 71.5938 21.5507C71.5938 21.5507 71.5937 21.5507 71.5838 21.5507C71.5538 21.5407 71.5239 21.5207 71.4939 21.5107C71.394 21.4708 71.2941 21.4308 71.2042 21.3809C71.1842 21.3809 71.1743 21.3709 71.1544 21.3609C71.0645 21.3209 70.9646 21.281 70.8747 21.241C70.8547 21.241 70.8347 21.221 70.8247 21.221C70.7947 21.211 70.7648 21.1911 70.7248 21.1811C70.6949 21.1711 70.6649 21.1511 70.635 21.1411C70.5751 21.1111 70.5051 21.0912 70.4451 21.0612C70.3253 21.0112 70.2155 20.9713 70.0956 20.9213C70.0357 20.8914 69.9658 20.8714 69.8959 20.8414C69.8559 20.8214 69.826 20.8115 69.786 20.8015C69.7661 20.8015 69.746 20.7815 69.7161 20.7815C69.6961 20.7815 69.6862 20.7715 69.6662 20.7615C69.6263 20.7415 69.5763 20.7315 69.5364 20.7116C69.4565 20.6816 69.3766 20.6516 69.2867 20.6217C69.2767 20.6217 69.2567 20.6117 69.2367 20.6017C69.1268 20.5617 69.007 20.5218 68.8871 20.4818C68.8871 20.4818 68.8671 20.4818 68.8571 20.4818C68.7373 20.4419 68.6075 20.3919 68.4776 20.352C68.4776 20.352 68.4576 20.352 68.4476 20.342C68.3477 20.302 68.2379 20.272 68.1381 20.2421C68.1281 20.2421 68.1181 20.2321 68.0981 20.2321H68.0881C67.9682 20.1921 67.8384 20.1522 67.7185 20.1122C67.7185 20.1122 67.6987 20.1122 67.6887 20.1122C67.6587 20.1022 67.6287 20.0922 67.5987 20.0822L67.4988 20.0523C67.4389 20.0323 67.3691 20.0123 67.3091 19.9923H67.2891C67.2592 19.9923 67.2391 19.9724 67.2092 19.9724C67.1093 19.9424 67.0095 19.9124 66.9096 19.8825C66.8497 19.8625 66.7897 19.8525 66.7298 19.8325C66.6599 19.8125 66.59 19.7925 66.5201 19.7726C66.4302 19.7426 66.3303 19.7226 66.2304 19.6927C66.1904 19.6927 66.1505 19.6727 66.1205 19.6627C66.1106 19.6627 66.1005 19.6627 66.0806 19.6527C66.0406 19.6427 65.9907 19.6327 65.9507 19.6227C65.8608 19.6028 65.771 19.5728 65.6712 19.5528C65.5313 19.5128 65.3814 19.4829 65.2316 19.4529C65.1018 19.4229 64.9719 19.393 64.8321 19.363C64.7922 19.363 64.7622 19.343 64.7223 19.343C64.7023 19.343 64.6924 19.343 64.6824 19.343C64.6724 19.343 64.6524 19.343 64.6424 19.333C64.5725 19.323 64.5126 19.3031 64.4427 19.2931C64.4327 19.2931 64.4227 19.2931 64.4027 19.2831C64.2629 19.2531 64.123 19.2331 63.9832 19.2032C63.8633 19.1832 63.7335 19.1532 63.6036 19.1333C63.5038 19.1133 63.404 19.0933 63.2941 19.0833C63.2541 19.0833 63.2142 19.0733 63.1842 19.0633C63.1443 19.0633 63.1043 19.0534 63.0644 19.0434C62.9645 19.0234 62.8546 19.0134 62.7547 18.9934C62.6748 18.9834 62.5849 18.9734 62.505 18.9534C62.4351 18.9434 62.3652 18.9335 62.2853 18.9235C62.1555 18.9035 62.0256 18.8935 61.8958 18.8735C61.8059 18.8635 61.716 18.8536 61.6161 18.8436C61.5762 18.8436 61.5362 18.8336 61.4863 18.8336C61.4863 18.8336 61.4863 18.8336 61.4763 18.8336C61.4363 18.8336 61.4064 18.8336 61.3664 18.8236C61.3664 18.8236 61.3464 18.8236 61.3364 18.8236C61.2465 18.8136 61.1568 18.8036 61.0669 18.7936C60.957 18.7836 60.847 18.7737 60.7272 18.7637C60.6972 18.7637 60.6673 18.7637 60.6373 18.7637C60.6174 18.7637 60.5875 18.7637 60.5675 18.7637C60.4476 18.7537 60.3377 18.7437 60.2178 18.7337C60.078 18.7237 59.9282 18.7137 59.7884 18.7037C59.6086 18.6937 59.4288 18.6837 59.2491 18.6737C59.1392 18.6737 59.0394 18.6637 58.9295 18.3641H58.9095C58.8296 18.6538 58.7497 18.6438 58.6698 18.6438C58.6099 18.6438 58.49 18.8635 58.49 18.8635H58.48C58.48 18.8635 58.3601 18.6338 58.3002 18.6338C58.2203 18.6338 58.0605 18.3641 58.0605 18.3641H58.0006C58.0006 18.3641 57.8608 18.6238 57.7909 18.6238C57.701 18.6238 57.6111 18.6238 57.5212 18.8635H57.2316C55.6436 18.6338 54.0755 18.7137 52.5274 18.8635C52.1578 18.9035 51.7983 18.9335 51.4288 18.9734C51.249 18.9934 51.0592 19.0134 50.8794 19.0434C50.6996 19.0633 50.5199 19.0933 50.3401 19.1133C50.1703 19.1332 50.0105 19.1532 49.8407 19.1832C49.8207 19.1832 49.8108 19.1832 49.7908 19.1832C49.4312 19.2331 49.0717 19.2931 48.7121 19.353C48.5323 19.383 48.3526 19.413 48.1728 19.4429C48.0829 19.4629 47.983 19.4729 47.8931 19.4929C47.8032 19.5128 47.7034 19.5229 47.6135 19.5428C47.3838 19.5828 47.1441 19.6327 46.9143 19.6827C46.6746 19.7326 46.4349 19.7826 46.1952 19.8325C46.1852 19.8325 46.1753 19.8325 46.1653 19.8325C45.9256 19.8824 45.6759 19.9424 45.4362 20.0023C45.1865 20.0623 44.9368 20.1222 44.6771 20.1821C44.5373 20.2121 44.3974 20.2521 44.2576 20.292C43.9779 20.362 43.6983 20.4418 43.4187 20.5218C43.2788 20.5617 43.139 20.6017 42.9992 20.6416C42.8594 20.6816 42.7195 20.7216 42.5797 20.7615C42.4399 20.8015 42.3 20.8414 42.1602 20.8814C42.0304 20.9214 41.8905 20.9613 41.7607 21.0013H41.7408C41.6109 21.0512 41.4711 21.0911 41.3312 21.1411C41.2014 21.1811 41.0616 21.231 40.9218 21.281C40.7919 21.3209 40.6621 21.3709 40.5322 21.4108C40.4324 21.4408 40.3225 21.4808 40.2226 21.5107C40.1427 21.5407 40.0628 21.5707 39.9729 21.6006C39.6433 21.7105 39.3238 21.8304 39.0042 21.9502C38.9243 21.9802 38.8543 22.0102 38.7744 22.0402C38.6845 22.0801 38.5947 22.1101 38.5048 22.14C38.345 22.2 38.1851 22.2699 38.0253 22.3298C37.9354 22.3598 37.8456 22.3998 37.7557 22.4397C37.516 22.5396 37.2763 22.6395 37.0366 22.7394C36.9067 22.7993 36.7669 22.8493 36.637 22.9092C36.5272 22.9592 36.4173 23.0091 36.2975 23.0591C35.878 23.2489 35.4585 23.4387 35.049 23.6285C34.9292 23.6784 34.8193 23.7383 34.6995 23.7983C33.2513 24.4975 31.833 25.2567 30.4647 26.0858C20.2373 32.2293 12.2772 41.7491 8.12235 53.1069C7.06366 56.0038 6.25469 59.0206 5.71536 62.1273C5.20599 59.2004 4.94629 56.1836 4.94629 53.1069C4.94629 50.0302 5.20599 47.0134 5.71536 44.0866C9.49068 22.2999 26.6794 5.11825 48.4624 1.34229C51.5686 1.88171 54.5948 2.69085 57.4912 3.74972C68.8472 7.90527 78.3754 15.8667 84.5178 26.0858C89.182 33.8375 91.8887 42.8879 91.9885 52.5575C91.9885 52.4077 91.9885 52.2678 91.9785 52.128L91.8087 52.0281Z" fill="url(#paint6_linear_2371_2166)"/>
<path d="M66.4303 104.781C63.5039 105.291 60.4876 105.55 57.4014 105.55C54.3152 105.55 51.3089 105.281 48.3726 104.781C26.5795 101.015 9.39083 83.8236 5.62549 62.0369C6.16482 58.9303 6.97385 55.9135 8.03254 53.0166C12.1874 41.6587 20.1475 32.1389 30.3749 25.9955C31.7432 25.1764 33.1614 24.4072 34.6096 23.7079C34.7195 23.648 34.8393 23.5981 34.9592 23.5381C35.3786 23.3383 35.7881 23.1485 36.2076 22.9687C36.3175 22.9188 36.4274 22.8688 36.5472 22.8189C36.6771 22.7589 36.8169 22.709 36.9468 22.6491C37.1865 22.5492 37.4261 22.4493 37.6658 22.3494C37.7557 22.3094 37.8456 22.2794 37.9355 22.2395C38.0953 22.1796 38.2551 22.1096 38.4149 22.0497C38.5048 22.0197 38.5947 21.9798 38.6846 21.9498C38.7645 21.9198 38.8344 21.8899 38.9143 21.8599C39.2339 21.74 39.5535 21.6202 39.8831 21.5103C39.963 21.4803 40.0429 21.4503 40.1328 21.4204C40.2326 21.3804 40.3426 21.3505 40.4424 21.3205C40.5723 21.2705 40.7021 21.2306 40.8319 21.1906C40.9717 21.1407 41.1016 21.1007 41.2414 21.0508C41.3813 21.0108 41.5111 20.9608 41.6509 20.9209H41.6709C41.8007 20.8709 41.9405 20.831 42.0704 20.7911C42.2102 20.7511 42.3501 20.7111 42.4899 20.6712C42.6297 20.6312 42.7695 20.5912 42.9093 20.5513C43.0492 20.5113 43.189 20.4714 43.3288 20.4314C43.6085 20.3515 43.8881 20.2816 44.1678 20.2017C44.3076 20.1717 44.4474 20.1317 44.5873 20.0918C44.837 20.0319 45.0867 19.9719 45.3463 19.912C45.586 19.8521 45.8357 19.8021 46.0754 19.7422C46.0854 19.7422 46.0954 19.7422 46.1054 19.7422C46.3451 19.6922 46.5848 19.6423 46.8245 19.5923C47.0542 19.5424 47.2839 19.5024 47.5236 19.4525C47.6135 19.4325 47.7134 19.4225 47.8033 19.4025C47.8932 19.3825 47.993 19.3726 48.0829 19.3526C48.2627 19.3226 48.4425 19.2927 48.6222 19.2627C48.9818 19.2028 49.3414 19.1428 49.7009 19.0929C49.7209 19.0929 49.7309 19.0929 49.7509 19.0929C49.9107 19.0729 50.0804 19.0429 50.2502 19.0229C50.43 19.0029 50.6098 18.973 50.7896 18.953C50.9694 18.933 51.1491 18.9131 51.3389 18.8831C51.6985 18.8431 52.068 18.8032 52.4375 18.7732C53.9057 18.6333 55.3839 18.5534 56.892 18.5435C38.2751 18.8331 23.2337 33.8671 22.9441 52.4871C22.9441 52.5471 22.9441 52.597 22.9441 52.657C22.9441 52.7868 22.9441 52.9067 22.9441 53.0366C22.9441 53.1664 22.9441 53.2863 22.9441 53.4161C22.9441 53.4761 22.9441 53.526 22.9441 53.586C23.0439 63.2656 25.7606 72.306 30.4148 80.0577C36.5572 90.2768 46.0854 98.2383 57.4413 102.394C60.3378 103.453 63.354 104.262 66.4701 104.801L66.4303 104.781Z" fill="url(#paint7_linear_2371_2166)"/>
<path d="M109.876 53.2174C109.876 56.2941 109.607 59.3109 109.107 62.2377C105.332 84.0245 88.1433 101.216 66.3503 104.982C63.2441 104.443 60.2179 103.633 57.3215 102.575C45.9655 98.4191 36.4373 90.4576 30.295 80.2385C25.6407 72.4868 22.9241 63.4365 22.8242 53.7668C23.1139 72.3869 38.1552 87.4208 56.7722 87.7105C56.8321 87.7105 56.882 87.7105 56.942 87.7105C57.0718 87.7105 57.1916 87.7105 57.3215 87.7105C57.4513 87.7105 57.5712 87.7105 57.701 87.7105C57.7609 87.7105 57.8109 87.7105 57.8708 87.7105C67.5488 87.6106 76.5976 84.9035 84.348 80.2485C94.5754 74.1051 102.535 64.5852 106.69 53.2274C107.749 50.3305 108.568 47.3137 109.097 44.207C109.607 47.1439 109.866 50.1507 109.866 53.2274L109.876 53.2174Z" fill="url(#paint8_linear_2371_2166)"/>
</g>
</g>
</g>
<defs>
<filter id="filter0_d_2371_2166" x="0.956055" y="0.522461" width="112.92" height="113" filterUnits="userSpaceOnUse" color-interpolation-filters="sRGB">
<feFlood flood-opacity="0" result="BackgroundImageFix"/>
<feColorMatrix in="SourceAlpha" type="matrix" values="0 0 0 0 0 0 0 0 0 0 0 0 0 0 0 0 0 0 127 0" result="hardAlpha"/>
<feOffset dy="4"/>
<feGaussianBlur stdDeviation="2"/>
<feComposite in2="hardAlpha" operator="out"/>
<feColorMatrix type="matrix" values="0 0 0 0 0 0 0 0 0 0 0 0 0 0 0 0 0 0 0.25 0"/>
<feBlend mode="normal" in2="BackgroundImageFix" result="effect1_dropShadow_2371_2166"/>
<feBlend mode="normal" in="SourceGraphic" in2="effect1_dropShadow_2371_2166" result="shape"/>
</filter>
<linearGradient id="paint0_linear_2371_2166" x1="36.0278" y1="53.0081" x2="53.9855" y2="53.0081" gradientUnits="userSpaceOnUse">
<stop stop-color="#231F20"/>
<stop offset="0.04" stop-color="#2D292A"/>
<stop offset="0.31" stop-color="#777475"/>
<stop offset="0.55" stop-color="#B1B0B0"/>
<stop offset="0.75" stop-color="#DBDADB"/>
<stop offset="0.91" stop-color="#F5F5F5"/>
<stop offset="1" stop-color="white"/>
</linearGradient>
<linearGradient id="paint1_linear_2371_2166" x1="75.299" y1="53.0079" x2="39.9827" y2="53.0079" gradientUnits="userSpaceOnUse">
<stop stop-color="#231F20"/>
<stop offset="0.09" stop-color="#2A2728"/>
<stop offset="0.24" stop-color="#403D3E"/>
<stop offset="0.42" stop-color="#646162"/>
<stop offset="0.63" stop-color="#959494"/>
<stop offset="0.86" stop-color="#D4D3D3"/>
<stop offset="1" stop-color="white"/>
</linearGradient>
<linearGradient id="paint2_linear_2371_2166" x1="6.98377" y1="47.0739" x2="79.1867" y2="23.6161" gradientUnits="userSpaceOnUse">
<stop stop-color="white"/>
<stop offset="0.5" stop-color="white"/>
<stop offset="0.57" stop-color="#FAFAFA"/>
<stop offset="0.65" stop-color="#ECECEC"/>
<stop offset="0.73" stop-color="#D5D5D6"/>
<stop offset="0.82" stop-color="#B5B6B6"/>
<stop offset="0.91" stop-color="#8C8D8E"/>
<stop offset="1" stop-color="#58595B"/>
</linearGradient>
<linearGradient id="paint3_linear_2371_2166" x1="26.8692" y1="31.0306" x2="63.0449" y2="120.561" gradientUnits="userSpaceOnUse">
<stop stop-color="#58595B"/>
<stop offset="0.09" stop-color="#8A8B8C"/>
<stop offset="0.19" stop-color="#BCBCBD"/>
<stop offset="0.27" stop-color="#E0E0E1"/>
<stop offset="0.34" stop-color="#F6F6F7"/>
<stop offset="0.39" stop-color="white"/>
<stop offset="1" stop-color="white"/>
</linearGradient>
<linearGradient id="paint4_linear_2371_2166" x1="35.0591" y1="80.7085" x2="113.912" y2="69.634" gradientUnits="userSpaceOnUse">
<stop stop-color="#58595B"/>
<stop offset="0.09" stop-color="#8A8B8C"/>
<stop offset="0.19" stop-color="#BCBCBD"/>
<stop offset="0.27" stop-color="#E0E0E1"/>
<stop offset="0.34" stop-color="#F6F6F7"/>
<stop offset="0.39" stop-color="white"/>
<stop offset="1" stop-color="white"/>
</linearGradient>
<linearGradient id="paint5_linear_2371_2166" x1="87.5042" y1="77.2318" x2="60.5394" y2="-5.73683" gradientUnits="userSpaceOnUse">
<stop stop-color="#58595B"/>
<stop offset="0.09" stop-color="#8A8B8C"/>
<stop offset="0.19" stop-color="#BCBCBD"/>
<stop offset="0.27" stop-color="#E0E0E1"/>
<stop offset="0.34" stop-color="#F6F6F7"/>
<stop offset="0.39" stop-color="white"/>
<stop offset="1" stop-color="white"/>
</linearGradient>
<linearGradient id="paint6_linear_2371_2166" x1="6.98377" y1="47.0734" x2="79.1867" y2="23.6156" gradientUnits="userSpaceOnUse">
<stop stop-color="white"/>
<stop offset="0.5" stop-color="white"/>
<stop offset="0.57" stop-color="#FAFAFA"/>
<stop offset="0.65" stop-color="#ECECEC"/>
<stop offset="0.73" stop-color="#D5D5D6"/>
<stop offset="0.82" stop-color="#B5B6B6"/>
<stop offset="0.91" stop-color="#8C8D8E"/>
<stop offset="1" stop-color="#58595B"/>
</linearGradient>
<linearGradient id="paint7_linear_2371_2166" x1="26.8692" y1="31.0301" x2="63.0449" y2="120.56" gradientUnits="userSpaceOnUse">
<stop stop-color="#58595B"/>
<stop offset="0.09" stop-color="#8A8B8C"/>
<stop offset="0.19" stop-color="#BCBCBD"/>
<stop offset="0.27" stop-color="#E0E0E1"/>
<stop offset="0.34" stop-color="#F6F6F7"/>
<stop offset="0.39" stop-color="white"/>
<stop offset="1" stop-color="white"/>
</linearGradient>
<linearGradient id="paint8_linear_2371_2166" x1="35.0591" y1="80.708" x2="113.912" y2="69.6335" gradientUnits="userSpaceOnUse">
<stop stop-color="#58595B"/>
<stop offset="0.09" stop-color="#8A8B8C"/>
<stop offset="0.19" stop-color="#BCBCBD"/>
<stop offset="0.27" stop-color="#E0E0E1"/>
<stop offset="0.34" stop-color="#F6F6F7"/>
<stop offset="0.39" stop-color="white"/>
<stop offset="1" stop-color="white"/>
</linearGradient>
</defs>
</svg>
