<svg width="24" height="24" viewBox="0 0 24 24" fill="none" xmlns="http://www.w3.org/2000/svg">
<path fill-rule="evenodd" clip-rule="evenodd" d="M10.2906 14.5639C7.93037 14.5639 6.01704 16.4772 6.01704 18.8375V19.6922C6.01704 20.1642 5.63437 20.5469 5.16233 20.5469C4.69028 20.5469 4.30762 20.1642 4.30762 19.6922V18.8375C4.30762 15.5332 6.98628 12.8545 10.2906 12.8545H13.7094C17.0137 12.8545 19.6924 15.5332 19.6924 18.8375V19.6922C19.6924 20.1642 19.3097 20.5469 18.8377 20.5469C18.3656 20.5469 17.983 20.1642 17.983 19.6922V18.8375C17.983 16.4772 16.0696 14.5639 13.7094 14.5639H10.2906Z" fill="white"/>
<path fill-rule="evenodd" clip-rule="evenodd" d="M12.0001 5.16254C10.584 5.16254 9.43598 6.31054 9.43598 7.72667C9.43598 9.1428 10.584 10.2908 12.0001 10.2908C13.4162 10.2908 14.5642 9.1428 14.5642 7.72667C14.5642 6.31055 13.4162 5.16254 12.0001 5.16254ZM7.72656 7.72667C7.72656 5.36646 9.63989 3.45312 12.0001 3.45312C14.3603 3.45312 16.2737 5.36645 16.2737 7.72667C16.2737 10.0869 14.3603 12.0002 12.0001 12.0002C9.63989 12.0002 7.72656 10.0869 7.72656 7.72667Z" fill="white"/>
</svg>
