<svg width="24" height="24" viewBox="0 0 24 24" fill="none" xmlns="http://www.w3.org/2000/svg">
<path d="M2 11.9999C2 12.5499 2.446 12.9949 2.995 12.9949H21.005C21.2689 12.9949 21.522 12.8901 21.7086 12.7035C21.8952 12.5169 22 12.2638 22 11.9999C22 11.736 21.8952 11.4829 21.7086 11.2963C21.522 11.1097 21.2689 11.0049 21.005 11.0049H2.995C2.445 11.0049 2 11.4509 2 11.9999Z" fill="white"/>
<path d="M2.29143 6.69857C2.47803 6.88517 2.73111 6.99 2.995 6.99H15.005C15.1357 6.99 15.2651 6.96426 15.3858 6.91426C15.5065 6.86426 15.6162 6.79097 15.7086 6.69857C15.801 6.60618 15.8743 6.49649 15.9243 6.37577C15.9743 6.25505 16 6.12567 16 5.995C16 5.86433 15.9743 5.73495 15.9243 5.61423C15.8743 5.49351 15.801 5.38382 15.7086 5.29143C15.6162 5.19903 15.5065 5.12574 15.3858 5.07574C15.2651 5.02574 15.1357 5 15.005 5H2.995C2.73111 5 2.47803 5.10483 2.29143 5.29143C2.10483 5.47803 2 5.73111 2 5.995C2 6.25889 2.10483 6.51197 2.29143 6.69857Z" fill="white"/>
<path d="M2.6965 18.9998C2.3122 18.9998 2 18.5548 2 18.0048C2 17.4548 2.3115 17.0098 2.6965 17.0098H8.3035C8.48822 17.0098 8.66538 17.1146 8.796 17.3012C8.92662 17.4878 9 17.7409 9 18.0048C9 18.2687 8.92662 18.5217 8.796 18.7083C8.66538 18.8949 8.48822 18.9998 8.3035 18.9998H2.6965Z" fill="white"/>
</svg>
