<svg width="24" height="24" viewBox="0 0 24 24" fill="none" xmlns="http://www.w3.org/2000/svg">
<path d="M22 11.9999C22 12.5499 21.554 12.9949 21.005 12.9949H2.995C2.73111 12.9949 2.47803 12.8901 2.29143 12.7035C2.10483 12.5169 2 12.2638 2 11.9999C2 11.736 2.10483 11.4829 2.29143 11.2963C2.47803 11.1097 2.73111 11.0049 2.995 11.0049H21.005C21.555 11.0049 22 11.4509 22 11.9999Z" fill="white"/>
<path d="M21.7086 6.69857C21.522 6.88517 21.2689 6.99 21.005 6.99H8.995C8.86433 6.99 8.73495 6.96426 8.61423 6.91426C8.49351 6.86426 8.38382 6.79097 8.29143 6.69857C8.19903 6.60618 8.12574 6.49649 8.07574 6.37577C8.02574 6.25505 8 6.12567 8 5.995C8 5.86433 8.02574 5.73495 8.07574 5.61423C8.12574 5.49351 8.19903 5.38382 8.29143 5.29143C8.38382 5.19903 8.49351 5.12574 8.61423 5.07574C8.73495 5.02574 8.86433 5 8.995 5H21.005C21.2689 5 21.522 5.10483 21.7086 5.29143C21.8952 5.47803 22 5.73111 22 5.995C22 6.25889 21.8952 6.51197 21.7086 6.69857Z" fill="white"/>
<path d="M21.3035 18.9998C21.6878 18.9998 22 18.5548 22 18.0048C22 17.4548 21.6885 17.0098 21.3035 17.0098H15.6965C15.5118 17.0098 15.3346 17.1146 15.204 17.3012C15.0734 17.4878 15 17.7409 15 18.0048C15 18.2687 15.0734 18.5217 15.204 18.7083C15.3346 18.8949 15.5118 18.9998 15.6965 18.9998H21.3035Z" fill="white"/>
</svg>
