<svg width="18" height="14" viewBox="0 0 18 14" fill="none" xmlns="http://www.w3.org/2000/svg">
<path d="M5.1084 4.375H3.6C3.12261 4.375 2.66477 4.55937 2.32721 4.88756C1.98964 5.21575 1.8 5.66087 1.8 6.125V10.5C1.8 10.9641 1.98964 11.4092 2.32721 11.7374C2.66477 12.0656 3.12261 12.25 3.6 12.25H14.4C14.8774 12.25 15.3352 12.0656 15.6728 11.7374C16.0104 11.4092 16.2 10.9641 16.2 10.5V6.125C16.2 5.66087 16.0104 5.21575 15.6728 4.88756C15.3352 4.55937 14.8774 4.375 14.4 4.375H12.8916L12.5433 3.06163C12.4431 2.68621 12.2175 2.35376 11.902 2.11639C11.5865 1.87902 11.1989 1.75015 10.8 1.75H7.2C6.80099 1.74985 6.41324 1.8786 6.09768 2.11602C5.78212 2.35344 5.55665 2.68607 5.4567 3.06163L5.1084 4.375ZM3.7134 2.625C4.113 1.11563 5.5224 0 7.2 0H10.8C11.5982 0.000103204 12.3737 0.257971 13.0048 0.733101C13.6359 1.20823 14.0868 1.87371 14.2866 2.625H14.4C15.3548 2.625 16.2705 2.99375 16.9456 3.65013C17.6207 4.3065 18 5.19674 18 6.125V10.5C18 11.4283 17.6207 12.3185 16.9456 12.9749C16.2705 13.6313 15.3548 14 14.4 14H3.6C2.64522 14 1.72955 13.6313 1.05442 12.9749C0.379285 12.3185 0 11.4283 0 10.5V6.125C0 5.19674 0.379285 4.3065 1.05442 3.65013C1.72955 2.99375 2.64522 2.625 3.6 2.625H3.7134ZM9 11.375C8.04522 11.375 7.12955 11.0063 6.45442 10.3499C5.77928 9.6935 5.4 8.80326 5.4 7.875C5.4 6.94674 5.77928 6.0565 6.45442 5.40013C7.12955 4.74375 8.04522 4.375 9 4.375C9.95478 4.375 10.8705 4.74375 11.5456 5.40013C12.2207 6.0565 12.6 6.94674 12.6 7.875C12.6 8.80326 12.2207 9.6935 11.5456 10.3499C10.8705 11.0063 9.95478 11.375 9 11.375ZM9 9.625C9.47739 9.625 9.93523 9.44063 10.2728 9.11244C10.6104 8.78425 10.8 8.33913 10.8 7.875C10.8 7.41087 10.6104 6.96575 10.2728 6.63756C9.93523 6.30937 9.47739 6.125 9 6.125C8.52261 6.125 8.06477 6.30937 7.72721 6.63756C7.38964 6.96575 7.2 7.41087 7.2 7.875C7.2 8.33913 7.38964 8.78425 7.72721 9.11244C8.06477 9.44063 8.52261 9.625 9 9.625ZM14.4 7C14.6387 7 14.8676 6.90781 15.0364 6.74372C15.2052 6.57962 15.3 6.35706 15.3 6.125C15.3 5.89294 15.2052 5.67038 15.0364 5.50628C14.8676 5.34219 14.6387 5.25 14.4 5.25C14.1613 5.25 13.9324 5.34219 13.7636 5.50628C13.5948 5.67038 13.5 5.89294 13.5 6.125C13.5 6.35706 13.5948 6.57962 13.7636 6.74372C13.9324 6.90781 14.1613 7 14.4 7Z" fill="#1B94D2"/>
</svg>
