<svg width="9" height="16" viewBox="0 0 9 16" fill="none" xmlns="http://www.w3.org/2000/svg">
<path fill-rule="evenodd" clip-rule="evenodd" d="M1.62 3.79268C1.83274 3.79268 2.0434 3.7501 2.23995 3.66736C2.4365 3.58463 2.61508 3.46336 2.76551 3.31048C2.91594 3.1576 3.03527 2.97611 3.11668 2.77637C3.1981 2.57663 3.24 2.36254 3.24 2.14634C3.24 1.93014 3.1981 1.71606 3.11668 1.51631C3.03527 1.31657 2.91594 1.13508 2.76551 0.982202C2.61508 0.829325 2.4365 0.708057 2.23995 0.62532C2.0434 0.542584 1.83274 0.5 1.62 0.5C1.19035 0.5 0.778296 0.673453 0.474487 0.982202C0.170678 1.29095 0 1.7097 0 2.14634C0 2.58298 0.170678 3.00173 0.474487 3.31048C0.778296 3.61923 1.19035 3.79268 1.62 3.79268ZM7.38 3.79268C7.59274 3.79268 7.8034 3.7501 7.99995 3.66736C8.1965 3.58463 8.37508 3.46336 8.52551 3.31048C8.67594 3.1576 8.79527 2.97611 8.87669 2.77637C8.9581 2.57663 9 2.36254 9 2.14634C9 1.93014 8.9581 1.71606 8.87669 1.51631C8.79527 1.31657 8.67594 1.13508 8.52551 0.982202C8.37508 0.829325 8.1965 0.708057 7.99995 0.62532C7.8034 0.542584 7.59274 0.5 7.38 0.5C6.95035 0.5 6.5383 0.673453 6.23449 0.982202C5.93068 1.29095 5.76 1.7097 5.76 2.14634C5.76 2.58298 5.93068 3.00173 6.23449 3.31048C6.5383 3.61923 6.95035 3.79268 7.38 3.79268ZM9 8C9 8.43664 8.82932 8.85539 8.52551 9.16414C8.2217 9.47289 7.80965 9.64634 7.38 9.64634C6.95035 9.64634 6.5383 9.47289 6.23449 9.16414C5.93068 8.85539 5.76 8.43664 5.76 8C5.76 7.56336 5.93068 7.14461 6.23449 6.83586C6.5383 6.52711 6.95035 6.35366 7.38 6.35366C7.80965 6.35366 8.2217 6.52711 8.52551 6.83586C8.82932 7.14461 9 7.56336 9 8ZM1.62 9.64634C2.04965 9.64634 2.4617 9.47289 2.76551 9.16414C3.06932 8.85539 3.24 8.43664 3.24 8C3.24 7.56336 3.06932 7.14461 2.76551 6.83586C2.4617 6.52711 2.04965 6.35366 1.62 6.35366C1.19035 6.35366 0.778296 6.52711 0.474487 6.83586C0.170678 7.14461 0 7.56336 0 8C0 8.43664 0.170678 8.85539 0.474487 9.16414C0.778296 9.47289 1.19035 9.64634 1.62 9.64634ZM9 13.8537C9 14.2903 8.82932 14.709 8.52551 15.0178C8.2217 15.3265 7.80965 15.5 7.38 15.5C6.95035 15.5 6.5383 15.3265 6.23449 15.0178C5.93068 14.709 5.76 14.2903 5.76 13.8537C5.76 13.417 5.93068 12.9983 6.23449 12.6895C6.5383 12.3808 6.95035 12.2073 7.38 12.2073C7.80965 12.2073 8.2217 12.3808 8.52551 12.6895C8.82932 12.9983 9 13.417 9 13.8537ZM1.62 15.5C2.04965 15.5 2.4617 15.3265 2.76551 15.0178C3.06932 14.709 3.24 14.2903 3.24 13.8537C3.24 13.417 3.06932 12.9983 2.76551 12.6895C2.4617 12.3808 2.04965 12.2073 1.62 12.2073C1.19035 12.2073 0.778296 12.3808 0.474487 12.6895C0.170678 12.9983 0 13.417 0 13.8537C0 14.2903 0.170678 14.709 0.474487 15.0178C0.778296 15.3265 1.19035 15.5 1.62 15.5Z" fill="white"/>
</svg>
