<svg width="16" height="16" viewBox="0 0 16 16" fill="none" xmlns="http://www.w3.org/2000/svg">
<g id="Group 72">
<g id="Group 76">
<path id="Line 41 (Stroke)" fill-rule="evenodd" clip-rule="evenodd" d="M7.5679 2.92444C7.80654 2.69185 8.19346 2.69185 8.4321 2.92444L12.321 6.71474C12.5597 6.94734 12.5597 7.32444 12.321 7.55703C12.0824 7.78963 11.6955 7.78963 11.4568 7.55703L8.61108 4.78347L8.61108 9.2C8.61108 9.36569 8.47677 9.5 8.31108 9.5L7.68892 9.5C7.52323 9.5 7.38892 9.36569 7.38892 9.2L7.38892 4.78347L4.54319 7.55703C4.30454 7.78963 3.91763 7.78963 3.67898 7.55703C3.44034 7.32444 3.44034 6.94734 3.67898 6.71474L7.5679 2.92444Z" fill="white"/>
<rect id="Rectangle 232" x="7.38867" y="10.2214" width="1.22217" height="1.61547" rx="0.3" fill="white"/>
<rect id="Rectangle 233" x="7.38867" y="12.4429" width="1.22217" height="0.807736" rx="0.3" fill="white"/>
</g>
<path id="Ellipse 45 (Stroke)" fill-rule="evenodd" clip-rule="evenodd" d="M8 14.6964C11.6983 14.6964 14.6964 11.6983 14.6964 8C14.6964 4.30166 11.6983 1.30357 8 1.30357C4.30166 1.30357 1.30357 4.30166 1.30357 8C1.30357 11.6983 4.30166 14.6964 8 14.6964ZM8 15.5C12.1421 15.5 15.5 12.1421 15.5 8C15.5 3.85786 12.1421 0.5 8 0.5C3.85786 0.5 0.5 3.85786 0.5 8C0.5 12.1421 3.85786 15.5 8 15.5Z" fill="white"/>
</g>
</svg>
