<svg width="22" height="22" viewBox="0 0 22 22" fill="none" xmlns="http://www.w3.org/2000/svg">
<path fill-rule="evenodd" clip-rule="evenodd" d="M5.15625 0H16.8438C19.6915 0 22 2.30853 22 5.15625V16.8438C22 19.6915 19.6915 22 16.8438 22H5.15625C2.30853 22 0 19.6915 0 16.8438V5.15625C0 2.30853 2.30853 0 5.15625 0ZM7.45731 2.45816C8.37392 2.41648 8.66688 2.40625 11.0008 2.40625H10.9981C13.3328 2.40625 13.6246 2.41648 14.5413 2.45816C15.4562 2.50001 16.0811 2.6449 16.6289 2.85751C17.1946 3.07673 17.6727 3.37038 18.1507 3.84837C18.6288 4.32609 18.9223 4.80554 19.1426 5.37084C19.3538 5.91723 19.4989 6.54165 19.5418 7.45654C19.583 8.37323 19.5938 8.66611 19.5938 11.0001C19.5938 13.3341 19.583 13.6262 19.5418 14.5429C19.4989 15.4574 19.3538 16.0821 19.1426 16.6287C18.9223 17.1938 18.6288 17.6732 18.1507 18.1509C17.6732 18.6289 17.1945 18.9233 16.6294 19.1427C16.0826 19.3553 15.4574 19.5001 14.5425 19.542C13.6259 19.5837 13.3339 19.5939 10.9997 19.5939C8.66594 19.5939 8.37323 19.5837 7.45654 19.542C6.54182 19.5001 5.91723 19.3553 5.37041 19.1427C4.80554 18.9233 4.32609 18.6289 3.84854 18.1509C3.37073 17.6732 3.07708 17.1938 2.85742 16.6285C2.64507 16.0821 2.50027 15.4576 2.45816 14.5427C2.41656 13.6261 2.40625 13.3341 2.40625 11.0001C2.40625 8.66611 2.41699 8.37306 2.45798 7.45637C2.49915 6.54191 2.64412 5.91714 2.85725 5.37058C3.07742 4.80554 3.37107 4.32609 3.84914 3.84837C4.32678 3.37055 4.80623 3.07691 5.37152 2.85742C5.91791 2.6449 6.54242 2.50009 7.45731 2.45816ZM10.7144 3.95485C10.5406 3.95477 10.3796 3.9547 10.2298 3.95493V3.95278C8.62821 3.95459 8.32098 3.96533 7.52821 4.00116C6.69032 4.03966 6.23537 4.17931 5.93244 4.29748C5.53137 4.45354 5.24494 4.63977 4.94416 4.94055C4.64329 5.24133 4.4568 5.52776 4.301 5.92883C4.18335 6.23176 4.04336 6.68654 4.00503 7.52443C3.96387 8.43038 3.95562 8.70109 3.95562 10.996C3.95562 13.2909 3.96387 13.563 4.00503 14.469C4.04319 15.3068 4.18335 15.7616 4.301 16.0642C4.45715 16.4655 4.64329 16.7512 4.94407 17.052C5.24485 17.3528 5.53137 17.5389 5.93235 17.6947C6.23554 17.8124 6.69032 17.9523 7.52821 17.991C8.43408 18.0322 8.70607 18.0411 11.0008 18.0411C13.2954 18.0411 13.5675 18.0322 14.4734 17.991C15.3113 17.9527 15.7664 17.813 16.069 17.6949C16.4703 17.5391 16.7558 17.3529 17.0566 17.0521C17.3574 16.7515 17.544 16.466 17.6997 16.0649C17.8173 15.7623 17.9573 15.3075 17.9957 14.4696C18.0368 13.5638 18.0458 13.2916 18.0458 10.9981C18.0458 8.70461 18.0368 8.43253 17.9957 7.52658C17.9575 6.68869 17.8173 6.23391 17.6997 5.93141C17.5435 5.53034 17.3574 5.24391 17.0566 4.94313C16.756 4.64226 16.4701 4.45603 16.069 4.30031C15.7661 4.18266 15.3113 4.04267 14.4734 4.00434C13.5673 3.96318 13.2954 3.95493 11.0008 3.95493C10.9016 3.95493 10.8062 3.95489 10.7144 3.95485ZM14.5569 6.41274C14.5569 5.84332 15.0188 5.38184 15.5881 5.38184V5.38149C16.1575 5.38149 16.6194 5.84341 16.6194 6.41274C16.6194 6.98208 16.1575 7.44399 15.5881 7.44399C15.0188 7.44399 14.5569 6.98208 14.5569 6.41274ZM6.58754 11.0001C6.58754 8.56287 8.56349 6.58686 11.0006 6.58677C13.4379 6.58677 15.4134 8.5629 15.4134 11.0001C15.4134 13.4374 13.438 15.4125 11.0008 15.4125C8.56359 15.4125 6.58754 13.4374 6.58754 11.0001ZM13.8654 11.0001C13.8654 9.41789 12.5828 8.13545 11.0008 8.13545C9.41866 8.13545 8.13622 9.41789 8.13622 11.0001C8.13622 12.5821 9.41866 13.8647 11.0008 13.8647C12.5828 13.8647 13.8654 12.5821 13.8654 11.0001Z" fill="white"/>
</svg>
