<svg width="23" height="22" viewBox="0 0 23 22" fill="none" xmlns="http://www.w3.org/2000/svg">
<mask id="mask0_1540_16462" style="mask-type:luminance" maskUnits="userSpaceOnUse" x="1" y="1" width="21" height="21">
<path d="M11.1437 7.89273C10.3817 7.93019 9.64466 8.105 8.9451 8.3922C8.69526 8.50458 8.45791 8.61696 8.22056 8.75432C8.12062 8.81675 8.05816 8.92913 8.05816 9.04151V12.9374C8.05816 13.0623 8.12062 13.1622 8.22056 13.2246C8.45791 13.362 8.69526 13.4868 8.9451 13.5867C9.64466 13.8864 10.3817 14.0487 11.1437 14.0862C11.3311 14.0987 11.4935 13.9488 11.4935 13.749V8.21738C11.4935 8.12998 11.456 8.04257 11.3936 7.98013C11.3311 7.9177 11.2437 7.88024 11.1562 7.88024C11.1562 7.89273 11.1437 7.89273 11.1437 7.89273ZM7.58345 1.78667C4.01069 3.31006 1.49976 6.85632 1.49976 10.9895C1.49976 15.1226 4.01069 18.6689 7.58345 20.1922C7.79582 20.2797 8.04566 20.1298 8.04566 19.8801V16.7459C8.04566 16.6335 7.9832 16.5336 7.89576 16.4712C7.52099 16.2214 7.17121 15.9467 6.85891 15.6221C6.25928 15.0227 5.78458 14.3234 5.45978 13.5368C5.12249 12.7251 4.9476 11.876 4.9476 10.9895C4.9476 10.1029 5.12249 9.2413 5.45978 8.44215C5.78458 7.66796 6.25928 6.95621 6.85891 6.35685C7.1837 6.03219 7.52099 5.75748 7.89576 5.50774C7.9957 5.44531 8.04566 5.34541 8.04566 5.23303V2.09884C8.04566 1.97397 7.9832 1.87408 7.89576 1.82413C7.84579 1.78667 7.78333 1.77418 7.70837 1.77418C7.6709 1.7617 7.63342 1.7617 7.58345 1.78667ZM11.8183 1C11.6309 1 11.4935 1.14984 11.4935 1.33714V4.10922C11.4935 4.28403 11.6309 4.43388 11.8058 4.44636C12.5803 4.48382 13.3299 4.65864 14.0419 4.95832C14.8164 5.28298 15.516 5.75748 16.1281 6.36933C16.7277 6.9687 17.2024 7.66796 17.5272 8.45463C17.8645 9.26628 18.0394 10.1154 18.0394 11.0019C18.0394 11.8885 17.8645 12.7501 17.5272 13.5493C17.2024 14.3234 16.7277 15.0352 16.1281 15.6346C15.5285 16.2339 14.8289 16.7084 14.0419 17.0456C13.3299 17.3453 12.5803 17.5201 11.8058 17.5575C11.6309 17.57 11.4935 17.7074 11.4935 17.8947V20.6667C11.4935 20.6792 11.4935 20.6917 11.4935 20.7042C11.506 20.8041 11.556 20.879 11.6309 20.9415C11.6434 20.9415 11.6434 20.9539 11.6559 20.9539C11.6809 20.9664 11.7184 20.9789 11.7434 20.9914C11.7683 20.9914 11.7933 21.0039 11.8308 21.0039H11.8433C17.2024 20.8291 21.4998 16.4212 21.4998 11.0144C21.4998 5.60764 17.2024 1.17482 11.8183 1C11.8308 1 11.8308 1 11.8183 1Z" fill="white"/>
</mask>
<g mask="url(#mask0_1540_16462)">
<path d="M-7.14502 15.9842L6.49645 -7.65332L30.1317 5.99478L16.4902 29.6323L-7.14502 15.9842Z" fill="white"/>
</g>
<mask id="mask1_1540_16462" style="mask-type:luminance" maskUnits="userSpaceOnUse" x="8" y="7" width="4" height="8">
<path d="M11.1442 7.89237C11.1317 7.89237 11.1068 7.89237 11.0943 7.89237C10.3697 7.94232 10.1948 8.10465 9.52025 8.39184C9.2704 8.50422 9.03305 8.61661 8.7957 8.75396C8.69576 8.81639 8.6333 8.92878 8.6333 9.04116V12.937C8.6333 13.0619 8.69576 13.1618 8.7957 13.2242C9.03305 13.3616 9.2704 13.4865 9.52025 13.5864C10.2073 13.8736 10.3822 14.0484 11.0943 14.0858C11.1068 14.0858 11.1317 14.0858 11.1442 14.0858C11.3316 14.0983 11.494 13.9485 11.494 13.7487V8.21703C11.494 8.12962 11.4565 8.04221 11.3941 7.97978C11.3316 7.91734 11.2442 7.87988 11.1567 7.87988C11.1567 7.89237 11.1442 7.89237 11.1442 7.89237Z" fill="white"/>
</mask>
<g mask="url(#mask1_1540_16462)">
<path d="M11.4938 7.89209H8.62061V14.098H11.4938V7.89209Z" fill="white"/>
</g>
<mask id="mask2_1540_16462" style="mask-type:luminance" maskUnits="userSpaceOnUse" x="1" y="1" width="18" height="12">
<path d="M18.0518 10.8893C18.0518 10.8768 18.0518 10.8644 18.0518 10.8519C18.0518 10.8644 18.0518 10.8768 18.0518 10.8893ZM7.58337 1.78643C6.04683 2.43574 4.71017 3.47215 3.67332 4.75829C3.66082 4.78327 3.64833 4.79575 3.62335 4.82073L3.61085 4.83321C3.59836 4.8457 3.58587 4.87067 3.57338 4.88316C3.57338 4.89565 3.56089 4.89565 3.56089 4.90814C3.54839 4.92062 3.5359 4.93311 3.52341 4.95808C3.51092 4.97057 3.51092 4.97057 3.49842 4.98306C3.48593 4.99554 3.47344 5.00803 3.46095 5.033C3.44846 5.04549 3.44846 5.05798 3.43596 5.05798C3.42347 5.07046 3.41098 5.08295 3.41098 5.09544C3.39849 5.10792 3.39849 5.12041 3.38599 5.1329C3.3735 5.14538 3.3735 5.15787 3.36101 5.17036C3.34852 5.18285 3.33603 5.19533 3.33603 5.20782C3.32353 5.22031 3.32353 5.23279 3.31104 5.24528C3.29855 5.25777 3.28606 5.27025 3.28606 5.29523C3.27356 5.30771 3.27356 5.3202 3.26107 5.3202C3.24858 5.33269 3.23609 5.35766 3.2236 5.37015C3.2111 5.38263 3.2111 5.38263 3.19861 5.39512C3.18612 5.40761 3.17363 5.43258 3.16114 5.44507C3.16114 5.45756 3.14864 5.45756 3.14864 5.47004C3.13615 5.49502 3.12366 5.5075 3.11117 5.53248C3.11117 5.53248 3.09867 5.54496 3.09867 5.55745C3.08618 5.58242 3.07369 5.59491 3.0612 5.61988C3.0612 5.61988 3.0612 5.63237 3.04871 5.63237C3.03621 5.65734 3.01123 5.68232 2.99874 5.70729C2.32416 6.78116 1.84945 7.99238 1.63709 9.29101C1.58712 9.55323 1.56213 9.81546 1.53715 10.0777V10.0902C1.53715 10.1151 1.53715 10.1401 1.52466 10.1651C1.52466 10.1776 1.52466 10.1901 1.52466 10.2025C1.52466 10.2275 1.52466 10.24 1.52466 10.265C1.52466 10.2775 1.52466 10.29 1.52466 10.3149C1.52466 10.3274 1.52466 10.3399 1.52466 10.3524C1.52466 10.3774 1.52466 10.4023 1.52466 10.4148C1.52466 10.4273 1.52466 10.4398 1.52466 10.4523C1.52466 10.4773 1.52466 10.5022 1.52466 10.5272C1.52466 10.5397 1.52466 10.5397 1.52466 10.5522C1.52466 10.5772 1.52466 10.6021 1.52466 10.6271V10.6396C1.52466 10.6646 1.52466 10.6895 1.52466 10.7145C1.52466 10.727 1.52466 10.727 1.52466 10.7395C1.52466 10.7645 1.52466 10.7894 1.52466 10.8269V10.8394C1.52466 10.8644 1.52466 10.8893 1.52466 10.9268V10.9393C1.52466 10.9642 1.52466 11.0017 1.52466 11.0267C1.52466 11.0517 1.52466 11.0891 1.52466 11.1141V11.1266C1.52466 11.1515 1.52466 11.1765 1.52466 11.214V11.2265C1.52466 11.2514 1.52466 11.2764 1.52466 11.3139C1.52466 11.3139 1.52466 11.3264 1.52466 11.3388C1.52466 11.3638 1.52466 11.3888 1.52466 11.4138V11.4263C1.52466 11.4512 1.52466 11.4762 1.52466 11.4887C1.52466 11.5012 1.52466 11.5012 1.52466 11.5137C1.52466 11.5386 1.52466 11.5636 1.52466 11.5886C1.52466 11.6011 1.52466 11.6136 1.52466 11.626C1.52466 11.651 1.52466 11.6635 1.52466 11.6885C1.52466 11.701 1.52466 11.7135 1.52466 11.7259C1.52466 11.7384 1.52466 11.7509 1.52466 11.7759C1.52466 11.8009 1.52466 11.8133 1.52466 11.8383C1.52466 11.8508 1.52466 11.8633 1.52466 11.8758C1.52466 11.9008 1.52466 11.9257 1.53715 11.9507V11.9632C1.56213 12.2254 1.59961 12.4876 1.63709 12.7499C1.73703 12.163 1.89942 11.5886 2.0993 11.0392C2.88631 8.87894 4.39786 7.06836 6.34664 5.89459C6.60898 5.73226 6.87132 5.59491 7.14614 5.45755C7.17113 5.44507 7.19611 5.43258 7.2086 5.43258C7.28356 5.39512 7.371 5.35766 7.44596 5.3202C7.47094 5.30771 7.48343 5.30771 7.50842 5.29523C7.5334 5.28274 7.55839 5.27025 7.58337 5.25777C7.63334 5.23279 7.67082 5.22031 7.72079 5.20782C7.73328 5.19533 7.75826 5.19533 7.77075 5.18285C7.79574 5.17036 7.83322 5.15787 7.8582 5.14538C7.87069 5.14538 7.89568 5.1329 7.90817 5.12041C7.92066 5.12041 7.93315 5.10792 7.94564 5.10792C7.97063 5.09544 7.99561 5.08295 8.0206 5.08295V2.0986C8.0206 1.9113 7.8582 1.76146 7.68331 1.76146C7.67082 1.76146 7.63334 1.76146 7.58337 1.78643ZM11.4934 4.10898C11.4934 4.25882 11.5934 4.38369 11.7308 4.43364C11.7433 4.43364 11.7433 4.43364 11.7558 4.43364C11.7807 4.43364 11.7932 4.43364 11.8182 4.43364C11.8557 4.43364 11.8807 4.43364 11.9182 4.43364C11.9431 4.43364 11.9681 4.43364 11.9931 4.43364C12.0181 4.43364 12.0431 4.43364 12.0556 4.43364H12.0681H12.0806C12.1055 4.43364 12.118 4.43364 12.143 4.44612C12.1555 4.44612 12.1805 4.44612 12.193 4.44612C12.2055 4.44612 12.2055 4.44612 12.218 4.44612C12.2305 4.44612 12.2305 4.44612 12.243 4.44612C12.2555 4.44612 12.2804 4.44612 12.2929 4.45861C12.3179 4.45861 12.3429 4.45861 12.3679 4.4711C12.3804 4.4711 12.3929 4.4711 12.4054 4.4711C12.4179 4.4711 12.4428 4.4711 12.4553 4.48358C12.4803 4.48358 12.4928 4.48358 12.5178 4.49607C12.5303 4.49607 12.5303 4.49607 12.5428 4.49607C12.5428 4.49607 12.5553 4.49607 12.5678 4.49607C12.5927 4.49607 12.6052 4.50856 12.6302 4.50856C12.6552 4.50856 12.6802 4.52104 12.7052 4.52104C12.7302 4.52104 12.7551 4.53353 12.7801 4.53353C12.7801 4.53353 12.7801 4.53353 12.7926 4.53353C12.8051 4.53353 12.8176 4.53353 12.8301 4.54602C12.8301 4.54602 12.8301 4.54602 12.8426 4.54602C12.8426 4.54602 12.8426 4.54602 12.8551 4.54602C12.8676 4.54602 12.8676 4.54602 12.8801 4.54602C12.905 4.54602 12.93 4.5585 12.955 4.5585C12.98 4.57099 13.005 4.57099 13.0425 4.58348C13.055 4.58348 13.0799 4.59596 13.0924 4.59596C13.1049 4.59596 13.1049 4.59596 13.1174 4.60845C13.1174 4.60845 13.1174 4.60845 13.1299 4.60845C13.1424 4.60845 13.1424 4.60845 13.1549 4.60845C13.1674 4.60845 13.1924 4.62094 13.2049 4.62094C13.2174 4.62094 13.2298 4.63342 13.2423 4.63342C13.2548 4.63342 13.2673 4.63342 13.2798 4.64591C13.3048 4.64591 13.3173 4.6584 13.3423 4.6584H13.3548C13.3673 4.6584 13.3797 4.6584 13.3922 4.67089C13.4047 4.67089 13.4047 4.67089 13.4172 4.67089H13.4297C13.4547 4.68337 13.4797 4.68337 13.5047 4.69586C13.5047 4.69586 13.5047 4.69586 13.5172 4.69586C13.5421 4.70835 13.5546 4.70835 13.5796 4.72083C13.6046 4.73332 13.6296 4.73332 13.6546 4.74581C13.6796 4.75829 13.7045 4.75829 13.717 4.77078C13.717 4.77078 13.717 4.77078 13.7295 4.77078C13.742 4.78327 13.7545 4.78327 13.7795 4.78327C13.792 4.78327 13.792 4.78327 13.8045 4.79575C13.8045 4.79575 13.8045 4.79575 13.817 4.79575H13.8295C13.842 4.79575 13.842 4.79575 13.8545 4.80824C13.8669 4.80824 13.8794 4.82073 13.8919 4.82073C13.9169 4.83321 13.9419 4.83321 13.9544 4.8457C13.9669 4.8457 13.9794 4.85819 13.9919 4.85819C13.9919 4.85819 14.0044 4.85819 14.0044 4.87067C14.0044 4.87067 14.0168 4.87067 14.0168 4.88316C14.0168 4.88316 14.0169 4.88316 14.0293 4.88316C14.0418 4.89565 14.0668 4.89565 14.0793 4.90814C14.0793 4.90814 14.0793 4.90814 14.0918 4.90814C14.1168 4.92062 14.1293 4.92062 14.1418 4.93311C14.1418 4.93311 14.1543 4.93311 14.1543 4.9456C14.1668 4.9456 14.1668 4.95808 14.1792 4.95808C14.1917 4.95808 14.1917 4.95808 14.2042 4.97057C14.2167 4.97057 14.2167 4.98306 14.2292 4.98306H14.2417C14.2542 4.99554 14.2667 4.99554 14.2917 5.00803C14.3042 5.00803 14.3167 5.02052 14.3292 5.02052C14.3416 5.033 14.3666 5.033 14.3791 5.04549C14.3791 5.04549 14.3916 5.04549 14.3916 5.05798C14.4166 5.07046 14.4291 5.07046 14.4416 5.08295C14.4666 5.09544 14.4916 5.10792 14.5165 5.12041C14.5415 5.1329 14.554 5.14539 14.579 5.15787C14.579 5.15787 14.5915 5.15787 14.5915 5.17036C14.604 5.18285 14.629 5.19533 14.6415 5.19533C14.6664 5.20782 14.6789 5.22031 14.7039 5.23279C14.7164 5.23279 14.7164 5.24528 14.7289 5.24528C14.7289 5.24528 14.7414 5.24528 14.7414 5.25777C14.7539 5.27025 14.7664 5.27025 14.7789 5.28274C14.7789 5.28274 14.7914 5.28274 14.7914 5.29523C14.8163 5.30771 14.8288 5.3202 14.8413 5.33269C14.8413 5.33269 14.8538 5.33269 14.8538 5.34517C14.8663 5.35766 14.8913 5.37015 14.9038 5.37015C14.9163 5.37015 14.9288 5.38263 14.9413 5.39512C14.9538 5.40761 14.9663 5.40761 14.9787 5.42009C15.0037 5.43258 15.0162 5.44507 15.0412 5.45755C15.0412 5.45755 15.0412 5.45755 15.0537 5.45755C15.0662 5.45755 15.0662 5.47004 15.0787 5.47004C15.0787 5.47004 15.0787 5.47004 15.0912 5.47004L15.1037 5.48253C15.1162 5.49502 15.1287 5.49502 15.1411 5.5075C15.1536 5.51999 15.1661 5.51999 15.1786 5.53248C15.2036 5.54496 15.2161 5.55745 15.2411 5.58242H15.2536C15.2661 5.58242 15.2661 5.59491 15.2786 5.59491C15.2786 5.59491 15.2911 5.59491 15.2911 5.6074C15.2911 5.6074 15.3035 5.6074 15.3035 5.61988C15.316 5.63237 15.341 5.64486 15.3535 5.65734C15.3785 5.66983 15.391 5.68232 15.416 5.70729C15.441 5.71978 15.4535 5.73226 15.4784 5.75724C15.4909 5.75724 15.4909 5.76973 15.5034 5.78221C15.5159 5.7947 15.5284 5.7947 15.5284 5.80719L15.5409 5.81967C15.5534 5.83216 15.5659 5.84465 15.5784 5.85713H15.5909C15.5909 5.85713 15.5909 5.85713 15.6034 5.86962C15.6159 5.88211 15.6283 5.88211 15.6408 5.89459L15.6533 5.90708C15.6783 5.91957 15.6908 5.93205 15.7033 5.95703C15.7283 5.96951 15.7408 5.99449 15.7658 6.00698C15.7658 6.00698 15.7658 6.00698 15.7782 6.01946C15.7907 6.03195 15.8157 6.04444 15.8282 6.05692C15.8532 6.06941 15.8657 6.09438 15.8907 6.10687C15.9157 6.11936 15.9282 6.14433 15.9531 6.15682C15.9656 6.1693 15.9906 6.19428 16.0031 6.20676C16.0281 6.21925 16.0406 6.24423 16.0531 6.25671C16.0656 6.2692 16.0781 6.2692 16.0781 6.28169C16.0906 6.29417 16.0906 6.30666 16.103 6.30666C16.1405 6.34412 16.178 6.38158 16.2155 6.41904C16.228 6.43153 16.253 6.4565 16.2654 6.46899C16.2779 6.49396 16.3029 6.50645 16.3154 6.53142C16.3404 6.5564 16.3529 6.56888 16.3654 6.59386C16.3779 6.60634 16.3904 6.63132 16.4029 6.6438C16.4029 6.6438 16.4029 6.6438 16.4154 6.65629C16.4154 6.65629 16.4154 6.66878 16.4278 6.66878L16.4403 6.68126C16.4403 6.69375 16.4528 6.69375 16.4653 6.70624L16.4778 6.71872C16.4778 6.73121 16.4903 6.73121 16.4903 6.7437C16.4903 6.75619 16.5028 6.75618 16.5028 6.76867C16.5028 6.78116 16.5153 6.78116 16.5278 6.79365L16.5403 6.80613C16.5528 6.81862 16.5653 6.83111 16.5653 6.84359C16.5778 6.85608 16.5902 6.88105 16.6152 6.89354L16.6277 6.90603C16.6402 6.91851 16.6527 6.94349 16.6652 6.95597C16.6652 6.96846 16.6777 6.96846 16.6777 6.98095C16.6902 6.99343 16.6902 7.00592 16.7027 7.01841C16.7027 7.01841 16.7027 7.01841 16.7027 7.0309C16.7152 7.04338 16.7152 7.05587 16.7277 7.06836C16.7401 7.08084 16.7401 7.09333 16.7526 7.09333C16.7651 7.10582 16.7776 7.13079 16.7901 7.14328C16.7901 7.14328 16.7901 7.15576 16.8026 7.15576C16.8026 7.15576 16.8026 7.16825 16.8151 7.16825C16.8276 7.19322 16.8401 7.20571 16.8526 7.2182C16.8651 7.24317 16.8776 7.25566 16.8901 7.26814V7.28063C16.8901 7.28063 16.8901 7.29312 16.9025 7.29312C16.915 7.30561 16.9275 7.33058 16.94 7.34307C16.9525 7.35555 16.9525 7.36804 16.965 7.36804C16.965 7.36804 16.965 7.38053 16.9775 7.38053C16.9775 7.39301 16.99 7.39301 16.99 7.4055C16.99 7.41799 17.0025 7.41799 17.0025 7.41799C17.0025 7.41799 17.015 7.43047 17.015 7.44296C17.015 7.45545 17.0275 7.46793 17.04 7.48042C17.0525 7.50539 17.0649 7.51788 17.0774 7.54285C17.0774 7.54285 17.0774 7.54285 17.0774 7.55534C17.0774 7.56783 17.0899 7.58031 17.1024 7.58031C17.1024 7.58031 17.1024 7.5928 17.1149 7.5928C17.1149 7.5928 17.1149 7.5928 17.1149 7.60529C17.1274 7.61778 17.1274 7.63026 17.1399 7.64275C17.1399 7.64275 17.1399 7.65524 17.1524 7.65524V7.66772V7.68021C17.1649 7.6927 17.1649 7.70518 17.1774 7.71767C17.1774 7.73016 17.1899 7.73016 17.1899 7.74264L17.2024 7.75513C17.2024 7.76762 17.2149 7.76762 17.2149 7.7801C17.2149 7.79259 17.2273 7.79259 17.2273 7.80508C17.2273 7.81756 17.2398 7.83005 17.2398 7.83005C17.2398 7.84254 17.2523 7.85503 17.2523 7.85503C17.2523 7.85503 17.2523 7.85503 17.2523 7.86751C17.2523 7.88 17.2648 7.88 17.2648 7.89249C17.2773 7.90497 17.2773 7.91746 17.2898 7.92995C17.2898 7.92995 17.2898 7.92995 17.2898 7.94243C17.2898 7.94243 17.2898 7.94243 17.2898 7.95492C17.3023 7.96741 17.3023 7.99238 17.3148 8.00487C17.3273 8.02984 17.3398 8.04233 17.3523 8.0673C17.3648 8.09227 17.3772 8.11725 17.3897 8.14222C17.3897 8.15471 17.4022 8.1672 17.4022 8.17968C17.4022 8.19217 17.4147 8.20466 17.4147 8.21714C17.4272 8.24212 17.4397 8.26709 17.4397 8.29206C17.4397 8.29206 17.4397 8.29206 17.4397 8.30455C17.4522 8.32952 17.4522 8.34201 17.4647 8.36699V8.37947C17.4772 8.40445 17.4772 8.41693 17.4897 8.44191V8.45439C17.5022 8.47937 17.5022 8.49185 17.5147 8.51683C17.5272 8.5418 17.5396 8.56677 17.5396 8.59175C17.5396 8.60424 17.5521 8.61672 17.5521 8.61672C17.5521 8.62921 17.5521 8.62921 17.5646 8.6417V8.65418C17.5646 8.66667 17.5646 8.66667 17.5771 8.67916V8.69164C17.5771 8.70413 17.5896 8.71662 17.5896 8.7291C17.5896 8.74159 17.5896 8.74159 17.6021 8.75408C17.6021 8.77905 17.6146 8.79154 17.6271 8.81651C17.6396 8.829 17.6396 8.85397 17.6521 8.86646C17.6521 8.86646 17.6521 8.87894 17.6646 8.87894V8.89143C17.6646 8.90392 17.6771 8.91641 17.6771 8.91641C17.6771 8.92889 17.6896 8.94138 17.6896 8.94138C17.702 8.96635 17.702 8.99133 17.7145 9.0163C17.727 9.04127 17.727 9.05376 17.7395 9.07873C17.7395 9.07873 17.7395 9.07873 17.7395 9.09122C17.7395 9.09122 17.7395 9.09122 17.7395 9.10371C17.752 9.12868 17.752 9.15366 17.7645 9.17863C17.7645 9.2036 17.777 9.21609 17.777 9.24106C17.777 9.24106 17.777 9.24106 17.777 9.25355C17.777 9.26604 17.7895 9.29101 17.7895 9.3035V9.31598V9.32847C17.7895 9.34096 17.802 9.36593 17.802 9.37842C17.802 9.3909 17.802 9.3909 17.8145 9.40339C17.8145 9.42837 17.827 9.45334 17.827 9.47831V9.4908C17.827 9.50329 17.827 9.51577 17.8395 9.51577C17.8395 9.51577 17.8395 9.51577 17.8395 9.52826C17.8395 9.52826 17.8395 9.52826 17.8395 9.54075C17.8395 9.55323 17.852 9.56572 17.852 9.59069V9.60318C17.852 9.60318 17.852 9.60318 17.852 9.61567V9.62815C17.852 9.64064 17.852 9.65313 17.8644 9.66562C17.8644 9.6781 17.8644 9.70308 17.8769 9.71556C17.8769 9.72805 17.8769 9.75302 17.8894 9.76551V9.778V9.79048V9.80297V9.81546C17.8894 9.81546 17.8894 9.81546 17.8894 9.82794C17.8894 9.84043 17.8894 9.85292 17.9019 9.8654C17.9019 9.89038 17.9144 9.91535 17.9144 9.94032C17.9144 9.95281 17.9144 9.97779 17.9269 9.99027C17.9269 10.0152 17.9269 10.0277 17.9394 10.0527C17.9394 10.0652 17.9394 10.0652 17.9394 10.0777C17.9394 10.0902 17.9394 10.1151 17.9519 10.1276C17.9519 10.1401 17.9519 10.1526 17.9519 10.1526C17.9519 10.1651 17.9519 10.1776 17.9519 10.2025C17.9519 10.24 17.9644 10.2775 17.9644 10.3149C17.9644 10.3149 17.9644 10.3274 17.9644 10.3399C17.9644 10.3649 17.9644 10.3774 17.9644 10.4023C17.9644 10.4273 17.9644 10.4523 17.9644 10.4773C17.9644 10.5022 17.9644 10.5272 17.9644 10.5522C17.9644 10.5772 17.9644 10.6021 17.9644 10.6271C17.9644 10.6521 17.9644 10.677 17.9644 10.7145C17.9644 10.727 17.9644 10.752 17.9644 10.7645C17.9394 8.94138 17.4272 7.23068 16.5403 5.75724C15.366 3.80929 13.5546 2.29839 11.406 1.51172V4.10898H11.4934Z" fill="white"/>
</mask>
<g mask="url(#mask2_1540_16462)">
<path d="M-2.02271 2.85992L16.1659 -3.6582L21.5875 11.4384L3.38641 17.969L-2.02271 2.85992Z" fill="white"/>
</g>
<mask id="mask3_1540_16462" style="mask-type:luminance" maskUnits="userSpaceOnUse" x="1" y="5" width="13" height="16">
<path d="M11.4935 20.6417C11.4935 20.829 11.6434 20.9789 11.8308 20.9789C12.293 20.9664 12.7552 20.9164 13.2049 20.8415C12.6178 20.7416 12.0431 20.5793 11.4935 20.3795V20.6417ZM7.97067 5.07066C7.95817 5.07066 7.94568 5.08315 7.93319 5.08315C7.9207 5.08315 7.89571 5.09564 7.88322 5.10812C7.85824 5.12061 7.82076 5.1331 7.79578 5.14558C7.78328 5.15807 7.7583 5.15807 7.74581 5.17056C7.69584 5.18304 7.65836 5.20802 7.60839 5.22051C7.58341 5.23299 7.55842 5.24548 7.53344 5.25797C7.50846 5.27045 7.49596 5.28294 7.47098 5.28294C7.39603 5.3204 7.30858 5.35786 7.23363 5.39532C7.20864 5.40781 7.18366 5.42029 7.17117 5.42029C6.89634 5.55765 6.62151 5.695 6.37167 5.85733C4.42288 7.03109 2.91133 8.84168 2.12432 11.0019C1.92445 11.5513 1.77454 12.1257 1.66211 12.7126C2.24924 16.0965 4.53531 18.9061 7.62088 20.2047C7.83325 20.2796 8.0706 20.1173 8.0706 19.8925V18.2443C7.40852 17.6199 6.84637 16.9082 6.37167 16.134C5.48472 14.6605 4.97254 12.9374 4.94756 11.1018C4.94756 11.0893 4.94756 11.0768 4.94756 11.0643C4.94756 11.0394 4.94756 11.0144 4.94756 10.9894C4.94756 10.9644 4.94756 10.9395 4.94756 10.9145C4.94756 10.902 4.94756 10.8895 4.94756 10.877C4.98503 8.60443 6.18428 6.60654 7.97067 5.45775C8.03313 5.39532 8.0706 5.30791 8.0706 5.22051V5.0332C8.03313 5.04569 7.99565 5.05818 7.97067 5.07066Z" fill="white"/>
</mask>
<g mask="url(#mask3_1540_16462)">
<path d="M11.5818 1.0249L18.7523 18.7437L3.27448 24.9996L-3.88354 7.26831L11.5818 1.0249Z" fill="white"/>
</g>
<mask id="mask4_1540_16462" style="mask-type:luminance" maskUnits="userSpaceOnUse" x="4" y="9" width="18" height="12">
<path d="M6.35941 16.1343C6.82162 16.9085 7.39626 17.6202 8.05835 18.2446V16.7461C8.05835 16.6587 8.02087 16.5713 7.95841 16.5089C6.17203 15.3601 4.97278 13.3622 4.9353 11.0896C4.94779 12.9377 5.47247 14.6608 6.35941 16.1343ZM20.8753 10.9897C20.0883 13.1499 18.5768 14.9605 16.628 16.1343C15.1914 16.9959 13.5174 17.5078 11.7311 17.5453C11.5936 17.5828 11.4937 17.7201 11.4937 17.87V20.3798C12.0434 20.5796 12.618 20.7419 13.2051 20.8418C13.8048 20.7419 14.3794 20.5796 14.9415 20.3798C14.9915 20.3548 15.054 20.3423 15.1039 20.3174C15.1039 20.3174 15.1039 20.3174 15.1164 20.3174C15.1414 20.3049 15.1789 20.2924 15.2039 20.2799C15.2164 20.2799 15.2164 20.2799 15.2289 20.2674C15.2539 20.2549 15.2788 20.2424 15.3038 20.2424C15.3163 20.2424 15.3163 20.23 15.3288 20.23C15.3413 20.23 15.3538 20.2175 15.3663 20.2175C15.3788 20.2175 15.3913 20.205 15.4038 20.205C15.4287 20.1925 15.4412 20.1925 15.4662 20.18C15.4787 20.18 15.4912 20.1675 15.5037 20.1675C15.5162 20.1675 15.5287 20.155 15.5412 20.155C15.5537 20.1426 15.5786 20.1426 15.5911 20.1301C15.6036 20.1176 15.6161 20.1176 15.6286 20.1051C15.6411 20.0926 15.6536 20.0926 15.6786 20.0801C15.6911 20.0801 15.7036 20.0676 15.7036 20.0676C15.7286 20.0551 15.7535 20.0427 15.766 20.0427C15.7785 20.0427 15.7785 20.0302 15.791 20.0302C15.816 20.0177 15.8285 20.0052 15.8535 20.0052C15.866 20.0052 15.866 20.0052 15.8785 19.9927C15.9034 19.9802 15.9284 19.9677 15.9409 19.9553C15.9409 19.9553 15.9534 19.9552 15.9659 19.9428C15.9909 19.9303 16.0159 19.9178 16.0409 19.9053H16.0534C16.0783 19.8928 16.1033 19.8803 16.1283 19.8678H16.1408C16.1658 19.8554 16.1908 19.8429 16.2158 19.8304C16.2158 19.8304 16.2282 19.8304 16.2282 19.8179C16.2782 19.7929 16.3282 19.7679 16.3906 19.7305C16.3906 19.7305 16.3906 19.7305 16.4031 19.7305C16.4281 19.718 16.4531 19.7055 16.4781 19.6805C19.0015 18.2321 20.8379 15.6972 21.35 12.7254C21.4125 12.3757 21.45 12.0261 21.475 11.664C21.475 11.6515 21.475 11.6265 21.475 11.6141C21.475 11.6141 21.475 11.6141 21.475 11.6016C21.475 11.5891 21.475 11.5766 21.475 11.5516V11.5391C21.475 11.5266 21.475 11.5142 21.475 11.4892C21.475 11.4892 21.475 11.4892 21.475 11.4767C21.475 11.4267 21.475 11.3893 21.475 11.3393C21.475 11.3269 21.475 11.3144 21.475 11.3144C21.475 11.3019 21.475 11.2894 21.475 11.2894C21.475 11.2769 21.475 11.2644 21.475 11.2644C21.475 11.2519 21.475 11.2519 21.475 11.2394C21.475 11.227 21.475 11.2145 21.475 11.202C21.475 11.1895 21.475 11.1895 21.475 11.177C21.475 11.1645 21.475 11.152 21.475 11.1396C21.475 11.1271 21.475 11.1271 21.475 11.1146C21.475 11.1021 21.475 11.0896 21.475 11.0771V11.0646C21.475 11.0397 21.475 11.0272 21.475 11.0022C21.475 10.9772 21.475 10.9647 21.475 10.9398V10.9273C21.475 10.9148 21.475 10.9023 21.475 10.8898C21.475 10.8773 21.475 10.8773 21.475 10.8648C21.475 10.8524 21.475 10.8399 21.475 10.8274C21.475 10.8149 21.475 10.8149 21.475 10.8024C21.475 10.7899 21.475 10.7774 21.475 10.7649C21.475 10.7525 21.475 10.7525 21.475 10.74C21.475 10.7275 21.475 10.715 21.475 10.715C21.475 10.7025 21.475 10.69 21.475 10.69C21.475 10.6775 21.475 10.6651 21.475 10.6651C21.475 10.6526 21.475 10.6401 21.475 10.6401C21.475 10.6026 21.475 10.5776 21.475 10.5402C21.475 10.5402 21.475 10.5402 21.475 10.5277C21.475 10.5152 21.475 10.5027 21.475 10.4778V10.4653C21.475 10.4528 21.475 10.4403 21.475 10.4153C21.475 10.4153 21.475 10.4153 21.475 10.4028C21.475 10.3903 21.475 10.3654 21.475 10.3529C21.45 9.99077 21.4125 9.64113 21.35 9.2915C21.2376 9.8659 21.0877 10.4403 20.8753 10.9897Z" fill="white"/>
</mask>
<g mask="url(#mask4_1540_16462)">
<path d="M0.126221 11.8385L17.8152 2.39844L26.2974 18.2692L8.60842 27.7217L0.126221 11.8385Z" fill="white"/>
</g>
<mask id="mask5_1540_16462" style="mask-type:luminance" maskUnits="userSpaceOnUse" x="11" y="1" width="11" height="17">
<path d="M11.8182 1C11.6308 1 11.4934 1.14984 11.4934 1.33714V1.59937C13.6546 2.38604 15.4659 3.90943 16.6277 5.84489C17.5146 7.31833 18.0268 9.04151 18.0518 10.8771C18.0518 10.8896 18.0518 10.9021 18.0518 10.9145C18.0518 10.9395 18.0518 10.9645 18.0518 10.9895C18.0518 11.0144 18.0518 11.0394 18.0518 11.0644C18.0518 11.0769 18.0518 11.0894 18.0518 11.1018C18.0018 14.5982 15.2161 17.4327 11.7433 17.5575C13.5296 17.5201 15.2036 17.0081 16.6402 16.1465C18.589 14.9728 20.1005 13.1622 20.8875 11.0019C21.0874 10.4525 21.2498 9.87813 21.3497 9.29125C20.8626 6.44426 19.1636 4.00932 16.8026 2.53588C16.8026 2.53588 16.8026 2.53588 16.7901 2.53588C16.7401 2.51091 16.6902 2.47345 16.6402 2.44847C16.6402 2.44847 16.6277 2.44847 16.6277 2.43598C16.6027 2.4235 16.5777 2.41101 16.5527 2.39852C16.5527 2.39852 16.5527 2.39852 16.5403 2.39852C16.5153 2.38604 16.4903 2.37355 16.4778 2.36106C16.4778 2.36106 16.4653 2.36106 16.4653 2.34858C16.4403 2.33609 16.4153 2.3236 16.3903 2.31112C16.3779 2.31112 16.3779 2.29863 16.3654 2.29863C16.3404 2.28614 16.3279 2.27366 16.3029 2.26117C16.2904 2.26117 16.2904 2.24868 16.2779 2.24868C16.2654 2.2362 16.2404 2.22371 16.2279 2.22371C16.2155 2.22371 16.203 2.21122 16.203 2.21122C16.178 2.19874 16.1655 2.18625 16.1405 2.17376C16.128 2.17376 16.1155 2.16127 16.103 2.16127C16.0905 2.16127 16.078 2.14879 16.0656 2.1363C16.0531 2.12381 16.0406 2.12381 16.0281 2.11133C16.0156 2.09884 15.9906 2.09884 15.9781 2.08635C15.9656 2.08635 15.9531 2.07387 15.9406 2.06138C15.9281 2.06138 15.9156 2.04889 15.9156 2.04889C15.8907 2.03641 15.8657 2.02392 15.8532 2.01143C15.8407 2.01143 15.8407 1.99895 15.8282 1.99895C15.7782 1.97397 15.7283 1.949 15.6908 1.93651C15.6908 1.93651 15.6783 1.93651 15.6658 1.92403C15.6408 1.91154 15.6033 1.89905 15.5784 1.88656C15.5659 1.87408 15.5409 1.87408 15.5284 1.86159C14.7289 1.51196 13.8794 1.26222 12.9925 1.13735C12.5927 1.04995 12.2055 1.01249 11.8182 1Z" fill="white"/>
</mask>
<g mask="url(#mask5_1540_16462)">
<path d="M14.1291 21.9154L4.17285 5.43281L18.7013 -3.35791L28.67 13.1122L14.1291 21.9154Z" fill="white"/>
</g>
</svg>
