<svg width="22" height="22" viewBox="0 0 22 22" fill="none" xmlns="http://www.w3.org/2000/svg">
<path d="M15.0841 8.20142C16.3723 9.12177 17.9503 9.66328 19.6547 9.66328V6.38535C19.3321 6.38542 19.0104 6.35177 18.6948 6.28494V8.86515C16.9906 8.86515 15.4127 8.3237 14.1243 7.40342V14.0928C14.1243 17.4392 11.4101 20.1518 8.06226 20.1518C6.81309 20.1518 5.65198 19.7743 4.6875 19.1269C5.78833 20.252 7.3235 20.9498 9.02184 20.9498C12.37 20.9498 15.0843 18.2373 15.0843 14.8907V8.20142H15.0841ZM16.2683 4.89439C15.6099 4.17556 15.1776 3.24659 15.0841 2.21956V1.79797H14.1745C14.4035 3.10328 15.1845 4.21846 16.2683 4.89439ZM6.80502 16.5591C6.43722 16.0771 6.2384 15.4874 6.23929 14.8811C6.23929 13.3507 7.48074 12.1097 9.0124 12.1097C9.29779 12.1096 9.58151 12.1534 9.85357 12.2396V8.88832C9.53564 8.8448 9.21481 8.82625 8.89412 8.83308V11.4415C8.62193 11.3552 8.33807 11.3114 8.05253 11.3117C6.52095 11.3117 5.27957 12.5525 5.27957 14.0832C5.27957 15.1656 5.90005 16.1026 6.80502 16.5591Z" fill="#FF004F"/>
<path d="M14.1244 7.40335C15.4129 8.32363 16.9906 8.86508 18.6949 8.86508V6.28487C17.7436 6.08232 16.9014 5.58549 16.2683 4.89439C15.1845 4.21839 14.4036 3.10322 14.1746 1.79797H11.7854V14.8906C11.78 16.4169 10.5407 17.6528 9.01232 17.6528C8.11177 17.6528 7.31163 17.2238 6.80494 16.559C5.90011 16.1026 5.27956 15.1655 5.27956 14.0833C5.27956 12.5527 6.52094 11.3118 8.05253 11.3118C8.34598 11.3118 8.6288 11.3574 8.89411 11.4416V8.83315C5.60501 8.90108 2.95984 11.5871 2.95984 14.8907C2.95984 16.5398 3.61853 18.0347 4.68763 19.1271C5.65211 19.7743 6.81315 20.1519 8.06239 20.1519C11.4103 20.1519 14.1245 17.4391 14.1245 14.0928L14.1244 7.40335Z" fill="black"/>
<path d="M18.6948 6.28483V5.58731C17.837 5.58861 16.996 5.34849 16.2682 4.89441C16.9125 5.59939 17.7609 6.08554 18.6948 6.28497V6.28483ZM14.1745 1.79793C14.1527 1.67321 14.1359 1.54766 14.1243 1.42159V1H10.8254V14.0928C10.8201 15.619 9.58083 16.8548 8.05241 16.8548C7.61912 16.8555 7.19175 16.7542 6.80483 16.5592C7.31152 17.2238 8.11166 17.6528 9.01221 17.6528C10.5405 17.6528 11.7799 16.417 11.7853 14.8907V1.798H14.1745V1.79793ZM8.89421 8.8331V8.09041C8.61855 8.05273 8.34064 8.03389 8.06241 8.034C4.71414 8.034 2 10.7467 2 14.0928C2 16.1906 3.06669 18.0394 4.68766 19.127C3.61855 18.0347 2.95986 16.5397 2.95986 14.8906C2.95986 11.5872 5.60497 8.90103 8.89421 8.8331Z" fill="#00F2EA"/>
</svg>
