<svg width="85" height="103" viewBox="0 0 85 103" fill="none" xmlns="http://www.w3.org/2000/svg">
<path d="M60.6928 1.43783L57.2666 4.86513C56.2124 5.91968 56.1596 7.65969 57.1611 8.81969C79.3 32.9162 79.3 69.9836 57.1611 94.0801C56.1069 95.1873 56.1596 96.9274 57.2666 98.0346L60.6928 101.462C61.8525 102.622 63.6974 102.569 64.8043 101.356C90.8438 73.2 90.8438 29.6998 64.8043 1.54331C63.6974 0.330577 61.8525 0.330555 60.6928 1.43783Z" fill="#6D6E71"/>
<path d="M45.8291 16.3595L42.4029 19.7868C41.3486 20.8414 41.296 22.5814 42.2975 23.6887C56.266 39.5596 56.266 63.3925 42.2975 79.2635C41.296 80.3707 41.3486 82.1107 42.4029 83.1653L45.8291 86.5926C46.9888 87.7526 48.8864 87.6999 49.9406 86.4871C67.7571 66.5561 67.7571 36.396 49.9406 16.465C48.8337 15.2522 46.9888 15.1995 45.8291 16.3595Z" fill="#6D6E71"/>
<path d="M30.9123 31.2288L27.486 34.6561C26.4845 35.658 26.3791 37.2925 27.2752 38.3998C33.2843 45.9925 33.2843 56.749 27.2752 64.3945C26.3791 65.5017 26.4845 67.1363 27.486 68.1381L30.9123 71.5654C32.0719 72.7254 34.0222 72.6727 35.0764 71.3545C44.6172 59.7544 44.6172 42.9343 35.0764 31.3343C34.0222 30.0688 32.0719 29.9634 30.9123 31.1234V31.2288Z" fill="#6D6E71"/>
<path d="M60.6928 1.43783L57.2666 4.86513C56.2124 5.91968 56.1596 7.65969 57.1611 8.81969C79.3 32.9162 79.3 69.9836 57.1611 94.0801C56.1069 95.1873 56.1596 96.9274 57.2666 98.0346L60.6928 101.462C61.8525 102.622 63.6974 102.569 64.8043 101.356C90.8438 73.2 90.8438 29.6998 64.8043 1.54331C63.6974 0.330577 61.8525 0.330555 60.6928 1.43783Z" fill="url(#paint0_linear_2928_15175)"/>
<path d="M45.8291 16.3595L42.4029 19.7868C41.3486 20.8414 41.296 22.5814 42.2975 23.6887C56.266 39.5596 56.266 63.3925 42.2975 79.2635C41.296 80.3707 41.3486 82.1107 42.4029 83.1653L45.8291 86.5926C46.9888 87.7526 48.8864 87.6999 49.9406 86.4871C67.7571 66.5561 67.7571 36.396 49.9406 16.465C48.8337 15.2522 46.9888 15.1995 45.8291 16.3595Z" fill="url(#paint1_linear_2928_15175)"/>
<path d="M30.9123 31.2288L27.486 34.6561C26.4845 35.658 26.3791 37.2925 27.2752 38.3998C33.2843 45.9925 33.2843 56.749 27.2752 64.3945C26.3791 65.5017 26.4845 67.1363 27.486 68.1381L30.9123 71.5654C32.0719 72.7254 34.0222 72.6727 35.0764 71.3545C44.6172 59.7544 44.6172 42.9343 35.0764 31.3343C34.0222 30.0688 32.0719 29.9634 30.9123 31.1234V31.2288Z" fill="url(#paint2_linear_2928_15175)"/>
<path d="M11.0007 48.9516C11.0007 48.7424 10.8249 48.575 10.6157 48.5854C9.77652 48.6294 8.96458 48.8156 8.19448 49.14C7.91825 49.2572 7.65249 49.389 7.39509 49.5376C7.28209 49.6024 7.21094 49.7238 7.21094 49.8556V54.1392C7.21094 54.271 7.28209 54.3924 7.39509 54.4573C7.65249 54.6058 7.91825 54.7398 8.19448 54.8549C8.96458 55.1813 9.77652 55.3675 10.6157 55.4094C10.8249 55.4199 11.0007 55.2525 11.0007 55.0432V48.9474V48.9516Z" fill="url(#paint3_linear_2928_15175)"/>
<path d="M11.0018 48.9516C11.0018 48.7424 10.8261 48.575 10.6168 48.5854C9.77764 48.6294 9.59348 48.8156 8.82339 49.14C8.54716 49.2572 8.28139 49.389 8.024 49.5376C7.91099 49.6024 7.83984 49.7238 7.83984 49.8556V54.1392C7.83984 54.271 7.91099 54.3924 8.024 54.4573C8.28139 54.6058 8.54716 54.7398 8.82339 54.8549C9.59348 55.1813 9.77764 55.3675 10.6168 55.4094C10.8261 55.4199 11.0018 55.2525 11.0018 55.0432V48.9474V48.9516Z" fill="url(#paint4_linear_2928_15175)"/>
<mask id="mask0_2928_15175" style="mask-type:luminance" maskUnits="userSpaceOnUse" x="11" y="40" width="11" height="23">
<path d="M21.999 51.998C21.999 57.9494 17.2759 62.8001 11.3767 62.9988C11.1695 63.0051 11 62.8398 11 62.6326V59.5733C11 59.3786 11.1528 59.2154 11.3495 59.2071C12.2012 59.1673 13.0257 58.9811 13.8062 58.6504C14.6642 58.2863 15.4364 57.7673 16.0998 57.1019C16.7632 56.4385 17.2842 55.6664 17.6462 54.8063C18.0208 53.919 18.2113 52.9753 18.2113 51.998C18.2113 51.0208 18.0208 50.077 17.6462 49.1898C17.2842 48.3318 16.7632 47.5596 16.0998 46.8963C15.4364 46.2329 14.6642 45.7119 13.8062 45.3478C13.0257 45.0171 12.2012 44.8309 11.3495 44.7911C11.1549 44.7827 11 44.6195 11 44.4249V41.3655C11 41.1584 11.1716 40.991 11.3767 40.9993C17.2779 41.1981 21.999 46.0467 21.999 52.0001V51.998Z" fill="white"/>
</mask>
<g mask="url(#mask0_2928_15175)">
<path d="M18.2161 51.7928C18.2161 51.7635 18.2161 51.7321 18.214 51.7028C18.214 51.7028 18.214 51.6986 18.214 51.6966C18.214 51.6673 18.2119 51.638 18.2098 51.6087C18.2098 51.6087 18.2098 51.6087 18.2098 51.6066C18.2098 51.5773 18.2056 51.5501 18.2056 51.5208C18.2056 51.5208 18.2056 51.5187 18.2056 51.5166C18.2056 51.4873 18.2014 51.458 18.1993 51.4308C18.1993 51.4308 18.1993 51.4287 18.1993 51.4266C18.1993 51.4057 18.1951 51.3827 18.1931 51.3617C18.1931 51.3555 18.1931 51.3471 18.1931 51.3408C18.1931 51.3408 18.1931 51.3366 18.1931 51.3345C18.1889 51.2927 18.1847 51.2508 18.1805 51.209C18.1805 51.1922 18.1763 51.1776 18.1742 51.1608C18.1742 51.1504 18.1721 51.1399 18.17 51.1315C18.1679 51.1127 18.1658 51.0918 18.1638 51.073C18.1638 51.0646 18.1638 51.0583 18.1617 51.0499C18.1596 51.029 18.1554 51.006 18.1533 50.9851C18.1512 50.9662 18.147 50.9474 18.1449 50.9286C18.1407 50.9014 18.1366 50.8742 18.1324 50.847C18.1324 50.8449 18.1324 50.8428 18.1324 50.8407C18.1303 50.8239 18.1282 50.8093 18.124 50.7925C18.124 50.7884 18.124 50.7842 18.124 50.78C18.124 50.7737 18.124 50.7695 18.1219 50.7632C18.1219 50.757 18.1198 50.7507 18.1198 50.7444C18.1198 50.7444 18.1198 50.7423 18.1198 50.7402C18.1198 50.736 18.1198 50.7298 18.1177 50.7256C18.1177 50.7235 18.1177 50.7214 18.1177 50.7193C18.1177 50.7151 18.1177 50.7109 18.1177 50.7088C18.1135 50.6879 18.1093 50.6691 18.1073 50.6482C18.1031 50.6293 18.0989 50.6084 18.0968 50.5896C18.0947 50.5749 18.0905 50.5603 18.0884 50.5456C18.0884 50.5414 18.0884 50.5372 18.0863 50.5331C18.0863 50.5289 18.0863 50.5268 18.0842 50.5226C18.0842 50.5163 18.0821 50.5121 18.0801 50.5059C18.0759 50.4891 18.0738 50.4724 18.0696 50.4556V50.4494C18.0696 50.4494 18.0675 50.4452 18.0675 50.4431V50.4326C18.0675 50.4326 18.0633 50.4263 18.0633 50.4222C18.0612 50.4117 18.0591 50.3991 18.0549 50.3887C18.0549 50.3824 18.0528 50.3761 18.0508 50.3698C18.0445 50.3405 18.0382 50.3133 18.0298 50.284C18.0277 50.2736 18.0256 50.2652 18.0236 50.2547L18.0089 50.1982C18.0089 50.1982 18.0089 50.1899 18.0047 50.1857V50.1836C18.0047 50.1773 18.0026 50.1731 18.0005 50.1669C17.9963 50.148 17.9922 50.1313 17.9859 50.1124C17.9859 50.1124 17.9859 50.1062 17.9838 50.102C17.9838 50.102 17.9838 50.0978 17.9838 50.0957C17.9775 50.0727 17.9712 50.0497 17.965 50.0287C17.9566 50.0015 17.9482 49.9722 17.9398 49.945C17.9398 49.943 17.9398 49.9388 17.9378 49.9367C17.9378 49.9346 17.9378 49.9304 17.9357 49.9283C17.9294 49.9032 17.921 49.8802 17.9147 49.8572C17.9064 49.832 17.898 49.8069 17.8896 49.7797C17.8854 49.7693 17.8833 49.7588 17.8792 49.7462C17.875 49.7337 17.8729 49.7253 17.8687 49.7128C17.8687 49.7065 17.8645 49.7023 17.8624 49.696C17.8603 49.6897 17.8582 49.6835 17.8561 49.6772C17.8499 49.6563 17.8415 49.6353 17.8352 49.6144C17.8268 49.5935 17.8206 49.5705 17.8122 49.5495C17.8101 49.5412 17.8059 49.5328 17.8038 49.5244C17.7996 49.5098 17.7934 49.4951 17.7871 49.4826C17.7871 49.4784 17.7829 49.4721 17.7808 49.4679C17.7787 49.4596 17.7745 49.4512 17.7724 49.4428C17.7724 49.4386 17.7703 49.4344 17.7682 49.4303C17.7662 49.4219 17.762 49.4135 17.7578 49.4051C17.7536 49.3947 17.7494 49.3821 17.7452 49.3717C17.7348 49.3445 17.7243 49.3173 17.7138 49.2921C17.7138 49.2901 17.7138 49.288 17.7117 49.2859C17.7034 49.2649 17.695 49.2419 17.6845 49.221C17.6845 49.2168 17.6824 49.2147 17.6804 49.2105C17.672 49.1896 17.6615 49.1687 17.6532 49.1457C17.6532 49.1415 17.649 49.1373 17.649 49.1331C17.649 49.1331 17.649 49.1289 17.6469 49.1289C17.6364 49.1059 17.628 49.0829 17.6176 49.0599C17.6176 49.0578 17.6155 49.0557 17.6134 49.0515C17.6029 49.0264 17.5904 49.0013 17.5778 48.9741C17.5715 48.9615 17.5653 48.949 17.559 48.9343C17.5527 48.9218 17.5464 48.9092 17.5401 48.8946C17.5276 48.8694 17.515 48.8443 17.5046 48.8192C17.5046 48.8192 17.5046 48.8171 17.5046 48.815C17.492 48.792 17.4816 48.769 17.469 48.7439C17.469 48.7439 17.469 48.7397 17.4669 48.7376C17.4669 48.7376 17.4669 48.7376 17.4669 48.7355C17.4585 48.7167 17.4481 48.6999 17.4397 48.6811C17.4397 48.6769 17.4376 48.6748 17.4355 48.6727C17.4355 48.6686 17.4313 48.6665 17.4313 48.6623C17.423 48.6455 17.4146 48.6309 17.4062 48.6141C17.402 48.6058 17.3958 48.5953 17.3916 48.5849C17.3916 48.5828 17.3895 48.5786 17.3874 48.5765C17.3811 48.566 17.3748 48.5535 17.3686 48.543C17.3623 48.5325 17.356 48.52 17.3497 48.5095C17.3455 48.5011 17.3393 48.4907 17.3351 48.4823C17.3351 48.4823 17.3351 48.4823 17.3351 48.4802C17.3309 48.4719 17.3246 48.4614 17.3204 48.453C17.3183 48.4467 17.3141 48.4405 17.31 48.4342C17.3037 48.4237 17.2995 48.4153 17.2932 48.4049C17.2869 48.3923 17.2786 48.3798 17.2723 48.3672C17.2723 48.3672 17.2681 48.3588 17.266 48.3547C17.2639 48.3505 17.2618 48.3463 17.2597 48.3421C17.2576 48.3379 17.2555 48.3337 17.2535 48.3296C17.2451 48.3149 17.2367 48.3003 17.2283 48.2856C17.2283 48.2835 17.2263 48.2814 17.2242 48.2793C17.2242 48.2772 17.22 48.2731 17.22 48.271C17.2179 48.2668 17.2137 48.2605 17.2116 48.2563C17.2053 48.2458 17.197 48.2333 17.1907 48.2228C17.1907 48.2207 17.1865 48.2165 17.1865 48.2145C17.1865 48.2124 17.1844 48.2103 17.1823 48.2082C17.1698 48.1873 17.1572 48.1663 17.1425 48.1454C17.1342 48.1328 17.1279 48.1203 17.1195 48.1098C17.1153 48.1035 17.1112 48.0952 17.107 48.0889C17.1028 48.0826 17.0986 48.0763 17.0944 48.0701C17.0902 48.0617 17.084 48.0533 17.0798 48.0471C17.0777 48.0429 17.0756 48.0387 17.0714 48.0345C17.063 48.0219 17.0567 48.0115 17.0484 47.9989C17.0358 47.9801 17.0233 47.9613 17.0107 47.9424C17.0086 47.9382 17.0044 47.932 17.0023 47.9278C17.0002 47.9236 16.9982 47.9215 16.9961 47.9173C16.9814 47.8985 16.9689 47.8776 16.9542 47.8587C16.9396 47.8399 16.927 47.819 16.9124 47.8001C16.9103 47.7959 16.9082 47.7938 16.904 47.7897C16.8998 47.7855 16.8977 47.7813 16.8956 47.7771C16.881 47.7583 16.8684 47.7394 16.8538 47.7206C16.8475 47.7101 16.8391 47.6997 16.8307 47.6892C16.8224 47.6767 16.814 47.6662 16.8056 47.6536C16.8035 47.6515 16.8014 47.6474 16.7994 47.6453C16.791 47.6327 16.7805 47.6202 16.7721 47.6097C16.7659 47.6013 16.7596 47.593 16.7533 47.5846C16.7387 47.5637 16.7219 47.5448 16.7073 47.526C16.7031 47.5218 16.701 47.5176 16.6968 47.5113C16.6801 47.4904 16.6654 47.4716 16.6487 47.4507C16.6403 47.4381 16.6298 47.4276 16.6194 47.4151C16.6152 47.4088 16.6089 47.4025 16.6026 47.3962C16.5964 47.3879 16.588 47.3795 16.5817 47.3711C16.5754 47.3628 16.5692 47.3565 16.5629 47.3502C16.5566 47.3418 16.5503 47.3356 16.544 47.3272C16.5399 47.3209 16.5357 47.3167 16.5315 47.3125C16.5231 47.3042 16.5168 47.2937 16.5085 47.2853C16.5022 47.2791 16.498 47.2728 16.4917 47.2665C16.4896 47.2623 16.4855 47.2602 16.4834 47.256C16.4813 47.254 16.4792 47.2498 16.475 47.2456C16.4582 47.2267 16.4436 47.21 16.4269 47.1912C16.408 47.1703 16.3892 47.1493 16.3704 47.1284C16.3515 47.1075 16.3327 47.0865 16.3118 47.0656C16.2929 47.0447 16.272 47.0238 16.2532 47.0049C16.2134 46.9631 16.1757 46.9233 16.1339 46.8836C16.1234 46.8731 16.1151 46.8626 16.1046 46.8543C16.0941 46.8438 16.0837 46.8354 16.0732 46.825C16.0523 46.8061 16.0334 46.7852 16.0125 46.7664C15.9916 46.7475 15.9707 46.7266 15.9497 46.7078C15.9288 46.689 15.9079 46.6701 15.887 46.6492C15.866 46.6304 15.8451 46.6115 15.8242 46.5927C15.8074 46.578 15.7886 46.5613 15.7719 46.5467C15.7677 46.5425 15.7635 46.5404 15.7614 46.5362C15.7405 46.5174 15.7195 46.4985 15.6965 46.4818C15.6756 46.465 15.6568 46.4483 15.6358 46.4316C15.6317 46.4274 15.6254 46.4232 15.6212 46.419C15.6086 46.4085 15.5982 46.4002 15.5856 46.3897C15.5835 46.3876 15.5793 46.3855 15.5772 46.3834C15.5731 46.3813 15.571 46.3792 15.5689 46.3751C15.5542 46.3625 15.5396 46.352 15.5249 46.3395C15.5187 46.3353 15.5124 46.329 15.5082 46.3248C15.5082 46.3248 15.5061 46.3227 15.504 46.3207C15.4914 46.3123 15.481 46.3018 15.4684 46.2934C15.4601 46.2872 15.4517 46.2788 15.4412 46.2725C15.4412 46.2725 15.437 46.2683 15.4349 46.2683C15.4119 46.2516 15.391 46.2328 15.368 46.216C15.345 46.1993 15.324 46.1825 15.301 46.1658C15.2989 46.1658 15.2968 46.1616 15.2947 46.1616C15.2759 46.147 15.2571 46.1344 15.2382 46.1219C15.2382 46.1219 15.2341 46.1177 15.232 46.1177C15.2257 46.1135 15.2215 46.1093 15.2152 46.1051C15.2089 46.1009 15.2048 46.0967 15.1985 46.0926C15.1922 46.0884 15.1838 46.0821 15.1775 46.0779C15.1734 46.0758 15.1713 46.0737 15.1671 46.0695C15.1671 46.0695 15.1629 46.0674 15.1608 46.0654C15.1378 46.0486 15.1148 46.034 15.0897 46.0172C15.0771 46.0089 15.0666 46.0005 15.0541 45.9942C15.0415 45.9858 15.0311 45.9796 15.0185 45.9712C15.0122 45.967 15.006 45.9628 15.0018 45.9586C14.9976 45.9565 14.9955 45.9544 14.9913 45.9524C14.9892 45.9524 14.9871 45.9503 14.985 45.9482C14.9767 45.9419 14.9662 45.9356 14.9578 45.9293C14.9557 45.9293 14.9536 45.9272 14.9495 45.9251C14.9474 45.9251 14.9432 45.921 14.9411 45.921C14.9202 45.9063 14.8971 45.8938 14.8762 45.8791C14.8637 45.8707 14.8532 45.8645 14.8406 45.8561C14.8281 45.8477 14.8176 45.8414 14.8051 45.8331C14.8051 45.8331 14.803 45.8331 14.8009 45.831C14.782 45.8205 14.7632 45.808 14.7444 45.7975C14.7402 45.7954 14.736 45.7912 14.7318 45.7891C14.7109 45.7766 14.6921 45.764 14.6711 45.7536C14.6649 45.7494 14.6586 45.7452 14.6523 45.7431C14.6376 45.7347 14.6251 45.7264 14.6104 45.7201C14.6063 45.718 14.6021 45.7159 14.5979 45.7138C14.5895 45.7096 14.5811 45.7054 14.5749 45.7012C14.5539 45.6887 14.5309 45.6761 14.51 45.6636C14.4891 45.6531 14.4702 45.6406 14.4493 45.6301C14.4451 45.628 14.4388 45.6259 14.4347 45.6217C14.4095 45.6092 14.3865 45.5966 14.3635 45.5841C14.3635 45.5841 14.3635 45.5841 14.3614 45.5841C14.3363 45.5715 14.3112 45.5569 14.2861 45.5443C14.2672 45.5338 14.2463 45.5255 14.2275 45.515C14.2212 45.5108 14.2149 45.5087 14.2087 45.5066C14.1898 45.4983 14.1731 45.4899 14.1542 45.4794C14.1417 45.4731 14.1291 45.4669 14.1166 45.4606C14.0998 45.4543 14.0852 45.4459 14.0705 45.4397C14.0643 45.4376 14.0601 45.4355 14.0538 45.4313C14.0454 45.4271 14.035 45.4229 14.0266 45.4187C14.0266 45.4187 14.0099 45.4104 14.0036 45.4083C13.9952 45.4041 13.9868 45.402 13.9785 45.3978C13.9785 45.3978 13.9785 45.3978 13.9764 45.3978C13.9701 45.3957 13.9638 45.3915 13.9575 45.3894C13.9366 45.3811 13.9178 45.3706 13.8968 45.3622C13.8927 45.3622 13.8906 45.3601 13.8864 45.3581C13.8676 45.3497 13.8466 45.3413 13.8278 45.3329C13.8236 45.3329 13.8194 45.3288 13.8173 45.3288C13.8111 45.3267 13.8048 45.3225 13.7964 45.3204C13.7901 45.3183 13.7838 45.3141 13.7776 45.312C13.765 45.3057 13.7504 45.3016 13.7378 45.2953C13.7127 45.2848 13.6897 45.2764 13.6646 45.266C13.6499 45.2597 13.6374 45.2555 13.6227 45.2492C13.6143 45.2451 13.6081 45.243 13.5997 45.2409C13.5955 45.2409 13.5913 45.2367 13.585 45.2346C13.5809 45.2346 13.5788 45.2325 13.5746 45.2304C13.5662 45.2262 13.5557 45.2241 13.5474 45.2199C13.5306 45.2137 13.5139 45.2074 13.4951 45.2011C13.4909 45.2011 13.4888 45.199 13.4846 45.1969C13.4616 45.1886 13.4365 45.1802 13.4114 45.1718C13.4114 45.1718 13.4072 45.1718 13.4051 45.1718C13.38 45.1634 13.3528 45.153 13.3276 45.1446C13.3256 45.1446 13.3235 45.1446 13.3214 45.1425C13.3004 45.1362 13.2774 45.1279 13.2565 45.1216C13.2544 45.1216 13.2502 45.1195 13.2481 45.1195C13.2481 45.1195 13.2481 45.1195 13.246 45.1195C13.2209 45.1111 13.1937 45.1028 13.1686 45.0944C13.1686 45.0944 13.1644 45.0944 13.1623 45.0944C13.1561 45.0944 13.1498 45.0902 13.1435 45.0881C13.1372 45.086 13.1288 45.0839 13.1226 45.0818C13.11 45.0776 13.0954 45.0735 13.0828 45.0693H13.0786C13.0723 45.0693 13.0682 45.0651 13.0619 45.0651C13.041 45.0588 13.02 45.0525 12.9991 45.0463C12.9865 45.0421 12.974 45.04 12.9614 45.0358C12.9468 45.0316 12.9321 45.0274 12.9175 45.0232C12.8966 45.017 12.8777 45.0128 12.8568 45.0065C12.8484 45.0065 12.8401 45.0023 12.8338 45.0002C12.8317 45.0002 12.8275 45.0002 12.8254 44.9981C12.817 44.996 12.8066 44.9939 12.7982 44.9919C12.7794 44.9877 12.7605 44.9814 12.7396 44.9772C12.7082 44.9688 12.6789 44.9626 12.6475 44.9563C12.6203 44.95 12.5931 44.9437 12.5659 44.9374C12.5576 44.9374 12.5513 44.9333 12.5429 44.9333C12.5387 44.9333 12.5366 44.9333 12.5345 44.9333C12.5324 44.9333 12.5283 44.9333 12.5262 44.9333C12.5115 44.9291 12.499 44.927 12.4843 44.9249C12.4822 44.9249 12.4801 44.9249 12.4759 44.9249C12.4466 44.9186 12.4173 44.9144 12.3881 44.9081C12.3608 44.904 12.3357 44.8977 12.3085 44.8935C12.2876 44.8893 12.2667 44.8851 12.2437 44.883C12.2353 44.883 12.229 44.8809 12.2206 44.8788C12.2123 44.8788 12.2039 44.8768 12.1955 44.8747C12.1746 44.8705 12.1516 44.8684 12.1307 44.8642C12.1139 44.8621 12.0951 44.8579 12.0783 44.8558C12.0637 44.8537 12.047 44.8516 12.0323 44.8496C12.0051 44.8454 11.9779 44.8433 11.9507 44.8391C11.9319 44.837 11.913 44.8349 11.8921 44.8328C11.8837 44.8328 11.8733 44.8307 11.8649 44.8286C11.8649 44.8286 11.8649 44.8286 11.8628 44.8286C11.8544 44.8286 11.8481 44.8286 11.8398 44.8265C11.8398 44.8265 11.8356 44.8265 11.8335 44.8265C11.8147 44.8244 11.7958 44.8223 11.777 44.8203C11.754 44.8182 11.731 44.8161 11.7079 44.814C11.7017 44.814 11.6954 44.814 11.6891 44.814C11.6849 44.814 11.6786 44.814 11.6745 44.814C11.6493 44.8119 11.6242 44.8098 11.6012 44.8077C11.5719 44.8056 11.5405 44.8035 11.5112 44.8014C11.4736 44.7993 11.4359 44.7972 11.3982 44.7951C11.3752 44.7951 11.3543 44.7931 11.3313 44.791H11.3271C11.3103 44.791 11.2936 44.791 11.2769 44.791C11.2643 44.791 11.2517 44.791 11.2392 44.791H11.2371C11.2245 44.791 11.212 44.791 11.1994 44.791C11.1827 44.791 11.1659 44.791 11.1492 44.791C11.145 44.791 11.1408 44.791 11.1366 44.791C11.122 44.791 11.1074 44.791 11.0927 44.791C11.0739 44.791 11.055 44.791 11.0362 44.791C11.0174 44.791 10.9964 44.791 10.9755 44.791C10.6428 44.791 10.3142 44.8098 9.98988 44.8412C9.91245 44.8496 9.83712 44.8558 9.75969 44.8663C9.72202 44.8705 9.68435 44.8747 9.64668 44.8809C9.60902 44.8851 9.57135 44.8914 9.53368 44.8956C9.49811 44.8998 9.46462 44.904 9.42905 44.9102C9.42486 44.9102 9.42277 44.9102 9.41858 44.9102C9.34325 44.9207 9.26791 44.9333 9.19258 44.9458C9.15491 44.9521 9.11724 44.9584 9.07958 44.9646C9.06074 44.9688 9.03982 44.9709 9.02098 44.9751C9.00215 44.9793 8.98122 44.9835 8.96239 44.9856C8.91426 44.9939 8.86613 45.0044 8.818 45.0149C8.76777 45.0253 8.71755 45.0358 8.66733 45.0463C8.66523 45.0463 8.66314 45.0463 8.66105 45.0463C8.61082 45.0567 8.55851 45.0693 8.50828 45.0818C8.45597 45.0944 8.40365 45.1069 8.34924 45.1195C8.31995 45.1258 8.29065 45.1341 8.26135 45.1425C8.20276 45.1572 8.14416 45.1739 8.08557 45.1886C8.05627 45.1969 8.02698 45.2053 7.99768 45.2137C7.96838 45.222 7.93908 45.2304 7.90979 45.2388C7.88049 45.2471 7.85119 45.2555 7.82399 45.2639C7.79678 45.2723 7.76749 45.2806 7.74028 45.2911C7.74028 45.2911 7.73819 45.2911 7.7361 45.2911C7.70889 45.2995 7.6796 45.3078 7.65239 45.3183C7.62309 45.3267 7.59589 45.3371 7.56659 45.3476C7.53939 45.356 7.51218 45.3664 7.48498 45.3748C7.46405 45.3832 7.44103 45.3894 7.42011 45.3978C7.40337 45.4041 7.38453 45.4104 7.36779 45.4166C7.30083 45.4418 7.23177 45.4648 7.1648 45.4899C7.14806 45.4962 7.13341 45.5024 7.11667 45.5087C7.09784 45.515 7.07901 45.5234 7.06017 45.5297C7.02669 45.5422 6.99321 45.5569 6.95972 45.5694C6.94089 45.5757 6.92206 45.5841 6.90322 45.5924C6.853 45.6134 6.80278 45.6343 6.75255 45.6552C6.72535 45.6678 6.69605 45.6803 6.66885 45.6908C6.64583 45.7012 6.62281 45.7117 6.5977 45.7222C6.50981 45.7619 6.42192 45.8017 6.33612 45.8414C6.311 45.8519 6.28798 45.8645 6.26287 45.877C5.95944 46.0235 5.66438 46.1825 5.37768 46.3562C3.23691 47.6432 1.57116 49.6374 0.700618 52.0167C0.478797 52.6236 0.309293 53.2555 0.19629 53.9063C0.0895652 53.2932 0.0351562 52.6612 0.0351562 52.0167C0.0351562 51.3722 0.0895652 50.7402 0.19629 50.1271C0.985218 45.5631 4.58457 41.9639 9.14445 41.1729C9.79526 41.2859 10.4272 41.4554 11.0341 41.6772C13.4114 42.5477 15.4056 44.2155 16.6905 46.3562C17.6657 47.9801 18.2328 49.876 18.2537 51.9016C18.2537 51.8702 18.2537 51.8409 18.2516 51.8116L18.2161 51.7928Z" fill="url(#paint5_linear_2928_15175)"/>
<path d="M12.8876 62.8439C12.2745 62.9506 11.6425 63.005 10.998 63.005C10.3534 63.005 9.72146 62.9506 9.10831 62.8439C4.54634 62.055 0.949084 58.4536 0.160156 53.8896C0.273159 53.2388 0.442664 52.6069 0.664484 52C1.53503 49.6207 3.20077 47.6265 5.34155 46.3395C5.62824 46.1679 5.92331 46.0068 6.22674 45.8603C6.25185 45.8478 6.27487 45.8373 6.29998 45.8248C6.38578 45.7829 6.47367 45.7432 6.56156 45.7055C6.58458 45.695 6.6076 45.6846 6.63271 45.6741C6.65992 45.6615 6.68921 45.649 6.71642 45.6385C6.76664 45.6176 6.81687 45.5967 6.86709 45.5757C6.88592 45.5674 6.90476 45.5611 6.92359 45.5527C6.95707 45.5402 6.99056 45.5255 7.02404 45.513C7.04287 45.5046 7.06171 45.4983 7.08054 45.492C7.09728 45.4858 7.11193 45.4795 7.12867 45.4732C7.19564 45.4481 7.2626 45.423 7.33166 45.4C7.3484 45.3937 7.36723 45.3874 7.38397 45.3811C7.4049 45.3728 7.42583 45.3665 7.44885 45.3581C7.47605 45.3497 7.50325 45.3393 7.53046 45.3309C7.55976 45.3204 7.58696 45.3121 7.61626 45.3016C7.64555 45.2932 7.67276 45.2828 7.69996 45.2744C7.69996 45.2744 7.70206 45.2744 7.70415 45.2744L7.78785 45.2472C7.81715 45.2388 7.84645 45.2305 7.87365 45.2221C7.90295 45.2137 7.93225 45.2054 7.96154 45.197C7.99084 45.1886 8.02014 45.1802 8.04944 45.1719C8.10803 45.1551 8.16662 45.1405 8.22522 45.1258C8.25451 45.1175 8.28381 45.1112 8.31311 45.1028C8.36543 45.0903 8.41774 45.0777 8.47215 45.0651C8.52237 45.0526 8.57469 45.0421 8.62491 45.0296C8.62701 45.0296 8.6291 45.0296 8.63119 45.0296C8.68141 45.0191 8.73164 45.0086 8.78186 44.9982C8.82999 44.9877 8.87812 44.9793 8.92626 44.9689C8.94509 44.9647 8.96601 44.9605 8.98485 44.9584C9.00368 44.9542 9.02461 44.9521 9.04344 44.948C9.08111 44.9417 9.11878 44.9354 9.15645 44.9291C9.23178 44.9166 9.30712 44.904 9.38245 44.8936C9.38664 44.8936 9.38873 44.8936 9.39291 44.8936C9.4264 44.8894 9.46197 44.8831 9.49755 44.8789C9.53521 44.8747 9.57288 44.8684 9.61055 44.8643C9.64822 44.8601 9.68589 44.8559 9.72355 44.8496C9.79889 44.8412 9.87632 44.8329 9.95374 44.8245C10.2614 44.7952 10.5711 44.7785 10.885 44.7764C6.98846 44.8371 3.83903 47.9864 3.77834 51.887C3.77834 51.8996 3.77834 51.91 3.77834 51.9226C3.77834 51.9498 3.77834 51.9749 3.77834 52.0021C3.77834 52.0293 3.77834 52.0544 3.77834 52.0816C3.77834 52.0942 3.77834 52.1047 3.77834 52.1172C3.79927 54.1449 4.36638 56.0408 5.34155 57.6626C6.62643 59.8033 8.62073 61.4712 10.998 62.3417C11.6048 62.5635 12.2368 62.733 12.8876 62.846V62.8439Z" fill="url(#paint6_linear_2928_15175)"/>
<path d="M21.998 51.998C21.998 52.6425 21.9436 53.2745 21.8369 53.8876C21.048 58.4516 17.4486 62.0509 12.8866 62.8419C12.2358 62.7289 11.6038 62.5594 10.997 62.3376C8.61973 61.467 6.62544 59.7992 5.34055 57.6585C4.36538 56.0346 3.79827 54.1387 3.77734 52.1131C3.83803 56.0137 6.98537 59.1631 10.884 59.2238C10.8965 59.2238 10.907 59.2238 10.9195 59.2238C10.9468 59.2238 10.9719 59.2238 10.9991 59.2238C11.0263 59.2238 11.0514 59.2238 11.0786 59.2238C11.0911 59.2238 11.1016 59.2238 11.1142 59.2238C13.1398 59.2028 15.0337 58.6358 16.6576 57.6585C18.7984 56.3716 20.4641 54.3773 21.3347 51.998C21.5565 51.3912 21.726 50.7592 21.839 50.1084C21.9457 50.7236 22.0001 51.3535 22.0001 51.998H21.998Z" fill="url(#paint7_linear_2928_15175)"/>
<path d="M21.8369 50.1085C21.7239 50.7593 21.5543 51.3913 21.3325 51.9982C20.4641 54.3775 18.7962 56.3717 16.6555 57.6587C15.0337 58.6338 13.1377 59.203 11.112 59.2239C15.0085 59.1632 18.158 56.0139 18.2187 52.1133C18.2187 52.1007 18.2187 52.0902 18.2187 52.0777C18.2187 52.0505 18.2187 52.0254 18.2187 51.9982C18.2187 51.971 18.2187 51.9459 18.2187 51.9186C18.2187 51.9061 18.2187 51.8956 18.2187 51.8831C18.1977 49.8553 17.6306 47.9594 16.6555 46.3377C15.3706 44.1969 13.3763 42.5291 10.999 41.6586C10.3922 41.4368 9.76019 41.2673 9.10938 41.1543C9.72252 41.0476 10.3545 40.9932 10.999 40.9932C11.6436 40.9932 12.2755 41.0476 12.8887 41.1543C17.4507 41.9453 21.0479 45.5446 21.8389 50.1085H21.8369Z" fill="url(#paint8_linear_2928_15175)"/>
</g>
<mask id="mask1_2928_15175" style="mask-type:luminance" maskUnits="userSpaceOnUse" x="0" y="41" width="8" height="22">
<path d="M7.04385 58.0331C6.63369 57.7632 6.25283 57.4514 5.90127 57.0998C5.2379 56.4365 4.71683 55.6643 4.3548 54.8042C3.98022 53.917 3.78978 52.9732 3.78978 51.996C3.78978 51.0187 3.98022 50.075 4.3548 49.1877C4.71683 48.3297 5.2379 47.5576 5.90127 46.8921C6.25283 46.5406 6.63578 46.2288 7.04385 45.9588C7.14848 45.8898 7.21126 45.7747 7.21126 45.6512V42.1984C7.21126 41.9347 6.9434 41.7569 6.70066 41.8615C2.76229 43.5356 0 47.4425 0 51.996C0 56.5495 2.76229 60.4543 6.70066 62.1305C6.9434 62.233 7.21126 62.0551 7.21126 61.7935V58.3408C7.21126 58.2173 7.14848 58.1022 7.04385 58.0331Z" fill="white"/>
</mask>
<g mask="url(#mask1_2928_15175)">
<path d="M18.22 51.7928C18.22 51.7635 18.22 51.7321 18.2179 51.7028C18.2179 51.7028 18.2179 51.6986 18.2179 51.6966C18.2179 51.6673 18.2158 51.638 18.2137 51.6087C18.2137 51.6087 18.2137 51.6087 18.2137 51.6066C18.2137 51.5773 18.2095 51.5501 18.2095 51.5208C18.2095 51.5208 18.2095 51.5187 18.2095 51.5166C18.2095 51.4873 18.2053 51.458 18.2032 51.4308C18.2032 51.4308 18.2032 51.4287 18.2032 51.4266C18.2032 51.4057 18.1991 51.3827 18.197 51.3617C18.197 51.3555 18.197 51.3471 18.197 51.3408C18.197 51.3408 18.197 51.3366 18.197 51.3345C18.1928 51.2927 18.1886 51.2508 18.1844 51.209C18.1844 51.1922 18.1802 51.1776 18.1781 51.1608C18.1781 51.1504 18.176 51.1399 18.1739 51.1315C18.1718 51.1127 18.1698 51.0918 18.1677 51.073C18.1677 51.0646 18.1677 51.0583 18.1656 51.0499C18.1635 51.029 18.1593 51.006 18.1572 50.9851C18.1551 50.9662 18.1509 50.9474 18.1488 50.9286C18.1446 50.9014 18.1405 50.8742 18.1363 50.847C18.1363 50.8449 18.1363 50.8428 18.1363 50.8407C18.1342 50.8239 18.1321 50.8093 18.1279 50.7925C18.1279 50.7884 18.1279 50.7842 18.1279 50.78C18.1279 50.7737 18.1279 50.7695 18.1258 50.7632C18.1258 50.757 18.1237 50.7507 18.1237 50.7444C18.1237 50.7444 18.1237 50.7423 18.1237 50.7402C18.1237 50.736 18.1237 50.7298 18.1216 50.7256C18.1216 50.7235 18.1216 50.7214 18.1216 50.7193C18.1216 50.7151 18.1216 50.7109 18.1216 50.7088C18.1174 50.6879 18.1133 50.6691 18.1112 50.6482C18.107 50.6293 18.1028 50.6084 18.1007 50.5896C18.0986 50.5749 18.0944 50.5603 18.0923 50.5456C18.0923 50.5414 18.0923 50.5372 18.0902 50.5331C18.0902 50.5289 18.0902 50.5268 18.0881 50.5226C18.0881 50.5163 18.0861 50.5121 18.084 50.5059C18.0798 50.4891 18.0777 50.4724 18.0735 50.4556V50.4494C18.0735 50.4494 18.0714 50.4452 18.0714 50.4431V50.4326C18.0714 50.4326 18.0672 50.4263 18.0672 50.4222C18.0651 50.4117 18.063 50.3991 18.0588 50.3887C18.0588 50.3824 18.0568 50.3761 18.0547 50.3698C18.0484 50.3405 18.0421 50.3133 18.0337 50.284C18.0316 50.2736 18.0295 50.2652 18.0275 50.2547L18.0128 50.1982C18.0128 50.1982 18.0128 50.1899 18.0086 50.1857V50.1836C18.0086 50.1773 18.0065 50.1731 18.0044 50.1669C18.0003 50.148 17.9961 50.1313 17.9898 50.1124C17.9898 50.1124 17.9898 50.1062 17.9877 50.102C17.9877 50.102 17.9877 50.0978 17.9877 50.0957C17.9814 50.0727 17.9751 50.0497 17.9689 50.0287C17.9605 50.0015 17.9521 49.9722 17.9437 49.945C17.9437 49.943 17.9438 49.9388 17.9417 49.9367C17.9417 49.9346 17.9417 49.9304 17.9396 49.9283C17.9333 49.9032 17.9249 49.8802 17.9186 49.8572C17.9103 49.832 17.9019 49.8069 17.8935 49.7797C17.8893 49.7693 17.8872 49.7588 17.8831 49.7462C17.8789 49.7337 17.8768 49.7253 17.8726 49.7128C17.8726 49.7065 17.8684 49.7023 17.8663 49.696C17.8642 49.6897 17.8621 49.6835 17.86 49.6772C17.8538 49.6563 17.8454 49.6353 17.8391 49.6144C17.8307 49.5935 17.8245 49.5705 17.8161 49.5495C17.814 49.5412 17.8098 49.5328 17.8077 49.5244C17.8035 49.5098 17.7973 49.4951 17.791 49.4826C17.791 49.4784 17.7868 49.4721 17.7847 49.4679C17.7826 49.4596 17.7784 49.4512 17.7763 49.4428C17.7763 49.4386 17.7742 49.4344 17.7722 49.4303C17.7701 49.4219 17.7659 49.4135 17.7617 49.4051C17.7575 49.3947 17.7533 49.3821 17.7491 49.3717C17.7387 49.3445 17.7282 49.3173 17.7177 49.2921C17.7177 49.2901 17.7177 49.288 17.7157 49.2859C17.7073 49.2649 17.6989 49.2419 17.6884 49.221C17.6884 49.2168 17.6864 49.2147 17.6843 49.2105C17.6759 49.1896 17.6654 49.1687 17.6571 49.1457C17.6571 49.1415 17.6529 49.1373 17.6529 49.1331C17.6529 49.1331 17.6529 49.1289 17.6508 49.1289C17.6403 49.1059 17.6319 49.0829 17.6215 49.0599C17.6215 49.0578 17.6194 49.0557 17.6173 49.0515C17.6068 49.0264 17.5943 49.0013 17.5817 48.9741C17.5754 48.9615 17.5692 48.949 17.5629 48.9343C17.5566 48.9218 17.5503 48.9092 17.5441 48.8946C17.5315 48.8694 17.5189 48.8443 17.5085 48.8192C17.5085 48.8192 17.5085 48.8171 17.5085 48.815C17.4959 48.792 17.4855 48.769 17.4729 48.7439C17.4729 48.7439 17.4729 48.7397 17.4708 48.7376C17.4708 48.7376 17.4708 48.7376 17.4708 48.7355C17.4624 48.7167 17.452 48.6999 17.4436 48.6811C17.4436 48.6769 17.4415 48.6748 17.4394 48.6727C17.4394 48.6686 17.4352 48.6665 17.4352 48.6623C17.4269 48.6455 17.4185 48.6309 17.4101 48.6141C17.4059 48.6058 17.3997 48.5953 17.3955 48.5849C17.3955 48.5828 17.3934 48.5786 17.3913 48.5765C17.385 48.566 17.3787 48.5535 17.3725 48.543C17.3662 48.5325 17.3599 48.52 17.3536 48.5095C17.3494 48.5011 17.3432 48.4907 17.339 48.4823C17.339 48.4823 17.339 48.4823 17.339 48.4802C17.3348 48.4719 17.3285 48.4614 17.3243 48.453C17.3222 48.4467 17.318 48.4405 17.3139 48.4342C17.3076 48.4237 17.3034 48.4153 17.2971 48.4049C17.2908 48.3923 17.2825 48.3798 17.2762 48.3672C17.2762 48.3672 17.272 48.3588 17.2699 48.3547C17.2678 48.3505 17.2657 48.3463 17.2636 48.3421C17.2615 48.3379 17.2595 48.3337 17.2574 48.3296C17.249 48.3149 17.2406 48.3003 17.2322 48.2856C17.2322 48.2835 17.2302 48.2814 17.2281 48.2793C17.2281 48.2772 17.2239 48.2731 17.2239 48.271C17.2218 48.2668 17.2176 48.2605 17.2155 48.2563C17.2092 48.2458 17.2009 48.2333 17.1946 48.2228C17.1946 48.2207 17.1904 48.2165 17.1904 48.2145C17.1904 48.2124 17.1883 48.2103 17.1862 48.2082C17.1737 48.1873 17.1611 48.1663 17.1465 48.1454C17.1381 48.1328 17.1318 48.1203 17.1234 48.1098C17.1192 48.1035 17.1151 48.0952 17.1109 48.0889C17.1067 48.0826 17.1025 48.0763 17.0983 48.0701C17.0941 48.0617 17.0879 48.0533 17.0837 48.0471C17.0816 48.0429 17.0795 48.0387 17.0753 48.0345C17.0669 48.0219 17.0607 48.0115 17.0523 47.9989C17.0397 47.9801 17.0272 47.9613 17.0146 47.9424C17.0125 47.9382 17.0083 47.932 17.0062 47.9278C17.0042 47.9236 17.0021 47.9215 17 47.9173C16.9853 47.8985 16.9728 47.8776 16.9581 47.8587C16.9435 47.8399 16.9309 47.819 16.9163 47.8001C16.9142 47.7959 16.9121 47.7938 16.9079 47.7897C16.9037 47.7855 16.9016 47.7813 16.8995 47.7771C16.8849 47.7583 16.8723 47.7394 16.8577 47.7206C16.8514 47.7101 16.843 47.6997 16.8346 47.6892C16.8263 47.6767 16.8179 47.6662 16.8095 47.6536C16.8074 47.6515 16.8053 47.6474 16.8033 47.6453C16.7949 47.6327 16.7844 47.6202 16.7761 47.6097C16.7698 47.6013 16.7635 47.593 16.7572 47.5846C16.7426 47.5637 16.7258 47.5448 16.7112 47.526C16.707 47.5218 16.7049 47.5176 16.7007 47.5113C16.684 47.4904 16.6693 47.4716 16.6526 47.4507C16.6442 47.4381 16.6338 47.4276 16.6233 47.4151C16.6191 47.4088 16.6128 47.4025 16.6065 47.3962C16.6003 47.3879 16.5919 47.3795 16.5856 47.3711C16.5793 47.3628 16.5731 47.3565 16.5668 47.3502C16.5605 47.3418 16.5542 47.3356 16.548 47.3272C16.5438 47.3209 16.5396 47.3167 16.5354 47.3125C16.527 47.3042 16.5208 47.2937 16.5124 47.2853C16.5061 47.2791 16.5019 47.2728 16.4956 47.2665C16.4935 47.2623 16.4894 47.2602 16.4873 47.256C16.4852 47.254 16.4831 47.2498 16.4789 47.2456C16.4622 47.2267 16.4475 47.21 16.4308 47.1912C16.4119 47.1703 16.3931 47.1493 16.3743 47.1284C16.3554 47.1075 16.3366 47.0865 16.3157 47.0656C16.2968 47.0447 16.2759 47.0238 16.2571 47.0049C16.2173 46.9631 16.1796 46.9233 16.1378 46.8836C16.1273 46.8731 16.119 46.8626 16.1085 46.8543C16.098 46.8438 16.0876 46.8354 16.0771 46.825C16.0562 46.8061 16.0373 46.7852 16.0164 46.7664C15.9955 46.7475 15.9746 46.7266 15.9536 46.7078C15.9327 46.689 15.9118 46.6701 15.8909 46.6492C15.8699 46.6304 15.849 46.6115 15.8281 46.5927C15.8113 46.578 15.7925 46.5613 15.7758 46.5467C15.7716 46.5425 15.7674 46.5404 15.7653 46.5362C15.7444 46.5174 15.7235 46.4985 15.7004 46.4818C15.6795 46.465 15.6607 46.4483 15.6397 46.4316C15.6356 46.4274 15.6293 46.4232 15.6251 46.419C15.6125 46.4085 15.6021 46.4002 15.5895 46.3897C15.5874 46.3876 15.5832 46.3855 15.5812 46.3834C15.577 46.3813 15.5749 46.3792 15.5728 46.3751C15.5581 46.3625 15.5435 46.352 15.5288 46.3395C15.5226 46.3353 15.5163 46.329 15.5121 46.3248C15.5121 46.3248 15.51 46.3227 15.5079 46.3207C15.4954 46.3123 15.4849 46.3018 15.4723 46.2934C15.464 46.2872 15.4556 46.2788 15.4451 46.2725C15.4451 46.2725 15.4409 46.2683 15.4389 46.2683C15.4158 46.2516 15.3949 46.2328 15.3719 46.216C15.3489 46.1993 15.3279 46.1825 15.3049 46.1658C15.3028 46.1658 15.3007 46.1616 15.2986 46.1616C15.2798 46.147 15.261 46.1344 15.2421 46.1219C15.2421 46.1219 15.238 46.1177 15.2359 46.1177C15.2296 46.1135 15.2254 46.1093 15.2191 46.1051C15.2128 46.1009 15.2087 46.0967 15.2024 46.0926C15.1961 46.0884 15.1877 46.0821 15.1815 46.0779C15.1773 46.0758 15.1752 46.0737 15.171 46.0695C15.171 46.0695 15.1668 46.0674 15.1647 46.0654C15.1417 46.0486 15.1187 46.034 15.0936 46.0172C15.081 46.0089 15.0705 46.0005 15.058 45.9942C15.0454 45.9858 15.035 45.9796 15.0224 45.9712C15.0161 45.967 15.0099 45.9628 15.0057 45.9586C15.0015 45.9565 14.9994 45.9544 14.9952 45.9524C14.9931 45.9524 14.991 45.9503 14.9889 45.9482C14.9806 45.9419 14.9701 45.9356 14.9617 45.9293C14.9596 45.9293 14.9575 45.9272 14.9534 45.9251C14.9513 45.9251 14.9471 45.921 14.945 45.921C14.9241 45.9063 14.901 45.8938 14.8801 45.8791C14.8676 45.8707 14.8571 45.8645 14.8445 45.8561C14.832 45.8477 14.8215 45.8414 14.809 45.8331C14.809 45.8331 14.8069 45.8331 14.8048 45.831C14.7859 45.8205 14.7671 45.808 14.7483 45.7975C14.7441 45.7954 14.7399 45.7912 14.7357 45.7891C14.7148 45.7766 14.696 45.764 14.675 45.7536C14.6688 45.7494 14.6625 45.7452 14.6562 45.7431C14.6416 45.7347 14.629 45.7264 14.6143 45.7201C14.6102 45.718 14.606 45.7159 14.6018 45.7138C14.5934 45.7096 14.5851 45.7054 14.5788 45.7012C14.5578 45.6887 14.5348 45.6761 14.5139 45.6636C14.493 45.6531 14.4741 45.6406 14.4532 45.6301C14.449 45.628 14.4428 45.6259 14.4386 45.6217C14.4135 45.6092 14.3904 45.5966 14.3674 45.5841C14.3674 45.5841 14.3674 45.5841 14.3653 45.5841C14.3402 45.5715 14.3151 45.5569 14.29 45.5443C14.2712 45.5338 14.2502 45.5255 14.2314 45.515C14.2251 45.5108 14.2188 45.5087 14.2126 45.5066C14.1937 45.4983 14.177 45.4899 14.1582 45.4794C14.1456 45.4731 14.133 45.4669 14.1205 45.4606C14.1037 45.4543 14.0891 45.4459 14.0744 45.4397C14.0682 45.4376 14.064 45.4355 14.0577 45.4313C14.0493 45.4271 14.0389 45.4229 14.0305 45.4187C14.0305 45.4187 14.0138 45.4104 14.0075 45.4083C13.9991 45.4041 13.9907 45.402 13.9824 45.3978C13.9824 45.3978 13.9824 45.3978 13.9803 45.3978C13.974 45.3957 13.9677 45.3915 13.9614 45.3894C13.9405 45.3811 13.9217 45.3706 13.9008 45.3622C13.8966 45.3622 13.8945 45.3601 13.8903 45.3581C13.8715 45.3497 13.8505 45.3413 13.8317 45.3329C13.8275 45.3329 13.8233 45.3288 13.8212 45.3288C13.815 45.3267 13.8087 45.3225 13.8003 45.3204C13.794 45.3183 13.7878 45.3141 13.7815 45.312C13.7689 45.3057 13.7543 45.3016 13.7417 45.2953C13.7166 45.2848 13.6936 45.2764 13.6685 45.266C13.6538 45.2597 13.6413 45.2555 13.6266 45.2492C13.6182 45.2451 13.612 45.243 13.6036 45.2409C13.5994 45.2409 13.5952 45.2367 13.589 45.2346C13.5848 45.2346 13.5827 45.2325 13.5785 45.2304C13.5701 45.2262 13.5597 45.2241 13.5513 45.2199C13.5345 45.2137 13.5178 45.2074 13.499 45.2011C13.4948 45.2011 13.4927 45.199 13.4885 45.1969C13.4655 45.1886 13.4404 45.1802 13.4153 45.1718C13.4153 45.1718 13.4111 45.1718 13.409 45.1718C13.3839 45.1634 13.3567 45.153 13.3316 45.1446C13.3295 45.1446 13.3274 45.1446 13.3253 45.1425C13.3044 45.1362 13.2813 45.1279 13.2604 45.1216C13.2583 45.1216 13.2541 45.1195 13.252 45.1195C13.252 45.1195 13.252 45.1195 13.2499 45.1195C13.2248 45.1111 13.1976 45.1028 13.1725 45.0944C13.1725 45.0944 13.1683 45.0944 13.1662 45.0944C13.16 45.0944 13.1537 45.0902 13.1474 45.0881C13.1411 45.086 13.1328 45.0839 13.1265 45.0818C13.1139 45.0776 13.0993 45.0735 13.0867 45.0693H13.0825C13.0763 45.0693 13.0721 45.0651 13.0658 45.0651C13.0449 45.0588 13.0239 45.0525 13.003 45.0463C12.9905 45.0421 12.9779 45.04 12.9653 45.0358C12.9507 45.0316 12.936 45.0274 12.9214 45.0232C12.9005 45.017 12.8816 45.0128 12.8607 45.0065C12.8523 45.0065 12.844 45.0023 12.8377 45.0002C12.8356 45.0002 12.8314 45.0002 12.8293 44.9981C12.821 44.996 12.8105 44.9939 12.8021 44.9919C12.7833 44.9877 12.7644 44.9814 12.7435 44.9772C12.7121 44.9688 12.6828 44.9626 12.6514 44.9563C12.6242 44.95 12.597 44.9437 12.5698 44.9374C12.5615 44.9374 12.5552 44.9333 12.5468 44.9333C12.5426 44.9333 12.5405 44.9333 12.5384 44.9333C12.5364 44.9333 12.5322 44.9333 12.5301 44.9333C12.5154 44.9291 12.5029 44.927 12.4882 44.9249C12.4861 44.9249 12.484 44.9249 12.4798 44.9249C12.4506 44.9186 12.4213 44.9144 12.392 44.9081C12.3648 44.904 12.3396 44.8977 12.3124 44.8935C12.2915 44.8893 12.2706 44.8851 12.2476 44.883C12.2392 44.883 12.2329 44.8809 12.2245 44.8788C12.2162 44.8788 12.2078 44.8768 12.1994 44.8747C12.1785 44.8705 12.1555 44.8684 12.1346 44.8642C12.1178 44.8621 12.099 44.8579 12.0822 44.8558C12.0676 44.8537 12.0509 44.8516 12.0362 44.8496C12.009 44.8454 11.9818 44.8433 11.9546 44.8391C11.9358 44.837 11.9169 44.8349 11.896 44.8328C11.8876 44.8328 11.8772 44.8307 11.8688 44.8286C11.8688 44.8286 11.8688 44.8286 11.8667 44.8286C11.8583 44.8286 11.8521 44.8286 11.8437 44.8265C11.8437 44.8265 11.8395 44.8265 11.8374 44.8265C11.8186 44.8244 11.7997 44.8223 11.7809 44.8203C11.7579 44.8182 11.7349 44.8161 11.7118 44.814C11.7056 44.814 11.6993 44.814 11.693 44.814C11.6888 44.814 11.6826 44.814 11.6784 44.814C11.6533 44.8119 11.6281 44.8098 11.6051 44.8077C11.5758 44.8056 11.5444 44.8035 11.5151 44.8014C11.4775 44.7993 11.4398 44.7972 11.4021 44.7951C11.3791 44.7951 11.3582 44.7931 11.3352 44.791H11.331C11.3142 44.791 11.2975 44.791 11.2808 44.791C11.2682 44.791 11.2557 44.791 11.2431 44.791H11.241C11.2284 44.791 11.2159 44.791 11.2033 44.791C11.1866 44.791 11.1699 44.791 11.1531 44.791C11.1489 44.791 11.1447 44.791 11.1406 44.791C11.1259 44.791 11.1113 44.791 11.0966 44.791C11.0778 44.791 11.0589 44.791 11.0401 44.791C11.0213 44.791 11.0003 44.791 10.9794 44.791C10.6467 44.791 10.3181 44.8098 9.99378 44.8412C9.91636 44.8496 9.84102 44.8558 9.76359 44.8663C9.72593 44.8705 9.68826 44.8747 9.65059 44.8809C9.61292 44.8851 9.57525 44.8914 9.53759 44.8956C9.50201 44.8998 9.46853 44.904 9.43295 44.9102C9.42877 44.9102 9.42668 44.9102 9.42249 44.9102C9.34716 44.9207 9.27182 44.9333 9.19649 44.9458C9.15882 44.9521 9.12115 44.9584 9.08348 44.9646C9.06465 44.9688 9.04372 44.9709 9.02489 44.9751C9.00605 44.9793 8.98513 44.9835 8.96629 44.9856C8.91816 44.9939 8.87003 45.0044 8.8219 45.0149C8.77168 45.0253 8.72145 45.0358 8.67123 45.0463C8.66914 45.0463 8.66705 45.0463 8.66495 45.0463C8.61473 45.0567 8.56241 45.0693 8.51219 45.0818C8.45987 45.0944 8.40756 45.1069 8.35315 45.1195C8.32385 45.1258 8.29455 45.1341 8.26526 45.1425C8.20666 45.1572 8.14807 45.1739 8.08948 45.1886C8.06018 45.1969 8.03088 45.2053 8.00159 45.2137C7.97229 45.222 7.94299 45.2304 7.91369 45.2388C7.8844 45.2471 7.8551 45.2555 7.82789 45.2639C7.80069 45.2723 7.77139 45.2806 7.74419 45.2911C7.74419 45.2911 7.7421 45.2911 7.74 45.2911C7.7128 45.2995 7.6835 45.3078 7.6563 45.3183C7.627 45.3267 7.5998 45.3371 7.5705 45.3476C7.54329 45.356 7.51609 45.3664 7.48889 45.3748C7.46796 45.3832 7.44494 45.3894 7.42401 45.3978C7.40727 45.4041 7.38844 45.4104 7.3717 45.4166C7.30473 45.4418 7.23568 45.4648 7.16871 45.4899C7.15197 45.4962 7.13732 45.5024 7.12058 45.5087C7.10175 45.515 7.08291 45.5234 7.06408 45.5297C7.0306 45.5422 6.99711 45.5569 6.96363 45.5694C6.9448 45.5757 6.92596 45.5841 6.90713 45.5924C6.85691 45.6134 6.80668 45.6343 6.75646 45.6552C6.72925 45.6678 6.69996 45.6803 6.67275 45.6908C6.64973 45.7012 6.62672 45.7117 6.6016 45.7222C6.51371 45.7619 6.42582 45.8017 6.34002 45.8414C6.31491 45.8519 6.29189 45.8645 6.26678 45.877C5.96335 46.0235 5.66828 46.1825 5.38159 46.3562C3.24081 47.6432 1.57507 49.6374 0.704524 52.0167C0.482704 52.6236 0.313199 53.2555 0.200196 53.9063C0.0934714 53.2932 0.0390625 52.6612 0.0390625 52.0167C0.0390625 51.3722 0.0934714 50.7402 0.200196 50.1271C0.989124 45.5631 4.58848 41.9639 9.14835 41.1729C9.79917 41.2859 10.4311 41.4554 11.038 41.6772C13.4153 42.5477 15.4096 44.2155 16.6944 46.3562C17.6696 47.9801 18.2367 49.876 18.2576 51.9016C18.2576 51.8702 18.2576 51.8409 18.2556 51.8116L18.22 51.7928Z" fill="url(#paint9_linear_2928_15175)"/>
<path d="M12.8915 62.8439C12.2784 62.9506 11.6464 63.005 11.0019 63.005C10.3573 63.005 9.72537 62.9506 9.11222 62.8439C4.55025 62.055 0.95299 58.4536 0.164062 53.8896C0.277065 53.2388 0.44657 52.6069 0.66839 52C1.53893 49.6207 3.20468 47.6265 5.34546 46.3395C5.63215 46.1679 5.92721 46.0068 6.23065 45.8603C6.25576 45.8478 6.27878 45.8373 6.30389 45.8248C6.38969 45.7829 6.47758 45.7432 6.56547 45.7055C6.58849 45.695 6.61151 45.6846 6.63662 45.6741C6.66382 45.6615 6.69312 45.649 6.72033 45.6385C6.77055 45.6176 6.82077 45.5967 6.871 45.5757C6.88983 45.5674 6.90866 45.5611 6.9275 45.5527C6.96098 45.5402 6.99446 45.5255 7.02795 45.513C7.04678 45.5046 7.06561 45.4983 7.08445 45.492C7.10119 45.4858 7.11584 45.4795 7.13258 45.4732C7.19954 45.4481 7.26651 45.423 7.33556 45.4C7.35231 45.3937 7.37114 45.3874 7.38788 45.3811C7.40881 45.3728 7.42973 45.3665 7.45275 45.3581C7.47996 45.3497 7.50716 45.3393 7.53437 45.3309C7.56366 45.3204 7.59087 45.3121 7.62016 45.3016C7.64946 45.2932 7.67667 45.2828 7.70387 45.2744C7.70387 45.2744 7.70596 45.2744 7.70806 45.2744L7.79176 45.2472C7.82106 45.2388 7.85035 45.2305 7.87756 45.2221C7.90686 45.2137 7.93615 45.2054 7.96545 45.197C7.99475 45.1886 8.02404 45.1802 8.05334 45.1719C8.11194 45.1551 8.17053 45.1405 8.22912 45.1258C8.25842 45.1175 8.28772 45.1112 8.31702 45.1028C8.36933 45.0903 8.42165 45.0777 8.47606 45.0651C8.52628 45.0526 8.5786 45.0421 8.62882 45.0296C8.63091 45.0296 8.63301 45.0296 8.6351 45.0296C8.68532 45.0191 8.73555 45.0086 8.78577 44.9982C8.8339 44.9877 8.88203 44.9793 8.93016 44.9689C8.949 44.9647 8.96992 44.9605 8.98876 44.9584C9.00759 44.9542 9.02852 44.9521 9.04735 44.948C9.08502 44.9417 9.12269 44.9354 9.16035 44.9291C9.23569 44.9166 9.31102 44.904 9.38636 44.8936C9.39054 44.8936 9.39264 44.8936 9.39682 44.8936C9.4303 44.8894 9.46588 44.8831 9.50145 44.8789C9.53912 44.8747 9.57679 44.8684 9.61446 44.8643C9.65212 44.8601 9.68979 44.8559 9.72746 44.8496C9.8028 44.8412 9.88022 44.8329 9.95765 44.8245C10.2653 44.7952 10.575 44.7785 10.8889 44.7764C6.99237 44.8371 3.84294 47.9864 3.78225 51.887C3.78225 51.8996 3.78225 51.91 3.78225 51.9226C3.78225 51.9498 3.78225 51.9749 3.78225 52.0021C3.78225 52.0293 3.78225 52.0544 3.78225 52.0816C3.78225 52.0942 3.78225 52.1047 3.78225 52.1172C3.80318 54.1449 4.37028 56.0408 5.34546 57.6626C6.63034 59.8033 8.62463 61.4712 11.0019 62.3417C11.6087 62.5635 12.2407 62.733 12.8915 62.846V62.8439Z" fill="url(#paint10_linear_2928_15175)"/>
<path d="M22.0019 51.998C22.0019 52.6425 21.9475 53.2745 21.8408 53.8876C21.0519 58.4516 17.4525 62.0509 12.8905 62.8419C12.2397 62.7289 11.6077 62.5594 11.0009 62.3376C8.62363 61.467 6.62934 59.7992 5.34446 57.6585C4.36928 56.0346 3.80218 54.1387 3.78125 52.1131C3.84194 56.0137 6.98928 59.1631 10.8879 59.2238C10.9004 59.2238 10.9109 59.2238 10.9235 59.2238C10.9507 59.2238 10.9758 59.2238 11.003 59.2238C11.0302 59.2238 11.0553 59.2238 11.0825 59.2238C11.0951 59.2238 11.1055 59.2238 11.1181 59.2238C13.1438 59.2028 15.0376 58.6358 16.6615 57.6585C18.8023 56.3716 20.468 54.3773 21.3386 51.998C21.5604 51.3912 21.7299 50.7592 21.8429 50.1084C21.9496 50.7236 22.004 51.3535 22.004 51.998H22.0019Z" fill="url(#paint11_linear_2928_15175)"/>
</g>
<defs>
<linearGradient id="paint0_linear_2928_15175" x1="84.3075" y1="51.4235" x2="26.6412" y2="51.4235" gradientUnits="userSpaceOnUse">
<stop stop-color="#00C2F3"/>
<stop offset="0.13" stop-color="#00BDEF"/>
<stop offset="0.28" stop-color="#00AFE6"/>
<stop offset="0.39" stop-color="#00A1DD"/>
<stop offset="0.51" stop-color="#009CD8"/>
<stop offset="0.65" stop-color="#0091CA"/>
<stop offset="0.8" stop-color="#007DB3"/>
<stop offset="0.95" stop-color="#006293"/>
<stop offset="1" stop-color="#005989"/>
</linearGradient>
<linearGradient id="paint1_linear_2928_15175" x1="84.3085" y1="51.4233" x2="26.6421" y2="51.4233" gradientUnits="userSpaceOnUse">
<stop stop-color="#00C2F3"/>
<stop offset="0.13" stop-color="#00BDEF"/>
<stop offset="0.28" stop-color="#00AFE6"/>
<stop offset="0.39" stop-color="#00A1DD"/>
<stop offset="0.51" stop-color="#009CD8"/>
<stop offset="0.65" stop-color="#0091CA"/>
<stop offset="0.8" stop-color="#007DB3"/>
<stop offset="0.95" stop-color="#006293"/>
<stop offset="1" stop-color="#005989"/>
</linearGradient>
<linearGradient id="paint2_linear_2928_15175" x1="84.3088" y1="51.4235" x2="26.6426" y2="51.4235" gradientUnits="userSpaceOnUse">
<stop stop-color="#00C2F3"/>
<stop offset="0.13" stop-color="#00BDEF"/>
<stop offset="0.28" stop-color="#00AFE6"/>
<stop offset="0.39" stop-color="#00A1DD"/>
<stop offset="0.51" stop-color="#009CD8"/>
<stop offset="0.65" stop-color="#0091CA"/>
<stop offset="0.8" stop-color="#007DB3"/>
<stop offset="0.95" stop-color="#006293"/>
<stop offset="1" stop-color="#005989"/>
</linearGradient>
<linearGradient id="paint3_linear_2928_15175" x1="7.20675" y1="51.9985" x2="10.2118" y2="51.9985" gradientUnits="userSpaceOnUse">
<stop stop-color="#005989"/>
<stop offset="0.1" stop-color="#006799"/>
<stop offset="0.35" stop-color="#0086BD"/>
<stop offset="0.55" stop-color="#0099D3"/>
<stop offset="0.68" stop-color="#00A0DC"/>
<stop offset="0.69" stop-color="#00A1DD"/>
<stop offset="0.88" stop-color="#00B7EC"/>
<stop offset="1" stop-color="#00C0F2"/>
</linearGradient>
<linearGradient id="paint4_linear_2928_15175" x1="13.6721" y1="51.9985" x2="8.01772" y2="51.9985" gradientUnits="userSpaceOnUse">
<stop stop-color="#005989"/>
<stop offset="0.28" stop-color="#007FAF"/>
<stop offset="0.59" stop-color="#00A2D3"/>
<stop offset="0.84" stop-color="#00B8E9"/>
<stop offset="1" stop-color="#00C0F2"/>
</linearGradient>
<linearGradient id="paint5_linear_2928_15175" x1="0.459964" y1="50.7507" x2="15.573" y2="45.8413" gradientUnits="userSpaceOnUse">
<stop stop-color="#005989"/>
<stop offset="0.07" stop-color="#006799"/>
<stop offset="0.26" stop-color="#0086BD"/>
<stop offset="0.4" stop-color="#0099D3"/>
<stop offset="0.5" stop-color="#00A0DC"/>
<stop offset="0.67" stop-color="#00A4DF"/>
<stop offset="0.87" stop-color="#00B2E8"/>
<stop offset="1" stop-color="#00C0F2"/>
</linearGradient>
<linearGradient id="paint6_linear_2928_15175" x1="4.60703" y1="47.3942" x2="12.1842" y2="66.1482" gradientUnits="userSpaceOnUse">
<stop stop-color="#00C0F2"/>
<stop offset="0.02" stop-color="#00BEF0"/>
<stop offset="0.24" stop-color="#00A8E1"/>
<stop offset="0.39" stop-color="#00A0DC"/>
<stop offset="0.48" stop-color="#0091CB"/>
<stop offset="0.7" stop-color="#0072A7"/>
<stop offset="0.88" stop-color="#005F91"/>
<stop offset="1" stop-color="#005989"/>
</linearGradient>
<linearGradient id="paint7_linear_2928_15175" x1="6.33874" y1="57.759" x2="22.8455" y2="55.4382" gradientUnits="userSpaceOnUse">
<stop stop-color="#00C0F2"/>
<stop offset="0.02" stop-color="#00BEF0"/>
<stop offset="0.24" stop-color="#00A8E1"/>
<stop offset="0.39" stop-color="#00A0DC"/>
<stop offset="0.48" stop-color="#0091CB"/>
<stop offset="0.7" stop-color="#0072A7"/>
<stop offset="0.88" stop-color="#005F91"/>
<stop offset="1" stop-color="#005989"/>
</linearGradient>
<linearGradient id="paint8_linear_2928_15175" x1="17.3167" y1="57.0748" x2="11.6689" y2="39.6936" gradientUnits="userSpaceOnUse">
<stop stop-color="#00C0F2"/>
<stop offset="0.02" stop-color="#00BEF0"/>
<stop offset="0.24" stop-color="#00A8E1"/>
<stop offset="0.39" stop-color="#00A0DC"/>
<stop offset="0.48" stop-color="#0091CB"/>
<stop offset="0.7" stop-color="#0072A7"/>
<stop offset="0.88" stop-color="#005F91"/>
<stop offset="1" stop-color="#005989"/>
</linearGradient>
<linearGradient id="paint9_linear_2928_15175" x1="0.46387" y1="50.7507" x2="15.5769" y2="45.8413" gradientUnits="userSpaceOnUse">
<stop stop-color="#005989"/>
<stop offset="0.07" stop-color="#006799"/>
<stop offset="0.26" stop-color="#0086BD"/>
<stop offset="0.4" stop-color="#0099D3"/>
<stop offset="0.5" stop-color="#00A0DC"/>
<stop offset="0.67" stop-color="#00A4DF"/>
<stop offset="0.87" stop-color="#00B2E8"/>
<stop offset="1" stop-color="#00C0F2"/>
</linearGradient>
<linearGradient id="paint10_linear_2928_15175" x1="4.61094" y1="47.3942" x2="12.1881" y2="66.1482" gradientUnits="userSpaceOnUse">
<stop stop-color="#00C0F2"/>
<stop offset="0.02" stop-color="#00BEF0"/>
<stop offset="0.24" stop-color="#00A8E1"/>
<stop offset="0.39" stop-color="#00A0DC"/>
<stop offset="0.48" stop-color="#0091CB"/>
<stop offset="0.7" stop-color="#0072A7"/>
<stop offset="0.88" stop-color="#005F91"/>
<stop offset="1" stop-color="#005989"/>
</linearGradient>
<linearGradient id="paint11_linear_2928_15175" x1="6.34265" y1="57.759" x2="22.8494" y2="55.4382" gradientUnits="userSpaceOnUse">
<stop stop-color="#00C0F2"/>
<stop offset="0.02" stop-color="#00BEF0"/>
<stop offset="0.24" stop-color="#00A8E1"/>
<stop offset="0.39" stop-color="#00A0DC"/>
<stop offset="0.48" stop-color="#0091CB"/>
<stop offset="0.7" stop-color="#0072A7"/>
<stop offset="0.88" stop-color="#005F91"/>
<stop offset="1" stop-color="#005989"/>
</linearGradient>
</defs>
</svg>
