<svg width="24" height="25" viewBox="0 0 24 25" fill="none" xmlns="http://www.w3.org/2000/svg">
<rect y="0.0478516" width="24" height="24" rx="5" fill="#D83C7B"/>
<g clip-path="url(#clip0_1794_3282)">
<path fill-rule="evenodd" clip-rule="evenodd" d="M8.10425 4.71436H15.8959C17.7944 4.71436 19.3334 6.25338 19.3334 8.15186V15.9435C19.3334 17.842 17.7944 19.381 15.8959 19.381H8.10425C6.20577 19.381 4.66675 17.842 4.66675 15.9435V8.15186C4.66675 6.25338 6.20577 4.71436 8.10425 4.71436ZM9.63829 6.35313C10.2494 6.32534 10.4447 6.31852 12.0006 6.31852H11.9988C13.5553 6.31852 13.7498 6.32534 14.361 6.35313C14.9709 6.38103 15.3875 6.47762 15.7527 6.61936C16.1298 6.76551 16.4486 6.96128 16.7672 7.27993C17.0859 7.59842 17.2816 7.91805 17.4285 8.29491C17.5693 8.65917 17.666 9.07545 17.6946 9.68538C17.7221 10.2965 17.7292 10.4918 17.7292 12.0477C17.7292 13.6037 17.7221 13.7985 17.6946 14.4096C17.666 15.0193 17.5693 15.4357 17.4285 15.8002C17.2816 16.1769 17.0859 16.4965 16.7672 16.8149C16.4489 17.1336 16.1297 17.3299 15.753 17.4762C15.3885 17.6179 14.9717 17.7144 14.3618 17.7424C13.7507 17.7702 13.556 17.777 11.9999 17.777C10.444 17.777 10.2489 17.7702 9.63777 17.7424C9.02796 17.7144 8.61157 17.6179 8.24702 17.4762C7.87044 17.3299 7.55081 17.1336 7.23244 16.8149C6.9139 16.4965 6.71813 16.1769 6.5717 15.8C6.43013 15.4357 6.33359 15.0194 6.30552 14.4095C6.27779 13.7984 6.27091 13.6037 6.27091 12.0477C6.27091 10.4918 6.27808 10.2964 6.3054 9.68527C6.33285 9.07563 6.4295 8.65912 6.57158 8.29474C6.71836 7.91805 6.91413 7.59842 7.23284 7.27993C7.55127 6.96139 7.8709 6.76563 8.24776 6.6193C8.61202 6.47762 9.02836 6.38108 9.63829 6.35313ZM11.8097 7.35092C11.6938 7.35087 11.5865 7.35083 11.4866 7.35098V7.34954C10.4189 7.35075 10.2141 7.35791 9.68556 7.3818C9.12696 7.40746 8.82366 7.50056 8.62171 7.57934C8.35433 7.68338 8.16337 7.80753 7.96285 8.00805C7.76227 8.20857 7.63795 8.39953 7.53408 8.66691C7.45565 8.86886 7.36232 9.17205 7.33677 9.73064C7.30933 10.3346 7.30383 10.5151 7.30383 12.045C7.30383 13.575 7.30933 13.7564 7.33677 14.3603C7.36221 14.9189 7.45565 15.2221 7.53408 15.4238C7.63818 15.6913 7.76227 15.8818 7.9628 16.0823C8.16332 16.2829 8.35433 16.407 8.62165 16.5108C8.82377 16.5893 9.12696 16.6826 9.68556 16.7084C10.2895 16.7358 10.4708 16.7418 12.0006 16.7418C13.5303 16.7418 13.7117 16.7358 14.3157 16.7084C14.8743 16.6828 15.1777 16.5897 15.3794 16.5109C15.6469 16.4071 15.8373 16.283 16.0378 16.0825C16.2383 15.882 16.3627 15.6917 16.4665 15.4243C16.545 15.2226 16.6383 14.9194 16.6639 14.3608C16.6913 13.7569 16.6973 13.5754 16.6973 12.0464C16.6973 10.5174 16.6913 10.336 16.6639 9.73207C16.6384 9.17348 16.545 8.87029 16.4665 8.66863C16.3624 8.40125 16.2383 8.21029 16.0378 8.00977C15.8374 7.80919 15.6468 7.68504 15.3794 7.58123C15.1775 7.5028 14.8743 7.40947 14.3157 7.38392C13.7116 7.35648 13.5303 7.35098 12.0006 7.35098C11.9345 7.35098 11.8709 7.35095 11.8097 7.35092ZM14.3713 8.98952C14.3713 8.6099 14.6793 8.30225 15.0588 8.30225V8.30202C15.4384 8.30202 15.7463 8.60996 15.7463 8.98952C15.7463 9.36907 15.4384 9.67702 15.0588 9.67702C14.6793 9.67702 14.3713 9.36907 14.3713 8.98952ZM9.05844 12.0477C9.05844 10.4229 10.3757 9.10559 12.0005 9.10553C13.6253 9.10553 14.9424 10.423 14.9424 12.0477C14.9424 13.6726 13.6254 14.9893 12.0006 14.9893C10.3758 14.9893 9.05844 13.6726 9.05844 12.0477ZM13.9104 12.0477C13.9104 10.9929 13.0553 10.138 12.0006 10.138C10.9459 10.138 10.0909 10.9929 10.0909 12.0477C10.0909 13.1024 10.9459 13.9575 12.0006 13.9575C13.0553 13.9575 13.9104 13.1024 13.9104 12.0477Z" fill="white"/>
</g>
<defs>
<clipPath id="clip0_1794_3282">
<rect width="14.6667" height="14.6667" fill="white" transform="translate(4.66675 4.71436)"/>
</clipPath>
</defs>
</svg>
