<svg width="24" height="25" viewBox="0 0 24 25" fill="none" xmlns="http://www.w3.org/2000/svg">
<rect y="0.0478516" width="24" height="24" rx="5" fill="#FF6060"/>
<path d="M12.0348 7.94971H12.0948C12.6489 7.95172 15.4563 7.97187 16.2133 8.17472C16.4421 8.23663 16.6507 8.3573 16.818 8.52467C16.9854 8.69204 17.1058 8.90026 17.1671 9.12851C17.2352 9.38375 17.283 9.7216 17.3154 10.0702L17.3221 10.1401L17.337 10.3147L17.3423 10.3845C17.3862 10.9985 17.3915 11.5734 17.3922 11.699V11.7494C17.3915 11.8797 17.3855 12.4936 17.337 13.1331L17.3316 13.2036L17.3255 13.2734C17.2918 13.6576 17.2419 14.0392 17.1671 14.3199C17.106 14.5483 16.9857 14.7566 16.8183 14.924C16.6508 15.0914 16.4422 15.212 16.2133 15.2737C15.4314 15.4833 12.4594 15.4981 12.0476 15.4987H11.9519C11.7436 15.4987 10.8821 15.4947 9.97889 15.4638L9.8643 15.4598L9.80566 15.4571L9.69039 15.4524L9.57513 15.4477C8.82692 15.4148 8.11444 15.3617 7.78617 15.273C7.55732 15.2114 7.34875 15.0909 7.18135 14.9236C7.01395 14.7563 6.89361 14.5481 6.83237 14.3199C6.75755 14.0398 6.70767 13.6576 6.67397 13.2734L6.66858 13.2029L6.66318 13.1331C6.62992 12.6779 6.61148 12.2218 6.60791 11.7655L6.60791 11.6829C6.60926 11.5385 6.61465 11.0394 6.65105 10.4887L6.65577 10.4195L6.65779 10.3845L6.66318 10.3147L6.67801 10.1401L6.68475 10.0702C6.71711 9.7216 6.76497 9.38307 6.83305 9.12851C6.89418 8.90017 7.01448 8.69185 7.18188 8.52445C7.34929 8.35705 7.55791 8.23644 7.78684 8.17472C8.11511 8.0874 8.8276 8.03367 9.5758 8.00008L9.69039 7.99538L9.80633 7.99135L9.8643 7.98934L9.97957 7.98463C10.6211 7.96406 11.2628 7.95264 11.9047 7.95038H12.0348V7.94971ZM10.9219 10.1058V13.342L13.724 11.7246L10.9219 10.1058Z" fill="white"/>
</svg>
