<svg width="24" height="25" viewBox="0 0 24 25" fill="none" xmlns="http://www.w3.org/2000/svg">
<rect y="0.0478516" width="24" height="24" rx="5" fill="#0A66C2"/>
<path d="M15.4865 17.5563H17.2859C17.3511 17.5563 17.4136 17.5304 17.4597 17.4843C17.5059 17.4382 17.5318 17.3757 17.5318 17.3105L17.5327 13.5088C17.5327 11.5217 17.1045 9.99439 14.7825 9.99439C13.8997 9.96156 13.0673 10.4166 12.6181 11.1764C12.6159 11.1801 12.6126 11.183 12.6086 11.1846C12.6046 11.1862 12.6002 11.1865 12.5961 11.1854C12.5919 11.1842 12.5883 11.1818 12.5856 11.1784C12.583 11.175 12.5816 11.1708 12.5816 11.1665V10.4237C12.5816 10.3585 12.5556 10.296 12.5095 10.2499C12.4634 10.2037 12.4009 10.1778 12.3357 10.1778H10.6281C10.5629 10.1778 10.5003 10.2037 10.4542 10.2499C10.4081 10.296 10.3822 10.3585 10.3822 10.4237V17.3101C10.3822 17.3753 10.4081 17.4379 10.4542 17.484C10.5003 17.5301 10.5629 17.556 10.6281 17.556H12.4273C12.4925 17.556 12.5551 17.5301 12.6012 17.484C12.6473 17.4379 12.6732 17.3753 12.6732 17.3101V13.9061C12.6732 12.9436 12.8558 12.0114 14.0491 12.0114C15.2254 12.0114 15.2406 13.1128 15.2406 13.9684V17.3104C15.2406 17.3756 15.2665 17.4382 15.3127 17.4843C15.3588 17.5304 15.4213 17.5563 15.4865 17.5563ZM6.46729 7.83977C6.46729 8.56916 7.06771 9.16928 7.7971 9.16928C8.52632 9.16921 9.12637 8.56873 9.12637 7.83952C9.12625 7.11031 8.52613 6.51025 7.79686 6.51025C7.0674 6.51025 6.46729 7.11043 6.46729 7.83977ZM6.89509 17.5563H8.69672C8.76194 17.5563 8.82449 17.5304 8.8706 17.4843C8.91671 17.4382 8.94262 17.3756 8.94262 17.3104V10.4237C8.94262 10.3585 8.91671 10.296 8.8706 10.2499C8.82449 10.2037 8.76194 10.1778 8.69672 10.1778H6.89509C6.82987 10.1778 6.76733 10.2037 6.72121 10.2499C6.6751 10.296 6.64919 10.3585 6.64919 10.4237V17.3104C6.64919 17.3756 6.6751 17.4382 6.72121 17.4843C6.76733 17.5304 6.82987 17.5563 6.89509 17.5563Z" fill="white"/>
</svg>
