<svg width="24" height="25" viewBox="0 0 24 25" fill="none" xmlns="http://www.w3.org/2000/svg">
<rect y="0.0478516" width="24" height="24" rx="5" fill="white"/>
<path d="M14.0822 10.0031C14.8654 10.5626 15.8249 10.8919 16.8611 10.8919V8.89893C16.665 8.89897 16.4694 8.87851 16.2775 8.83788V10.4066C15.2414 10.4066 14.282 10.0774 13.4987 9.5179V13.585C13.4987 15.6195 11.8485 17.2687 9.81304 17.2687C9.05356 17.2687 8.34762 17.0393 7.76123 16.6457C8.43052 17.3297 9.36389 17.754 10.3965 17.754C12.4321 17.754 14.0823 16.1048 14.0823 14.0701V10.0031H14.0822ZM14.8022 7.99244C14.4019 7.55541 14.1391 6.99061 14.0822 6.36618V6.10986H13.5292C13.6684 6.90348 14.1433 7.58149 14.8022 7.99244ZM9.04865 15.0844C8.82504 14.7914 8.70416 14.4329 8.7047 14.0643C8.7047 13.1338 9.45949 12.3793 10.3907 12.3793C10.5642 12.3792 10.7367 12.4058 10.9021 12.4582V10.4207C10.7088 10.3942 10.5138 10.383 10.3188 10.3871V11.973C10.1533 11.9205 9.98073 11.8939 9.80713 11.8941C8.87594 11.8941 8.1212 12.6485 8.1212 13.5791C8.1212 14.2372 8.49845 14.8069 9.04865 15.0844Z" fill="#FF004F"/>
<path d="M13.4988 9.51786C14.2822 10.0774 15.2415 10.4066 16.2776 10.4066V8.83784C15.6993 8.71469 15.1872 8.41263 14.8023 7.99244C14.1434 7.58144 13.6686 6.90343 13.5294 6.10986H12.0768V14.07C12.0735 14.998 11.32 15.7494 10.3908 15.7494C9.84325 15.7494 9.35677 15.4886 9.04871 15.0844C8.49859 14.8069 8.1213 14.2371 8.1213 13.5792C8.1213 12.6486 8.87604 11.8941 9.80723 11.8941C9.98564 11.8941 10.1576 11.9219 10.3189 11.973V10.3872C8.31917 10.4285 6.71094 12.0616 6.71094 14.0701C6.71094 15.0727 7.11141 15.9816 7.76141 16.6457C8.34781 17.0393 9.0537 17.2688 9.81322 17.2688C11.8487 17.2688 13.4989 15.6195 13.4989 13.585L13.4988 9.51786Z" fill="black"/>
<path d="M16.2774 8.83762V8.41354C15.7559 8.41433 15.2446 8.26834 14.8021 7.99227C15.1938 8.42088 15.7096 8.71645 16.2774 8.8377V8.83762ZM13.5291 6.10964C13.5159 6.03382 13.5057 5.95748 13.4986 5.88083V5.62451H11.4929V13.5847C11.4897 14.5127 10.7362 15.264 9.80699 15.264C9.54355 15.2644 9.28372 15.2029 9.04847 15.0843C9.35653 15.4884 9.84301 15.7492 10.3905 15.7492C11.3197 15.7492 12.0733 14.9979 12.0765 14.0699V6.10969H13.5291V6.10964ZM10.3188 10.3869V9.93539C10.1512 9.91248 9.98223 9.90103 9.81307 9.90109C7.77736 9.90109 6.1272 11.5504 6.1272 13.5847C6.1272 14.8602 6.77573 15.9843 7.76126 16.6455C7.11126 15.9814 6.71078 15.0724 6.71078 14.0698C6.71078 12.0614 8.31897 10.4282 10.3188 10.3869Z" fill="#00F2EA"/>
</svg>
