<svg width="24" height="25" viewBox="0 0 24 25" fill="none" xmlns="http://www.w3.org/2000/svg">
<rect y="0.0478516" width="24" height="24" rx="5" fill="#0091FF"/>
<path d="M12.3675 10.7516V10.4141H13.3778V15.1556H12.8003C12.6859 15.1558 12.5762 15.1107 12.4951 15.0302C12.414 14.9496 12.3681 14.8402 12.3675 14.7259C11.9458 15.0346 11.4366 15.2014 10.914 15.2006C10.261 15.2006 9.63479 14.9413 9.17293 14.4798C8.71107 14.0182 8.4514 13.3921 8.451 12.7391C8.4514 12.0862 8.71107 11.4601 9.17293 10.9985C9.63479 10.5369 10.261 10.2776 10.914 10.2776C11.4363 10.277 11.946 10.4431 12.3675 10.7516ZM8.18925 8.89014V9.04389C8.18925 9.33039 8.151 9.56439 7.96425 9.83889L7.94175 9.86439C7.87953 9.93416 7.81901 10.0054 7.76025 10.0781L4.518 14.1476H8.18925V14.7236C8.18925 14.7804 8.17805 14.8367 8.15629 14.8891C8.13454 14.9416 8.10265 14.9892 8.06246 15.0294C8.02226 15.0695 7.97455 15.1013 7.92205 15.123C7.86955 15.1446 7.81329 15.1557 7.7565 15.1556H3V14.8841C3 14.5519 3.0825 14.4034 3.1875 14.2489L6.64275 9.97014H3.144V8.89014H8.18925ZM14.6025 15.1556C14.507 15.1556 14.4155 15.1177 14.3479 15.0502C14.2804 14.9827 14.2425 14.8911 14.2425 14.7956V8.89014H15.3232V15.1556H14.6025ZM18.5198 10.2476C18.8454 10.2475 19.1678 10.3116 19.4687 10.4361C19.7695 10.5606 20.0429 10.7432 20.2732 10.9733C20.5036 11.2035 20.6863 11.4768 20.811 11.7776C20.9357 12.0784 20.9999 12.4008 21 12.7264C21.0001 13.052 20.9361 13.3744 20.8115 13.6753C20.687 13.9762 20.5045 14.2496 20.2743 14.4799C20.0441 14.7102 19.7708 14.8929 19.4701 15.0176C19.1693 15.1423 18.8469 15.2065 18.5212 15.2066C17.8636 15.2068 17.2329 14.9458 16.7678 14.4809C16.3026 14.0161 16.0412 13.3855 16.041 12.7279C16.0408 12.0703 16.3018 11.4395 16.7667 10.9744C17.2316 10.5093 17.8621 10.2478 18.5198 10.2476ZM10.9148 14.1874C11.1078 14.1918 11.2997 14.1576 11.4793 14.0867C11.6589 14.0159 11.8225 13.9099 11.9606 13.7749C12.0986 13.64 12.2083 13.4788 12.2832 13.3009C12.3581 13.1229 12.3967 12.9318 12.3967 12.7388C12.3967 12.5457 12.3581 12.3546 12.2832 12.1766C12.2083 11.9987 12.0986 11.8375 11.9606 11.7026C11.8225 11.5676 11.6589 11.4616 11.4793 11.3908C11.2997 11.32 11.1078 11.2857 10.9148 11.2901C10.5363 11.2987 10.1762 11.4552 9.91153 11.7259C9.64689 11.9966 9.49871 12.3602 9.49871 12.7388C9.49871 13.1174 9.64689 13.4809 9.91153 13.7516C10.1762 14.0224 10.5363 14.1788 10.9148 14.1874ZM18.5198 14.1851C18.9066 14.1851 19.2777 14.0314 19.5512 13.7579C19.8248 13.4843 19.9785 13.1133 19.9785 12.7264C19.9785 12.3395 19.8248 11.9685 19.5512 11.6949C19.2777 11.4213 18.9066 11.2676 18.5198 11.2676C18.1329 11.2676 17.7618 11.4213 17.4883 11.6949C17.2147 11.9685 17.061 12.3395 17.061 12.7264C17.061 13.1133 17.2147 13.4843 17.4883 13.7579C17.7618 14.0314 18.1329 14.1851 18.5198 14.1851Z" fill="white"/>
</svg>
