<svg width="24" height="25" viewBox="0 0 24 25" fill="none" xmlns="http://www.w3.org/2000/svg">
<rect y="0.0478516" width="24" height="24" rx="5" fill="url(#paint0_radial_1794_3280)"/>
<path d="M2.86987 11.7737C2.86987 6.68479 6.8563 2.91748 12 2.91748C17.1436 2.91748 21.1301 6.68479 21.1301 11.7737C21.1301 16.8626 17.1436 20.6299 12 20.6299C11.0756 20.6299 10.1899 20.5078 9.35681 20.2795C9.19527 20.2346 9.02316 20.2467 8.86949 20.3138L7.05717 21.1149C6.94771 21.1632 6.82807 21.1839 6.70876 21.1751C6.58945 21.1663 6.47412 21.1283 6.37292 21.0645C6.27171 21.0008 6.18772 20.9131 6.12833 20.8092C6.06894 20.7054 6.03597 20.5885 6.03231 20.469L5.9821 18.8449C5.97863 18.7461 5.95509 18.649 5.9129 18.5595C5.87072 18.4701 5.81078 18.3901 5.73673 18.3245C3.96092 16.7359 2.86987 14.4351 2.86987 11.7737ZM9.19932 10.1086L6.51735 14.3632C6.26056 14.7718 6.76158 15.2317 7.14618 14.9407L10.0279 12.754C10.1227 12.682 10.2383 12.6429 10.3573 12.6425C10.4763 12.6421 10.5922 12.6804 10.6875 12.7517L12.8205 14.3518C12.9719 14.4653 13.1451 14.5462 13.3293 14.5894C13.5134 14.6326 13.7046 14.6372 13.8906 14.6029C14.0766 14.5686 14.2535 14.4961 14.4102 14.3901C14.5668 14.284 14.6997 14.1466 14.8006 13.9866L17.4826 9.73196C17.7405 9.32339 17.2384 8.86346 16.8538 9.15448L13.9721 11.3411C13.8773 11.4131 13.7617 11.4523 13.6426 11.4527C13.5236 11.4531 13.4077 11.4148 13.3124 11.3434L11.1794 9.74223C11.0281 9.62874 10.8549 9.54783 10.6707 9.50461C10.4865 9.46138 10.2954 9.45678 10.1094 9.4911C9.92333 9.52541 9.74643 9.59789 9.5898 9.70397C9.43317 9.81004 9.30021 9.94856 9.19932 10.1086Z" fill="white"/>
<defs>
<radialGradient id="paint0_radial_1794_3280" cx="0" cy="0" r="1" gradientUnits="userSpaceOnUse" gradientTransform="translate(1.81648 26.9499) rotate(-50.4909) scale(34.8688 34.8697)">
<stop stop-color="#0396FF"/>
<stop offset="0.208342" stop-color="#3677FF"/>
<stop offset="0.484395" stop-color="#9A37FF"/>
<stop offset="0.843784" stop-color="#FF6C65"/>
<stop offset="1" stop-color="#E44AA4"/>
</radialGradient>
</defs>
</svg>
