<svg width="24" height="25" viewBox="0 0 24 25" fill="none" xmlns="http://www.w3.org/2000/svg">
<rect y="0.0478516" width="24" height="24" rx="5" fill="#299627"/>
<path d="M17.3 18.0479C15.9111 18.0479 14.5389 17.745 13.1833 17.1392C11.8278 16.5334 10.5944 15.6752 9.48333 14.5645C8.37222 13.4534 7.514 12.2201 6.90867 10.8645C6.30333 9.50896 6.00044 8.13674 6 6.74785C6 6.54785 6.06667 6.38118 6.2 6.24785C6.33333 6.11452 6.5 6.04785 6.7 6.04785H9.4C9.55556 6.04785 9.69444 6.10074 9.81667 6.20652C9.93889 6.3123 10.0111 6.43718 10.0333 6.58118L10.4667 8.91452C10.4889 9.0923 10.4833 9.2423 10.45 9.36452C10.4167 9.48674 10.3556 9.5923 10.2667 9.68118L8.65 11.3145C8.87222 11.7256 9.136 12.1227 9.44133 12.5059C9.74667 12.889 10.0829 13.2585 10.45 13.6145C10.7944 13.959 11.1556 14.2785 11.5333 14.5732C11.9111 14.8679 12.3111 15.1372 12.7333 15.3812L14.3 13.8145C14.4 13.7145 14.5307 13.6394 14.692 13.5892C14.8533 13.539 15.0116 13.5252 15.1667 13.5479L17.4667 14.0145C17.6222 14.059 17.75 14.1396 17.85 14.2565C17.95 14.3734 18 14.5039 18 14.6479V17.3479C18 17.5479 17.9333 17.7145 17.8 17.8479C17.6667 17.9812 17.5 18.0479 17.3 18.0479ZM8.01667 10.0479L9.11667 8.94785L8.83333 7.38118H7.35C7.40556 7.83674 7.48333 8.28674 7.58333 8.73118C7.68333 9.17563 7.82778 9.61452 8.01667 10.0479ZM13.9833 16.0145C14.4167 16.2034 14.8584 16.3534 15.3087 16.4645C15.7589 16.5756 16.2116 16.6479 16.6667 16.6812V15.2145L15.1 14.8979L13.9833 16.0145Z" fill="white"/>
</svg>
