<svg width="16" height="12" viewBox="0 0 16 12" fill="none" xmlns="http://www.w3.org/2000/svg">
<g id="Group 46">
<path id="Vector" fill-rule="evenodd" clip-rule="evenodd" d="M8.90923 3.81162L7.79695 4.9239L7.74151 4.97854L7.12462 5.59623L6.56237 6.15863L6.50759 6.214L5.98569 6.73457L5.93098 6.78994C5.77474 6.94626 5.602 7.07438 5.41844 7.17585C5.32551 7.22702 5.23053 7.27083 5.13333 7.30824C4.91664 7.39181 4.68919 7.44077 4.46027 7.45521C4.31993 7.46463 4.17738 7.46095 4.0377 7.44372C3.73537 7.40757 3.43871 7.31118 3.16804 7.15435C3.05214 7.08742 2.93337 7.01754 2.83463 6.91961L0.70013 4.78592C0.664861 4.74689 0.633199 4.7047 0.606618 4.65927C0.538877 4.5447 0.5 4.41194 0.5 4.26969C0.5 4.2473 0.50081 4.22499 0.502872 4.20334C0.505743 4.17036 0.510824 4.1384 0.517303 4.10755L0.530189 4.05645C0.558979 3.96139 0.605808 3.87156 0.670678 3.79071C0.687908 3.77017 0.705874 3.74992 0.725312 3.72967L0.761318 3.69418L2.91887 1.5359L4.227 0.228791C4.51859 -0.0628636 4.98298 -0.0759701 5.28884 0.191165L8.90923 3.81162Z" fill="#1B94D2"/>
<path id="Vector_2" fill-rule="evenodd" clip-rule="evenodd" d="M2.8131 6.89876C2.81988 6.90546 2.82665 6.91208 2.83335 6.91856C2.93194 7.01635 3.05152 7.08696 3.16808 7.15396C3.43875 7.31087 3.73541 7.40733 4.03774 7.44341C4.17735 7.46064 4.3199 7.46425 4.46031 7.45482C4.68923 7.44046 4.91675 7.39142 5.13338 7.308C5.23057 7.2706 5.32563 7.22664 5.4184 7.17561C5.60204 7.074 5.77471 6.94588 5.93103 6.78971L5.98574 6.735L6.50697 6.21384L6.77116 5.9495L7.38819 5.33269L7.74163 4.97823L7.79707 4.92359L10.0381 2.68269L10.9625 1.68108L11.018 1.62645C11.3002 1.34437 11.7581 1.34437 12.0402 1.62645L12.5463 2.13237L12.5635 2.14901C12.3397 2.13833 12.1136 2.21889 11.9444 2.38463L10.2318 4.06925L10.2145 4.09016L7.23408 7.0229L7.22974 7.01929L6.13204 8.09777L6.05863 8.17545C5.97219 8.25969 5.7915 8.41895 5.54954 8.5333C5.44013 8.58514 5.32857 8.62254 5.2185 8.64566C5.15296 8.65855 5.08596 8.66724 5.0205 8.67011H4.97073C4.79659 8.67011 4.62525 8.63123 4.46112 8.55635L3.94489 8.04174L3.73467 7.83071L2.76855 6.85377L2.8131 6.89876ZM15.2879 5.89685L12.8056 8.41652L10.2564 11.0047C10.1751 11.086 10.0901 11.1594 10.0002 11.2256C9.99725 11.2286 9.99364 11.2314 9.99004 11.2343C9.97781 11.2429 9.96559 11.2523 9.95263 11.2609L9.94836 11.2645C9.56386 11.5396 9.09232 11.7009 8.58404 11.7009C7.95626 11.7009 7.38606 11.4546 6.9643 11.0536L6.90598 11.0018L6.46743 10.5634L5.23572 9.33095L4.76706 8.86229C4.83399 8.87304 4.90166 8.87804 4.96933 8.87804L5.02624 8.87738C5.10473 8.87444 5.18323 8.86516 5.26017 8.84933C5.38615 8.82334 5.51354 8.78011 5.63878 8.72121C5.90805 8.59368 6.10892 8.41741 6.20464 8.32375C6.24212 8.28693 6.27017 8.25608 6.28173 8.24238L7.22915 7.31161L7.23276 7.31588L10.4903 4.11099L10.5076 4.09008L12.09 2.53285C12.3031 2.32455 12.6358 2.29723 12.8776 2.46364L13.2526 2.83864L15.2879 4.87382C15.3059 4.89193 15.3232 4.91071 15.339 4.92985C15.5694 5.21451 15.5521 5.63355 15.2879 5.89685Z" fill="#ED1C24"/>
<path id="Vector_3" d="M8.57499 4.14843L8.36617 4.35702L7.99978 3.98835C7.94213 3.93018 7.94286 3.83652 8.00044 3.77975C8.05883 3.72225 8.15168 3.72225 8.20926 3.78049L8.57499 4.14843ZM7.9573 4.76612L7.74848 4.97406L6.59666 3.81348C6.16901 3.3831 5.54483 3.23194 4.96675 3.41896C4.88973 3.44414 4.80631 3.40195 4.78098 3.32493C4.7558 3.24688 4.79828 3.16353 4.87597 3.13828C5.55985 2.9165 6.3 3.09572 6.80614 3.60554L7.9573 4.76612ZM6.72264 6.0007L6.51382 6.20952L5.35693 5.04393C5.29927 4.98643 5.30016 4.89277 5.35759 4.83497C5.41598 4.77746 5.50949 4.7782 5.56641 4.836L6.72264 6.0007ZM7.3396 5.38382L7.13078 5.59241L5.97676 4.42904C5.69534 4.14482 5.23448 4.14305 4.95085 4.42477C4.66722 4.70685 4.66508 5.16704 4.94724 5.45053L5.69084 6.20083C5.7485 6.25841 5.7485 6.35192 5.69018 6.40965C5.63253 6.46716 5.53894 6.46642 5.48136 6.40884L4.73717 5.65875C4.34118 5.25923 4.34332 4.61171 4.74291 4.21506C5.14244 3.81878 5.79039 3.82158 6.18631 4.2211L7.3396 5.38382ZM5.42607 7.17343L5.41959 7.17704C5.32887 7.22666 5.23669 7.26996 5.1417 7.3067L4.11793 6.27439C3.47726 5.62871 3.38581 4.61716 3.89983 3.86818C3.94585 3.80147 4.03797 3.7841 4.10497 3.83019C4.17264 3.87628 4.1892 3.96854 4.14311 4.03599C3.70905 4.66753 3.78681 5.52121 4.32748 6.06623L5.42607 7.17343ZM7.42604 3.20108C7.36846 3.25785 7.27414 3.25645 7.21656 3.19895C6.25611 2.23143 4.68821 2.22539 3.72069 3.1851C2.75383 4.14555 2.74735 5.71346 3.70773 6.68091L4.45929 7.43902C4.46437 7.44402 4.46937 7.44977 4.47224 7.45566L4.46149 7.45625C4.32469 7.46567 4.18641 7.46199 4.05034 7.44616L3.49817 6.88899C2.42337 5.80631 2.42985 4.05042 3.5126 2.9754C4.59609 1.90068 6.35125 1.90782 7.42604 2.99064L7.42811 2.99278C7.48583 3.05028 7.48429 3.14321 7.42604 3.20108Z" fill="#009EDB"/>
</g>
</svg>
