<svg width="86" height="103" viewBox="0 0 86 103" fill="none" xmlns="http://www.w3.org/2000/svg">
<path d="M24.3052 1.43783L27.7314 4.86513C28.7856 5.91968 28.8383 7.65969 27.8368 8.81969C5.69801 32.9162 5.69801 69.9836 27.8368 94.0801C28.8911 95.1873 28.8383 96.9274 27.7314 98.0346L24.3052 101.462C23.1455 102.622 21.3006 102.569 20.1937 101.356C-5.8458 73.2 -5.8458 29.6998 20.1937 1.54331C21.3006 0.330577 23.1455 0.330555 24.3052 1.43783Z" fill="#6D6E71"/>
<path d="M39.1692 16.3595L42.5954 19.7868C43.6496 20.8414 43.7024 22.5814 42.7008 23.6887C28.7323 39.5596 28.7323 63.3925 42.7008 79.2635C43.7024 80.3707 43.6496 82.1107 42.5954 83.1653L39.1692 86.5926C38.0095 87.7526 36.1119 87.6999 35.0577 86.4871C17.2412 66.5561 17.2412 36.396 35.0577 16.465C36.1646 15.2522 38.0095 15.1995 39.1692 16.3595Z" fill="#6D6E71"/>
<path d="M54.0854 31.2288L57.5117 34.6561C58.5132 35.658 58.6186 37.2925 57.7225 38.3998C51.7134 45.9925 51.7134 56.749 57.7225 64.3945C58.6186 65.5017 58.5132 67.1363 57.5117 68.1381L54.0854 71.5654C52.9257 72.7254 50.9754 72.6727 49.9212 71.3545C40.3804 59.7544 40.3804 42.9343 49.9212 31.3343C50.9754 30.0688 52.9257 29.9634 54.0854 31.1234V31.2288Z" fill="#6D6E71"/>
<path d="M24.3052 1.43783L27.7314 4.86513C28.7856 5.91968 28.8383 7.65969 27.8368 8.81969C5.69801 32.9162 5.69801 69.9836 27.8368 94.0801C28.8911 95.1873 28.8383 96.9274 27.7314 98.0346L24.3052 101.462C23.1455 102.622 21.3006 102.569 20.1937 101.356C-5.8458 73.2 -5.8458 29.6998 20.1937 1.54331C21.3006 0.330577 23.1455 0.330555 24.3052 1.43783Z" fill="url(#paint0_linear_2928_15109)"/>
<path d="M39.1692 16.3595L42.5954 19.7868C43.6496 20.8414 43.7024 22.5814 42.7008 23.6887C28.7323 39.5596 28.7323 63.3925 42.7008 79.2635C43.7024 80.3707 43.6496 82.1107 42.5954 83.1653L39.1692 86.5926C38.0095 87.7526 36.1119 87.6999 35.0577 86.4871C17.2412 66.5561 17.2412 36.396 35.0577 16.465C36.1646 15.2522 38.0095 15.1995 39.1692 16.3595Z" fill="url(#paint1_linear_2928_15109)"/>
<path d="M54.0854 31.2288L57.5117 34.6561C58.5132 35.658 58.6186 37.2925 57.7225 38.3998C51.7134 45.9925 51.7134 56.749 57.7225 64.3945C58.6186 65.5017 58.5132 67.1363 57.5117 68.1381L54.0854 71.5654C52.9257 72.7254 50.9754 72.6727 49.9212 71.3545C40.3804 59.7544 40.3804 42.9343 49.9212 31.3343C50.9754 30.0688 52.9257 29.9634 54.0854 31.1234V31.2288Z" fill="url(#paint2_linear_2928_15109)"/>
<path d="M75.0007 48.9516C75.0007 48.7424 74.8249 48.575 74.6157 48.5854C73.7765 48.6294 72.9646 48.8156 72.1945 49.14C71.9183 49.2572 71.6525 49.389 71.3951 49.5376C71.2821 49.6024 71.2109 49.7238 71.2109 49.8556V54.1392C71.2109 54.271 71.2821 54.3924 71.3951 54.4573C71.6525 54.6058 71.9183 54.7398 72.1945 54.8549C72.9646 55.1813 73.7765 55.3675 74.6157 55.4094C74.8249 55.4199 75.0007 55.2525 75.0007 55.0432V48.9474V48.9516Z" fill="url(#paint3_linear_2928_15109)"/>
<path d="M75.0018 48.9516C75.0018 48.7424 74.8261 48.575 74.6168 48.5854C73.7776 48.6294 73.5935 48.8156 72.8234 49.14C72.5472 49.2572 72.2814 49.389 72.024 49.5376C71.911 49.6024 71.8398 49.7238 71.8398 49.8556V54.1392C71.8398 54.271 71.911 54.3924 72.024 54.4573C72.2814 54.6058 72.5472 54.7398 72.8234 54.8549C73.5935 55.1813 73.7776 55.3675 74.6168 55.4094C74.8261 55.4199 75.0018 55.2525 75.0018 55.0432V48.9474V48.9516Z" fill="url(#paint4_linear_2928_15109)"/>
<mask id="mask0_2928_15109" style="mask-type:luminance" maskUnits="userSpaceOnUse" x="75" y="40" width="11" height="23">
<path d="M85.999 51.998C85.999 57.9494 81.2759 62.8001 75.3767 62.9988C75.1695 63.0051 75 62.8398 75 62.6326V59.5733C75 59.3786 75.1528 59.2154 75.3495 59.2071C76.2012 59.1673 77.0257 58.9811 77.8062 58.6504C78.6642 58.2863 79.4364 57.7673 80.0998 57.1019C80.7632 56.4385 81.2842 55.6664 81.6462 54.8063C82.0208 53.919 82.2113 52.9753 82.2113 51.998C82.2113 51.0208 82.0208 50.077 81.6462 49.1898C81.2842 48.3318 80.7632 47.5596 80.0998 46.8963C79.4364 46.2329 78.6642 45.7119 77.8062 45.3478C77.0257 45.0171 76.2012 44.8309 75.3495 44.7911C75.1549 44.7827 75 44.6195 75 44.4249V41.3655C75 41.1584 75.1716 40.991 75.3767 40.9993C81.2779 41.1981 85.999 46.0467 85.999 52.0001V51.998Z" fill="white"/>
</mask>
<g mask="url(#mask0_2928_15109)">
<path d="M82.2161 51.7928C82.2161 51.7635 82.2161 51.7321 82.214 51.7028C82.214 51.7028 82.214 51.6986 82.214 51.6966C82.214 51.6673 82.2119 51.638 82.2098 51.6087C82.2098 51.6087 82.2098 51.6087 82.2098 51.6066C82.2098 51.5773 82.2056 51.5501 82.2056 51.5208C82.2056 51.5208 82.2056 51.5187 82.2056 51.5166C82.2056 51.4873 82.2014 51.458 82.1993 51.4308C82.1993 51.4308 82.1993 51.4287 82.1993 51.4266C82.1993 51.4057 82.1951 51.3827 82.1931 51.3617C82.1931 51.3555 82.1931 51.3471 82.1931 51.3408C82.1931 51.3408 82.1931 51.3366 82.1931 51.3345C82.1889 51.2927 82.1847 51.2508 82.1805 51.209C82.1805 51.1922 82.1763 51.1776 82.1742 51.1608C82.1742 51.1504 82.1721 51.1399 82.17 51.1315C82.1679 51.1127 82.1658 51.0918 82.1638 51.073C82.1638 51.0646 82.1638 51.0583 82.1617 51.0499C82.1596 51.029 82.1554 51.006 82.1533 50.9851C82.1512 50.9662 82.147 50.9474 82.1449 50.9286C82.1407 50.9014 82.1366 50.8742 82.1324 50.847C82.1324 50.8449 82.1324 50.8428 82.1324 50.8407C82.1303 50.8239 82.1282 50.8093 82.124 50.7925C82.124 50.7884 82.124 50.7842 82.124 50.78C82.124 50.7737 82.124 50.7695 82.1219 50.7632C82.1219 50.757 82.1198 50.7507 82.1198 50.7444C82.1198 50.7444 82.1198 50.7423 82.1198 50.7402C82.1198 50.736 82.1198 50.7298 82.1177 50.7256C82.1177 50.7235 82.1177 50.7214 82.1177 50.7193C82.1177 50.7151 82.1177 50.7109 82.1177 50.7088C82.1135 50.6879 82.1093 50.6691 82.1073 50.6482C82.1031 50.6293 82.0989 50.6084 82.0968 50.5896C82.0947 50.5749 82.0905 50.5603 82.0884 50.5456C82.0884 50.5414 82.0884 50.5372 82.0863 50.5331C82.0863 50.5289 82.0863 50.5268 82.0842 50.5226C82.0842 50.5163 82.0821 50.5121 82.0801 50.5059C82.0759 50.4891 82.0738 50.4724 82.0696 50.4556V50.4494C82.0696 50.4494 82.0675 50.4452 82.0675 50.4431V50.4326C82.0675 50.4326 82.0633 50.4263 82.0633 50.4222C82.0612 50.4117 82.0591 50.3991 82.0549 50.3887C82.0549 50.3824 82.0528 50.3761 82.0508 50.3698C82.0445 50.3405 82.0382 50.3133 82.0298 50.284C82.0277 50.2736 82.0256 50.2652 82.0236 50.2547L82.0089 50.1982C82.0089 50.1982 82.0089 50.1899 82.0047 50.1857V50.1836C82.0047 50.1773 82.0026 50.1731 82.0005 50.1669C81.9963 50.148 81.9922 50.1313 81.9859 50.1124C81.9859 50.1124 81.9859 50.1062 81.9838 50.102C81.9838 50.102 81.9838 50.0978 81.9838 50.0957C81.9775 50.0727 81.9712 50.0497 81.965 50.0287C81.9566 50.0015 81.9482 49.9722 81.9398 49.945C81.9398 49.943 81.9398 49.9388 81.9378 49.9367C81.9378 49.9346 81.9378 49.9304 81.9357 49.9283C81.9294 49.9032 81.921 49.8802 81.9147 49.8572C81.9064 49.832 81.898 49.8069 81.8896 49.7797C81.8854 49.7693 81.8833 49.7588 81.8792 49.7462C81.875 49.7337 81.8729 49.7253 81.8687 49.7128C81.8687 49.7065 81.8645 49.7023 81.8624 49.696C81.8603 49.6897 81.8582 49.6835 81.8561 49.6772C81.8499 49.6563 81.8415 49.6353 81.8352 49.6144C81.8268 49.5935 81.8206 49.5705 81.8122 49.5495C81.8101 49.5412 81.8059 49.5328 81.8038 49.5244C81.7996 49.5098 81.7934 49.4951 81.7871 49.4826C81.7871 49.4784 81.7829 49.4721 81.7808 49.4679C81.7787 49.4596 81.7745 49.4512 81.7724 49.4428C81.7724 49.4386 81.7703 49.4344 81.7682 49.4303C81.7662 49.4219 81.762 49.4135 81.7578 49.4051C81.7536 49.3947 81.7494 49.3821 81.7452 49.3717C81.7348 49.3445 81.7243 49.3173 81.7138 49.2921C81.7138 49.2901 81.7138 49.288 81.7117 49.2859C81.7034 49.2649 81.695 49.2419 81.6845 49.221C81.6845 49.2168 81.6824 49.2147 81.6804 49.2105C81.672 49.1896 81.6615 49.1687 81.6532 49.1457C81.6532 49.1415 81.649 49.1373 81.649 49.1331C81.649 49.1331 81.649 49.1289 81.6469 49.1289C81.6364 49.1059 81.628 49.0829 81.6176 49.0599C81.6176 49.0578 81.6155 49.0557 81.6134 49.0515C81.6029 49.0264 81.5904 49.0013 81.5778 48.9741C81.5715 48.9615 81.5653 48.949 81.559 48.9343C81.5527 48.9218 81.5464 48.9092 81.5401 48.8946C81.5276 48.8694 81.515 48.8443 81.5046 48.8192C81.5046 48.8192 81.5046 48.8171 81.5046 48.815C81.492 48.792 81.4816 48.769 81.469 48.7439C81.469 48.7439 81.469 48.7397 81.4669 48.7376C81.4669 48.7376 81.4669 48.7376 81.4669 48.7355C81.4585 48.7167 81.4481 48.6999 81.4397 48.6811C81.4397 48.6769 81.4376 48.6748 81.4355 48.6727C81.4355 48.6686 81.4313 48.6665 81.4313 48.6623C81.423 48.6455 81.4146 48.6309 81.4062 48.6141C81.402 48.6058 81.3958 48.5953 81.3916 48.5849C81.3916 48.5828 81.3895 48.5786 81.3874 48.5765C81.3811 48.566 81.3748 48.5535 81.3686 48.543C81.3623 48.5325 81.356 48.52 81.3497 48.5095C81.3455 48.5011 81.3393 48.4907 81.3351 48.4823C81.3351 48.4823 81.3351 48.4823 81.3351 48.4802C81.3309 48.4719 81.3246 48.4614 81.3204 48.453C81.3183 48.4467 81.3141 48.4405 81.31 48.4342C81.3037 48.4237 81.2995 48.4153 81.2932 48.4049C81.2869 48.3923 81.2786 48.3798 81.2723 48.3672C81.2723 48.3672 81.2681 48.3588 81.266 48.3547C81.2639 48.3505 81.2618 48.3463 81.2597 48.3421C81.2576 48.3379 81.2555 48.3337 81.2535 48.3296C81.2451 48.3149 81.2367 48.3003 81.2283 48.2856C81.2283 48.2835 81.2263 48.2814 81.2242 48.2793C81.2242 48.2772 81.22 48.2731 81.22 48.271C81.2179 48.2668 81.2137 48.2605 81.2116 48.2563C81.2053 48.2458 81.197 48.2333 81.1907 48.2228C81.1907 48.2207 81.1865 48.2165 81.1865 48.2145C81.1865 48.2124 81.1844 48.2103 81.1823 48.2082C81.1698 48.1873 81.1572 48.1663 81.1425 48.1454C81.1342 48.1328 81.1279 48.1203 81.1195 48.1098C81.1153 48.1035 81.1112 48.0952 81.107 48.0889C81.1028 48.0826 81.0986 48.0763 81.0944 48.0701C81.0902 48.0617 81.084 48.0533 81.0798 48.0471C81.0777 48.0429 81.0756 48.0387 81.0714 48.0345C81.063 48.0219 81.0567 48.0115 81.0484 47.9989C81.0358 47.9801 81.0233 47.9613 81.0107 47.9424C81.0086 47.9382 81.0044 47.932 81.0023 47.9278C81.0002 47.9236 80.9982 47.9215 80.9961 47.9173C80.9814 47.8985 80.9689 47.8776 80.9542 47.8587C80.9396 47.8399 80.927 47.819 80.9124 47.8001C80.9103 47.7959 80.9082 47.7938 80.904 47.7897C80.8998 47.7855 80.8977 47.7813 80.8956 47.7771C80.881 47.7583 80.8684 47.7394 80.8538 47.7206C80.8475 47.7101 80.8391 47.6997 80.8307 47.6892C80.8224 47.6767 80.814 47.6662 80.8056 47.6536C80.8035 47.6515 80.8014 47.6474 80.7994 47.6453C80.791 47.6327 80.7805 47.6202 80.7721 47.6097C80.7659 47.6013 80.7596 47.593 80.7533 47.5846C80.7387 47.5637 80.7219 47.5448 80.7073 47.526C80.7031 47.5218 80.701 47.5176 80.6968 47.5113C80.6801 47.4904 80.6654 47.4716 80.6487 47.4507C80.6403 47.4381 80.6298 47.4276 80.6194 47.4151C80.6152 47.4088 80.6089 47.4025 80.6026 47.3962C80.5964 47.3879 80.588 47.3795 80.5817 47.3711C80.5754 47.3628 80.5692 47.3565 80.5629 47.3502C80.5566 47.3418 80.5503 47.3356 80.544 47.3272C80.5399 47.3209 80.5357 47.3167 80.5315 47.3125C80.5231 47.3042 80.5168 47.2937 80.5085 47.2853C80.5022 47.2791 80.498 47.2728 80.4917 47.2665C80.4896 47.2623 80.4855 47.2602 80.4834 47.256C80.4813 47.254 80.4792 47.2498 80.475 47.2456C80.4582 47.2267 80.4436 47.21 80.4269 47.1912C80.408 47.1703 80.3892 47.1493 80.3704 47.1284C80.3515 47.1075 80.3327 47.0865 80.3118 47.0656C80.2929 47.0447 80.272 47.0238 80.2532 47.0049C80.2134 46.9631 80.1757 46.9233 80.1339 46.8836C80.1234 46.8731 80.1151 46.8626 80.1046 46.8543C80.0941 46.8438 80.0837 46.8354 80.0732 46.825C80.0523 46.8061 80.0334 46.7852 80.0125 46.7664C79.9916 46.7475 79.9707 46.7266 79.9497 46.7078C79.9288 46.689 79.9079 46.6701 79.887 46.6492C79.866 46.6304 79.8451 46.6115 79.8242 46.5927C79.8074 46.578 79.7886 46.5613 79.7719 46.5467C79.7677 46.5425 79.7635 46.5404 79.7614 46.5362C79.7405 46.5174 79.7195 46.4985 79.6965 46.4818C79.6756 46.465 79.6568 46.4483 79.6358 46.4316C79.6317 46.4274 79.6254 46.4232 79.6212 46.419C79.6086 46.4085 79.5982 46.4002 79.5856 46.3897C79.5835 46.3876 79.5793 46.3855 79.5772 46.3834C79.5731 46.3813 79.571 46.3792 79.5689 46.3751C79.5542 46.3625 79.5396 46.352 79.5249 46.3395C79.5187 46.3353 79.5124 46.329 79.5082 46.3248C79.5082 46.3248 79.5061 46.3227 79.504 46.3207C79.4914 46.3123 79.481 46.3018 79.4684 46.2934C79.4601 46.2872 79.4517 46.2788 79.4412 46.2725C79.4412 46.2725 79.437 46.2683 79.4349 46.2683C79.4119 46.2516 79.391 46.2328 79.368 46.216C79.345 46.1993 79.324 46.1825 79.301 46.1658C79.2989 46.1658 79.2968 46.1616 79.2947 46.1616C79.2759 46.147 79.2571 46.1344 79.2382 46.1219C79.2382 46.1219 79.2341 46.1177 79.232 46.1177C79.2257 46.1135 79.2215 46.1093 79.2152 46.1051C79.2089 46.1009 79.2048 46.0967 79.1985 46.0926C79.1922 46.0884 79.1838 46.0821 79.1775 46.0779C79.1734 46.0758 79.1713 46.0737 79.1671 46.0695C79.1671 46.0695 79.1629 46.0674 79.1608 46.0654C79.1378 46.0486 79.1148 46.034 79.0897 46.0172C79.0771 46.0089 79.0666 46.0005 79.0541 45.9942C79.0415 45.9858 79.0311 45.9796 79.0185 45.9712C79.0122 45.967 79.006 45.9628 79.0018 45.9586C78.9976 45.9565 78.9955 45.9544 78.9913 45.9524C78.9892 45.9524 78.9871 45.9503 78.985 45.9482C78.9767 45.9419 78.9662 45.9356 78.9578 45.9293C78.9557 45.9293 78.9536 45.9272 78.9495 45.9251C78.9474 45.9251 78.9432 45.921 78.9411 45.921C78.9202 45.9063 78.8971 45.8938 78.8762 45.8791C78.8637 45.8707 78.8532 45.8645 78.8406 45.8561C78.8281 45.8477 78.8176 45.8414 78.8051 45.8331C78.8051 45.8331 78.803 45.8331 78.8009 45.831C78.782 45.8205 78.7632 45.808 78.7444 45.7975C78.7402 45.7954 78.736 45.7912 78.7318 45.7891C78.7109 45.7766 78.6921 45.764 78.6711 45.7536C78.6649 45.7494 78.6586 45.7452 78.6523 45.7431C78.6376 45.7347 78.6251 45.7264 78.6104 45.7201C78.6063 45.718 78.6021 45.7159 78.5979 45.7138C78.5895 45.7096 78.5811 45.7054 78.5749 45.7012C78.5539 45.6887 78.5309 45.6761 78.51 45.6636C78.4891 45.6531 78.4702 45.6406 78.4493 45.6301C78.4451 45.628 78.4388 45.6259 78.4347 45.6217C78.4095 45.6092 78.3865 45.5966 78.3635 45.5841C78.3635 45.5841 78.3635 45.5841 78.3614 45.5841C78.3363 45.5715 78.3112 45.5569 78.2861 45.5443C78.2672 45.5338 78.2463 45.5255 78.2275 45.515C78.2212 45.5108 78.2149 45.5087 78.2087 45.5066C78.1898 45.4983 78.1731 45.4899 78.1542 45.4794C78.1417 45.4731 78.1291 45.4669 78.1166 45.4606C78.0998 45.4543 78.0852 45.4459 78.0705 45.4397C78.0643 45.4376 78.0601 45.4355 78.0538 45.4313C78.0454 45.4271 78.035 45.4229 78.0266 45.4187C78.0266 45.4187 78.0099 45.4104 78.0036 45.4083C77.9952 45.4041 77.9868 45.402 77.9785 45.3978C77.9785 45.3978 77.9785 45.3978 77.9764 45.3978C77.9701 45.3957 77.9638 45.3915 77.9575 45.3894C77.9366 45.3811 77.9178 45.3706 77.8968 45.3622C77.8927 45.3622 77.8906 45.3601 77.8864 45.3581C77.8676 45.3497 77.8466 45.3413 77.8278 45.3329C77.8236 45.3329 77.8194 45.3288 77.8173 45.3288C77.8111 45.3267 77.8048 45.3225 77.7964 45.3204C77.7901 45.3183 77.7838 45.3141 77.7776 45.312C77.765 45.3057 77.7504 45.3016 77.7378 45.2953C77.7127 45.2848 77.6897 45.2764 77.6646 45.266C77.6499 45.2597 77.6374 45.2555 77.6227 45.2492C77.6143 45.2451 77.6081 45.243 77.5997 45.2409C77.5955 45.2409 77.5913 45.2367 77.585 45.2346C77.5809 45.2346 77.5788 45.2325 77.5746 45.2304C77.5662 45.2262 77.5557 45.2241 77.5474 45.2199C77.5306 45.2137 77.5139 45.2074 77.4951 45.2011C77.4909 45.2011 77.4888 45.199 77.4846 45.1969C77.4616 45.1886 77.4365 45.1802 77.4114 45.1718C77.4114 45.1718 77.4072 45.1718 77.4051 45.1718C77.38 45.1634 77.3528 45.153 77.3276 45.1446C77.3256 45.1446 77.3235 45.1446 77.3214 45.1425C77.3004 45.1362 77.2774 45.1279 77.2565 45.1216C77.2544 45.1216 77.2502 45.1195 77.2481 45.1195C77.2481 45.1195 77.2481 45.1195 77.246 45.1195C77.2209 45.1111 77.1937 45.1028 77.1686 45.0944C77.1686 45.0944 77.1644 45.0944 77.1623 45.0944C77.1561 45.0944 77.1498 45.0902 77.1435 45.0881C77.1372 45.086 77.1288 45.0839 77.1226 45.0818C77.11 45.0776 77.0954 45.0735 77.0828 45.0693H77.0786C77.0723 45.0693 77.0682 45.0651 77.0619 45.0651C77.041 45.0588 77.02 45.0525 76.9991 45.0463C76.9865 45.0421 76.974 45.04 76.9614 45.0358C76.9468 45.0316 76.9321 45.0274 76.9175 45.0232C76.8966 45.017 76.8777 45.0128 76.8568 45.0065C76.8484 45.0065 76.8401 45.0023 76.8338 45.0002C76.8317 45.0002 76.8275 45.0002 76.8254 44.9981C76.817 44.996 76.8066 44.9939 76.7982 44.9919C76.7794 44.9877 76.7605 44.9814 76.7396 44.9772C76.7082 44.9688 76.6789 44.9626 76.6475 44.9563C76.6203 44.95 76.5931 44.9437 76.5659 44.9374C76.5576 44.9374 76.5513 44.9333 76.5429 44.9333C76.5387 44.9333 76.5366 44.9333 76.5345 44.9333C76.5324 44.9333 76.5283 44.9333 76.5262 44.9333C76.5115 44.9291 76.499 44.927 76.4843 44.9249C76.4822 44.9249 76.4801 44.9249 76.4759 44.9249C76.4466 44.9186 76.4173 44.9144 76.3881 44.9081C76.3608 44.904 76.3357 44.8977 76.3085 44.8935C76.2876 44.8893 76.2667 44.8851 76.2437 44.883C76.2353 44.883 76.229 44.8809 76.2206 44.8788C76.2123 44.8788 76.2039 44.8768 76.1955 44.8747C76.1746 44.8705 76.1516 44.8684 76.1307 44.8642C76.1139 44.8621 76.0951 44.8579 76.0783 44.8558C76.0637 44.8537 76.047 44.8516 76.0323 44.8496C76.0051 44.8454 75.9779 44.8433 75.9507 44.8391C75.9319 44.837 75.913 44.8349 75.8921 44.8328C75.8837 44.8328 75.8733 44.8307 75.8649 44.8286C75.8649 44.8286 75.8649 44.8286 75.8628 44.8286C75.8544 44.8286 75.8481 44.8286 75.8398 44.8265C75.8398 44.8265 75.8356 44.8265 75.8335 44.8265C75.8147 44.8244 75.7958 44.8223 75.777 44.8203C75.754 44.8182 75.731 44.8161 75.7079 44.814C75.7017 44.814 75.6954 44.814 75.6891 44.814C75.6849 44.814 75.6786 44.814 75.6745 44.814C75.6493 44.8119 75.6242 44.8098 75.6012 44.8077C75.5719 44.8056 75.5405 44.8035 75.5112 44.8014C75.4736 44.7993 75.4359 44.7972 75.3982 44.7951C75.3752 44.7951 75.3543 44.7931 75.3313 44.791H75.3271C75.3103 44.791 75.2936 44.791 75.2769 44.791C75.2643 44.791 75.2517 44.791 75.2392 44.791H75.2371C75.2245 44.791 75.212 44.791 75.1994 44.791C75.1827 44.791 75.1659 44.791 75.1492 44.791C75.145 44.791 75.1408 44.791 75.1366 44.791C75.122 44.791 75.1074 44.791 75.0927 44.791C75.0739 44.791 75.055 44.791 75.0362 44.791C75.0174 44.791 74.9964 44.791 74.9755 44.791C74.6428 44.791 74.3142 44.8098 73.9899 44.8412C73.9124 44.8496 73.8371 44.8558 73.7597 44.8663C73.722 44.8705 73.6844 44.8747 73.6467 44.8809C73.609 44.8851 73.5713 44.8914 73.5337 44.8956C73.4981 44.8998 73.4646 44.904 73.429 44.9102C73.4249 44.9102 73.4228 44.9102 73.4186 44.9102C73.3432 44.9207 73.2679 44.9333 73.1926 44.9458C73.1549 44.9521 73.1172 44.9584 73.0796 44.9646C73.0607 44.9688 73.0398 44.9709 73.021 44.9751C73.0021 44.9793 72.9812 44.9835 72.9624 44.9856C72.9143 44.9939 72.8661 45.0044 72.818 45.0149C72.7678 45.0253 72.7175 45.0358 72.6673 45.0463C72.6652 45.0463 72.6631 45.0463 72.661 45.0463C72.6108 45.0567 72.5585 45.0693 72.5083 45.0818C72.456 45.0944 72.4037 45.1069 72.3492 45.1195C72.3199 45.1258 72.2906 45.1341 72.2614 45.1425C72.2028 45.1572 72.1442 45.1739 72.0856 45.1886C72.0563 45.1969 72.027 45.2053 71.9977 45.2137C71.9684 45.222 71.9391 45.2304 71.9098 45.2388C71.8805 45.2471 71.8512 45.2555 71.824 45.2639C71.7968 45.2723 71.7675 45.2806 71.7403 45.2911C71.7403 45.2911 71.7382 45.2911 71.7361 45.2911C71.7089 45.2995 71.6796 45.3078 71.6524 45.3183C71.6231 45.3267 71.5959 45.3371 71.5666 45.3476C71.5394 45.356 71.5122 45.3664 71.485 45.3748C71.4641 45.3832 71.441 45.3894 71.4201 45.3978C71.4034 45.4041 71.3845 45.4104 71.3678 45.4166C71.3008 45.4418 71.2318 45.4648 71.1648 45.4899C71.1481 45.4962 71.1334 45.5024 71.1167 45.5087C71.0978 45.515 71.079 45.5234 71.0602 45.5297C71.0267 45.5422 70.9932 45.5569 70.9597 45.5694C70.9409 45.5757 70.9221 45.5841 70.9032 45.5924C70.853 45.6134 70.8028 45.6343 70.7526 45.6552C70.7253 45.6678 70.6961 45.6803 70.6688 45.6908C70.6458 45.7012 70.6228 45.7117 70.5977 45.7222C70.5098 45.7619 70.4219 45.8017 70.3361 45.8414C70.311 45.8519 70.288 45.8645 70.2629 45.877C69.9594 46.0235 69.6644 46.1825 69.3777 46.3562C67.2369 47.6432 65.5712 49.6374 64.7006 52.0167C64.4788 52.6236 64.3093 53.2555 64.1963 53.9063C64.0896 53.2932 64.0352 52.6612 64.0352 52.0167C64.0352 51.3722 64.0896 50.7402 64.1963 50.1271C64.9852 45.5631 68.5846 41.9639 73.1444 41.1729C73.7953 41.2859 74.4272 41.4554 75.0341 41.6772C77.4114 42.5477 79.4056 44.2155 80.6905 46.3562C81.6657 47.9801 82.2328 49.876 82.2537 51.9016C82.2537 51.8702 82.2537 51.8409 82.2516 51.8116L82.2161 51.7928Z" fill="url(#paint5_linear_2928_15109)"/>
<path d="M76.8876 62.8439C76.2745 62.9506 75.6425 63.005 74.998 63.005C74.3534 63.005 73.7215 62.9506 73.1083 62.8439C68.5463 62.055 64.9491 58.4536 64.1602 53.8896C64.2732 53.2388 64.4427 52.6069 64.6645 52C65.535 49.6207 67.2008 47.6265 69.3415 46.3395C69.6282 46.1679 69.9233 46.0068 70.2267 45.8603C70.2519 45.8478 70.2749 45.8373 70.3 45.8248C70.3858 45.7829 70.4737 45.7432 70.5616 45.7055C70.5846 45.695 70.6076 45.6846 70.6327 45.6741C70.6599 45.6615 70.6892 45.649 70.7164 45.6385C70.7666 45.6176 70.8169 45.5967 70.8671 45.5757C70.8859 45.5674 70.9048 45.5611 70.9236 45.5527C70.9571 45.5402 70.9906 45.5255 71.024 45.513C71.0429 45.5046 71.0617 45.4983 71.0805 45.492C71.0973 45.4858 71.1119 45.4795 71.1287 45.4732C71.1956 45.4481 71.2626 45.423 71.3317 45.4C71.3484 45.3937 71.3672 45.3874 71.384 45.3811C71.4049 45.3728 71.4258 45.3665 71.4488 45.3581C71.476 45.3497 71.5033 45.3393 71.5305 45.3309C71.5598 45.3204 71.587 45.3121 71.6163 45.3016C71.6456 45.2932 71.6728 45.2828 71.7 45.2744C71.7 45.2744 71.7021 45.2744 71.7041 45.2744L71.7879 45.2472C71.8172 45.2388 71.8464 45.2305 71.8737 45.2221C71.9029 45.2137 71.9322 45.2054 71.9615 45.197C71.9908 45.1886 72.0201 45.1802 72.0494 45.1719C72.108 45.1551 72.1666 45.1405 72.2252 45.1258C72.2545 45.1175 72.2838 45.1112 72.3131 45.1028C72.3654 45.0903 72.4177 45.0777 72.4721 45.0651C72.5224 45.0526 72.5747 45.0421 72.6249 45.0296C72.627 45.0296 72.6291 45.0296 72.6312 45.0296C72.6814 45.0191 72.7316 45.0086 72.7819 44.9982C72.83 44.9877 72.8781 44.9793 72.9263 44.9689C72.9451 44.9647 72.966 44.9605 72.9848 44.9584C73.0037 44.9542 73.0246 44.9521 73.0434 44.948C73.0811 44.9417 73.1188 44.9354 73.1564 44.9291C73.2318 44.9166 73.3071 44.904 73.3825 44.8936C73.3866 44.8936 73.3887 44.8936 73.3929 44.8936C73.4264 44.8894 73.462 44.8831 73.4975 44.8789C73.5352 44.8747 73.5729 44.8684 73.6105 44.8643C73.6482 44.8601 73.6859 44.8559 73.7236 44.8496C73.7989 44.8412 73.8763 44.8329 73.9537 44.8245C74.2614 44.7952 74.5711 44.7785 74.885 44.7764C70.9885 44.8371 67.839 47.9864 67.7783 51.887C67.7783 51.8996 67.7783 51.91 67.7783 51.9226C67.7783 51.9498 67.7783 51.9749 67.7783 52.0021C67.7783 52.0293 67.7783 52.0544 67.7783 52.0816C67.7783 52.0942 67.7783 52.1047 67.7783 52.1172C67.7993 54.1449 68.3664 56.0408 69.3415 57.6626C70.6264 59.8033 72.6207 61.4712 74.998 62.3417C75.6048 62.5635 76.2368 62.733 76.8876 62.846V62.8439Z" fill="url(#paint6_linear_2928_15109)"/>
<path d="M85.998 51.998C85.998 52.6425 85.9436 53.2745 85.8369 53.8876C85.048 58.4516 81.4486 62.0509 76.8866 62.8419C76.2358 62.7289 75.6038 62.5594 74.997 62.3376C72.6197 61.467 70.6254 59.7992 69.3406 57.6585C68.3654 56.0346 67.7983 54.1387 67.7773 52.1131C67.838 56.0137 70.9854 59.1631 74.884 59.2238C74.8965 59.2238 74.907 59.2238 74.9195 59.2238C74.9468 59.2238 74.9719 59.2238 74.9991 59.2238C75.0263 59.2238 75.0514 59.2238 75.0786 59.2238C75.0911 59.2238 75.1016 59.2238 75.1142 59.2238C77.1398 59.2028 79.0337 58.6358 80.6576 57.6585C82.7984 56.3716 84.4641 54.3773 85.3347 51.998C85.5565 51.3912 85.726 50.7592 85.839 50.1084C85.9457 50.7236 86.0001 51.3535 86.0001 51.998H85.998Z" fill="url(#paint7_linear_2928_15109)"/>
<path d="M85.8369 50.1085C85.7239 50.7593 85.5543 51.3913 85.3325 51.9982C84.4641 54.3775 82.7962 56.3717 80.6555 57.6587C79.0337 58.6338 77.1377 59.203 75.112 59.2239C79.0085 59.1632 82.158 56.0139 82.2187 52.1133C82.2187 52.1007 82.2187 52.0902 82.2187 52.0777C82.2187 52.0505 82.2187 52.0254 82.2187 51.9982C82.2187 51.971 82.2187 51.9459 82.2187 51.9186C82.2187 51.9061 82.2187 51.8956 82.2187 51.8831C82.1977 49.8553 81.6306 47.9594 80.6555 46.3377C79.3706 44.1969 77.3763 42.5291 74.999 41.6586C74.3922 41.4368 73.7602 41.2673 73.1094 41.1543C73.7225 41.0476 74.3545 40.9932 74.999 40.9932C75.6436 40.9932 76.2755 41.0476 76.8887 41.1543C81.4507 41.9453 85.0479 45.5446 85.8389 50.1085H85.8369Z" fill="url(#paint8_linear_2928_15109)"/>
</g>
<mask id="mask1_2928_15109" style="mask-type:luminance" maskUnits="userSpaceOnUse" x="64" y="41" width="8" height="22">
<path d="M71.0438 58.0331C70.6337 57.7632 70.2528 57.4514 69.9013 57.0998C69.2379 56.4365 68.7168 55.6643 68.3548 54.8042C67.9802 53.917 67.7898 52.9732 67.7898 51.996C67.7898 51.0187 67.9802 50.075 68.3548 49.1877C68.7168 48.3297 69.2379 47.5576 69.9013 46.8921C70.2528 46.5406 70.6358 46.2288 71.0438 45.9588C71.1485 45.8898 71.2113 45.7747 71.2113 45.6512V42.1984C71.2113 41.9347 70.9434 41.7569 70.7007 41.8615C66.7623 43.5356 64 47.4425 64 51.996C64 56.5495 66.7623 60.4543 70.7007 62.1305C70.9434 62.233 71.2113 62.0551 71.2113 61.7935V58.3408C71.2113 58.2173 71.1485 58.1022 71.0438 58.0331Z" fill="white"/>
</mask>
<g mask="url(#mask1_2928_15109)">
<path d="M82.22 51.7928C82.22 51.7635 82.22 51.7321 82.2179 51.7028C82.2179 51.7028 82.2179 51.6986 82.2179 51.6966C82.2179 51.6673 82.2158 51.638 82.2137 51.6087C82.2137 51.6087 82.2137 51.6087 82.2137 51.6066C82.2137 51.5773 82.2095 51.5501 82.2095 51.5208C82.2095 51.5208 82.2095 51.5187 82.2095 51.5166C82.2095 51.4873 82.2053 51.458 82.2032 51.4308C82.2032 51.4308 82.2032 51.4287 82.2032 51.4266C82.2032 51.4057 82.1991 51.3827 82.197 51.3617C82.197 51.3555 82.197 51.3471 82.197 51.3408C82.197 51.3408 82.197 51.3366 82.197 51.3345C82.1928 51.2927 82.1886 51.2508 82.1844 51.209C82.1844 51.1922 82.1802 51.1776 82.1781 51.1608C82.1781 51.1504 82.176 51.1399 82.1739 51.1315C82.1718 51.1127 82.1698 51.0918 82.1677 51.073C82.1677 51.0646 82.1677 51.0583 82.1656 51.0499C82.1635 51.029 82.1593 51.006 82.1572 50.9851C82.1551 50.9662 82.1509 50.9474 82.1488 50.9286C82.1446 50.9014 82.1405 50.8742 82.1363 50.847C82.1363 50.8449 82.1363 50.8428 82.1363 50.8407C82.1342 50.8239 82.1321 50.8093 82.1279 50.7925C82.1279 50.7884 82.1279 50.7842 82.1279 50.78C82.1279 50.7737 82.1279 50.7695 82.1258 50.7632C82.1258 50.757 82.1237 50.7507 82.1237 50.7444C82.1237 50.7444 82.1237 50.7423 82.1237 50.7402C82.1237 50.736 82.1237 50.7298 82.1216 50.7256C82.1216 50.7235 82.1216 50.7214 82.1216 50.7193C82.1216 50.7151 82.1216 50.7109 82.1216 50.7088C82.1174 50.6879 82.1133 50.6691 82.1112 50.6482C82.107 50.6293 82.1028 50.6084 82.1007 50.5896C82.0986 50.5749 82.0944 50.5603 82.0923 50.5456C82.0923 50.5414 82.0923 50.5372 82.0902 50.5331C82.0902 50.5289 82.0902 50.5268 82.0881 50.5226C82.0881 50.5163 82.0861 50.5121 82.084 50.5059C82.0798 50.4891 82.0777 50.4724 82.0735 50.4556V50.4494C82.0735 50.4494 82.0714 50.4452 82.0714 50.4431V50.4326C82.0714 50.4326 82.0672 50.4263 82.0672 50.4222C82.0651 50.4117 82.063 50.3991 82.0588 50.3887C82.0588 50.3824 82.0568 50.3761 82.0547 50.3698C82.0484 50.3405 82.0421 50.3133 82.0337 50.284C82.0316 50.2736 82.0295 50.2652 82.0275 50.2547L82.0128 50.1982C82.0128 50.1982 82.0128 50.1899 82.0086 50.1857V50.1836C82.0086 50.1773 82.0065 50.1731 82.0044 50.1669C82.0003 50.148 81.9961 50.1313 81.9898 50.1124C81.9898 50.1124 81.9898 50.1062 81.9877 50.102C81.9877 50.102 81.9877 50.0978 81.9877 50.0957C81.9814 50.0727 81.9751 50.0497 81.9689 50.0287C81.9605 50.0015 81.9521 49.9722 81.9437 49.945C81.9437 49.943 81.9438 49.9388 81.9417 49.9367C81.9417 49.9346 81.9417 49.9304 81.9396 49.9283C81.9333 49.9032 81.9249 49.8802 81.9186 49.8572C81.9103 49.832 81.9019 49.8069 81.8935 49.7797C81.8893 49.7693 81.8872 49.7588 81.8831 49.7462C81.8789 49.7337 81.8768 49.7253 81.8726 49.7128C81.8726 49.7065 81.8684 49.7023 81.8663 49.696C81.8642 49.6897 81.8621 49.6835 81.86 49.6772C81.8538 49.6563 81.8454 49.6353 81.8391 49.6144C81.8307 49.5935 81.8245 49.5705 81.8161 49.5495C81.814 49.5412 81.8098 49.5328 81.8077 49.5244C81.8035 49.5098 81.7973 49.4951 81.791 49.4826C81.791 49.4784 81.7868 49.4721 81.7847 49.4679C81.7826 49.4596 81.7784 49.4512 81.7763 49.4428C81.7763 49.4386 81.7742 49.4344 81.7722 49.4303C81.7701 49.4219 81.7659 49.4135 81.7617 49.4051C81.7575 49.3947 81.7533 49.3821 81.7491 49.3717C81.7387 49.3445 81.7282 49.3173 81.7177 49.2921C81.7177 49.2901 81.7177 49.288 81.7157 49.2859C81.7073 49.2649 81.6989 49.2419 81.6884 49.221C81.6884 49.2168 81.6864 49.2147 81.6843 49.2105C81.6759 49.1896 81.6654 49.1687 81.6571 49.1457C81.6571 49.1415 81.6529 49.1373 81.6529 49.1331C81.6529 49.1331 81.6529 49.1289 81.6508 49.1289C81.6403 49.1059 81.6319 49.0829 81.6215 49.0599C81.6215 49.0578 81.6194 49.0557 81.6173 49.0515C81.6068 49.0264 81.5943 49.0013 81.5817 48.9741C81.5754 48.9615 81.5692 48.949 81.5629 48.9343C81.5566 48.9218 81.5503 48.9092 81.5441 48.8946C81.5315 48.8694 81.5189 48.8443 81.5085 48.8192C81.5085 48.8192 81.5085 48.8171 81.5085 48.815C81.4959 48.792 81.4855 48.769 81.4729 48.7439C81.4729 48.7439 81.4729 48.7397 81.4708 48.7376C81.4708 48.7376 81.4708 48.7376 81.4708 48.7355C81.4624 48.7167 81.452 48.6999 81.4436 48.6811C81.4436 48.6769 81.4415 48.6748 81.4394 48.6727C81.4394 48.6686 81.4352 48.6665 81.4352 48.6623C81.4269 48.6455 81.4185 48.6309 81.4101 48.6141C81.4059 48.6058 81.3997 48.5953 81.3955 48.5849C81.3955 48.5828 81.3934 48.5786 81.3913 48.5765C81.385 48.566 81.3787 48.5535 81.3725 48.543C81.3662 48.5325 81.3599 48.52 81.3536 48.5095C81.3494 48.5011 81.3432 48.4907 81.339 48.4823C81.339 48.4823 81.339 48.4823 81.339 48.4802C81.3348 48.4719 81.3285 48.4614 81.3243 48.453C81.3222 48.4467 81.318 48.4405 81.3139 48.4342C81.3076 48.4237 81.3034 48.4153 81.2971 48.4049C81.2908 48.3923 81.2825 48.3798 81.2762 48.3672C81.2762 48.3672 81.272 48.3588 81.2699 48.3547C81.2678 48.3505 81.2657 48.3463 81.2636 48.3421C81.2615 48.3379 81.2595 48.3337 81.2574 48.3296C81.249 48.3149 81.2406 48.3003 81.2322 48.2856C81.2322 48.2835 81.2302 48.2814 81.2281 48.2793C81.2281 48.2772 81.2239 48.2731 81.2239 48.271C81.2218 48.2668 81.2176 48.2605 81.2155 48.2563C81.2092 48.2458 81.2009 48.2333 81.1946 48.2228C81.1946 48.2207 81.1904 48.2165 81.1904 48.2145C81.1904 48.2124 81.1883 48.2103 81.1862 48.2082C81.1737 48.1873 81.1611 48.1663 81.1465 48.1454C81.1381 48.1328 81.1318 48.1203 81.1234 48.1098C81.1192 48.1035 81.1151 48.0952 81.1109 48.0889C81.1067 48.0826 81.1025 48.0763 81.0983 48.0701C81.0941 48.0617 81.0879 48.0533 81.0837 48.0471C81.0816 48.0429 81.0795 48.0387 81.0753 48.0345C81.0669 48.0219 81.0607 48.0115 81.0523 47.9989C81.0397 47.9801 81.0272 47.9613 81.0146 47.9424C81.0125 47.9382 81.0083 47.932 81.0062 47.9278C81.0042 47.9236 81.0021 47.9215 81 47.9173C80.9853 47.8985 80.9728 47.8776 80.9581 47.8587C80.9435 47.8399 80.9309 47.819 80.9163 47.8001C80.9142 47.7959 80.9121 47.7938 80.9079 47.7897C80.9037 47.7855 80.9016 47.7813 80.8995 47.7771C80.8849 47.7583 80.8723 47.7394 80.8577 47.7206C80.8514 47.7101 80.843 47.6997 80.8346 47.6892C80.8263 47.6767 80.8179 47.6662 80.8095 47.6536C80.8074 47.6515 80.8053 47.6474 80.8033 47.6453C80.7949 47.6327 80.7844 47.6202 80.7761 47.6097C80.7698 47.6013 80.7635 47.593 80.7572 47.5846C80.7426 47.5637 80.7258 47.5448 80.7112 47.526C80.707 47.5218 80.7049 47.5176 80.7007 47.5113C80.684 47.4904 80.6693 47.4716 80.6526 47.4507C80.6442 47.4381 80.6338 47.4276 80.6233 47.4151C80.6191 47.4088 80.6128 47.4025 80.6065 47.3962C80.6003 47.3879 80.5919 47.3795 80.5856 47.3711C80.5793 47.3628 80.5731 47.3565 80.5668 47.3502C80.5605 47.3418 80.5542 47.3356 80.548 47.3272C80.5438 47.3209 80.5396 47.3167 80.5354 47.3125C80.527 47.3042 80.5208 47.2937 80.5124 47.2853C80.5061 47.2791 80.5019 47.2728 80.4956 47.2665C80.4935 47.2623 80.4894 47.2602 80.4873 47.256C80.4852 47.254 80.4831 47.2498 80.4789 47.2456C80.4622 47.2267 80.4475 47.21 80.4308 47.1912C80.4119 47.1703 80.3931 47.1493 80.3743 47.1284C80.3554 47.1075 80.3366 47.0865 80.3157 47.0656C80.2968 47.0447 80.2759 47.0238 80.2571 47.0049C80.2173 46.9631 80.1796 46.9233 80.1378 46.8836C80.1273 46.8731 80.119 46.8626 80.1085 46.8543C80.098 46.8438 80.0876 46.8354 80.0771 46.825C80.0562 46.8061 80.0373 46.7852 80.0164 46.7664C79.9955 46.7475 79.9746 46.7266 79.9536 46.7078C79.9327 46.689 79.9118 46.6701 79.8909 46.6492C79.8699 46.6304 79.849 46.6115 79.8281 46.5927C79.8113 46.578 79.7925 46.5613 79.7758 46.5467C79.7716 46.5425 79.7674 46.5404 79.7653 46.5362C79.7444 46.5174 79.7235 46.4985 79.7004 46.4818C79.6795 46.465 79.6607 46.4483 79.6397 46.4316C79.6356 46.4274 79.6293 46.4232 79.6251 46.419C79.6125 46.4085 79.6021 46.4002 79.5895 46.3897C79.5874 46.3876 79.5832 46.3855 79.5812 46.3834C79.577 46.3813 79.5749 46.3792 79.5728 46.3751C79.5581 46.3625 79.5435 46.352 79.5288 46.3395C79.5226 46.3353 79.5163 46.329 79.5121 46.3248C79.5121 46.3248 79.51 46.3227 79.5079 46.3207C79.4954 46.3123 79.4849 46.3018 79.4723 46.2934C79.464 46.2872 79.4556 46.2788 79.4451 46.2725C79.4451 46.2725 79.4409 46.2683 79.4389 46.2683C79.4158 46.2516 79.3949 46.2328 79.3719 46.216C79.3489 46.1993 79.3279 46.1825 79.3049 46.1658C79.3028 46.1658 79.3007 46.1616 79.2986 46.1616C79.2798 46.147 79.261 46.1344 79.2421 46.1219C79.2421 46.1219 79.238 46.1177 79.2359 46.1177C79.2296 46.1135 79.2254 46.1093 79.2191 46.1051C79.2128 46.1009 79.2087 46.0967 79.2024 46.0926C79.1961 46.0884 79.1877 46.0821 79.1815 46.0779C79.1773 46.0758 79.1752 46.0737 79.171 46.0695C79.171 46.0695 79.1668 46.0674 79.1647 46.0654C79.1417 46.0486 79.1187 46.034 79.0936 46.0172C79.081 46.0089 79.0705 46.0005 79.058 45.9942C79.0454 45.9858 79.035 45.9796 79.0224 45.9712C79.0161 45.967 79.0099 45.9628 79.0057 45.9586C79.0015 45.9565 78.9994 45.9544 78.9952 45.9524C78.9931 45.9524 78.991 45.9503 78.9889 45.9482C78.9806 45.9419 78.9701 45.9356 78.9617 45.9293C78.9596 45.9293 78.9575 45.9272 78.9534 45.9251C78.9513 45.9251 78.9471 45.921 78.945 45.921C78.9241 45.9063 78.901 45.8938 78.8801 45.8791C78.8676 45.8707 78.8571 45.8645 78.8445 45.8561C78.832 45.8477 78.8215 45.8414 78.809 45.8331C78.809 45.8331 78.8069 45.8331 78.8048 45.831C78.7859 45.8205 78.7671 45.808 78.7483 45.7975C78.7441 45.7954 78.7399 45.7912 78.7357 45.7891C78.7148 45.7766 78.696 45.764 78.675 45.7536C78.6688 45.7494 78.6625 45.7452 78.6562 45.7431C78.6416 45.7347 78.629 45.7264 78.6143 45.7201C78.6102 45.718 78.606 45.7159 78.6018 45.7138C78.5934 45.7096 78.5851 45.7054 78.5788 45.7012C78.5578 45.6887 78.5348 45.6761 78.5139 45.6636C78.493 45.6531 78.4741 45.6406 78.4532 45.6301C78.449 45.628 78.4428 45.6259 78.4386 45.6217C78.4135 45.6092 78.3904 45.5966 78.3674 45.5841C78.3674 45.5841 78.3674 45.5841 78.3653 45.5841C78.3402 45.5715 78.3151 45.5569 78.29 45.5443C78.2712 45.5338 78.2502 45.5255 78.2314 45.515C78.2251 45.5108 78.2188 45.5087 78.2126 45.5066C78.1937 45.4983 78.177 45.4899 78.1582 45.4794C78.1456 45.4731 78.133 45.4669 78.1205 45.4606C78.1037 45.4543 78.0891 45.4459 78.0744 45.4397C78.0682 45.4376 78.064 45.4355 78.0577 45.4313C78.0493 45.4271 78.0389 45.4229 78.0305 45.4187C78.0305 45.4187 78.0138 45.4104 78.0075 45.4083C77.9991 45.4041 77.9907 45.402 77.9824 45.3978C77.9824 45.3978 77.9824 45.3978 77.9803 45.3978C77.974 45.3957 77.9677 45.3915 77.9614 45.3894C77.9405 45.3811 77.9217 45.3706 77.9008 45.3622C77.8966 45.3622 77.8945 45.3601 77.8903 45.3581C77.8715 45.3497 77.8505 45.3413 77.8317 45.3329C77.8275 45.3329 77.8233 45.3288 77.8212 45.3288C77.815 45.3267 77.8087 45.3225 77.8003 45.3204C77.794 45.3183 77.7878 45.3141 77.7815 45.312C77.7689 45.3057 77.7543 45.3016 77.7417 45.2953C77.7166 45.2848 77.6936 45.2764 77.6685 45.266C77.6538 45.2597 77.6413 45.2555 77.6266 45.2492C77.6182 45.2451 77.612 45.243 77.6036 45.2409C77.5994 45.2409 77.5952 45.2367 77.589 45.2346C77.5848 45.2346 77.5827 45.2325 77.5785 45.2304C77.5701 45.2262 77.5597 45.2241 77.5513 45.2199C77.5345 45.2137 77.5178 45.2074 77.499 45.2011C77.4948 45.2011 77.4927 45.199 77.4885 45.1969C77.4655 45.1886 77.4404 45.1802 77.4153 45.1718C77.4153 45.1718 77.4111 45.1718 77.409 45.1718C77.3839 45.1634 77.3567 45.153 77.3316 45.1446C77.3295 45.1446 77.3274 45.1446 77.3253 45.1425C77.3044 45.1362 77.2813 45.1279 77.2604 45.1216C77.2583 45.1216 77.2541 45.1195 77.252 45.1195C77.252 45.1195 77.252 45.1195 77.2499 45.1195C77.2248 45.1111 77.1976 45.1028 77.1725 45.0944C77.1725 45.0944 77.1683 45.0944 77.1662 45.0944C77.16 45.0944 77.1537 45.0902 77.1474 45.0881C77.1411 45.086 77.1328 45.0839 77.1265 45.0818C77.1139 45.0776 77.0993 45.0735 77.0867 45.0693H77.0825C77.0763 45.0693 77.0721 45.0651 77.0658 45.0651C77.0449 45.0588 77.0239 45.0525 77.003 45.0463C76.9905 45.0421 76.9779 45.04 76.9653 45.0358C76.9507 45.0316 76.936 45.0274 76.9214 45.0232C76.9005 45.017 76.8816 45.0128 76.8607 45.0065C76.8523 45.0065 76.844 45.0023 76.8377 45.0002C76.8356 45.0002 76.8314 45.0002 76.8293 44.9981C76.821 44.996 76.8105 44.9939 76.8021 44.9919C76.7833 44.9877 76.7644 44.9814 76.7435 44.9772C76.7121 44.9688 76.6828 44.9626 76.6514 44.9563C76.6242 44.95 76.597 44.9437 76.5698 44.9374C76.5615 44.9374 76.5552 44.9333 76.5468 44.9333C76.5426 44.9333 76.5405 44.9333 76.5384 44.9333C76.5364 44.9333 76.5322 44.9333 76.5301 44.9333C76.5154 44.9291 76.5029 44.927 76.4882 44.9249C76.4861 44.9249 76.484 44.9249 76.4798 44.9249C76.4506 44.9186 76.4213 44.9144 76.392 44.9081C76.3648 44.904 76.3396 44.8977 76.3124 44.8935C76.2915 44.8893 76.2706 44.8851 76.2476 44.883C76.2392 44.883 76.2329 44.8809 76.2245 44.8788C76.2162 44.8788 76.2078 44.8768 76.1994 44.8747C76.1785 44.8705 76.1555 44.8684 76.1346 44.8642C76.1178 44.8621 76.099 44.8579 76.0822 44.8558C76.0676 44.8537 76.0509 44.8516 76.0362 44.8496C76.009 44.8454 75.9818 44.8433 75.9546 44.8391C75.9358 44.837 75.9169 44.8349 75.896 44.8328C75.8876 44.8328 75.8772 44.8307 75.8688 44.8286C75.8688 44.8286 75.8688 44.8286 75.8667 44.8286C75.8583 44.8286 75.8521 44.8286 75.8437 44.8265C75.8437 44.8265 75.8395 44.8265 75.8374 44.8265C75.8186 44.8244 75.7997 44.8223 75.7809 44.8203C75.7579 44.8182 75.7349 44.8161 75.7118 44.814C75.7056 44.814 75.6993 44.814 75.693 44.814C75.6888 44.814 75.6826 44.814 75.6784 44.814C75.6533 44.8119 75.6281 44.8098 75.6051 44.8077C75.5758 44.8056 75.5444 44.8035 75.5151 44.8014C75.4775 44.7993 75.4398 44.7972 75.4021 44.7951C75.3791 44.7951 75.3582 44.7931 75.3352 44.791H75.331C75.3142 44.791 75.2975 44.791 75.2808 44.791C75.2682 44.791 75.2557 44.791 75.2431 44.791H75.241C75.2284 44.791 75.2159 44.791 75.2033 44.791C75.1866 44.791 75.1699 44.791 75.1531 44.791C75.1489 44.791 75.1447 44.791 75.1406 44.791C75.1259 44.791 75.1113 44.791 75.0966 44.791C75.0778 44.791 75.0589 44.791 75.0401 44.791C75.0213 44.791 75.0003 44.791 74.9794 44.791C74.6467 44.791 74.3181 44.8098 73.9938 44.8412C73.9164 44.8496 73.841 44.8558 73.7636 44.8663C73.7259 44.8705 73.6883 44.8747 73.6506 44.8809C73.6129 44.8851 73.5753 44.8914 73.5376 44.8956C73.502 44.8998 73.4685 44.904 73.433 44.9102C73.4288 44.9102 73.4267 44.9102 73.4225 44.9102C73.3472 44.9207 73.2718 44.9333 73.1965 44.9458C73.1588 44.9521 73.1212 44.9584 73.0835 44.9646C73.0646 44.9688 73.0437 44.9709 73.0249 44.9751C73.0061 44.9793 72.9851 44.9835 72.9663 44.9856C72.9182 44.9939 72.87 45.0044 72.8219 45.0149C72.7717 45.0253 72.7215 45.0358 72.6712 45.0463C72.6691 45.0463 72.667 45.0463 72.665 45.0463C72.6147 45.0567 72.5624 45.0693 72.5122 45.0818C72.4599 45.0944 72.4076 45.1069 72.3531 45.1195C72.3239 45.1258 72.2946 45.1341 72.2653 45.1425C72.2067 45.1572 72.1481 45.1739 72.0895 45.1886C72.0602 45.1969 72.0309 45.2053 72.0016 45.2137C71.9723 45.222 71.943 45.2304 71.9137 45.2388C71.8844 45.2471 71.8551 45.2555 71.8279 45.2639C71.8007 45.2723 71.7714 45.2806 71.7442 45.2911C71.7442 45.2911 71.7421 45.2911 71.74 45.2911C71.7128 45.2995 71.6835 45.3078 71.6563 45.3183C71.627 45.3267 71.5998 45.3371 71.5705 45.3476C71.5433 45.356 71.5161 45.3664 71.4889 45.3748C71.468 45.3832 71.4449 45.3894 71.424 45.3978C71.4073 45.4041 71.3884 45.4104 71.3717 45.4166C71.3047 45.4418 71.2357 45.4648 71.1687 45.4899C71.152 45.4962 71.1373 45.5024 71.1206 45.5087C71.1017 45.515 71.0829 45.5234 71.0641 45.5297C71.0306 45.5422 70.9971 45.5569 70.9636 45.5694C70.9448 45.5757 70.926 45.5841 70.9071 45.5924C70.8569 45.6134 70.8067 45.6343 70.7565 45.6552C70.7293 45.6678 70.7 45.6803 70.6728 45.6908C70.6497 45.7012 70.6267 45.7117 70.6016 45.7222C70.5137 45.7619 70.4258 45.8017 70.34 45.8414C70.3149 45.8519 70.2919 45.8645 70.2668 45.877C69.9633 46.0235 69.6683 46.1825 69.3816 46.3562C67.2408 47.6432 65.5751 49.6374 64.7045 52.0167C64.4827 52.6236 64.3132 53.2555 64.2002 53.9063C64.0935 53.2932 64.0391 52.6612 64.0391 52.0167C64.0391 51.3722 64.0935 50.7402 64.2002 50.1271C64.9891 45.5631 68.5885 41.9639 73.1484 41.1729C73.7992 41.2859 74.4311 41.4554 75.038 41.6772C77.4153 42.5477 79.4096 44.2155 80.6944 46.3562C81.6696 47.9801 82.2367 49.876 82.2576 51.9016C82.2576 51.8702 82.2576 51.8409 82.2556 51.8116L82.22 51.7928Z" fill="url(#paint9_linear_2928_15109)"/>
<path d="M76.8915 62.8439C76.2784 62.9506 75.6464 63.005 75.0019 63.005C74.3573 63.005 73.7254 62.9506 73.1122 62.8439C68.5503 62.055 64.953 58.4536 64.1641 53.8896C64.2771 53.2388 64.4466 52.6069 64.6684 52C65.5389 49.6207 67.2047 47.6265 69.3455 46.3395C69.6321 46.1679 69.9272 46.0068 70.2306 45.8603C70.2558 45.8478 70.2788 45.8373 70.3039 45.8248C70.3897 45.7829 70.4776 45.7432 70.5655 45.7055C70.5885 45.695 70.6115 45.6846 70.6366 45.6741C70.6638 45.6615 70.6931 45.649 70.7203 45.6385C70.7705 45.6176 70.8208 45.5967 70.871 45.5757C70.8898 45.5674 70.9087 45.5611 70.9275 45.5527C70.961 45.5402 70.9945 45.5255 71.0279 45.513C71.0468 45.5046 71.0656 45.4983 71.0844 45.492C71.1012 45.4858 71.1158 45.4795 71.1326 45.4732C71.1995 45.4481 71.2665 45.423 71.3356 45.4C71.3523 45.3937 71.3711 45.3874 71.3879 45.3811C71.4088 45.3728 71.4297 45.3665 71.4528 45.3581C71.48 45.3497 71.5072 45.3393 71.5344 45.3309C71.5637 45.3204 71.5909 45.3121 71.6202 45.3016C71.6495 45.2932 71.6767 45.2828 71.7039 45.2744C71.7039 45.2744 71.706 45.2744 71.7081 45.2744L71.7918 45.2472C71.8211 45.2388 71.8504 45.2305 71.8776 45.2221C71.9069 45.2137 71.9362 45.2054 71.9655 45.197C71.9947 45.1886 72.024 45.1802 72.0533 45.1719C72.1119 45.1551 72.1705 45.1405 72.2291 45.1258C72.2584 45.1175 72.2877 45.1112 72.317 45.1028C72.3693 45.0903 72.4216 45.0777 72.4761 45.0651C72.5263 45.0526 72.5786 45.0421 72.6288 45.0296C72.6309 45.0296 72.633 45.0296 72.6351 45.0296C72.6853 45.0191 72.7355 45.0086 72.7858 44.9982C72.8339 44.9877 72.882 44.9793 72.9302 44.9689C72.949 44.9647 72.9699 44.9605 72.9888 44.9584C73.0076 44.9542 73.0285 44.9521 73.0473 44.948C73.085 44.9417 73.1227 44.9354 73.1604 44.9291C73.2357 44.9166 73.311 44.904 73.3864 44.8936C73.3905 44.8936 73.3926 44.8936 73.3968 44.8936C73.4303 44.8894 73.4659 44.8831 73.5015 44.8789C73.5391 44.8747 73.5768 44.8684 73.6145 44.8643C73.6521 44.8601 73.6898 44.8559 73.7275 44.8496C73.8028 44.8412 73.8802 44.8329 73.9577 44.8245C74.2653 44.7952 74.575 44.7785 74.8889 44.7764C70.9924 44.8371 67.8429 47.9864 67.7822 51.887C67.7822 51.8996 67.7822 51.91 67.7822 51.9226C67.7822 51.9498 67.7822 51.9749 67.7822 52.0021C67.7822 52.0293 67.7822 52.0544 67.7822 52.0816C67.7822 52.0942 67.7822 52.1047 67.7822 52.1172C67.8032 54.1449 68.3703 56.0408 69.3455 57.6626C70.6303 59.8033 72.6246 61.4712 75.0019 62.3417C75.6087 62.5635 76.2407 62.733 76.8915 62.846V62.8439Z" fill="url(#paint10_linear_2928_15109)"/>
<path d="M86.0019 51.998C86.0019 52.6425 85.9475 53.2745 85.8408 53.8876C85.0519 58.4516 81.4525 62.0509 76.8905 62.8419C76.2397 62.7289 75.6077 62.5594 75.0009 62.3376C72.6236 61.467 70.6293 59.7992 69.3445 57.6585C68.3693 56.0346 67.8022 54.1387 67.7812 52.1131C67.8419 56.0137 70.9893 59.1631 74.8879 59.2238C74.9004 59.2238 74.9109 59.2238 74.9235 59.2238C74.9507 59.2238 74.9758 59.2238 75.003 59.2238C75.0302 59.2238 75.0553 59.2238 75.0825 59.2238C75.0951 59.2238 75.1055 59.2238 75.1181 59.2238C77.1438 59.2028 79.0376 58.6358 80.6615 57.6585C82.8023 56.3716 84.468 54.3773 85.3386 51.998C85.5604 51.3912 85.7299 50.7592 85.8429 50.1084C85.9496 50.7236 86.004 51.3535 86.004 51.998H86.0019Z" fill="url(#paint11_linear_2928_15109)"/>
</g>
<defs>
<linearGradient id="paint0_linear_2928_15109" x1="0.690418" y1="51.4235" x2="58.3568" y2="51.4235" gradientUnits="userSpaceOnUse">
<stop stop-color="#00C2F3"/>
<stop offset="0.13" stop-color="#00BDEF"/>
<stop offset="0.28" stop-color="#00AFE6"/>
<stop offset="0.39" stop-color="#00A1DD"/>
<stop offset="0.51" stop-color="#009CD8"/>
<stop offset="0.65" stop-color="#0091CA"/>
<stop offset="0.8" stop-color="#007DB3"/>
<stop offset="0.95" stop-color="#006293"/>
<stop offset="1" stop-color="#005989"/>
</linearGradient>
<linearGradient id="paint1_linear_2928_15109" x1="0.689791" y1="51.4233" x2="58.3561" y2="51.4233" gradientUnits="userSpaceOnUse">
<stop stop-color="#00C2F3"/>
<stop offset="0.13" stop-color="#00BDEF"/>
<stop offset="0.28" stop-color="#00AFE6"/>
<stop offset="0.39" stop-color="#00A1DD"/>
<stop offset="0.51" stop-color="#009CD8"/>
<stop offset="0.65" stop-color="#0091CA"/>
<stop offset="0.8" stop-color="#007DB3"/>
<stop offset="0.95" stop-color="#006293"/>
<stop offset="1" stop-color="#005989"/>
</linearGradient>
<linearGradient id="paint2_linear_2928_15109" x1="0.688713" y1="51.4235" x2="58.355" y2="51.4235" gradientUnits="userSpaceOnUse">
<stop stop-color="#00C2F3"/>
<stop offset="0.13" stop-color="#00BDEF"/>
<stop offset="0.28" stop-color="#00AFE6"/>
<stop offset="0.39" stop-color="#00A1DD"/>
<stop offset="0.51" stop-color="#009CD8"/>
<stop offset="0.65" stop-color="#0091CA"/>
<stop offset="0.8" stop-color="#007DB3"/>
<stop offset="0.95" stop-color="#006293"/>
<stop offset="1" stop-color="#005989"/>
</linearGradient>
<linearGradient id="paint3_linear_2928_15109" x1="71.2068" y1="51.9985" x2="74.2118" y2="51.9985" gradientUnits="userSpaceOnUse">
<stop stop-color="#005989"/>
<stop offset="0.1" stop-color="#006799"/>
<stop offset="0.35" stop-color="#0086BD"/>
<stop offset="0.55" stop-color="#0099D3"/>
<stop offset="0.68" stop-color="#00A0DC"/>
<stop offset="0.69" stop-color="#00A1DD"/>
<stop offset="0.88" stop-color="#00B7EC"/>
<stop offset="1" stop-color="#00C0F2"/>
</linearGradient>
<linearGradient id="paint4_linear_2928_15109" x1="77.6721" y1="51.9985" x2="72.0177" y2="51.9985" gradientUnits="userSpaceOnUse">
<stop stop-color="#005989"/>
<stop offset="0.28" stop-color="#007FAF"/>
<stop offset="0.59" stop-color="#00A2D3"/>
<stop offset="0.84" stop-color="#00B8E9"/>
<stop offset="1" stop-color="#00C0F2"/>
</linearGradient>
<linearGradient id="paint5_linear_2928_15109" x1="64.46" y1="50.7507" x2="79.573" y2="45.8413" gradientUnits="userSpaceOnUse">
<stop stop-color="#005989"/>
<stop offset="0.07" stop-color="#006799"/>
<stop offset="0.26" stop-color="#0086BD"/>
<stop offset="0.4" stop-color="#0099D3"/>
<stop offset="0.5" stop-color="#00A0DC"/>
<stop offset="0.67" stop-color="#00A4DF"/>
<stop offset="0.87" stop-color="#00B2E8"/>
<stop offset="1" stop-color="#00C0F2"/>
</linearGradient>
<linearGradient id="paint6_linear_2928_15109" x1="68.607" y1="47.3942" x2="76.1842" y2="66.1482" gradientUnits="userSpaceOnUse">
<stop stop-color="#00C0F2"/>
<stop offset="0.02" stop-color="#00BEF0"/>
<stop offset="0.24" stop-color="#00A8E1"/>
<stop offset="0.39" stop-color="#00A0DC"/>
<stop offset="0.48" stop-color="#0091CB"/>
<stop offset="0.7" stop-color="#0072A7"/>
<stop offset="0.88" stop-color="#005F91"/>
<stop offset="1" stop-color="#005989"/>
</linearGradient>
<linearGradient id="paint7_linear_2928_15109" x1="70.3387" y1="57.759" x2="86.8455" y2="55.4382" gradientUnits="userSpaceOnUse">
<stop stop-color="#00C0F2"/>
<stop offset="0.02" stop-color="#00BEF0"/>
<stop offset="0.24" stop-color="#00A8E1"/>
<stop offset="0.39" stop-color="#00A0DC"/>
<stop offset="0.48" stop-color="#0091CB"/>
<stop offset="0.7" stop-color="#0072A7"/>
<stop offset="0.88" stop-color="#005F91"/>
<stop offset="1" stop-color="#005989"/>
</linearGradient>
<linearGradient id="paint8_linear_2928_15109" x1="81.3167" y1="57.0748" x2="75.6689" y2="39.6936" gradientUnits="userSpaceOnUse">
<stop stop-color="#00C0F2"/>
<stop offset="0.02" stop-color="#00BEF0"/>
<stop offset="0.24" stop-color="#00A8E1"/>
<stop offset="0.39" stop-color="#00A0DC"/>
<stop offset="0.48" stop-color="#0091CB"/>
<stop offset="0.7" stop-color="#0072A7"/>
<stop offset="0.88" stop-color="#005F91"/>
<stop offset="1" stop-color="#005989"/>
</linearGradient>
<linearGradient id="paint9_linear_2928_15109" x1="64.4639" y1="50.7507" x2="79.5769" y2="45.8413" gradientUnits="userSpaceOnUse">
<stop stop-color="#005989"/>
<stop offset="0.07" stop-color="#006799"/>
<stop offset="0.26" stop-color="#0086BD"/>
<stop offset="0.4" stop-color="#0099D3"/>
<stop offset="0.5" stop-color="#00A0DC"/>
<stop offset="0.67" stop-color="#00A4DF"/>
<stop offset="0.87" stop-color="#00B2E8"/>
<stop offset="1" stop-color="#00C0F2"/>
</linearGradient>
<linearGradient id="paint10_linear_2928_15109" x1="68.6109" y1="47.3942" x2="76.1881" y2="66.1482" gradientUnits="userSpaceOnUse">
<stop stop-color="#00C0F2"/>
<stop offset="0.02" stop-color="#00BEF0"/>
<stop offset="0.24" stop-color="#00A8E1"/>
<stop offset="0.39" stop-color="#00A0DC"/>
<stop offset="0.48" stop-color="#0091CB"/>
<stop offset="0.7" stop-color="#0072A7"/>
<stop offset="0.88" stop-color="#005F91"/>
<stop offset="1" stop-color="#005989"/>
</linearGradient>
<linearGradient id="paint11_linear_2928_15109" x1="70.3427" y1="57.759" x2="86.8494" y2="55.4382" gradientUnits="userSpaceOnUse">
<stop stop-color="#00C0F2"/>
<stop offset="0.02" stop-color="#00BEF0"/>
<stop offset="0.24" stop-color="#00A8E1"/>
<stop offset="0.39" stop-color="#00A0DC"/>
<stop offset="0.48" stop-color="#0091CB"/>
<stop offset="0.7" stop-color="#0072A7"/>
<stop offset="0.88" stop-color="#005F91"/>
<stop offset="1" stop-color="#005989"/>
</linearGradient>
</defs>
</svg>
